<?xml version="1.0" standalone="no"?>
<!DOCTYPE svg PUBLIC "-//W3C//DTD SVG 1.1//EN" "http://www.w3.org/Graphics/SVG/1.1/DTD/svg11.dtd" >
<svg xmlns="http://www.w3.org/2000/svg" xmlns:xlink="http://www.w3.org/1999/xlink" version="1.1">
<metadata>
Created by FontForge 20170731 at Sun Jul  5 22:04:49 2020
 By Aleksey,,,
Araboto (c) (Abd El-Rahman Farahat). 2019. All Rights Reserved
</metadata>
<defs>
<font id="Araboto-Normal" horiz-adv-x="0" >
  <font-face 
    font-family="Araboto-Normal"
    font-weight="400"
    font-stretch="normal"
    units-per-em="2048"
    panose-1="2 0 5 0 0 0 0 0 0 0"
    ascent="1599"
    descent="-449"
    x-height="1082"
    cap-height="1456"
    bbox="-1825 -831 4187 2163"
    underline-thickness="150"
    underline-position="-442"
    unicode-range="U+000D-1F16B"
  />
<missing-glyph horiz-adv-x="1024" 
d="M100 1434h824v-1434h-824v1434zM874 50v1334h-724v-1334h724zM325 1103v45q31 28 58 43q53 30 112 30q92 0 148 -47.5t56 -127.5q0 -49 -23 -98.5t-87 -129.5q-63 -80 -99 -132t-36 -99q0 -38 24 -133h-32q-35 97 -35 148q0 76 81.5 218t81.5 217q0 57 -33 90t-91 33
q-38 0 -69 -17q-26 -15 -56 -40zM378 312q0 10 11 22l57 58q11 10 20 10q10 0 22 -11l56 -60q9 -11 9 -20q0 -11 -10 -22l-56 -62q-14 -14 -21 -14q-11 0 -20 10l-61 71q-7 9 -7 18z" />
    <glyph glyph-name="f_f" unicode="ff" horiz-adv-x="1267" 
d="M231 0v939h-171v143h171v111q0 174 93 269t263 95q64 0 127 -17l-10 -150q-47 9 -100 9q-90 0 -139 -52.5t-49 -150.5v-114h231v-143h-231v-939h-185zM787 0v939h-171v143h171v111q0 174 93 269t263 95q64 0 127 -17l-10 -150q-47 9 -100 9q-90 0 -139 -52.5t-49 -150.5
v-114h231v-143h-231v-939h-185z" />
    <glyph glyph-name="fi" unicode="fi" horiz-adv-x="1134" 
d="M202 0v939h-171v143h171v92q0 181 103.5 282t292.5 101q112 0 283 -61l-31 -156q-125 50 -238 50q-119 0 -171.5 -53.5t-52.5 -160.5v-94h221v-143h-221v-939h-186zM973 0h-186v1082h186v-1082z" />
    <glyph glyph-name="fl" unicode="fl" horiz-adv-x="1163" 
d="M816 1379q-124 20 -200 20q-200 0 -200 -210v-107h231v-143h-231v-939h-185v939h-171v143h171v118q1 173 97 265t273 92q101 0 400 -61v-1496h-185v1379z" />
    <glyph glyph-name="f_f_i" unicode="ffi" horiz-adv-x="1748" 
d="M231 0v939h-171v143h171v111q0 174 93 269t263 95q64 0 127 -17l-10 -150q-47 9 -100 9q-90 0 -139 -52.5t-49 -150.5v-114h400v92q0 181 103.5 282t292.5 101q112 0 283 -61l-31 -156q-125 50 -239 50q-119 0 -171.5 -53t-52.5 -161v-94h222v-143h-222v-939h-185v939
h-400v-939h-185zM1586 0h-185v1082h185v-1082z" />
    <glyph glyph-name="f_f_l" unicode="ffl" horiz-adv-x="1748" 
d="M231 0v939h-171v143h171v111q0 174 93 269t263 95q64 0 127 -17l-10 -150q-47 9 -100 9q-90 0 -139 -52.5t-49 -150.5v-114h400v118q1 173 97 265t273 92q101 0 400 -61v-1496h-185v1379q-124 20 -200 20q-200 0 -200 -210v-107h231v-143h-231v-939h-185v939h-400v-939
h-185z" />
    <glyph glyph-name="uniFDF2" unicode="&#xfedf;&#xfee0;&#xfeea;" horiz-adv-x="2742" arabic-form="isolated" 
d="M289 811q140 180 369 180h227q66 0 66 68v14h170v-758q0 -59 43 -106q43 -39 102 -43h361v1370h185v-961q0 -169 57 -272q74 -137 242 -137h297v1370h184v-1536h-491q-192 6 -289 158v-158h-546q-96 0 -176 53q-78 53 -115 140l-16 -17l-18 -16q-125 -97 -285 -97
q-62 0 -121 15q-119 31 -207 121q-90 88 -121 207q-17 65 -17 127q0 150 99 278zM373 449q43 -164 205 -205q42 -11 82 -11q95 0 176 62q115 88 115 231v305q-37 -10 -66 -10h-227q-145 0 -234 -114q-62 -81 -62 -176q0 -40 11 -82z" />
    <glyph glyph-name="uniFEF5" unicode="&#xfedf;&#xfe82;" horiz-adv-x="1349" arabic-form="isolated" 
d="M166 166h404l-201 1114h184l201 -1114h258v1370h187v-1536h-1033v166zM150 1606q27 24 55 39q37 20 82 26q24 4 47 4q22 0 43 -4q29 -6 58 -22l24 -15q41 -26 80 -26q9 0 19 2q51 8 106 61l23 21l73 -82l-20 -19l-12 -14l-17 -12q-16 -17 -35 -27q-45 -29 -102 -37
q-23 -4 -43 -4q-41 0 -76 14q-14 7 -31 15l-43 26q-23 13 -50 13q-12 0 -25 -2q-47 -7 -82 -39z" />
    <glyph glyph-name="uniFEF6" unicode="&#xfee0;&#xfe82;" horiz-adv-x="1432" arabic-form="final" 
d="M150 0v166h404l-201 1114h184l203 -1114h258v1370h185v-981q4 -166 61 -262q76 -127 238 -127v-166q-199 0 -299 156v-156h-1033zM222 1462v92h74q-19 37 -19 75q0 21 6 42q19 68 80 101q39 22 81 22q22 0 44 -6q68 -21 101 -80l-82 -45q-15 27 -43 35q-11 3 -21 3
q-18 0 -35 -9q-26 -17 -34 -45q-3 -11 -3 -21q0 -18 9 -35q20 -37 63 -37h162v-92h-383z" />
    <glyph glyph-name="uniFEF7" unicode="&#xfedf;&#xfe84;" horiz-adv-x="1332" arabic-form="isolated" 
d="M150 166h403l-200 1114h184l203 -1114h258v1370h184v-1536h-1032v166zM312 1554q-20 38 -20 77q0 20 5 40q19 66 80 101q40 21 82 21q21 0 43 -5q66 -19 101 -80l-80 -45q-17 27 -45 35q-11 3 -21 3q-18 0 -35 -9q-26 -17 -34 -45q-3 -11 -3 -21q0 -18 9 -35
q22 -37 63 -37h162v-94h-381v94h74z" />
    <glyph glyph-name="uniFEF8" unicode="&#xfee0;&#xfe84;" horiz-adv-x="1432" arabic-form="final" 
d="M150 0v166h404l-201 1114h184l203 -1114h258v1370h185v-981q4 -166 61 -262q76 -127 238 -127v-166q-199 0 -299 156v-156h-1033zM222 1462v92h74q-19 37 -19 75q0 21 6 42q19 68 80 101q39 22 81 22q22 0 44 -6q68 -21 101 -80l-82 -45q-15 27 -43 35q-11 3 -21 3
q-18 0 -35 -9q-26 -17 -34 -45q-3 -11 -3 -21q0 -18 9 -35q20 -37 63 -37h162v-92h-383z" />
    <glyph glyph-name="uniFEF9" unicode="&#xfedf;&#xfe88;" horiz-adv-x="1332" arabic-form="isolated" 
d="M150 0v168h403l-200 1114h184l203 -1114h258v1368h184v-1536h-1032zM529 -326q-18 38 -18 75q0 22 6 44q18 66 77 101q38 20 80 20q23 0 47 -6q66 -19 101 -78l-82 -45q-15 25 -45 33q-11 3 -21 3q-18 0 -35 -9q-26 -15 -32 -43q-3 -11 -3 -21q0 -19 9 -37q20 -35 61 -37
h164v-92h-383v92h74z" />
    <glyph glyph-name="uniFEFA" unicode="&#xfee0;&#xfe88;" horiz-adv-x="1432" arabic-form="final" 
d="M554 166l-201 1114h184l203 -1114h258v1370h185v-981q4 -166 61 -262q76 -127 238 -127v-166q-199 0 -299 156v-156h-1033v166h404zM441 -326h74q-18 38 -18 75q0 22 6 44q18 66 77 101q38 20 80 20q23 0 47 -6q66 -19 101 -78l-82 -45q-15 25 -43 33q-11 3 -22 3
q-19 0 -36 -9q-26 -15 -32 -43q-3 -11 -3 -21q0 -19 9 -37q20 -35 63 -37h162v-92h-383v92z" />
    <glyph glyph-name="uniFEFB" unicode="&#xfedf;&#xfe8e;" horiz-adv-x="1333" arabic-form="isolated" 
d="M150 166h404l-201 1114h184l201 -1114h258v1370h187v-1536h-1033v166z" />
    <glyph glyph-name="uniFEFC" unicode="&#xfee0;&#xfe8e;" horiz-adv-x="1432" arabic-form="final" 
d="M150 0v166h404l-201 1114h184l203 -1114h258v1370h185v-981q4 -166 61 -262q76 -127 238 -127v-166q-199 0 -299 156v-156h-1033z" />
    <glyph glyph-name="uni0621" unicode="&#x621;" horiz-adv-x="991" arabic-form="isolated" 
d="M150 166h92l-4 4q-44 78 -44 162q0 46 13 94q38 135 159 204q80 44 163 44q45 0 92 -13q135 -38 204 -159l-145 -81q-35 62 -101 81q-24 7 -47 7q-43 0 -84 -24q-61 -33 -80 -101q-8 -26 -8 -51q0 -41 22 -80q50 -87 147 -87h312v-166h-691v166z" />
    <glyph glyph-name="uni0622" unicode="&#x622;" horiz-adv-x="743" arabic-form="isolated" 
d="M279 1536h185v-1536h-185v1536zM137 1850q37 18 82 26q24 4 47 4q22 0 43 -4q29 -6 58 -22l24 -17q42 -25 81 -25q9 0 18 1q51 8 106 61l23 23l73 -82l-32 -33l-17 -14q-18 -15 -35 -25q-45 -29 -102 -39q-23 -4 -43 -4q-41 0 -76 14q-14 6 -31 15l-43 28q-22 13 -53 13
q-10 0 -22 -2q-47 -9 -82 -39l-74 82q29 24 55 39z" />
    <glyph glyph-name="uni0623" unicode="&#x623;" horiz-adv-x="743" arabic-form="isolated" 
d="M279 0v1536h185v-1536h-185zM180 1700v92h74q-19 39 -19 77q0 21 6 42q19 66 78 100q39 21 81 21q22 0 46 -6q66 -19 101 -78l-82 -45q-15 24 -43 33q-11 3 -21 3q-19 0 -37 -10q-26 -14 -32 -43q-3 -11 -3 -22q0 -18 9 -35q20 -35 63 -37h162v-92h-383z" />
    <glyph glyph-name="uni0624" unicode="&#x624;" horiz-adv-x="1320" arabic-form="isolated" 
d="M150 512q0 211 150 360q149 150 360 150t361 -150q149 -149 149 -360v-426q-2 -57 -10 -86q-45 -166 -209 -276q-201 -138 -518 -138v168q225 0 372 72q138 65 175 174h-320q-211 0 -360 150q-150 151 -150 362zM334 512q0 -143 93 -244q94 -102 233 -102h326v346
q0 141 -92 242q-95 102 -234 102t-233 -102q-93 -101 -93 -242zM803 1202h-383v92h74q-18 37 -18 74q0 21 6 43q18 68 78 100q40 23 83 23q22 0 44 -6q65 -19 100 -80l-82 -45q-14 27 -43 35q-11 3 -21 3q-17 0 -34 -9q-27 -17 -35 -46q-3 -10 -3 -20q0 -18 9 -35
q21 -37 64 -37h161v-92z" />
    <glyph glyph-name="uni0625" unicode="&#x625;" horiz-adv-x="743" arabic-form="isolated" 
d="M279 1536h185v-1536h-185v1536zM180 -360h74q-19 39 -19 77q0 21 6 42q19 66 78 100q39 21 81 21q22 0 46 -6q66 -19 101 -78l-82 -45q-15 24 -43 33q-11 3 -21 3q-19 0 -37 -10q-26 -14 -32 -43q-3 -11 -3 -22q0 -18 9 -35q20 -35 63 -37h162v-92h-383v92z" />
    <glyph glyph-name="uni0626" unicode="&#x626;" horiz-adv-x="2017" arabic-form="isolated" 
d="M156 182q5 145 181 314l120 -124q-64 -61 -100 -130t-36 -121q0 -47 21 -98q56 -140 246 -230.5t434 -90.5q278 0 428.5 84.5t199.5 179.5q26 52 26 96q0 45 -27 82q-28 38 -102 58t-154 35q-132 22 -272.5 71t-170.5 201q-8 35 -8 70q0 139 124 259q163 160 432 160
q118 0 257 -31l-39 -167q-122 32 -222 32q-193 0 -307 -117q-58 -58 -58 -131q0 -20 4 -41q12 -62 87.5 -89t204.5 -49q108 -20 213 -50t164 -110q62 -85 62 -181q0 -83 -47 -175q-86 -167 -298 -260.5t-497 -93.5q-300 0 -532 116.5t-308 307.5q-27 66 -27 179q0 21 1 44z
M206 830h74q-19 38 -19 75q0 22 6 43q19 66 79 101q38 21 80 21q23 0 47 -6q66 -20 101 -78l-83 -46q-12 23 -43 34q-10 3 -20 3q-19 0 -36 -10q-28 -14 -35 -44q-3 -11 -3 -21q0 -18 10 -35q20 -37 63 -37h163v-93h-384v93z" />
    <glyph glyph-name="uni0627" unicode="&#x627;" horiz-adv-x="743" arabic-form="isolated" 
d="M279 1536h185v-1536h-185v1536z" />
    <glyph glyph-name="uni0628" unicode="&#x628;" horiz-adv-x="1736" arabic-form="isolated" 
d="M379 866l97 -157q-140 -84 -140 -248q0 -123 86 -207q90 -88 234 -88h745v793h185v-959h-955q-209 0 -348 135q-133 131 -133 326q0 270 229 405zM838 -278q0 45 27 75q28 33 82 33q53 0 82 -33q28 -30 28 -75q0 -46 -28 -74q-29 -31 -82 -31q-54 0 -82 31q-27 28 -27 74
z" />
    <glyph glyph-name="uni0629" unicode="&#x629;" horiz-adv-x="1222" arabic-form="isolated" 
d="M100 510q0 213 150 362q149 150 360 150q213 0 363 -150q149 -149 149 -362q0 -211 -149 -360q-150 -150 -363 -150q-211 0 -360 150q-150 149 -150 360zM379 268q94 -102 231 -102q139 0 236 102q92 101 92 242q0 143 -92 244q-97 102 -236 102q-137 0 -231 -102
q-92 -101 -92 -244q0 -141 92 -242zM665 1278q0 45 29 76q27 30 80 30q55 0 82 -30q29 -31 29 -76t-29 -76q-27 -31 -82 -31q-53 0 -80 31q-29 31 -29 76zM364 1354q29 30 82 30q54 0 82 -30q29 -31 29 -76t-29 -76q-28 -31 -82 -31q-53 0 -82 31q-26 31 -26 76t26 76z" />
    <glyph glyph-name="uni062A" unicode="&#x62a;" horiz-adv-x="1736" arabic-form="isolated" 
d="M380 868l96 -159q-139 -84 -139 -246q0 -125 86 -209q90 -88 233 -88h746v795h184v-961h-955q-208 0 -348 135q-133 133 -133 328q0 268 230 405zM695 1247q27 31 82 31q53 0 82 -31q28 -30 28 -76q0 -45 -28 -75q-29 -29 -82 -29q-55 0 -82 29q-27 30 -27 75q0 46 27 76
zM1023 1247q28 31 82 31q55 0 81 -31q29 -30 29 -76q0 -45 -29 -75q-26 -29 -81 -29q-54 0 -82 29q-27 30 -27 75q0 46 27 76z" />
    <glyph glyph-name="uni062B" unicode="&#x62b;" horiz-adv-x="1735" arabic-form="isolated" 
d="M379 868l96 -159q-139 -84 -139 -246q0 -125 86 -209q90 -88 233 -88h746v795h184v-961h-954q-209 0 -346 135q-135 133 -135 328q0 268 229 405zM832 1442q0 45 26 76q29 30 82 30t82 -30q29 -31 29 -76t-29 -76q-29 -29 -82 -29t-82 29q-26 31 -26 76zM694 1247
q29 31 82 31t82 -31q29 -30 29 -76q0 -45 -29 -75q-29 -29 -82 -29t-82 29q-26 30 -26 75q0 46 26 76zM995 1171q0 46 29 76q27 31 80 31q55 0 82 -31q28 -30 28 -76q0 -45 -28 -75q-27 -29 -82 -29q-53 0 -80 29q-29 30 -29 75z" />
    <glyph glyph-name="uni062C" unicode="&#x62c;" horiz-adv-x="1645" arabic-form="isolated" 
d="M285 59q133 107 340 107h524q-98 135 -98 350q0 139 -90 240q-88 102 -213 102q-84 0 -158 -51q-69 -51 -110 -135l-154 76q61 126 174 200q115 76 248 76q194 0 334 -150q139 -149 139 -358q0 -164 70 -256q71 -94 204 -94v-166h-870q-121 0 -199 -49q-90 -57 -90 -168
q0 -121 94 -176q74 -43 195 -45h11q114 0 202 39q35 16 74 43l65 45l99 -140l-37 -26l-41 -27q-49 -28 -97 -49q-120 -51 -272 -51h-6q-213 2 -342 104q-131 107 -131 283q0 170 135 276zM1164 -190q26 30 81 30q54 0 82 -30q29 -31 29 -76t-29 -76q-28 -31 -82 -31
q-55 0 -81 31q-27 31 -27 76t27 76z" />
    <glyph glyph-name="uni062D" unicode="&#x62d;" horiz-adv-x="1645" arabic-form="isolated" 
d="M285 59q133 107 340 107h524q-98 135 -98 350q0 139 -90 240q-88 102 -213 102q-84 0 -158 -51q-69 -51 -110 -135l-154 76q61 126 174 200q115 76 248 76q194 0 334 -150q139 -149 139 -358q0 -164 70 -256q71 -94 204 -94v-166h-870q-121 0 -199 -49q-90 -57 -90 -168
q0 -121 94 -176q74 -43 195 -45h11q114 0 202 39q35 16 74 43l65 45l99 -140l-37 -26l-41 -27q-49 -28 -97 -49q-120 -51 -272 -51h-6q-213 2 -342 104q-131 107 -131 283q0 170 135 276z" />
    <glyph glyph-name="uni062E" unicode="&#x62e;" horiz-adv-x="1645" arabic-form="isolated" 
d="M285 59q133 107 340 107h526q-100 135 -100 350q0 139 -90 240q-88 102 -213 102q-84 0 -158 -51q-70 -51 -111 -135l-153 76q61 126 174 200q115 76 248 76q194 0 334 -150q139 -149 139 -358q0 -164 70 -256q71 -94 204 -94v-166h-870q-121 0 -199 -49
q-92 -57 -92 -168q0 -121 96 -176q74 -43 195 -45h11q114 0 202 39q35 16 74 43l65 45l98 -140l-36 -26l-41 -27q-50 -28 -97 -49q-120 -51 -272 -51h-6q-213 2 -342 104q-131 107 -131 283q0 170 135 276zM641 1339q0 45 29 76q27 33 82 33q53 0 82 -33q26 -31 26 -76
t-26 -73q-29 -31 -82 -31q-55 0 -82 31q-29 28 -29 73z" />
    <glyph glyph-name="uni062F" unicode="&#x62f;" horiz-adv-x="1132" arabic-form="isolated" 
d="M150 0v166h647v151q0 64 -8 113q-10 74 -37 139q-73 172 -264 293l80 156q244 -154 346 -389q39 -86 55 -180q13 -68 13 -132v-317h-832z" />
    <glyph glyph-name="uni0630" unicode="&#x630;" horiz-adv-x="1132" arabic-form="isolated" 
d="M150 0v166h647v151q0 64 -8 113q-10 74 -37 139q-73 172 -264 293l80 156q244 -154 346 -389q39 -86 55 -180q13 -68 13 -132v-317h-832zM359 1274q0 45 27 76q28 30 82 30q53 0 82 -30q28 -31 28 -76t-28 -74q-29 -31 -82 -31q-56 0 -82 31q-27 29 -27 74z" />
    <glyph glyph-name="uni0631" unicode="&#x631;" horiz-adv-x="504" arabic-form="isolated" 
d="M-120 -385q340 207 340 573v773h184v-773q0 -454 -434 -718z" />
    <glyph glyph-name="uni0632" unicode="&#x632;" horiz-adv-x="521" arabic-form="isolated" 
d="M-120 -385q340 207 340 573v773h184v-773q0 -454 -434 -718zM202 1268q0 45 27 75q28 33 82 33q53 0 82 -33q28 -30 28 -75t-28 -74q-27 -31 -82 -31q-54 0 -82 31q-27 31 -27 74z" />
    <glyph glyph-name="uni0633" unicode="&#x633;" horiz-adv-x="2627" arabic-form="isolated" 
d="M367 600l107 -133q-140 -113 -140 -320q0 -172 115 -290q115 -121 283 -121t282 121q113 118 113 290v687h186v-259q0 -169 56 -274q75 -135 243 -135h99v668h184v-320q10 -149 70 -238q75 -110 227 -110h98v795h187v-961h-285q-197 0 -297 154v-154h-283
q-198 0 -299 158v-11q0 -241 -172 -409q-170 -168 -409 -168q-242 0 -412 168t-170 409q0 279 217 453z" />
    <glyph glyph-name="uni0634" unicode="&#x634;" horiz-adv-x="2627" arabic-form="isolated" 
d="M367 600l107 -133q-140 -113 -140 -320q0 -172 115 -290q115 -121 283 -121t282 121q113 118 113 290v687h186v-259q0 -169 56 -274q75 -135 243 -135h99v668h184v-320q10 -149 70 -238q75 -110 227 -110h98v795h187v-961h-285q-197 0 -297 154v-154h-283
q-198 0 -299 158v-11q0 -241 -172 -409q-170 -168 -409 -168q-242 0 -412 168t-170 409q0 279 217 453zM1522 1268q0 45 27 75q28 33 82 33q53 0 82 -33q28 -30 28 -75t-28 -74q-27 -31 -82 -31q-54 0 -82 31q-27 31 -27 74zM1879 1343q26 33 81 33q54 0 82 -33
q27 -30 27 -75t-27 -74q-28 -31 -82 -31q-55 0 -81 31q-29 31 -29 74q0 45 29 75zM1715 1614q26 33 80 33q55 0 81 -33q29 -31 29 -76t-29 -74q-26 -30 -81 -30q-54 0 -80 30q-29 29 -29 74t29 76z" />
    <glyph glyph-name="uni0635" unicode="&#x635;" horiz-adv-x="2614" arabic-form="isolated" 
d="M150 203q0 278 217 452l107 -133q-140 -112 -140 -319q0 -172 115 -291q115 -121 283 -121t282 121q113 119 113 291v686h186v-217q326 223 559 278q85 21 164 21q134 0 252 -60q176 -86 176 -323v-588h-1190q-63 -166 -209 -270q-149 -105 -333 -105q-242 0 -412 168
t-170 410zM2280 168v420q0 131 -84 178q-14 8 -31 14q-20 8 -47 13q-36 8 -79 8q-37 0 -79 -6q-256 -37 -647 -281v-311l-4 -35h971z" />
    <glyph glyph-name="uni0636" unicode="&#x636;" horiz-adv-x="2614" arabic-form="isolated" 
d="M150 203q0 278 217 452l107 -133q-140 -112 -140 -319q0 -172 115 -291q115 -121 283 -121t282 121q113 119 113 291v686h186v-217q326 223 559 278q85 21 164 21q134 0 252 -60q176 -86 176 -323v-588h-1190q-63 -166 -209 -270q-149 -105 -333 -105q-242 0 -412 168
t-170 410zM2280 168v420q0 131 -84 178q-14 8 -31 14q-20 8 -47 13q-36 8 -79 8q-37 0 -79 -6q-256 -37 -647 -281v-311l-4 -35h971zM1612 1354q29 30 82 30q55 0 82 -30q29 -31 29 -76t-29 -76q-27 -28 -82 -28q-53 0 -82 28q-26 31 -26 76t26 76z" />
    <glyph glyph-name="uni0637" unicode="&#x637;" horiz-adv-x="1756" arabic-form="isolated" 
d="M150 166h104v1370h185v-874q334 229 571 286q87 22 169 22q133 0 251 -59q176 -88 176 -323v-588h-1456v166zM439 166h981v422q0 131 -82 176l-14 8l-17 6q-22 10 -49 15q-34 7 -74 7t-86 -7q-260 -39 -659 -289v-338z" />
    <glyph glyph-name="uni0638" unicode="&#x638;" horiz-adv-x="1756" arabic-form="isolated" 
d="M150 166h104v1370h185v-874q334 229 571 286q87 22 169 22q133 0 251 -59q176 -88 176 -323v-588h-1456v166zM1420 166v422q0 131 -82 176l-14 8l-17 6q-22 10 -49 15q-34 7 -74 7t-86 -7q-260 -39 -659 -289v-338h981zM793 1354q27 30 80 30q55 0 82 -30q29 -31 29 -76
t-29 -76q-27 -31 -82 -31q-53 0 -80 31q-29 31 -29 76t29 76z" />
    <glyph glyph-name="uni0639" unicode="&#x639;" horiz-adv-x="1463" arabic-form="isolated" 
d="M150 -217q0 141 98 244q97 96 256 127l-12 12q-45 39 -72 88q-67 119 -67 245q0 69 20 140q56 197 248 305q119 68 246 68q68 0 139 -19q205 -57 307 -239l-147 -86q-70 125 -205 163q-47 14 -92 14q-85 0 -164 -48q-141 -86 -160 -203q-6 -42 -6 -81q0 -98 39 -175
q61 -119 203 -162q41 -10 90 -10h440v-166h-686q-121 0 -196 -49q-93 -57 -93 -168q0 -121 95 -176q73 -45 194 -45h11q114 0 202 39q35 16 74 43l65 45l99 -140l-37 -26l-41 -27q-49 -28 -96 -49q-121 -51 -273 -51h-6q-213 2 -342 104q-131 107 -131 283z" />
    <glyph glyph-name="uni063A" unicode="&#x63a;" horiz-adv-x="1463" arabic-form="isolated" 
d="M248 27q97 96 256 127l-12 12q-45 39 -72 88q-67 119 -67 245q0 69 20 140q56 197 248 305q119 68 246 68q68 0 139 -19q205 -57 307 -239l-147 -86q-70 125 -205 163q-47 14 -92 14q-85 0 -164 -48q-141 -86 -160 -203q-6 -42 -6 -81q0 -98 39 -175q61 -119 203 -162
q41 -10 90 -10h440v-166h-686q-121 0 -196 -49q-93 -57 -93 -168q0 -121 95 -176q73 -45 194 -45h11q114 0 202 39q35 16 74 43l65 45l99 -140l-37 -26l-41 -27q-49 -28 -96 -49q-121 -51 -273 -51h-6q-213 2 -342 104q-131 107 -131 283q0 141 98 244zM730 1341q0 45 26 76
q29 31 82 31t82 -31t29 -76t-29 -75q-29 -31 -82 -31t-82 31q-26 30 -26 75z" />
    <glyph glyph-name="uni0641" unicode="&#x641;" horiz-adv-x="2225" arabic-form="isolated" 
d="M150 463q0 268 230 405l96 -159q-139 -84 -139 -246q0 -125 86 -209q90 -88 233 -88h532q-135 147 -135 346q0 211 150 360q149 150 360 150t363 -150q149 -149 149 -360v-512h-1444q-211 0 -348 135q-133 133 -133 328zM1236 512q0 -145 90 -244q92 -102 237 -102h326
v346q0 141 -92 242q-94 102 -234 102q-139 0 -233 -102q-94 -101 -94 -242zM1481 1419q29 31 82 31q54 0 82 -31q29 -33 29 -76q0 -45 -29 -75q-28 -31 -82 -31q-53 0 -82 31q-26 28 -26 75q0 46 26 76z" />
    <glyph glyph-name="uni0642" unicode="&#x642;" horiz-adv-x="1866" arabic-form="isolated" 
d="M295 653l124 -136q-90 -143 -90 -323q0 -255 180.5 -435.5t435.5 -180.5q256 0 436 181q102 102 146 227q1 7 1 14h-326q-211 2 -360 152q-148 149 -148 360t150 360q149 150 360 150t361 -150q149 -149 149 -360q0 -41 2 -115v-362q0 -12 -2.5 -39.5t-10.5 -52.5
q-57 -174 -195 -312q-233 -233 -563 -233q-329 0 -562 233t-233 563q0 260 145 459zM879 512q0 -143 88 -242q92 -102 237 -104h326v346q0 143 -92 242q-95 102 -234 102t-233 -102q-92 -99 -92 -242zM958 1434q27 30 80 30q56 0 82 -30q29 -31 29 -76t-29 -76
q-26 -31 -82 -31q-53 0 -80 31q-28 31 -28 76t28 76zM1259 1358q0 45 27 76q29 30 82 30t82 -30q29 -31 29 -76t-29 -76q-29 -29 -82 -29q-55 0 -82 29q-27 31 -27 76z" />
    <glyph glyph-name="uni0643" unicode="&#x643;" horiz-adv-x="1732" arabic-form="isolated" 
d="M375 866l97 -157q-140 -84 -140 -248q0 -123 86 -207q90 -88 234 -88h745v1370h185v-1536h-955q-209 0 -348 135q-133 131 -133 326q0 270 229 405zM694 666v114h90q-22 46 -22 92q0 27 8 54q22 82 96 123q48 28 99 28q28 0 56 -8q82 -22 123 -98l-100 -56q-18 33 -53 43
q-11 3 -22 3q-24 0 -48 -13q-31 -16 -41 -53q-4 -12 -4 -25q0 -23 12 -45q25 -45 78 -45h199v-114h-471z" />
    <glyph glyph-name="uni0644" unicode="&#x644;" horiz-adv-x="1562" arabic-form="isolated" 
d="M449 762l107 -133q-221 -176 -221 -430q0 -209 116 -344q123 -140 322 -140t328 146q125 139 125 348v749h1v578h185v-1327q0 -277 -182 -467q-183 -193 -455 -193t-448 189q-177 184 -177 461q0 323 299 563z" />
    <glyph glyph-name="uni0645" unicode="&#x645;" horiz-adv-x="1699" arabic-form="isolated" 
d="M241 117q32 28 75 41q33 8 66 8h16l21 2q26 4 49 10q59 21 59 70v239q0 211 150 361q149 149 360 149t363 -149q149 -150 149 -361q0 -213 -149 -362q-152 -150 -363 -150q-217 0 -368 160q-76 -139 -287 -139h-8l-11 -2q-10 -4 -18 -14q-22 -29 -22 -113v-574h-173v574
q0 176 91 250zM714 487q0 -143 92 -243q92 -103 231 -103q140 0 236 103q92 100 92 243q0 142 -92 242q-96 102 -236 102q-137 0 -231 -102q-92 -100 -92 -242z" />
    <glyph glyph-name="uni0646" unicode="&#x646;" horiz-adv-x="1562" arabic-form="isolated" 
d="M449 762l107 -133q-221 -176 -221 -430q0 -209 116 -344q123 -140 322 -140t328 146q125 139 125 348v749h186v-749q0 -277 -182 -467q-183 -193 -455 -193t-448 189q-177 184 -177 461q0 323 299 563zM730 1145q0 45 27 76q26 30 82 30q53 0 81 -30q29 -31 29 -76
t-29 -76q-28 -29 -81 -29q-56 0 -82 29q-27 31 -27 76z" />
    <glyph glyph-name="uni0647" unicode="&#x647;" horiz-adv-x="1222" arabic-form="isolated" 
d="M100 510q0 213 150 362q149 150 360 150q213 0 363 -150q149 -149 149 -362q0 -211 -149 -360q-150 -150 -363 -150q-211 0 -360 150q-150 149 -150 360zM287 510q0 -141 92 -242q94 -102 231 -102q139 0 236 102q92 101 92 242q0 143 -92 244q-97 102 -236 102
q-137 0 -231 -102q-92 -101 -92 -244z" />
    <glyph glyph-name="uni0648" unicode="&#x648;" horiz-adv-x="1322" arabic-form="isolated" 
d="M150 512q0 211 150 360q149 150 360 150t361 -150q149 -149 149 -360l2 -379q-2 -27 -2 -47q-2 -57 -10 -86q-45 -166 -209 -276q-201 -138 -520 -138v168q225 0 374 72q138 65 175 174h-320q-211 0 -360 150q-150 149 -150 362zM427 268q94 -102 233 -102h326v346
q0 141 -92 242q-95 102 -234 102t-233 -102q-93 -101 -93 -242q0 -143 93 -244z" />
    <glyph glyph-name="uni0649" unicode="&#x649;" horiz-adv-x="2017" arabic-form="isolated" 
d="M156 182q5 145 181 314l120 -124q-64 -61 -100 -130t-36 -121q0 -47 21 -98q56 -140 246 -230.5t434 -90.5q278 0 428.5 84.5t199.5 179.5q26 52 26 96q0 45 -27 82q-28 38 -102 58t-154 35q-132 22 -272.5 71t-170.5 201q-8 35 -8 70q0 139 124 259q163 160 432 160
q118 0 257 -31l-39 -167q-122 32 -222 32q-193 0 -307 -117q-58 -58 -58 -131q0 -20 4 -41q12 -62 87.5 -89t204.5 -49q108 -20 213 -50t164 -110q62 -85 62 -181q0 -83 -47 -175q-86 -167 -298 -260.5t-497 -93.5q-300 0 -532 116.5t-308 307.5q-27 66 -27 179q0 21 1 44z
" />
    <glyph glyph-name="uni064A" unicode="&#x64a;" horiz-adv-x="2017" arabic-form="isolated" 
d="M156 182q5 145 181 314l120 -124q-64 -61 -100 -130t-36 -121q0 -47 21 -98q56 -140 246 -230.5t434 -90.5q278 0 428.5 84.5t199.5 179.5q26 52 26 96q0 45 -27 82q-28 38 -102 58t-154 35q-132 22 -272.5 71t-170.5 201q-8 35 -8 70q0 139 124 259q163 160 432 160
q118 0 257 -31l-39 -167q-122 32 -222 32q-193 0 -307 -117q-58 -58 -58 -131q0 -20 4 -41q12 -62 87.5 -89t204.5 -49q108 -20 213 -50t164 -110q62 -85 62 -181q0 -83 -47 -175q-86 -167 -298 -260.5t-497 -93.5q-300 0 -532 116.5t-308 307.5q-27 66 -27 179q0 21 1 44z
M1162 -801q-26 29 -26 74t26 76q27 33 82 33q53 0 82 -33q29 -31 29 -76t-29 -74q-29 -30 -82 -30q-55 0 -82 30zM806 -727q0 45 29 76q26 33 79 33q56 0 82 -33q29 -31 29 -76t-29 -74q-26 -30 -82 -30q-53 0 -79 30q-29 31 -29 74z" />
    <glyph glyph-name="uni0671" unicode="&#x671;" horiz-adv-x="743" arabic-form="isolated" 
d="M464 1536v-1536h-185v1536h185zM219 1698v39h25v323h43v-206q79 54 135 67q21 5 41 5q30 0 58 -13q41 -21 41 -76v-139h-343zM287 1817v-80h231v100q0 30 -19 41l-7 3q-6 3 -12 4q-8 1 -17 2q-10 -1 -21 -2q-61 -9 -155 -68z" />
    <glyph glyph-name="uni0679" unicode="&#x679;" horiz-adv-x="1736" arabic-form="isolated" 
d="M379 868l97 -157q-140 -84 -140 -248q0 -123 86 -207q90 -88 234 -88h745v793h185v-959h-955q-209 0 -348 135q-133 131 -133 326q0 270 229 405zM774 879v323h43v-206q79 54 135 67q21 5 41 5q30 0 58 -13q41 -21 41 -76v-139h-343v39h25zM817 879h231v100q0 30 -19 41
l-7 3q-6 3 -12 4q-8 1 -17 2q-10 -1 -21 -2q-61 -9 -155 -68v-80z" />
    <glyph glyph-name="uni067E" unicode="&#x67e;" horiz-adv-x="1736" arabic-form="isolated" 
d="M379 866l97 -157q-140 -84 -140 -248q0 -123 86 -207q90 -88 234 -88h745v793h185v-959h-955q-209 0 -348 135q-133 131 -133 326q0 270 229 405zM734 -167q0 42 26 71q25 26 75 26q51 0 76 -26q27 -29 27 -71t-27 -71q-25 -29 -76 -29q-50 0 -75 29q-26 29 -26 71z
M869 -372q0 42 27 71q24 26 76 26q50 0 76 -26q25 -29 25 -71t-25 -71q-26 -28 -76 -28q-52 0 -76 28q-27 29 -27 71zM1004 -167q0 42 25 71q25 26 76 26q50 0 77 -26q24 -29 24 -71t-24 -71q-27 -29 -77 -29q-51 0 -76 29t-25 71z" />
    <glyph glyph-name="uni0686" unicode="&#x686;" horiz-adv-x="1645" arabic-form="isolated" 
d="M285 59q133 107 340 107h524q-98 135 -98 350q0 139 -90 240q-88 102 -213 102q-84 0 -158 -51q-69 -51 -110 -135l-154 76q61 126 174 200q115 76 248 76q194 0 334 -150q139 -149 139 -358q0 -164 70 -256q71 -94 204 -94v-166h-870q-121 0 -199 -49q-90 -57 -90 -168
q0 -121 94 -176q74 -43 195 -45h11q114 0 202 39q35 16 74 43l65 45l99 -140l-37 -26l-41 -27q-49 -28 -97 -49q-120 -51 -272 -51h-6q-213 2 -342 104q-131 107 -131 283q0 170 135 276zM1016 -169q0 39 24 66q24 24 70 24q48 0 71 -24q25 -27 25 -66q0 -40 -25 -67
q-23 -27 -71 -27q-46 0 -70 27t-24 67zM1291 -103q23 24 71 24q46 0 71 -24q23 -27 23 -66q0 -40 -23 -67q-25 -27 -71 -27q-48 0 -71 27q-24 27 -24 67q0 39 24 66zM1142 -360q0 39 25 66q23 24 71 24q46 0 71 -24q23 -27 23 -66q0 -40 -23 -66q-25 -27 -71 -27
q-48 0 -71 27q-25 26 -25 66z" />
    <glyph glyph-name="uni0688" unicode="&#x688;" horiz-adv-x="1132" arabic-form="isolated" 
d="M150 0v166h647v151q0 64 -8 113q-10 74 -37 139q-73 172 -264 293l80 156q244 -154 346 -389q39 -86 55 -180q13 -68 13 -132v-317h-832zM329 1177h25v323h43v-206q79 54 135 67q21 5 41 5q30 0 58 -13q41 -21 41 -76v-139h-343v39zM397 1177h231v100q0 30 -19 41l-7 3
q-6 3 -12 4q-8 1 -17 2q-10 -1 -21 -2q-61 -9 -155 -68v-80z" />
    <glyph glyph-name="uni0691" unicode="&#x691;" horiz-adv-x="568" arabic-form="isolated" 
d="M-120 -385q340 207 340 573v773h184v-773q0 -454 -434 -718zM145 1088v39h25v323h43v-206q79 54 135 67q21 5 41 5q30 0 58 -13q41 -21 41 -76v-139h-343zM444 1127v100q0 30 -19 41l-7 3q-6 3 -12 4q-8 1 -17 2q-10 -1 -21 -2q-61 -9 -155 -68v-80h231z" />
    <glyph glyph-name="uni0698" unicode="&#x698;" horiz-adv-x="562" arabic-form="isolated" 
d="M-150 -385q340 207 340 573v773h184v-773q0 -454 -434 -718zM198 1497q27 30 82 30q53 0 82 -30q27 -31 27 -76t-27 -76q-29 -29 -82 -29q-55 0 -82 29q-29 31 -29 76t29 76zM6 1150q0 46 28 76q27 31 80 31q55 0 82 -31q29 -30 29 -76q0 -45 -29 -75q-27 -29 -82 -29
q-53 0 -80 29q-28 30 -28 75zM362 1226q27 31 82 31q53 0 82 -31q26 -30 26 -76q0 -45 -26 -75q-29 -29 -82 -29q-55 0 -82 29q-27 30 -27 75q0 46 27 76z" />
    <glyph glyph-name="uni06A4" unicode="&#x6a4;" horiz-adv-x="2225" arabic-form="isolated" 
d="M380 868l96 -159q-139 -84 -139 -246q0 -125 86 -209q90 -88 233 -88h532q-135 147 -135 346q0 211 150 360q149 150 360 150t363 -150q149 -149 149 -360v-512h-1444q-211 0 -348 135q-133 133 -133 328q0 268 230 405zM1326 268q92 -102 237 -102h326v346
q0 141 -92 242q-94 102 -234 102q-139 0 -233 -102q-94 -101 -94 -242q0 -145 90 -244zM1466 1550q27 32 84 32q54 0 83 -32q27 -31 27 -77t-27 -77q-29 -29 -83 -29q-57 0 -84 29q-29 31 -29 77t29 77zM1290 1250q0 46 29 77q27 32 81 32q56 0 83 -32q30 -31 30 -77
t-30 -77q-27 -29 -83 -29q-54 0 -81 29q-29 31 -29 77zM1584 1250q0 46 28 77q27 32 83 32q54 0 84 -32q26 -31 26 -77t-26 -77q-30 -29 -84 -29q-56 0 -83 29q-28 31 -28 77z" />
    <glyph glyph-name="uni06A9" unicode="&#x6a9;" horiz-adv-x="2485" arabic-form="isolated" 
d="M150 461q0 268 229 405l97 -157q-140 -84 -140 -248q0 -123 86 -207q90 -88 234 -88h1495v153q0 121 -113 207q-127 95 -344 95h-776v167l1055 719l96 -141l-850 -580h469q275 0 461 -131q186 -135 186 -336v-153l-2 -166h-1702q-209 0 -348 135q-133 131 -133 326z" />
    <glyph glyph-name="uni06AF" unicode="&#x6af;" horiz-adv-x="2485" arabic-form="isolated" 
d="M379 866l97 -157q-140 -84 -140 -248q0 -123 86 -207q90 -88 234 -88h1495v153q0 121 -113 207q-127 95 -344 95h-776v167l1055 719l96 -141l-850 -580h469q275 0 461 -131q186 -135 186 -336v-153l-2 -166h-1702q-209 0 -348 135q-133 131 -133 326q0 268 229 405z
M990 1047l889 598l59 -89l-888 -598z" />
    <glyph glyph-name="uniFB51" unicode="&#x671;" horiz-adv-x="761" arabic-form="final" 
d="M311 256v1280h187v-1280q0 -90 90 -90h221l2 -166h-229q-121 0 -195 70q-76 71 -76 186zM235 1677v323h43v-206q79 54 135 67q21 5 41 5q30 0 58 -13q41 -21 41 -76v-139h-343v39h25zM509 1677v100q0 30 -19 41l-7 3q-6 3 -12 4q-8 1 -17 2q-10 -1 -21 -2
q-61 -9 -155 -68v-80h231z" />
    <glyph glyph-name="uniFB57" unicode="&#x67e;" horiz-adv-x="1843" arabic-form="final" 
d="M379 866l97 -157q-140 -84 -140 -248q0 -123 86 -207q90 -88 234 -88h745v792h185v-792h307v-166h-1262q-209 0 -348 135q-133 131 -133 326q0 268 229 405zM827 -96q25 26 75 26q51 0 76 -26q27 -29 27 -71t-27 -71q-25 -29 -76 -29q-50 0 -75 29q-26 29 -26 71t26 71z
M936 -372q0 42 27 71q24 26 76 26q50 0 76 -26q25 -29 25 -71t-25 -71q-26 -28 -76 -28q-52 0 -76 28q-27 29 -27 71zM1096 -96q25 26 76 26q50 0 77 -26q24 -29 24 -71t-24 -71q-27 -29 -77 -29q-51 0 -76 29t-25 71t25 71z" />
    <glyph glyph-name="uniFB58" unicode="&#x67e;" horiz-adv-x="655" arabic-form="initial" 
d="M-20 166h308v792h187v-958h-495v166zM33 -167q0 42 26 71q25 26 75 26q51 0 76 -26q27 -29 27 -71t-27 -71q-25 -29 -76 -29q-50 0 -75 29q-26 29 -26 71zM168 -372q0 42 27 71q24 26 76 26q50 0 76 -26q25 -29 25 -71t-25 -71q-26 -28 -76 -28q-52 0 -76 28
q-27 29 -27 71zM303 -167q0 42 25 71q25 26 76 26q50 0 77 -26q24 -29 24 -71t-24 -71q-27 -29 -77 -29q-51 0 -76 29t-25 71z" />
    <glyph glyph-name="uniFB59" unicode="&#x67e;" horiz-adv-x="740" arabic-form="medial" 
d="M-20 166h270v792h185v-383q0 -172 57 -274q76 -135 242 -135h56v-166h-60h-4q-162 0 -291 156v-156h-455v166zM39 -167q0 42 26 71q25 26 75 26q51 0 76 -26q27 -29 27 -71t-27 -71q-25 -29 -76 -29q-50 0 -75 29q-26 29 -26 71zM201 -301q24 26 76 26q50 0 76 -26
q25 -29 25 -71t-25 -71q-26 -28 -76 -28q-52 0 -76 28q-27 29 -27 71t27 71zM309 -167q0 42 25 71q25 26 76 26q50 0 77 -26q24 -29 24 -71t-24 -71q-27 -29 -77 -29q-51 0 -76 29t-25 71z" />
    <glyph glyph-name="uniFB67" unicode="&#x679;" horiz-adv-x="1843" arabic-form="final" 
d="M379 866l97 -157q-140 -84 -140 -248q0 -123 86 -207q90 -88 234 -88h745v792h185v-792h307v-166h-1262q-209 0 -348 135q-133 131 -133 326q0 268 229 405zM749 879h25v323h43v-206q79 54 135 67q21 5 41 5q30 0 58 -13q41 -21 41 -76v-139h-343v39zM817 879h231v100
q0 30 -19 41l-7 3q-6 3 -12 4q-8 1 -17 2q-10 -1 -21 -2q-61 -9 -155 -68v-80z" />
    <glyph glyph-name="uniFB68" unicode="&#x679;" horiz-adv-x="625" arabic-form="initial" 
d="M-20 0v166h308v792h187v-958h-495zM153 1106v323h43v-206q79 54 135 67q21 5 41 5q30 0 58 -13q41 -21 41 -76v-139h-343v39h25zM427 1106v100q0 30 -19 41l-7 3q-6 3 -12 4q-8 1 -17 2q-10 -1 -21 -2q-61 -9 -155 -68v-80h231z" />
    <glyph glyph-name="uniFB69" unicode="&#x679;" horiz-adv-x="740" arabic-form="medial" 
d="M-20 166h270v792h185v-383q0 -172 57 -274q76 -135 242 -135h56v-166h-60q-194 2 -295 156v-156h-455v166zM194 1127v323h43v-206q79 54 135 67q21 5 41 5q30 0 58 -13q41 -21 41 -76v-139h-343v39h25zM468 1127v100q0 30 -19 41l-7 3q-6 3 -12 4q-8 1 -17 2
q-10 -1 -21 -2q-61 -9 -155 -68v-80h231z" />
    <glyph glyph-name="uniFB6B" unicode="&#x6a4;" horiz-adv-x="2338" arabic-form="final" 
d="M379 868l97 -159q-140 -84 -140 -246q0 -125 86 -209q90 -88 234 -88h534q-137 147 -137 346q0 211 150 360q149 150 360 150t363 -150q149 -149 149 -360v-346h313v-166h-1757q-209 0 -348 135q-133 133 -133 328q0 268 229 405zM1326 268q92 -102 237 -102h326v346
q0 141 -92 242q-95 102 -234 102t-233 -102q-95 -101 -95 -242q0 -145 91 -244zM1490 1562q0 45 29 76q27 30 82 30q53 0 82 -30q27 -31 27 -76t-27 -76q-29 -29 -82 -29q-55 0 -82 29q-29 31 -29 76zM1355 1367q27 31 80 31q55 0 82 -31q29 -30 29 -76q0 -45 -29 -75
q-27 -29 -82 -29q-53 0 -80 29q-28 30 -28 75q0 46 28 76zM1683 1367q27 31 82 31q53 0 82 -31q26 -30 26 -76q0 -45 -26 -75q-29 -29 -82 -29q-55 0 -82 29q-27 30 -27 75q0 46 27 76z" />
    <glyph glyph-name="uniFB6C" unicode="&#x6a4;" horiz-adv-x="1459" arabic-form="initial" 
d="M-20 166h442q-135 147 -135 344q0 213 149 362q150 150 361 150t360 -150q150 -149 150 -362l2 -510h-1329v166zM559 268q92 -102 236 -102h327v344q0 143 -92 244q-94 102 -233 102t-236 -102q-94 -101 -94 -244t92 -242zM736 1638q27 30 82 30q53 0 82 -30
q27 -31 27 -76t-27 -76q-29 -29 -82 -29q-55 0 -82 29q-29 31 -29 76t29 76zM572 1367q27 31 80 31q55 0 82 -31q29 -30 29 -76q0 -45 -29 -75q-27 -29 -82 -29q-53 0 -80 29q-28 30 -28 75q0 46 28 76zM900 1367q27 31 82 31q53 0 82 -31q26 -30 26 -76q0 -45 -26 -75
q-29 -29 -82 -29q-55 0 -82 29q-27 30 -27 75q0 46 27 76z" />
    <glyph glyph-name="uniFB6D" unicode="&#x6a4;" horiz-adv-x="1569" arabic-form="medial" 
d="M423 166q-136 147 -136 346q0 211 150 360q149 150 360 150t361 -150q149 -149 149 -360v-346h312v-166h-1639v166h443zM560 268q92 -102 235 -102h328v346q0 141 -92 242q-94 102 -234 102q-139 0 -235 -102q-94 -101 -94 -242q0 -145 92 -244zM727 1638q27 30 82 30
q53 0 82 -30q27 -31 27 -76t-27 -76q-29 -29 -82 -29q-55 0 -82 29q-29 31 -29 76t29 76zM535 1291q0 46 28 76q27 31 80 31q55 0 82 -31q29 -30 29 -76q0 -45 -29 -75q-27 -29 -82 -29q-53 0 -80 29q-28 30 -28 75zM891 1367q27 31 82 31q53 0 82 -31q26 -30 26 -76
q0 -45 -26 -75q-29 -29 -82 -29q-55 0 -82 29q-27 30 -27 75q0 46 27 76z" />
    <glyph glyph-name="uniFB7B" unicode="&#x686;" horiz-adv-x="1506" arabic-form="final" 
d="M150 -217q0 170 135 276q133 107 338 107h528q-100 135 -100 350q0 139 -90 240q-88 102 -213 102q-84 0 -158 -51q-71 -51 -110 -135l-154 76q62 126 174 200q113 76 248 76q195 0 334 -150q139 -149 139 -358q0 -164 70 -256q71 -94 205 -94h59v-166h-932
q-119 0 -197 -49q-92 -57 -92 -168q0 -121 97 -176q73 -43 194 -45h11q114 0 202 39q35 16 74 43l65 45l99 -140l-37 -26l-41 -27q-49 -28 -96 -49q-121 -51 -273 -51h-6q-213 2 -342 104q-131 107 -131 283zM1140 -103q24 24 70 24q48 0 71 -24q25 -27 25 -66
q0 -40 -25 -67q-23 -27 -71 -27q-46 0 -70 27t-24 67q0 39 24 66zM1367 -169q0 39 24 66q23 24 71 24q46 0 71 -24q23 -27 23 -66q0 -40 -23 -67q-25 -27 -71 -27q-48 0 -71 27q-24 27 -24 67zM1267 -294q23 24 71 24q46 0 71 -24q23 -27 23 -66q0 -40 -23 -66
q-25 -27 -71 -27q-48 0 -71 27q-25 26 -25 66q0 39 25 66z" />
    <glyph glyph-name="uniFB7C" unicode="&#x686;" horiz-adv-x="1417" arabic-form="initial" 
d="M-10 0v166h892q-86 139 -86 375q0 127 -86 221q-86 96 -211 96q-183 0 -269 -166l-151 80q61 117 174 184q113 68 246 68q194 0 338 -150q141 -147 141 -344q0 -192 78 -286q63 -78 161 -78v-166h-1227zM488 -169q0 39 24 66q24 24 70 24q48 0 71 -24q25 -27 25 -66
q0 -40 -25 -67q-23 -27 -71 -27q-46 0 -70 27t-24 67zM763 -103q23 24 71 24q46 0 71 -24q23 -27 23 -66q0 -40 -23 -67q-25 -27 -71 -27q-48 0 -71 27q-24 27 -24 67q0 39 24 66zM639 -294q23 24 71 24q46 0 71 -24q23 -27 23 -66q0 -40 -23 -66q-25 -27 -71 -27
q-48 0 -71 27q-25 26 -25 66q0 39 25 66z" />
    <glyph glyph-name="uniFB7D" unicode="&#x686;" horiz-adv-x="1269" arabic-form="medial" 
d="M-10 166h891q-86 139 -86 375q0 127 -86 221q-86 96 -211 96q-182 0 -268 -166l-152 80q62 117 174 184q113 68 246 68q195 0 338 -150q141 -147 141 -344q0 -192 78 -286q64 -78 162 -78h102v-166h-1329v166zM487 -169q0 39 24 66q24 24 70 24q48 0 71 -24
q25 -27 25 -66q0 -40 -25 -67q-23 -27 -71 -27q-46 0 -70 27t-24 67zM762 -103q23 24 71 24q46 0 71 -24q23 -27 23 -66q0 -40 -23 -67q-25 -27 -71 -27q-48 0 -71 27q-24 27 -24 67q0 39 24 66zM613 -360q0 39 25 66q23 24 71 24q46 0 71 -24q23 -27 23 -66q0 -40 -23 -66
q-25 -27 -71 -27q-48 0 -71 27q-25 26 -25 66z" />
    <glyph glyph-name="uniFB89" unicode="&#x688;" horiz-adv-x="1299" arabic-form="final" 
d="M149 0l1 166h647v158q0 63 -8 114q-10 72 -37 137q-74 175 -264 293l80 156q192 -121 299 -297q80 -131 104 -281q45 -280 289 -280h89v-166h-89q-182 0 -279 113l-1 -113h-831zM381 1161v323h43v-206q79 54 135 67q21 5 41 5q30 0 58 -13q41 -21 41 -76v-139h-343v39h25
zM655 1161v100q0 30 -19 41l-7 3q-6 3 -12 4q-8 1 -17 2q-10 -1 -21 -2q-61 -9 -155 -68v-80h231z" />
    <glyph glyph-name="uniFB8B" unicode="&#x698;" horiz-adv-x="735" arabic-form="final" 
d="M218 188v773h186v-383q0 -172 56 -275q75 -137 243 -137h82v-166h-90q-194 3 -293 160q-12 -434 -434 -690l-88 145q338 205 338 573zM199 1421q0 45 29 76q27 30 82 30q53 0 82 -30q27 -31 27 -76t-27 -76q-29 -29 -82 -29q-55 0 -82 29q-29 31 -29 76zM36 1150
q0 46 28 76q27 31 80 31q55 0 82 -31q29 -30 29 -76q0 -45 -29 -75q-27 -29 -82 -29q-53 0 -80 29q-28 30 -28 75zM365 1150q0 46 27 76q27 31 82 31q53 0 82 -31q26 -30 26 -76q0 -45 -26 -75q-29 -29 -82 -29q-55 0 -82 29q-27 30 -27 75z" />
    <glyph glyph-name="uniFB8D" unicode="&#x691;" horiz-adv-x="735" arabic-form="final" 
d="M218 188v773h186v-383q0 -172 56 -275q75 -137 243 -137h82v-166h-90q-194 3 -293 160q-12 -434 -434 -690l-88 145q338 205 338 573zM140 1105v39h25v323h43v-206q79 54 135 67q21 5 41 5q30 0 58 -13q41 -21 41 -76v-139h-343zM439 1144v100q0 30 -19 41l-7 3
q-6 3 -12 4q-8 1 -17 2q-10 -1 -21 -2q-61 -9 -155 -68v-80h231z" />
    <glyph glyph-name="uniFB8F" unicode="&#x6a9;" horiz-adv-x="2601" arabic-form="final" 
d="M150 461q0 268 229 405l97 -157q-140 -84 -140 -248q0 -123 86 -207q90 -88 234 -88h1495v153q0 121 -113 207q-127 95 -344 95h-776v167l1055 719l96 -141l-850 -580h469q275 0 461 -131q186 -135 186 -336v-153h316v-166h-2020q-209 0 -348 135q-133 131 -133 326z" />
    <glyph glyph-name="uniFB90" unicode="&#x6a9;" horiz-adv-x="1863" arabic-form="initial" 
d="M1529 166v153q0 121 -113 207q-127 95 -344 95h-776v167l1055 719l96 -141l-850 -580h469q275 0 461 -133t186 -334v-319h-1733v166h1549z" />
    <glyph glyph-name="uniFB91" unicode="&#x6a9;" horiz-adv-x="1972" arabic-form="medial" 
d="M-20 0v166h1545v153q0 121 -113 207q-127 95 -344 95h-776v167l1055 719l96 -141l-850 -580h469q275 0 461 -131q186 -135 186 -336v-153h313v-166h-2042z" />
    <glyph glyph-name="uniFB93" unicode="&#x6af;" horiz-adv-x="2601" arabic-form="final" 
d="M379 866l97 -157q-140 -84 -140 -248q0 -123 86 -207q90 -88 234 -88h1495v153q0 121 -113 207q-127 95 -344 95h-776v167l1055 719l96 -141l-850 -580h469q275 0 461 -131q186 -135 186 -336v-153h316v-166h-2020q-209 0 -348 135q-133 131 -133 326q0 268 229 405z
M1050 958l-60 89l889 598l59 -89z" />
    <glyph glyph-name="uniFB94" unicode="&#x6af;" horiz-adv-x="1863" arabic-form="initial" 
d="M1529 166v153q0 121 -113 207q-127 95 -344 95h-776v167l1055 719l96 -141l-850 -580h469q275 0 461 -133t186 -334v-319h-1733v166h1549zM419 958l-60 89l889 598l59 -89z" />
    <glyph glyph-name="uniFB95" unicode="&#x6af;" horiz-adv-x="1972" arabic-form="medial" 
d="M1525 166v153q0 121 -113 207q-127 95 -344 95h-776v167l1055 719l96 -141l-850 -580h469q275 0 461 -131q186 -135 186 -336v-153h313v-166h-2042v166h1545zM420 958l-60 89l889 598l59 -89z" />
    <glyph glyph-name="uniFC5E" unicode="&#xfc5e;" arabic-form="isolated" 
d="M-189 220h73v-112q0 -15 10 -23q10 -6 20 -6h5q45 6 45 52v112h74v-112q0 -15 9 -23q8 -7 18 -7q4 0 8 1q46 6 46 52v112h73v-112q0 -46 -31 -82.5t-77 -42.5q-12 -2 -17 -2q-32 0 -61 22q-31 -37 -77 -43q-10 -1 -16 -1q-39 0 -68 24q-34 31 -34 79v112zM-6 308l6 50
q17 -2 34 -2q24 0 57.5 6.5t65.5 31.5q-23 2 -36 10q-35 18 -42.5 44.5t-7.5 39.5q0 24 12 46q20 35 46 42.5t39 7.5q24 0 46 -12q35 -20 46 -58q3 -10 3 -21q0 -7 -2 -19.5t-5 -23.5q-23 -83 -90.5 -114t-133.5 -31q-22 0 -38 3zM-245 358q17 -2 33 -2q24 0 57.5 6.5
t66.5 31.5q-23 2 -37 10q-34 18 -41.5 44.5t-7.5 39.5q0 24 12 46q20 35 46 42.5t39 7.5q23 0 45 -12q36 -20 46 -58q3 -11 3 -22q0 -6 -1.5 -18.5t-5.5 -23.5q-23 -83 -90.5 -114t-132.5 -31q-22 0 -38 3zM-100 448q10 -6 21 -6q7 0 14 2q18 5 27 21q6 11 6 22q0 7 -2 13
q-5 18 -22 27q-9 6 -22 6q-26 0 -40 -23q-7 -14 -7 -26q0 -22 25 -36zM145 448q10 -6 21 -6q7 0 14 2q18 5 27 21q6 11 6 22q0 7 -2 13q-5 18 -21 27q-10 6 -22 6q-27 0 -40 -23q-8 -14 -8 -27q0 -21 25 -35z" />
    <glyph glyph-name="uniFC5F" unicode="&#xfc5f;" arabic-form="isolated" 
d="M-186 481h74v-112q0 -15 9 -23q10 -6 20 -6h5q45 6 45 52v112h74v-112q0 -15 9 -23q8 -7 19 -7q3 0 7 1q46 6 46 52v112h73v-112q0 -46 -31 -82.5t-77 -42.5q-12 -2 -17 -2q-31 0 -61 22q-31 -37 -76 -43q-11 -1 -17 -1q-39 0 -67 24q-35 31 -35 79v112zM-202 175l397 96
l15 -62l-397 -96zM-202 64l397 96l15 -62l-397 -96z" />
    <glyph glyph-name="uniFC60" unicode="&#xfc60;" arabic-form="isolated" 
d="M-190 108v112h74v-112q0 -15 10 -23q9 -6 20 -6h5q45 6 45 52v112h74v-112q0 -15 9 -23q8 -7 18 -7q4 0 8 1q45 6 45 52v112h73v-112q0 -46 -31 -82.5t-76 -42.5q-12 -2 -17 -2q-32 0 -61 22q-31 -37 -77 -43q-10 -1 -16 -1q-39 0 -68 24q-35 31 -35 79zM192 464l15 -62
l-397 -96l-15 62z" />
    <glyph glyph-name="uniFC61" unicode="&#xfc61;" arabic-form="isolated" 
d="M-189 220h73v-112q0 -15 10 -23q10 -6 20 -6h5q45 6 45 52v112h74v-112q0 -15 9 -23q8 -7 18 -7q4 0 8 1q46 6 46 52v112h73v-112q0 -46 -31 -82.5t-77 -42.5q-12 -2 -17 -2q-32 0 -61 22q-31 -37 -77 -43q-10 -1 -16 -1q-39 0 -68 24q-34 31 -34 79v112zM-146 308l6 50
q17 -2 34 -2q24 0 57.5 6.5t65.5 31.5q-23 2 -36 10q-35 18 -42.5 44.5t-7.5 39.5q0 24 12 46q20 35 46 42.5t39 7.5q24 0 46 -12q35 -20 46 -58q3 -10 3 -21q0 -7 -2 -19.5t-5 -23.5q-23 -83 -90.5 -114t-133.5 -31q-22 0 -38 3zM5 448q10 -6 21 -6q7 0 14 2q18 5 27 21
q6 11 6 22q0 7 -2 13q-5 18 -21 27q-10 6 -22 6q-27 0 -40 -23q-8 -14 -8 -27q0 -21 25 -35z" />
    <glyph glyph-name="uniFC62" unicode="&#xfc62;" arabic-form="isolated" 
d="M-191 271v112h74v-112q0 -15 10 -23q9 -6 20 -6h5q45 6 45 52v112h74v-112q0 -15 9 -23q8 -7 18 -7q4 0 8 1q45 6 45 52v112h73v-112q0 -46 -31 -82.5t-76 -42.5q-12 -2 -17 -2q-32 0 -61 22q-31 -37 -77 -43q-10 -1 -16 -1q-39 0 -68 24q-35 31 -35 79zM191 160l15 -62
l-397 -96l-15 62z" />
    <glyph glyph-name="uniFE82" unicode="&#x622;" horiz-adv-x="761" arabic-form="final" 
d="M311 256v1280h187v-1280q0 -90 90 -90h221l2 -166h-229q-121 0 -195 70q-76 71 -76 186zM100 1754q27 24 55 38q37 21 82 27q24 4 47 4q22 0 43 -4q29 -6 58 -22l24 -17q42 -25 82 -25q8 0 17 1q51 8 106 61l23 23l73 -82l-20 -19l-12 -14l-17 -12q-16 -17 -35 -27
q-45 -29 -102 -39q-20 -4 -43 -4q-41 0 -76 16q-14 4 -30 13l-43 28q-24 13 -54 13q-11 0 -22 -2q-47 -9 -82 -39z" />
    <glyph glyph-name="uniFE84" unicode="&#x623;" horiz-adv-x="761" arabic-form="final" 
d="M498 1536v-1280q0 -90 90 -90h221l2 -166h-229q-121 0 -195 70q-76 71 -76 186v1280h187zM210 1640v92h74q-19 37 -19 75q0 21 6 42q19 68 78 100q40 23 82 23q22 0 45 -6q66 -19 101 -78l-82 -47q-15 27 -43 35q-11 3 -22 3q-19 0 -36 -9q-24 -17 -32 -45q-3 -11 -3 -21
q0 -18 9 -35q20 -37 63 -37h162v-92h-383z" />
    <glyph glyph-name="uniFE86" unicode="&#x624;" horiz-adv-x="1484" arabic-form="final" 
d="M350 872q149 150 362 150q211 0 360 -150q150 -151 150 -362v-344h312v-166h-324q-43 -166 -209 -276q-201 -138 -518 -138v166q225 0 374 72q138 67 172 176h-317q-213 0 -362 150q-150 149 -150 360t150 362zM479 268q94 -102 233 -102h326v344q0 143 -95 244
q-94 102 -231 102q-139 0 -233 -102q-95 -101 -95 -244q0 -141 95 -242zM472 1200v94h74q-20 37 -20 75q0 21 6 42q18 66 80 100q40 22 83 22q20 0 42 -5q67 -21 100 -80l-80 -45q-16 27 -45 35q-10 3 -19 3q-19 0 -36 -11q-27 -15 -35 -44q-3 -9 -3 -19q0 -18 11 -36
q21 -37 62 -37h161v-94h-381z" />
    <glyph glyph-name="uniFE88" unicode="&#x625;" horiz-adv-x="761" arabic-form="final" 
d="M311 256v1280h187v-1280q0 -90 90 -90h221l2 -166h-229q-121 0 -195 70q-76 71 -76 186zM348 -330h74q-19 39 -19 77q0 21 6 42q19 66 78 100q39 21 81 21q22 0 46 -6q66 -19 99 -78l-80 -45q-15 26 -45 33q-10 3 -20 3q-18 0 -36 -10q-24 -14 -34 -43q-2 -10 -2 -19
q0 -20 10 -38q20 -35 63 -37h160v-92h-381v92z" />
    <glyph glyph-name="uniFE8A" unicode="&#x626;" horiz-adv-x="1943" arabic-form="final" 
d="M189 246q41 143 170 266l119 -125q-136 -126 -136 -258q0 -52 21 -104q59 -150 248 -244q190 -96 430 -96q182 0 303 65q121 64 151 176q9 32 9 64q0 41 -15 80q-26 71 -86 106q-63 41 -166 113l-67 47l96 141l205 -143q78 -51 139 -84q158 -82 285 -84h98v-166h-98
q-109 0 -228 43q5 -37 5 -70q0 -49 -11 -92q-47 -170 -213 -266q-163 -96 -407 -96q-297 0 -527 123q-231 120 -309 319q-32 83 -32 166q0 59 16 119zM172 782h74q-18 37 -18 74q0 21 6 42q18 68 78 101q38 23 80 23q23 0 47 -7q65 -18 100 -80l-82 -45q-14 27 -43 35
q-11 3 -22 3q-18 0 -33 -9q-27 -14 -35 -45q-3 -11 -3 -21q0 -17 9 -34q21 -37 64 -37h161v-92h-383v92z" />
    <glyph glyph-name="uniFE8B" unicode="&#x626;" horiz-adv-x="645" arabic-form="initial" 
d="M288 166v792h187v-958h-495v166h308zM112 1124v93h74q-19 38 -19 76q0 21 6 42q19 66 78 101q38 20 80 20q23 0 47 -6q66 -18 101 -78l-82 -45q-15 27 -43 33q-11 3 -21 3q-18 0 -35 -9q-26 -15 -35 -43q-3 -11 -3 -21q0 -19 10 -37q20 -34 63 -36h162v-93h-383z" />
    <glyph glyph-name="uniFE8C" unicode="&#x626;" horiz-adv-x="740" arabic-form="medial" 
d="M-20 166h270v792h185v-383q0 -172 57 -274q76 -135 242 -135h56v-166h-60q-194 2 -295 156v-156h-455v166zM214 1217q-18 38 -18 75q0 22 6 43q16 66 78 101q38 20 78 20q23 0 47 -6q67 -18 100 -78l-80 -45q-16 27 -45 35q-10 3 -19 3q-19 0 -36 -11q-27 -15 -35 -43
q-3 -10 -3 -19q0 -19 11 -37q21 -36 62 -38h161v-93h-381v93h74z" />
    <glyph glyph-name="uniFE8E" unicode="&#x627;" horiz-adv-x="761" arabic-form="final" 
d="M498 1536v-1280q0 -90 90 -90h221l2 -166h-229q-121 0 -195 70q-76 71 -76 186v1280h187z" />
    <glyph glyph-name="uniFE90" unicode="&#x628;" horiz-adv-x="1843" arabic-form="final" 
d="M379 866l97 -157q-140 -84 -140 -248q0 -123 86 -207q90 -88 234 -88h745v792h185v-792h307v-166h-1262q-209 0 -348 135q-133 131 -133 326q0 268 229 405zM888 -279q0 46 27 76q28 33 82 33q53 0 82 -33q28 -30 28 -76q0 -45 -28 -73q-29 -31 -82 -31q-54 0 -82 31
q-27 28 -27 73z" />
    <glyph glyph-name="uniFE91" unicode="&#x628;" horiz-adv-x="675" arabic-form="initial" 
d="M-20 166h308v792h187v-958h-495v166zM256 -279q0 46 26 76q29 33 82 33q56 0 82 -33q29 -30 29 -76q0 -45 -29 -73q-26 -31 -82 -31q-53 0 -82 31q-26 28 -26 73z" />
    <glyph glyph-name="uniFE92" unicode="&#x628;" horiz-adv-x="740" arabic-form="medial" 
d="M-20 0v166h270v792h185v-383q0 -172 57 -274q76 -135 242 -135h56v-166h-60h-4q-162 0 -291 156v-156h-455zM235 -203q28 33 82 33q53 0 81 -33q29 -30 29 -76q0 -45 -29 -73q-28 -31 -81 -31q-54 0 -82 31q-27 28 -27 73q0 46 27 76z" />
    <glyph glyph-name="uniFE94" unicode="&#x629;" horiz-adv-x="1279" arabic-form="final" 
d="M289 811q139 180 369 180h227q65 0 65 68v14h170v-762q0 -59 43 -102t103 -43h63v-166h-63q-96 0 -176 53q-78 53 -115 140l-16 -17l-19 -16q-123 -97 -284 -97q-62 0 -121 15q-119 31 -207 121q-90 88 -121 207q-17 65 -17 127q0 150 99 278zM373 449q41 -164 205 -205
q43 -11 83 -11q95 0 175 62q114 88 114 231v305q-36 -10 -65 -10h-227q-146 0 -234 -114q-62 -81 -62 -176q0 -40 11 -82zM711 1278q0 45 28 76q27 30 82 30q54 0 82 -30q27 -31 27 -76t-27 -76q-28 -31 -82 -31q-55 0 -82 31q-28 31 -28 76zM410 1354q28 30 82 30
q53 0 82 -30q28 -31 28 -76t-28 -76q-29 -31 -82 -31q-54 0 -82 31q-27 31 -27 76t27 76z" />
    <glyph glyph-name="uniFE96" unicode="&#x62a;" horiz-adv-x="1843" arabic-form="final" 
d="M379 866l97 -157q-140 -84 -140 -248q0 -123 86 -207q90 -88 234 -88h745v792h185v-792h307v-166h-1262q-209 0 -348 135q-133 131 -133 326q0 268 229 405zM661 1171q0 46 28 76q27 31 80 31q55 0 82 -31q29 -30 29 -76q0 -45 -29 -75q-27 -29 -82 -29q-53 0 -80 29
q-28 30 -28 75zM1017 1247q27 31 82 31q53 0 82 -31q26 -30 26 -76q0 -45 -26 -75q-29 -29 -82 -29q-55 0 -82 29q-27 30 -27 75q0 46 27 76z" />
    <glyph glyph-name="uniFE97" unicode="&#x62a;" horiz-adv-x="706" arabic-form="initial" 
d="M-20 166h308v792h187v-958h-495v166zM36 1354q29 30 82 30q55 0 82 -30q29 -31 29 -76t-29 -76q-27 -31 -82 -31q-53 0 -82 31q-26 31 -26 76q0 43 26 76zM339 1278q0 45 27 76q27 30 82 30q53 0 82 -30q26 -31 26 -76t-26 -76q-29 -31 -82 -31q-55 0 -82 31t-27 76z" />
    <glyph glyph-name="uniFE98" unicode="&#x62a;" horiz-adv-x="740" arabic-form="medial" 
d="M-20 166h270v792h185v-383q0 -172 57 -274q76 -135 242 -135h56v-166h-60h-4q-162 0 -291 156v-156h-455v166zM396 1278q0 45 28 76q27 30 82 30q54 0 82 -30q27 -31 27 -76t-27 -76q-28 -28 -82 -28q-55 0 -82 28q-28 31 -28 76zM95 1354q28 30 82 30q55 0 82 -30
q28 -31 28 -76t-28 -76q-27 -28 -82 -28q-54 0 -82 28q-27 31 -27 76t27 76z" />
    <glyph glyph-name="uniFE9A" unicode="&#x62b;" horiz-adv-x="1843" arabic-form="final" 
d="M379 866l97 -157q-140 -84 -140 -248q0 -123 86 -207q90 -88 234 -88h745v792h185v-792h307v-166h-1262q-209 0 -348 135q-133 131 -133 326q0 268 229 405zM853 1518q27 30 82 30q53 0 82 -30q27 -31 27 -76t-27 -76q-29 -29 -82 -29q-55 0 -82 29q-29 31 -29 76t29 76z
M661 1171q0 46 28 76q27 31 80 31q55 0 82 -31q29 -30 29 -76q0 -45 -29 -75q-27 -29 -82 -29q-53 0 -80 29q-28 30 -28 75zM990 1171q0 46 27 76q27 31 82 31q53 0 82 -31q26 -30 26 -76q0 -45 -26 -75q-29 -29 -82 -29q-55 0 -82 29q-27 30 -27 75z" />
    <glyph glyph-name="uniFE9B" unicode="&#x62b;" horiz-adv-x="706" arabic-form="initial" 
d="M-20 0v166h308v792h187v-958h-495zM202 1624q27 31 82 31q53 0 82 -31q27 -31 27 -76t-27 -75q-29 -31 -82 -31q-55 0 -82 31q-29 30 -29 75t29 76zM36 1354q29 30 82 30q55 0 82 -30q29 -31 29 -76t-29 -76q-27 -31 -82 -31q-53 0 -82 31q-26 31 -26 76q0 43 26 76z
M339 1278q0 45 27 76q27 30 82 30q53 0 82 -30q26 -31 26 -76t-26 -76q-29 -31 -82 -31q-55 0 -82 31t-27 76z" />
    <glyph glyph-name="uniFE9C" unicode="&#x62b;" horiz-adv-x="740" arabic-form="medial" 
d="M-20 166h270v792h185v-383q0 -172 57 -274q76 -135 242 -135h56v-166h-60h-4q-162 0 -291 156v-156h-455v166zM95 1354q28 30 82 30q55 0 82 -30q28 -31 28 -76t-28 -76q-27 -28 -82 -28q-54 0 -82 28q-27 31 -27 76t27 76zM396 1278q0 45 28 76q27 30 82 30q54 0 82 -30
q27 -31 27 -76t-27 -76q-28 -28 -82 -28q-55 0 -82 28q-28 31 -28 76zM232 1548q0 45 29 76q26 31 79 31q56 0 82 -31q29 -31 29 -76t-29 -75q-26 -29 -82 -29q-53 0 -79 29q-29 30 -29 75z" />
    <glyph glyph-name="uniFE9E" unicode="&#x62c;" horiz-adv-x="1505" arabic-form="final" 
d="M285 59q133 107 338 107h528q-100 135 -100 350q0 139 -90 240q-88 102 -213 102q-84 0 -158 -51q-71 -51 -110 -135l-154 76q62 126 174 200q113 76 248 76q195 0 334 -150q139 -149 139 -358q0 -164 70 -256q71 -94 205 -94h59v-166h-932q-119 0 -197 -49
q-92 -57 -92 -168q0 -121 97 -176q73 -43 194 -45h11q114 0 202 39q35 16 74 43l65 45l99 -140l-37 -26l-41 -27q-49 -28 -96 -49q-121 -51 -273 -51h-6q-213 2 -342 104q-131 107 -131 283q0 170 135 276zM1198 -161q26 31 79 31q56 0 82 -31q29 -31 29 -76t-29 -75
q-26 -31 -82 -31q-53 0 -79 31q-29 30 -29 75t29 76z" />
    <glyph glyph-name="uniFE9F" unicode="&#x62c;" horiz-adv-x="1417" arabic-form="initial" 
d="M-10 166h892q-86 139 -86 375q0 127 -86 221q-86 96 -211 96q-183 0 -269 -166l-151 80q61 117 174 184q113 68 246 68q194 0 338 -150q141 -147 141 -344q0 -192 78 -286q63 -78 161 -78v-166h-1227v166zM613 -213q29 33 82 33q56 0 82 -33q29 -31 29 -76t-29 -73
q-26 -31 -82 -31q-53 0 -82 31q-26 28 -26 73t26 76z" />
    <glyph glyph-name="uniFEA0" unicode="&#x62c;" horiz-adv-x="1269" arabic-form="medial" 
d="M-10 166h891q-86 139 -86 375q0 127 -86 221q-86 96 -211 96q-182 0 -268 -166l-152 80q62 117 174 184q113 68 246 68q195 0 338 -150q141 -147 141 -344q0 -192 78 -286q64 -78 162 -78h102v-166h-1329v166zM612 -213q29 33 82 33q56 0 82 -33q29 -31 29 -76t-29 -73
q-26 -31 -82 -31q-53 0 -82 31q-26 28 -26 73t26 76z" />
    <glyph glyph-name="uniFEA2" unicode="&#x62d;" horiz-adv-x="1505" arabic-form="final" 
d="M285 59q133 107 338 107h528q-100 135 -100 350q0 139 -90 240q-88 102 -213 102q-84 0 -158 -51q-71 -51 -110 -135l-154 76q62 126 174 200q113 76 248 76q195 0 334 -150q139 -149 139 -358q0 -164 70 -256q71 -94 205 -94h59v-166h-932q-119 0 -197 -49
q-92 -57 -92 -168q0 -121 97 -176q73 -43 194 -45h11q114 0 202 39q35 16 74 43l65 45l99 -140l-37 -26l-41 -27q-49 -28 -96 -49q-121 -51 -273 -51h-6q-213 2 -342 104q-131 107 -131 283q0 170 135 276z" />
    <glyph glyph-name="uniFEA3" unicode="&#x62d;" horiz-adv-x="1417" arabic-form="initial" 
d="M-10 0v166h892q-86 139 -86 375q0 127 -86 221q-86 96 -211 96q-183 0 -269 -166l-151 80q61 117 174 184q113 68 246 68q194 0 338 -150q141 -147 141 -344q0 -192 78 -286q63 -78 161 -78v-166h-1227z" />
    <glyph glyph-name="uniFEA4" unicode="&#x62d;" horiz-adv-x="1269" arabic-form="medial" 
d="M-10 166h891q-86 139 -86 375q0 127 -86 221q-86 96 -211 96q-182 0 -268 -166l-152 80q62 117 174 184q113 68 246 68q195 0 338 -150q141 -147 141 -344q0 -192 78 -286q64 -78 162 -78h102v-166h-1329v166z" />
    <glyph glyph-name="uniFEA6" unicode="&#x62e;" horiz-adv-x="1505" arabic-form="final" 
d="M285 59q133 107 338 107h528q-100 135 -100 350q0 139 -90 240q-88 102 -213 102q-84 0 -158 -51q-71 -51 -110 -135l-154 76q62 126 174 200q113 76 248 76q195 0 334 -150q139 -149 139 -358q0 -164 70 -256q71 -94 205 -94h59v-166h-932q-119 0 -197 -49
q-92 -57 -92 -168q0 -121 97 -176q73 -43 194 -45h11q114 0 202 39q35 16 74 43l65 45l99 -140l-37 -26l-41 -27q-49 -28 -96 -49q-121 -51 -273 -51h-6q-213 2 -342 104q-131 107 -131 283q0 170 135 276zM662 1415q27 31 82 31q53 0 82 -31q26 -31 26 -76t-26 -73
q-29 -31 -82 -31q-55 0 -82 31q-29 28 -29 73t29 76z" />
    <glyph glyph-name="uniFEA7" unicode="&#x62e;" horiz-adv-x="1417" arabic-form="initial" 
d="M-10 166h892q-86 139 -86 375q0 127 -86 221q-86 96 -211 96q-183 0 -269 -166l-151 80q61 117 174 184q113 68 246 68q194 0 338 -150q141 -147 141 -344q0 -192 78 -286q63 -78 161 -78v-166h-1227v166zM393 1417q27 31 80 31q56 0 82 -31q29 -31 29 -76t-29 -75
q-26 -31 -82 -31q-53 0 -80 31q-28 30 -28 75t28 76z" />
    <glyph glyph-name="uniFEA8" unicode="&#x62e;" horiz-adv-x="1269" arabic-form="medial" 
d="M-10 166h891q-86 139 -86 375q0 127 -86 221q-86 96 -211 96q-182 0 -268 -166l-152 80q62 117 174 184q113 68 246 68q195 0 338 -150q141 -147 141 -344q0 -192 78 -286q64 -78 162 -78h102v-166h-1329v166zM392 1417q27 31 80 31q56 0 82 -31q29 -31 29 -76t-29 -75
q-26 -31 -82 -31q-53 0 -80 31q-28 30 -28 75t28 76z" />
    <glyph glyph-name="uniFEAA" unicode="&#x62f;" horiz-adv-x="1299" arabic-form="final" 
d="M149 0l1 166h647v158q0 63 -8 114q-10 72 -37 137q-74 175 -264 293l80 156q192 -121 299 -297q80 -131 104 -281q45 -280 289 -280h89v-166h-89q-182 0 -279 113l-1 -113h-831z" />
    <glyph glyph-name="uniFEAC" unicode="&#x630;" horiz-adv-x="1299" arabic-form="final" 
d="M149 0l1 166h647v158q0 63 -8 114q-10 72 -37 137q-74 175 -264 293l80 156q192 -121 299 -297q80 -131 104 -281q45 -280 289 -280h89v-166h-89q-182 0 -279 113l-1 -113h-831zM481 1358q28 31 81 31q54 0 82 -31q29 -33 29 -78t-29 -74q-28 -30 -82 -30q-53 0 -81 30
q-27 29 -27 74t27 78z" />
    <glyph glyph-name="uniFEAE" unicode="&#x631;" horiz-adv-x="735" arabic-form="final" 
d="M218 188v773h186v-383q0 -172 56 -275q75 -137 243 -137h82v-166h-90q-194 3 -293 160q-12 -434 -434 -690l-88 145q338 205 338 573z" />
    <glyph glyph-name="uniFEB0" unicode="&#x632;" horiz-adv-x="735" arabic-form="final" 
d="M218 188v773h186v-383q0 -172 56 -275q75 -137 243 -137h82v-166h-90q-194 3 -293 160q-12 -434 -434 -690l-88 145q338 205 338 573zM201 1278q0 45 29 76q26 30 82 30q53 0 82 -30q26 -31 26 -76t-26 -76q-29 -28 -82 -28q-56 0 -82 28q-29 31 -29 76z" />
    <glyph glyph-name="uniFEB2" unicode="&#x633;" horiz-adv-x="2736" arabic-form="final" 
d="M367 600l107 -133q-140 -113 -140 -320q0 -172 115 -290q115 -121 283 -121t282 121q113 118 113 290v687h186v-259q0 -172 56 -274q75 -135 243 -135h99v668h184v-320q10 -149 70 -238q75 -110 227 -110h98v795h187v-795h309v-166h-594q-195 0 -297 154v-154h-283
q-198 0 -299 158v-11q0 -241 -172 -409q-170 -168 -409 -168q-242 0 -412 168t-170 409q0 279 217 453z" />
    <glyph glyph-name="uniFEB3" unicode="&#x633;" horiz-adv-x="1788" arabic-form="initial" 
d="M-20 166h310v668h185v-259q0 -169 57 -274q74 -135 242 -135h98v668h186v-320q11 -149 70 -238q76 -110 225 -110h101v795h184v-961h-285q-194 0 -295 154v-154h-284q-199 0 -299 158v-158h-495v166z" />
    <glyph glyph-name="uniFEB4" unicode="&#x633;" horiz-adv-x="1902" arabic-form="medial" 
d="M-20 0v166h311v668h185v-259q0 -169 57 -274q74 -135 242 -135h98v668h186v-320q11 -149 70 -238q76 -110 225 -110h101v795h184v-795h313v-166h-598q-194 0 -295 154v-154h-284q-199 0 -299 158v-158h-496z" />
    <glyph glyph-name="uniFEB6" unicode="&#x634;" horiz-adv-x="2736" arabic-form="final" 
d="M367 600l107 -133q-140 -113 -140 -320q0 -172 115 -290q115 -121 283 -121t282 121q113 118 113 290v687h186v-259q0 -172 56 -274q75 -135 243 -135h99v668h184v-320q10 -149 70 -238q75 -110 227 -110h98v795h187v-795h309v-166h-594q-195 0 -297 154v-154h-283
q-198 0 -299 158v-11q0 -241 -172 -409q-170 -168 -409 -168q-242 0 -412 168t-170 409q0 279 217 453zM1516 1268q0 45 29 75q26 33 82 33q53 0 82 -33q26 -30 26 -75t-26 -74q-29 -31 -82 -31q-56 0 -82 31q-29 29 -29 74zM1872 1343q29 33 82 33q54 0 82 -33
q29 -30 29 -75t-29 -74q-28 -31 -82 -31q-53 0 -82 31q-26 29 -26 74t26 75zM1709 1614q28 33 81 33q54 0 82 -33q27 -31 27 -76t-27 -74q-28 -30 -82 -30q-55 0 -81 30q-27 29 -27 74t27 76z" />
    <glyph glyph-name="uniFEB7" unicode="&#x634;" horiz-adv-x="1788" arabic-form="initial" 
d="M-20 0v166h310v668h185v-259q0 -169 57 -274q74 -135 242 -135h98v668h186v-320q11 -149 70 -238q76 -110 225 -110h101v795h184v-961h-285q-194 0 -295 154v-154h-284q-199 0 -299 158v-158h-495zM870 1616q27 31 80 31q55 0 82 -31q29 -31 29 -76t-29 -76
q-27 -30 -82 -30q-53 0 -80 30q-29 31 -29 76q0 43 29 76zM1034 1346q27 30 82 30q53 0 82 -30q26 -33 26 -78q0 -43 -26 -74q-29 -31 -82 -31q-55 0 -82 31q-29 31 -29 74q0 45 29 78zM704 1346q29 30 82 30t82 -30q29 -33 29 -78q0 -43 -29 -74q-27 -31 -82 -31
q-53 0 -82 31q-26 31 -26 74q0 45 26 78z" />
    <glyph glyph-name="uniFEB8" unicode="&#x634;" horiz-adv-x="1902" arabic-form="medial" 
d="M-20 0v166h311v668h185v-259q0 -169 57 -274q74 -135 242 -135h98v668h186v-320q11 -149 70 -238q76 -110 225 -110h101v795h184v-795h313v-166h-598q-194 0 -295 154v-154h-284q-199 0 -299 158v-158h-496zM670 1268q0 45 26 78q29 30 82 30q54 0 82 -30q29 -33 29 -78
q0 -43 -29 -74q-26 -31 -82 -31q-53 0 -82 31q-26 29 -26 74zM998 1268q0 45 28 78q27 30 82 30q53 0 82 -30q27 -33 27 -78q0 -43 -27 -74q-29 -31 -82 -31q-55 0 -82 31q-28 31 -28 74zM862 1616q27 31 80 31q56 0 82 -31q29 -31 29 -76t-29 -76q-26 -30 -82 -30
q-53 0 -80 30q-28 31 -28 76q0 43 28 76z" />
    <glyph glyph-name="uniFEBA" unicode="&#x635;" horiz-adv-x="2724" arabic-form="final" 
d="M367 655l107 -133q-140 -112 -140 -319q0 -172 115 -291q115 -121 283 -121t282 121q113 119 113 291v686h186v-217q326 223 559 278q85 21 164 21q134 0 252 -60q176 -86 176 -323v-422h310v-166h-1500q-63 -166 -209 -270q-149 -105 -333 -105q-242 0 -412 168
t-170 410q0 278 217 452zM2280 168v420q0 131 -84 178q-14 8 -31 14q-20 8 -47 13q-36 8 -79 8q-37 0 -79 -6q-256 -37 -647 -281v-311l-4 -35h971z" />
    <glyph glyph-name="uniFEBB" unicode="&#x635;" horiz-adv-x="1791" arabic-form="initial" 
d="M290 166v721h184v-225q334 229 571 286q87 22 169 22q133 0 251 -59q176 -88 176 -323v-588h-1661v166h310zM1455 166v422q0 131 -82 176l-14 8l-17 6q-22 10 -49 15q-34 7 -73 7q-40 0 -86 -7q-261 -39 -660 -289v-338h981z" />
    <glyph glyph-name="uniFEBC" unicode="&#x635;" horiz-adv-x="1889" arabic-form="medial" 
d="M-20 166h295v721h185v-225q334 229 571 286q87 22 168 22q133 0 252 -59q176 -88 176 -323v-422h312v-166h-1959v166zM460 504v-338h983v422q0 131 -84 176l-15 8l-16 6q-22 10 -49 15q-34 7 -74 7t-86 -7q-260 -39 -659 -289z" />
    <glyph glyph-name="uniFEBE" unicode="&#x636;" horiz-adv-x="2724" arabic-form="final" 
d="M367 655l107 -133q-140 -112 -140 -319q0 -172 115 -291q115 -121 283 -121t282 121q113 119 113 291v686h186v-217q326 223 559 278q85 21 164 21q134 0 252 -60q176 -86 176 -323v-422h310v-166h-1500q-63 -166 -209 -270q-149 -105 -333 -105q-242 0 -412 168
t-170 410q0 278 217 452zM2280 168v420q0 131 -84 178q-14 8 -31 14q-20 8 -47 13q-36 8 -79 8q-37 0 -79 -6q-256 -37 -647 -281v-311l-4 -35h971zM1883 1354q28 30 82 30q53 0 82 -30q28 -31 28 -76t-28 -76q-29 -28 -82 -28q-54 0 -82 28q-27 31 -27 76t27 76z" />
    <glyph glyph-name="uniFEBF" unicode="&#x636;" horiz-adv-x="1791" arabic-form="initial" 
d="M290 166v721h184v-225q334 229 571 286q87 22 169 22q133 0 251 -59q176 -88 176 -323v-588h-1661v166h310zM474 504v-338h981v422q0 131 -82 176l-14 8l-17 6q-22 10 -49 15q-34 7 -73 7q-40 0 -86 -7q-261 -39 -660 -289zM1027 1354q28 30 82 30q53 0 82 -30
q28 -31 28 -76t-28 -76q-29 -31 -82 -31q-54 0 -82 31q-27 31 -27 76t27 76z" />
    <glyph glyph-name="uniFEC0" unicode="&#x636;" horiz-adv-x="1889" arabic-form="medial" 
d="M275 166v721h185v-225q334 229 571 286q87 22 168 22q133 0 252 -59q176 -88 176 -323v-422h312v-166h-1959v166h295zM460 504v-338h983v422q0 131 -84 176l-15 8l-16 6q-22 10 -49 15q-34 7 -74 7t-86 -7q-260 -39 -659 -289zM1036 1278q0 45 26 76q27 30 82 30
q54 0 82 -30q29 -31 29 -76t-29 -76q-28 -28 -82 -28q-55 0 -82 28q-26 31 -26 76z" />
    <glyph glyph-name="uniFEC2" unicode="&#x637;" horiz-adv-x="1870" arabic-form="final" 
d="M150 166h104v1370h185v-874q334 229 571 286q87 22 169 22q133 0 251 -59q176 -88 176 -323v-422h314v-166h-1770v166zM1420 166v422q0 131 -82 176l-14 8l-17 6q-22 10 -49 15q-34 7 -74 7t-86 -7q-260 -39 -659 -289v-338h981z" />
    <glyph glyph-name="uniFEC3" unicode="&#x637;" horiz-adv-x="1793" arabic-form="initial" 
d="M-20 166h311v1370h185v-874q331 229 569 286q88 22 169 22q134 0 251 -59q178 -88 178 -323v-588h-1663v166zM476 166h981v422q0 131 -82 176l-15 8l-16 6q-23 10 -49 15q-35 7 -75 7t-85 -7q-260 -39 -659 -289v-338z" />
    <glyph glyph-name="uniFEC4" unicode="&#x637;" horiz-adv-x="1903" arabic-form="medial" 
d="M-20 166h311v1370h185v-874q331 229 569 286q88 22 169 22q134 0 251 -59q178 -88 178 -323v-422h310v-166h-1973v166zM1457 166v422q0 131 -82 176l-15 8l-16 6q-23 10 -49 15q-35 7 -75 7t-85 -7q-260 -39 -659 -289v-338h981z" />
    <glyph glyph-name="uniFEC6" unicode="&#x638;" horiz-adv-x="1870" arabic-form="final" 
d="M150 166h104v1370h185v-874q334 229 571 286q87 22 169 22q133 0 251 -59q176 -88 176 -323v-422h314v-166h-1770v166zM439 504v-338h981v422q0 131 -82 176l-14 8l-17 6q-22 10 -49 15q-34 7 -74 7t-86 -7q-260 -39 -659 -289zM793 1354q27 30 80 30q55 0 82 -30
q29 -31 29 -76t-29 -76q-27 -31 -82 -31q-53 0 -80 31q-29 31 -29 76t29 76z" />
    <glyph glyph-name="uniFEC7" unicode="&#x638;" horiz-adv-x="1793" arabic-form="initial" 
d="M-20 166h311v1370h185v-874q331 229 569 286q88 22 169 22q134 0 251 -59q178 -88 178 -323v-588h-1663v166zM1457 166v422q0 131 -82 176l-15 8l-16 6q-23 10 -49 15q-35 7 -75 7t-85 -7q-260 -39 -659 -289v-338h981zM801 1278q0 45 27 76q29 30 82 30t82 -30
q28 -31 28 -76t-28 -76q-29 -31 -82 -31t-82 31q-27 31 -27 76z" />
    <glyph glyph-name="uniFEC8" unicode="&#x638;" horiz-adv-x="1903" arabic-form="medial" 
d="M-20 166h311v1370h185v-874q331 229 569 286q88 22 169 22q134 0 251 -59q178 -88 178 -323v-422h310v-166h-1973v166zM476 504v-338h981v422q0 131 -82 176l-15 8l-16 6q-23 10 -49 15q-35 7 -75 7t-85 -7q-260 -39 -659 -289zM828 1354q29 30 82 30t82 -30
q28 -31 28 -76t-28 -76q-29 -31 -82 -31t-82 31q-27 31 -27 76t27 76z" />
    <glyph glyph-name="uniFECA" unicode="&#x639;" horiz-adv-x="1711" arabic-form="final" 
d="M150 -213q0 188 178 313q68 47 168 90q41 17 90 35l43 17l41 14q131 47 170 68l41 22q-22 35 -47 74q-98 162 -170 209q-83 54 -217 54q-48 0 -102 -7l-60 153q248 168 533 220q98 17 183 17q160 0 275 -60q172 -91 174 -246v-4q0 -226 -315 -451q152 -139 420 -139h206
v-166h-206q-367 0 -567 211l-66 -37q-51 -29 -194 -78q-201 -71 -283 -127q-111 -75 -111 -182q0 -104 95 -168q86 -61 210 -61q129 2 232 45q39 18 82 45l37 22l34 27l99 -139l-39 -29l-45 -29q-51 -32 -103 -53q-129 -55 -290 -55h-7q-213 2 -350 112q-139 113 -139 283z
M850 692q35 -37 70 -88l31 -47l28 -47l45 -72q240 167 240 318v2q0 24 -12 47q-17 26 -55 51q-72 42 -192 42q-19 0 -40 -1q-151 -6 -317 -72q114 -39 202 -133z" />
    <glyph glyph-name="uniFECB" unicode="&#x639;" horiz-adv-x="1398" arabic-form="initial" 
d="M427 166q-46 39 -72 88q-68 119 -68 245q0 70 21 142q55 195 248 305q118 67 245 67q69 0 140 -20q204 -55 307 -239l-148 -84q-69 125 -204 161q-47 14 -93 14q-85 0 -163 -48q-142 -86 -160 -203q-7 -43 -7 -83q0 -96 40 -173q61 -119 202 -160q41 -12 90 -12h441v-166
h-1266v166h447z" />
    <glyph glyph-name="uniFECC" unicode="&#x639;" horiz-adv-x="1647" arabic-form="medial" 
d="M-20 166h201q367 4 652 143l-39 56l-34 53q-105 157 -181 203q-84 52 -218 52q-56 0 -120 -9l-59 155q254 166 553 217q110 18 204 18q157 0 273 -50q170 -76 172 -254v-4q0 -197 -188 -388q-41 -43 -90 -79q164 -113 399 -113h192v-166h-225q-317 9 -518 180
q-327 -176 -774 -180h-200v166zM766 690q35 -37 73 -88l62 -90q49 -76 80 -115q51 37 94 80q125 127 125 262v4v13l-2 12q-2 14 -8 29q-15 32 -58 55q-75 40 -199 40q-21 0 -44 -1q-162 -8 -336 -72q121 -37 213 -129z" />
    <glyph glyph-name="uniFECE" unicode="&#x63a;" horiz-adv-x="1711" arabic-form="final" 
d="M328 100q68 47 168 90q41 17 90 35l43 17l41 14q131 47 170 68l41 22q-22 35 -47 74q-98 162 -170 209q-83 54 -217 54q-48 0 -102 -7l-60 153q248 168 533 220q98 17 183 17q160 0 275 -60q172 -91 174 -246v-4q0 -226 -315 -451q152 -139 420 -139h206v-166h-206
q-367 0 -567 211l-66 -37q-51 -29 -194 -78q-201 -71 -283 -127q-111 -75 -111 -182q0 -104 95 -168q86 -61 210 -61q129 2 232 45q39 18 82 45l37 22l34 27l99 -139l-39 -29l-45 -29q-51 -32 -103 -53q-129 -55 -290 -55h-7q-213 2 -350 112q-139 113 -139 283
q0 188 178 313zM648 825q114 -39 202 -133q35 -37 70 -88l31 -47l28 -47l45 -72q240 167 240 318v2q0 24 -12 47q-17 26 -55 51q-72 42 -192 42q-19 0 -40 -1q-151 -6 -317 -72zM873 1419q29 31 82 31q55 0 82 -31q28 -30 28 -76q0 -45 -28 -75q-27 -31 -82 -31
q-53 0 -82 31q-27 30 -27 75q0 46 27 76z" />
    <glyph glyph-name="uniFECF" unicode="&#x63a;" horiz-adv-x="1398" arabic-form="initial" 
d="M-20 166h447q-46 39 -72 88q-68 119 -68 245q0 70 21 142q55 195 248 305q118 67 245 67q69 0 140 -20q204 -55 307 -239l-148 -84q-69 125 -204 161q-47 14 -93 14q-85 0 -163 -48q-142 -86 -160 -203q-7 -43 -7 -83q0 -96 40 -173q61 -119 202 -160q41 -12 90 -12h441
v-166h-1266v166zM648 1341q0 45 28 76q27 31 82 31q54 0 82 -31q27 -31 27 -76t-27 -75q-28 -29 -82 -29q-55 0 -82 29q-28 30 -28 75z" />
    <glyph glyph-name="uniFED0" unicode="&#x63a;" horiz-adv-x="1647" arabic-form="medial" 
d="M-20 166h201q367 4 652 143l-39 56l-34 53q-105 157 -181 203q-84 52 -218 52q-56 0 -120 -9l-59 155q254 166 553 217q110 18 204 18q157 0 273 -50q170 -76 172 -254v-4q0 -197 -188 -388q-41 -43 -90 -79q164 -113 399 -113h192v-166h-225q-317 9 -518 180
q-327 -176 -774 -180h-200v166zM766 690q35 -37 73 -88l62 -90q49 -76 80 -115q51 37 94 80q125 127 125 262v4v13l-2 12q-2 14 -8 29q-15 32 -58 55q-75 40 -199 40q-21 0 -44 -1q-162 -8 -336 -72q121 -37 213 -129zM766 1341q0 45 28 76q27 31 80 31q56 0 82 -31
q29 -31 29 -76t-29 -73q-26 -31 -82 -31q-53 0 -80 31q-28 28 -28 73z" />
    <glyph glyph-name="uniFED2" unicode="&#x641;" horiz-adv-x="2338" arabic-form="final" 
d="M150 463q0 268 229 405l97 -159q-140 -84 -140 -246q0 -125 86 -209q90 -88 234 -88h534q-137 147 -137 346q0 211 150 360q149 150 360 150t363 -150q149 -149 149 -360v-346h313v-166h-1757q-209 0 -348 135q-133 133 -133 328zM1235 512q0 -145 91 -244
q92 -102 237 -102h326v346q0 141 -92 242q-95 102 -234 102t-233 -102q-95 -101 -95 -242zM1455 1341q0 48 26 78q29 31 82 31t82 -31q29 -30 29 -78q0 -43 -29 -73q-29 -31 -82 -31t-82 31q-26 28 -26 73z" />
    <glyph glyph-name="uniFED3" unicode="&#x641;" horiz-adv-x="1459" arabic-form="initial" 
d="M-20 0v166h442q-135 147 -135 344q0 213 149 362q150 150 361 150t360 -150q150 -149 150 -362l2 -510h-1329zM467 510q0 -143 92 -242q92 -102 236 -102h327v344q0 143 -92 244q-94 102 -233 102t-236 -102q-94 -101 -94 -244zM715 1419q27 31 82 31q53 0 82 -31
q26 -33 26 -76q0 -45 -26 -75q-29 -31 -82 -31q-55 0 -82 31q-27 28 -27 75q0 46 27 76z" />
    <glyph glyph-name="uniFED4" unicode="&#x641;" horiz-adv-x="1569" arabic-form="medial" 
d="M-20 0v166h443q-136 147 -136 346q0 211 150 360q149 150 360 150t361 -150q149 -149 149 -360v-346h312v-166h-1639zM560 268q92 -102 235 -102h328v346q0 141 -92 242q-94 102 -234 102q-139 0 -235 -102q-94 -101 -94 -242q0 -145 92 -244zM689 1343q0 46 26 76
q27 31 82 31q54 0 82 -31q27 -33 27 -76q0 -45 -27 -75q-28 -31 -82 -31q-55 0 -82 31q-26 28 -26 75z" />
    <glyph glyph-name="uniFED6" unicode="&#x642;" horiz-adv-x="1976" arabic-form="final" 
d="M150 194q0 260 145 459l124 -136q-90 -143 -90 -323q0 -255 180.5 -435.5t435.5 -180.5q256 0 436 181q102 102 146 227q1 7 1 14h-326q-211 2 -360 152q-148 149 -148 360t150 360q149 150 360 150t361 -150q149 -149 149 -360q0 -41 2 -115v-229h310v-168h-312v-4
q-3 -28 -11 -53q-57 -174 -195 -312q-233 -233 -563 -233q-329 0 -562 233t-233 563zM967 270q92 -102 237 -104h326v346q0 143 -92 242q-95 102 -234 102t-233 -102q-92 -99 -92 -242t88 -242zM930 1358q0 45 28 76q27 30 80 30q56 0 82 -30q29 -31 29 -76t-29 -76
q-26 -31 -82 -31q-53 0 -80 31q-28 31 -28 76zM1259 1358q0 45 27 76q29 30 82 30t82 -30q29 -31 29 -76t-29 -76q-29 -29 -82 -29q-55 0 -82 29q-27 31 -27 76z" />
    <glyph glyph-name="uniFED7" unicode="&#x642;" horiz-adv-x="1459" arabic-form="initial" 
d="M-20 166h442q-135 147 -135 344q0 213 149 362q150 150 361 150t360 -150q150 -149 150 -362l2 -510h-1329v166zM559 268q92 -102 236 -102h327v344q0 143 -92 244q-94 102 -233 102t-236 -102q-94 -101 -94 -244t92 -242zM536 1343q0 46 26 76q29 31 82 31t82 -31
q29 -30 29 -76q0 -45 -29 -75q-29 -31 -82 -31t-82 31q-26 30 -26 75zM863 1343q0 46 29 76q27 31 80 31q55 0 82 -31q28 -30 28 -76q0 -45 -28 -75q-27 -31 -82 -31q-53 0 -80 31q-29 28 -29 75z" />
    <glyph glyph-name="uniFED8" unicode="&#x642;" horiz-adv-x="1569" arabic-form="medial" 
d="M-20 0v166h443q-136 147 -136 346q0 211 150 360q149 150 360 150t361 -150q149 -149 149 -360v-346h312v-166h-1639zM560 268q92 -102 235 -102h328v346q0 141 -92 242q-94 102 -234 102q-139 0 -235 -102q-94 -101 -94 -242q0 -145 92 -244zM830 1343q0 43 28 76
q27 31 80 31q55 0 84 -31q27 -33 27 -76q0 -45 -27 -75q-29 -31 -84 -31q-53 0 -80 31q-28 30 -28 75zM529 1419q28 31 81 31q54 0 82 -31q29 -30 29 -78q0 -43 -29 -73q-28 -31 -82 -31q-53 0 -81 31q-27 30 -27 73q0 48 27 78z" />
    <glyph glyph-name="uniFEDA" unicode="&#x643;" horiz-adv-x="1907" arabic-form="final" 
d="M375 866l97 -157q-140 -84 -140 -248q0 -123 86 -207q90 -88 234 -88h745v1370h185v-982q5 -159 59 -253q74 -135 240 -135h76v-166h-76q-197 0 -299 158v-158h-955q-209 0 -348 135q-133 131 -133 326q0 270 229 405zM694 780h90q-22 46 -22 92q0 27 8 54q22 82 96 123
q48 28 99 28q28 0 56 -8q82 -22 123 -98l-100 -56q-18 33 -53 43q-11 3 -22 3q-24 0 -48 -13q-31 -16 -41 -53q-4 -12 -4 -25q0 -23 12 -45q25 -45 78 -45h199v-114h-471v114z" />
    <glyph glyph-name="uniFEDB" unicode="&#x643;" horiz-adv-x="1743" arabic-form="initial" 
d="M1409 166v153q0 121 -113 207q-127 95 -344 95h-776v167l1055 719l96 -141l-850 -580h469q275 0 461 -133t186 -334v-319h-1613v166h1429z" />
    <glyph glyph-name="uniFEDC" unicode="&#x643;" horiz-adv-x="1789" arabic-form="medial" 
d="M-20 0v166h1429v153q0 121 -113 207q-127 95 -344 95h-776v167l1055 719l96 -141l-850 -580h469q275 0 461 -131q186 -135 186 -336v-153h246v-166h-1859z" />
    <glyph glyph-name="uniFEDE" unicode="&#x644;" horiz-adv-x="1659" arabic-form="final" 
d="M447 762l109 -133q-222 -176 -222 -430q0 -209 117 -344q123 -140 322 -140q198 0 327 146q125 139 125 348v409h-2v912h187v-955q0 -172 57 -274q76 -135 242 -135v-166q-201 0 -304 162q-16 -260 -192 -434q-180 -179 -438 -179q-273 0 -449 189q-176 184 -176 461
q0 323 297 563z" />
    <glyph glyph-name="uniFEDF" unicode="&#x644;" horiz-adv-x="621" arabic-form="initial" 
d="M-20 0v166h307v1370h184v-1536h-491z" />
    <glyph glyph-name="uniFEE0" unicode="&#x644;" horiz-adv-x="771" arabic-form="medial" 
d="M-20 166h308v1370h185v-961q0 -169 57 -272q74 -137 242 -137h49v-166h-55q-195 4 -293 158v-158h-493v166z" />
    <glyph glyph-name="uniFEE2" unicode="&#x645;" horiz-adv-x="1803" arabic-form="final" 
d="M150 -707v574q0 176 90 250q33 28 76 41q31 8 65 8h17l20 2q27 4 47 10q60 21 60 70v239q0 211 151 361q150 149 361 149t360 -149q150 -150 150 -361q0 -106 -41 -202l6 -13l8 -12q8 -14 10 -18q45 -74 185 -74h138v-168h-198q-162 0 -250 135q-151 -160 -368 -160
t-369 160q-78 -139 -287 -139h-10l-8 -2q-12 -4 -20 -14q-23 -29 -23 -113v-574h-170zM803 244q95 -103 234 -103t233 103q94 100 94 243q0 142 -94 242q-94 102 -233 102t-234 -102q-92 -100 -92 -242q0 -143 92 -243z" />
    <glyph glyph-name="uniFEE3" unicode="&#x645;" horiz-adv-x="1462" arabic-form="initial" 
d="M146 166q9 0 36.5 3t50.5 9q59 21 59 70v237q0 213 149 363q150 149 361 149t360 -149q150 -150 150 -363q0 -211 -150 -360q-149 -150 -360 -150q-219 0 -369 158q-37 -67 -119 -102q-61 -31 -168 -31h-166v166h166zM568 244q95 -101 234 -101t233 101q95 100 95 241
q0 144 -95 244q-94 102 -233 102t-234 -102q-90 -100 -90 -244q0 -141 90 -241z" />
    <glyph glyph-name="uniFEE4" unicode="&#x645;" horiz-adv-x="1575" arabic-form="medial" 
d="M-20 166h203q27 4 50 10q59 23 59 70v239q0 213 149 363q150 149 361 149t360 -149q150 -150 150 -363q0 -104 -41 -200l6 -13l8 -12q8 -14 12 -18q46 -76 185 -76h143v-166h-205q-161 0 -250 135q-151 -160 -368 -160q-219 0 -369 158q-37 -67 -119 -102
q-61 -31 -168 -31h-166v166zM478 485q0 -141 90 -241q95 -101 234 -101t233 101q95 100 95 241q0 144 -95 244q-94 102 -233 102t-234 -102q-90 -100 -90 -244z" />
    <glyph glyph-name="uniFEE6" unicode="&#x646;" horiz-adv-x="1659" arabic-form="final" 
d="M447 762l109 -133q-222 -176 -222 -430q0 -209 117 -344q123 -140 322 -140q198 0 327 146q125 139 125 348v749h185v-383q0 -172 57 -274q76 -135 242 -135v-166q-201 0 -304 162q-16 -260 -192 -434q-180 -179 -438 -179q-273 0 -449 189q-176 184 -176 461
q0 323 297 563zM756 1221q29 30 82 30t82 -30q29 -31 29 -76t-29 -76q-29 -29 -82 -29q-55 0 -82 29q-26 31 -26 76t26 76z" />
    <glyph glyph-name="uniFEE7" unicode="&#x646;" horiz-adv-x="641" arabic-form="initial" 
d="M-20 166h308v792h187v-958h-495v166zM300 1354q27 30 82 30q53 0 82 -30q27 -31 27 -76t-27 -76q-29 -31 -82 -31q-55 0 -82 31q-29 31 -29 76t29 76z" />
    <glyph glyph-name="uniFEE8" unicode="&#x646;" horiz-adv-x="740" arabic-form="medial" 
d="M-20 0v166h270v792h185v-383q0 -172 57 -274q76 -135 242 -135h56v-166h-60q-194 2 -295 156v-156h-455zM229 1354q26 30 82 30q53 0 82 -30q26 -31 26 -76t-26 -76q-29 -31 -82 -31q-56 0 -82 31q-29 31 -29 76t29 76z" />
    <glyph glyph-name="uniFEEA" unicode="&#x647;" horiz-adv-x="1280" arabic-form="final" 
d="M289 811q139 180 369 180h227q65 0 65 68v14h170v-762q0 -59 43 -102t103 -43h63v-166h-63q-96 0 -176 53q-78 53 -115 140l-16 -17l-19 -16q-123 -97 -284 -97q-62 0 -121 15q-119 31 -207 121q-90 88 -121 207q-17 65 -17 127q0 150 99 278zM373 449q41 -164 205 -205
q43 -11 83 -11q95 0 175 62q114 88 114 231v305q-36 -10 -65 -10h-227q-146 0 -234 -114q-62 -81 -62 -176q0 -40 11 -82z" />
    <glyph glyph-name="uniFEEB" unicode="&#x647;" horiz-adv-x="1639" arabic-form="initial" 
d="M-20 166h446q41 0 62 8q-80 76 -117 178q-12 35 -18 70l-4 24v15q0 160 118 270q115 111 279 111q162 0 276 -111q119 -110 119 -270q0 -8 -2 -19q0 -12 -2 -24q-6 -35 -18 -70q-35 -96 -117 -174q33 -8 61 -8h240l-2 416q0 223 -156 383q-157 161 -383 161
q-227 0 -391 -170l-125 119q211 217 516 217q295 0 512 -215q215 -211 215 -495v-582q-350 0 -467 2q-153 2 -276 37q-139 -39 -320 -39h-446v166zM535 461q0 -164 211 -242q207 76 207 242q0 90 -60 153q-59 62 -147 62q-90 0 -150 -62q-61 -63 -61 -153z" />
    <glyph glyph-name="uniFEEC" unicode="&#x647;" horiz-adv-x="1322" arabic-form="medial" 
d="M-20 0v166h311v350q0 205 102 338q105 133 263 133q159 0 268 -133q111 -135 111 -338q0 -201 -103 -350h440v-166h-378q67 -94 67 -207q0 -153 -119 -266q-114 -111 -272 -111t-268 111q-111 111 -111 266v207h-311zM656 165q73 0 131 101q63 105 63 250q0 133 -55 219
q-53 86 -139 86q-84 0 -133 -86q-48 -84 -48 -219v-351h181zM475 0v-207q0 -86 56 -147q55 -64 139 -64t145 64q62 61 62 147t-62 148q-59 59 -145 59h-195z" />
    <glyph glyph-name="uniFEEE" unicode="&#x648;" horiz-adv-x="1484" arabic-form="final" 
d="M350 872q149 150 362 150q211 0 360 -150q150 -151 150 -362v-344h312v-166h-324q-43 -166 -209 -276q-201 -138 -518 -138v166q225 0 374 72q138 67 172 176h-317q-213 0 -362 150q-150 149 -150 360t150 362zM384 510q0 -141 95 -242q94 -102 233 -102h326v344
q0 143 -95 244q-94 102 -231 102q-139 0 -233 -102q-95 -101 -95 -244z" />
    <glyph glyph-name="uniFEF0" unicode="&#x649;" horiz-adv-x="1943" arabic-form="final" 
d="M189 246q41 143 170 266l119 -125q-136 -126 -136 -258q0 -52 21 -104q59 -150 248 -244q190 -96 430 -96q182 0 303 65q121 64 151 176q9 32 9 64q0 41 -15 80q-26 71 -86 106q-63 41 -166 113l-67 47l96 141l205 -143q78 -51 139 -84q158 -82 285 -84h98v-166h-98
q-109 0 -228 43q5 -37 5 -70q0 -49 -11 -92q-47 -170 -213 -266q-163 -96 -407 -96q-297 0 -527 123q-231 120 -309 319q-32 83 -32 166q0 59 16 119z" />
    <glyph glyph-name="uniFEF2" unicode="&#x64a;" horiz-adv-x="1943" arabic-form="final" 
d="M189 246q41 143 170 266l119 -125q-136 -126 -136 -258q0 -52 21 -104q59 -150 248 -244q190 -96 430 -96q182 0 303 65q121 64 151 176q9 32 9 64q0 41 -15 80q-26 71 -86 106q-63 41 -166 113l-67 47l96 141l205 -143q78 -51 139 -84q158 -82 285 -84h98v-166h-98
q-109 0 -228 43q5 -37 5 -70q0 -49 -11 -92q-47 -170 -213 -266q-163 -96 -407 -96q-297 0 -527 123q-231 120 -309 319q-32 83 -32 166q0 59 16 119zM1078 -651q29 33 82 33q55 0 82 -33q29 -31 29 -76t-29 -74q-27 -30 -82 -30q-53 0 -82 30q-26 29 -26 74t26 76z
M724 -727q0 45 27 76q26 33 81 33q54 0 82 -33q27 -31 27 -76t-27 -74q-28 -30 -82 -30q-55 0 -81 30q-27 29 -27 74z" />
    <glyph glyph-name="uniFEF3" unicode="&#x64a;" horiz-adv-x="675" arabic-form="initial" 
d="M288 166v792h187v-958h-495v166h308zM-50 -279q0 46 26 76q29 33 82 33q56 0 82 -33q29 -30 29 -76q0 -45 -29 -73q-26 -31 -82 -31q-53 0 -82 31q-26 28 -26 73zM256 -279q0 46 26 76q29 33 82 33q56 0 82 -33q29 -30 29 -76q0 -45 -29 -73q-26 -31 -82 -31
q-53 0 -82 31q-26 28 -26 73z" />
    <glyph glyph-name="uniFEF4" unicode="&#x64a;" horiz-adv-x="740" arabic-form="medial" 
d="M-20 0v166h270v792h185v-383q0 -172 57 -274q76 -135 242 -135h56v-166h-60h-4q-162 0 -291 156v-156h-455zM380 -279q0 46 26 76q29 33 82 33q56 0 82 -33q29 -30 29 -76q0 -45 -29 -73q-26 -31 -82 -31q-53 0 -82 31q-26 28 -26 73zM100 -203q29 33 82 33q56 0 82 -33
q29 -30 29 -76q0 -45 -29 -73q-26 -31 -82 -31q-53 0 -82 31q-26 28 -26 73q0 46 26 76z" />
    <glyph glyph-name=".notdef" horiz-adv-x="1024" 
d="M100 1434h824v-1434h-824v1434zM874 50v1334h-724v-1334h724zM325 1103v45q31 28 58 43q53 30 112 30q92 0 148 -47.5t56 -127.5q0 -49 -23 -98.5t-87 -129.5q-63 -80 -99 -132t-36 -99q0 -38 24 -133h-32q-35 97 -35 148q0 76 81.5 218t81.5 217q0 57 -33 90t-91 33
q-38 0 -69 -17q-26 -15 -56 -40zM378 312q0 10 11 22l57 58q11 10 20 10q10 0 22 -11l56 -60q9 -11 9 -20q0 -11 -10 -22l-56 -62q-14 -14 -21 -14q-11 0 -20 10l-61 71q-7 9 -7 18z" />
    <glyph glyph-name=".null" 
 />
    <glyph glyph-name="uni000D" unicode="&#xd;" horiz-adv-x="512" 
 />
    <glyph glyph-name="uni001D" 
 />
    <glyph glyph-name="uni001D" 
 />
    <glyph glyph-name="space" unicode=" " horiz-adv-x="500" 
 />
    <glyph glyph-name="exclam" unicode="!" horiz-adv-x="527" 
d="M361 1456l-14 -1045h-167l-13 1045h194zM160 93q0 45 27.5 75.5t81.5 30.5t82 -30.5t28 -75.5t-28 -74.5t-82 -29.5t-81.5 29.5t-27.5 74.5z" />
    <glyph glyph-name="quotedbl" unicode="&#x22;" horiz-adv-x="655" 
d="M407 1536h140v-136l-30 -358h-111zM137 1536h140v-136l-30 -358h-111z" />
    <glyph glyph-name="numbersign" unicode="#" horiz-adv-x="1261" 
d="M119 547h265l69 354h-258v139h285l82 416h143l-82 -416h264l82 416h144l-82 -416h204v-139h-231l-69 -354h225v-137h-251l-80 -410h-144l80 410h-264l-80 -410h-143l80 410h-239v137zM527 547h264l69 354h-264z" />
    <glyph glyph-name="dollar" unicode="$" horiz-adv-x="1150" 
d="M110 429h185q0 -139 73 -214t207 -75q131 0 206 63t75 172q0 92 -64.5 155t-217.5 114q-213 65 -310.5 169.5t-97.5 265.5q0 164 95.5 269t262.5 125v219h149v-220q168 -23 261.5 -141t93.5 -323h-184q0 141 -67 224t-181 83q-119 0 -182 -61.5t-63 -171.5
q0 -102 66.5 -162.5t219 -110t238 -109t126 -138.5t40.5 -185q0 -169 -101.5 -272t-284.5 -122v-191h-148v191q-186 17 -291.5 132.5t-105.5 313.5z" />
    <glyph glyph-name="percent" unicode="%" horiz-adv-x="1500" 
d="M814 285v72q0 131 83.5 215.5t214.5 84.5t215 -84t84 -223v-71q0 -131 -83.5 -215.5t-213.5 -84.5t-215 83.5t-85 222.5zM105 1106v70q0 131 83.5 216t214.5 85q133 0 215.5 -85.5t82.5 -221.5v-71q0 -132 -83.5 -215.5t-212.5 -83.5q-130 0 -215 83.5t-85 222.5z
M1053 1314l105 -66l-711 -1138l-105 66zM996 150q44 -51 118 -51q72 0 115 49.5t43 134.5v74q0 79 -43.5 129t-116.5 50q-71 0 -115.5 -49.5t-44.5 -133.5v-74q0 -79 44 -129zM243 1099q0 -78 44 -128.5t118 -50.5q71 0 114.5 49t43.5 134v73q0 78 -43 129t-117 51t-117 -51
t-43 -133v-73z" />
    <glyph glyph-name="ampersand" unicode="&#x26;" horiz-adv-x="1273" 
d="M160 584q58 88 223 205q-97 118 -130 190t-33 143q0 166 98 260t266 94q150 0 248 -87.5t98 -220.5q0 -88 -44.5 -162.5t-155.5 -156.5l-107 -79l324 -387q68 130 68 289h167q0 -255 -123 -423l208 -249h-222l-97 115q-74 -66 -173.5 -100.5t-202.5 -34.5
q-213 0 -342 113t-129 298q0 105 59 193zM286 391q0 -118 76.5 -189t209.5 -71q147 0 269 112l-355 425l-33 -24q-167 -123 -167 -253zM523 888l118 83q68 48 93 91.5t25 105.5q0 67 -50 111.5t-126 44.5q-82 0 -130 -55.5t-48 -140.5q0 -96 118 -240z" />
    <glyph glyph-name="quotesingle" unicode="'" horiz-adv-x="357" 
d="M253 1425l-21 -368h-129l1 479h149v-111z" />
    <glyph glyph-name="parenleft" unicode="(" horiz-adv-x="700" 
d="M133 591q0 226 60.5 434t180.5 378t249 240l38 -122q-146 -112 -239.5 -342t-102.5 -515l-1 -85q0 -386 141 -670q85 -170 202 -266l-38 -113q-133 74 -254 248q-236 340 -236 813z" />
    <glyph glyph-name="parenright" unicode=")" horiz-adv-x="712" 
d="M38 -357q154 118 247.5 366.5t95.5 551.5v32q0 210 -44 390.5t-122.5 323.5t-176.5 223l39 113q132 -73 251.5 -244t179 -377t59.5 -441q0 -223 -58.5 -427.5t-179 -377.5t-252.5 -246z" />
    <glyph glyph-name="asterisk" unicode="*" horiz-adv-x="882" 
d="M330 983l-302 90l46 151l302 -112l-9 344h153l-10 -349l297 110l46 -152l-307 -91l198 -271l-124 -94l-186 288l-180 -281l-125 91z" />
    <glyph glyph-name="plus" unicode="+" horiz-adv-x="1161" 
d="M484 781v425h186v-425h406v-175h-406v-460h-186v460h-406v175h406z" />
    <glyph glyph-name="comma" unicode="," horiz-adv-x="402" 
d="M29 -218q94 131 98 270v167h181v-145q0 -101 -49.5 -202t-124.5 -162z" />
    <glyph glyph-name="hyphen" unicode="-" horiz-adv-x="565" 
d="M525 543h-488v151h488v-151z" />
    <glyph glyph-name="period" unicode="." horiz-adv-x="539" 
d="M144 97q0 48 28.5 80t85.5 32t86.5 -32t29.5 -80q0 -46 -29.5 -77t-86.5 -31t-85.5 31t-28.5 77z" />
    <glyph glyph-name="slash" unicode="/" horiz-adv-x="844" 
d="M177 -125h-159l608 1581h158z" />
    <glyph glyph-name="zero" unicode="0" horiz-adv-x="1150" 
d="M115 596v247q0 321 111 477t348 156q235 0 346 -150.5t114 -464.5v-240q0 -325 -111 -483t-347 -158q-233 0 -345 154.5t-116 461.5zM369 244q68 -113 207 -113q137 0 203.5 106t69.5 334v303q0 235 -66 342.5t-209 107.5q-142 0 -207 -107t-67 -329v-296q0 -236 69 -348
z" />
    <glyph glyph-name="one" unicode="1" horiz-adv-x="1150" 
d="M729 0h-186v1233l-373 -137v168l530 199h29v-1463z" />
    <glyph glyph-name="two" unicode="2" horiz-adv-x="1150" 
d="M223 1352q129 124 346 124q203 0 321 -106.5t118 -283.5q0 -215 -274 -512l-390 -423h731v-151h-954v133l504 560q112 127 154.5 206.5t42.5 164.5q0 114 -69 187t-184 73q-138 0 -214.5 -78.5t-76.5 -218.5h-185q0 201 130 325z" />
    <glyph glyph-name="three" unicode="3" horiz-adv-x="1150" 
d="M280 384q0 -115 75 -184t201 -69q134 0 205 70t71 201q0 127 -78 195t-225 70h-139v151h139q131 2 206 69t75 181q0 256 -255 256q-120 0 -191.5 -68.5t-71.5 -181.5h-185q0 173 126.5 287.5t321.5 114.5q206 0 323 -109t117 -303q0 -95 -61.5 -184t-167.5 -133
q120 -38 185.5 -126t65.5 -215q0 -196 -128 -311t-333 -115t-333.5 111t-128.5 293h186z" />
    <glyph glyph-name="four" unicode="4" horiz-adv-x="1150" 
d="M705 1456h197v-967h202v-151h-202v-338h-186v338h-663v109zM263 489h453v714l-22 -40z" />
    <glyph glyph-name="five" unicode="5" horiz-adv-x="1150" 
d="M154 383h175q17 -125 89 -188.5t190 -63.5q129 0 202.5 88t73.5 243q0 146 -79.5 234.5t-211.5 88.5q-121 0 -190 -53l-49 -40l-148 38l74 726h746v-171h-589l-44 -397q107 63 243 63q199 0 316 -131.5t117 -355.5q0 -225 -121.5 -354.5t-339.5 -129.5q-193 0 -315 107
t-139 296z" />
    <glyph glyph-name="six" unicode="6" horiz-adv-x="1150" 
d="M132 554v71q0 402 171.5 614.5t510.5 217.5h33v-157h-34q-216 -4 -344 -128t-148 -349q115 132 314 132q190 0 303.5 -134t113.5 -346q0 -225 -122.5 -360t-328.5 -135q-209 0 -339 160.5t-130 413.5zM399 243q81 -110 202 -110q125 0 196.5 92t71.5 241
q0 150 -72.5 242.5t-192.5 92.5q-95 0 -175 -57t-111 -143v-68q0 -180 81 -290z" />
    <glyph glyph-name="seven" unicode="7" horiz-adv-x="1150" 
d="M1061 1352l-603 -1352h-194l601 1304h-788v152h984v-104z" />
    <glyph glyph-name="eight" unicode="8" horiz-adv-x="1150" 
d="M112 393q0 118 64.5 213t178.5 144q-97 48 -153 133t-56 193q0 184 118 292t311 108q192 0 310.5 -108t118.5 -292q0 -109 -57.5 -194t-155.5 -133q114 -49 180.5 -143t66.5 -213q0 -189 -127.5 -301t-335.5 -112q-210 0 -336.5 112.5t-126.5 300.5zM297 397
q0 -124 73.5 -195t204.5 -71q130 0 204 71.5t74 194.5q0 122 -77.5 199t-202.5 77t-200.5 -76t-75.5 -200zM331 1073q0 -111 66.5 -179.5t177.5 -68.5t177.5 68.5t66.5 179.5t-69 181t-175 70q-109 0 -176.5 -67.5t-67.5 -183.5z" />
    <glyph glyph-name="nine" unicode="9" horiz-adv-x="1150" 
d="M156 1235q55 117 157 179t238 62q216 0 340.5 -161.5t124.5 -440.5v-54q0 -425 -168 -620.5t-507 -200.5h-36v156h39q229 4 352 119.5t134 365.5q-58 -69 -138.5 -111t-176.5 -42q-126 0 -219.5 62t-144.5 174.5t-51 248.5q0 146 56 263zM282 982q0 -149 71.5 -245.5
t191.5 -96.5q93 0 171.5 57t114.5 141v74q0 182 -79 296t-200 114q-122 0 -196 -93.5t-74 -246.5z" />
    <glyph glyph-name="colon" unicode=":" horiz-adv-x="496" 
d="M135 980q0 48 28.5 80t85.5 32t86.5 -32t29.5 -80q0 -46 -29.5 -77t-86.5 -31t-85.5 31t-28.5 77zM163 177q28 32 85 32t86.5 -32t29.5 -80q0 -46 -29.5 -77t-86.5 -31t-85.5 31t-28.5 77q0 48 29 80z" />
    <glyph glyph-name="semicolon" unicode=";" horiz-adv-x="433" 
d="M41 -218q94 131 98 270v167h181v-145q0 -101 -49.5 -202t-124.5 -162zM111 980q0 48 28.5 80t85.5 32t86.5 -32t29.5 -80q0 -46 -29.5 -77t-86.5 -31t-85.5 31t-28.5 77z" />
    <glyph glyph-name="less" unicode="&#x3c;" horiz-adv-x="1041" 
d="M72 574v146l818 378v-196l-626 -258l626 -253v-196z" />
    <glyph glyph-name="equal" unicode="=" horiz-adv-x="1124" 
d="M986 975v-161h-834v161h834zM152 399v160h834v-160h-834z" />
    <glyph glyph-name="greater" unicode="&#x3e;" horiz-adv-x="1070" 
d="M134 196v192l661 262l-661 259v190l854 -378v-146z" />
    <glyph glyph-name="question" unicode="?" horiz-adv-x="967" 
d="M75 1115q2 162 115.5 261.5t295.5 99.5q189 0 294.5 -101.5t105.5 -278.5q0 -175 -162 -345l-109 -108q-73 -81 -73 -233h-185q2 119 27 188t102 153l131 135q84 95 84 204q0 105 -55 164.5t-160 59.5q-102 0 -164 -54t-62 -145h-185zM377 169q27 30 81 30t82 -30.5
t28 -75.5t-28 -74.5t-82 -29.5t-81.5 29.5t-27.5 74.5t28 76z" />
    <glyph glyph-name="at" unicode="@" horiz-adv-x="1839" 
d="M118 478q12 275 123 494.5t301 339t429 119.5q249 0 427 -112t259.5 -310t81.5 -439q0 -34 -1 -68q-12 -242 -120 -382t-289 -140q-187 0 -240 168q-54 -85 -123.5 -126.5t-143.5 -41.5q-142 0 -207.5 104t-65.5 252q0 39 4 81q15 165 75.5 294.5t156 203.5t200.5 74
q81 0 145 -21.5t144 -84.5l-52 -554q-2 -26 -2 -50q0 -181 130 -181q113 0 183 112t76 292q2 40 2 79q0 331 -155 524.5t-489 193.5q-201 0 -357 -99.5t-246 -287.5t-101 -434q-2 -35 -2 -70q0 -204 67 -373.5t214.5 -266t356.5 -96.5q90 0 180.5 22t150.5 57l37 -115
q-62 -39 -164.5 -64t-207.5 -25q-250 0 -430 112.5t-264 311.5t-84 441q0 33 1 66zM739 199q40 -76 128 -76q60 0 115.5 51t91.5 146l47 512q-56 29 -120 29q-117 0 -193.5 -119t-95.5 -325q-4 -36 -4 -68q0 -93 31 -150z" />
    <glyph glyph-name="A" unicode="A" horiz-adv-x="1336" 
d="M584 1456h168l557 -1456h-197l-139 380h-610l-137 -380h-198zM916 538l-248 681l-247 -681h495z" />
    <glyph glyph-name="B" unicode="B" horiz-adv-x="1275" 
d="M645 1456q237 0 356.5 -98t119.5 -290q0 -102 -58 -180.5t-158 -121.5q118 -33 186.5 -125.5t68.5 -220.5q0 -196 -127 -308t-359 -112h-505v1456h476zM361 157h317q134 0 211.5 69.5t77.5 191.5q0 263 -286 263h-320v-524zM361 835h290q126 0 201.5 63t75.5 171
q0 120 -70 174.5t-213 54.5h-284v-463z" />
    <glyph glyph-name="C" unicode="C" horiz-adv-x="1333" 
d="M192 1157q72 154 205 236.5t308 82.5q232 0 372 -129.5t163 -358.5h-193q-25 174 -108.5 252t-233.5 78q-184 0 -288.5 -136t-104.5 -387v-141q0 -237 99 -377t277 -140q160 0 245.5 72.5t113.5 252.5h193q-27 -231 -170.5 -356.5t-381.5 -125.5q-258 0 -413.5 185
t-155.5 495v140q0 203 73 357z" />
    <glyph glyph-name="D" unicode="D" horiz-adv-x="1343" 
d="M169 0v1456h411q190 0 336 -84t225.5 -239t80.5 -356v-93q0 -206 -79.5 -361t-227 -238t-343.5 -85h-403zM361 1298v-1141h202q222 0 345.5 138t123.5 393v85q0 248 -116.5 385.5t-330.5 139.5h-224z" />
    <glyph glyph-name="E" unicode="E" horiz-adv-x="1164" 
d="M1084 1456v-158h-723v-468h631v-157h-631v-516h733v-157h-925v1456h915z" />
    <glyph glyph-name="F" unicode="F" horiz-adv-x="1132" 
d="M169 0v1456h902v-158h-710v-498h611v-157h-611v-643h-192z" />
    <glyph glyph-name="G" unicode="G" horiz-adv-x="1395" 
d="M122 658v127q0 329 153.5 510t431.5 181q228 0 367 -116.5t170 -330.5h-192q-54 289 -344 289q-193 0 -292.5 -135.5t-100.5 -392.5v-119q0 -245 112 -389.5t303 -144.5q108 0 189 24t134 81v327h-337v156h528v-534q-74 -106 -206.5 -158.5t-308.5 -52.5
q-178 0 -316 83.5t-213.5 237.5t-77.5 357z" />
    <glyph glyph-name="H" unicode="H" horiz-adv-x="1460" 
d="M169 0v1456h192v-626h734v626h193v-1456h-193v673h-734v-673h-192z" />
    <glyph glyph-name="I" unicode="I" horiz-adv-x="557" 
d="M375 0h-192v1456h192v-1456z" />
    <glyph glyph-name="J" unicode="J" horiz-adv-x="1130" 
d="M53 402h192q0 -125 68.5 -195t198.5 -70q119 0 192.5 75t74.5 210v1034h193v-1031q0 -209 -125.5 -327t-334.5 -118q-217 0 -338 111t-121 311z" />
    <glyph glyph-name="K" unicode="K" horiz-adv-x="1284" 
d="M169 0v1456h192v-720l647 720h232l-573 -643l618 -813h-230l-516 677l-178 -185v-492h-192z" />
    <glyph glyph-name="L" unicode="L" horiz-adv-x="1102" 
d="M362 157h690v-157h-883v1456h193v-1299z" />
    <glyph glyph-name="M" unicode="M" horiz-adv-x="1788" 
d="M417 1456l476 -1188l476 1188h249v-1456h-192v567l18 612l-478 -1179h-147l-477 1176l19 -609v-567h-192v1456h248z" />
    <glyph glyph-name="N" unicode="N" horiz-adv-x="1460" 
d="M362 1456l735 -1127v1127h191v-1456h-193l-733 1122v-1122h-193v1456h193z" />
    <glyph glyph-name="O" unicode="O" horiz-adv-x="1408" 
d="M191 1144q73 161 206.5 246.5t305.5 85.5q175 0 308.5 -84.5t205.5 -245t72 -373.5v-92q0 -214 -72 -373.5t-204 -243.5t-308 -84q-172 0 -305 84.5t-206.5 241t-75.5 362.5v105q0 210 73 371zM309 681q0 -251 105.5 -394.5t290.5 -143.5q186 0 288 135.5t105 388.5v108
q0 259 -104 397.5t-291 138.5q-182 0 -286.5 -138.5t-107.5 -384.5v-107z" />
    <glyph glyph-name="P" unicode="P" horiz-adv-x="1292" 
d="M169 1456h537q239 0 374.5 -122t135.5 -323q0 -212 -132.5 -326.5t-379.5 -114.5h-343v-570h-192v1456zM706 727q154 0 236 72.5t82 209.5q0 130 -82 208t-225 81h-356v-571h345z" />
    <glyph glyph-name="Q" unicode="Q" horiz-adv-x="1408" 
d="M109 668v105q0 210 73 371t206.5 246.5t305.5 85.5q176 0 309.5 -85t205.5 -244.5t72 -372.5v-93q0 -211 -67 -363.5t-188 -238.5l260 -204l-131 -121l-307 244q-72 -18 -152 -18q-172 0 -305 84.5t-206.5 241t-75.5 362.5zM301 788v-107q0 -250 104.5 -394t290.5 -144
t288 135.5t105 388.5v108q0 257 -102.5 396.5t-292.5 139.5q-181 0 -285.5 -138.5t-107.5 -384.5z" />
    <glyph glyph-name="R" unicode="R" horiz-adv-x="1261" 
d="M650 1456q246 0 378.5 -112t132.5 -326q0 -136 -73.5 -237t-204.5 -151l342 -618v-12h-206l-316 589h-342v-589h-193v1456h482zM361 746h295q143 0 227.5 74t84.5 198q0 135 -80.5 207t-232.5 73h-294v-552z" />
    <glyph glyph-name="S" unicode="S" horiz-adv-x="1215" 
d="M273 422q0 -132 97.5 -208.5t260.5 -76.5q152 0 233 62t81 169t-75 165.5t-272 115.5q-247 71 -359.5 174.5t-112.5 255.5q0 172 137.5 284.5t357.5 112.5q150 0 267.5 -58t182 -160t64.5 -223h-193q0 132 -84 207.5t-237 75.5q-142 0 -221.5 -62.5t-79.5 -173.5
q0 -89 75.5 -150.5t257 -112.5t284 -112.5t152 -143.5t49.5 -193q0 -177 -138 -283.5t-369 -106.5q-150 0 -280 57.5t-200.5 157.5t-70.5 227h193z" />
    <glyph glyph-name="T" unicode="T" horiz-adv-x="1222" 
d="M49 1298v158h1126v-158h-468v-1298h-191v1298h-467z" />
    <glyph glyph-name="U" unicode="U" horiz-adv-x="1328" 
d="M140 1456h190v-986q0 -158 87 -245.5t248 -87.5q163 0 249.5 87t86.5 245v987h193v-990q-1 -206 -129.5 -337t-348.5 -147l-51 -2q-239 0 -381 129t-144 355v992z" />
    <glyph glyph-name="V" unicode="V" horiz-adv-x="1303" 
d="M28 1456h209l414 -1201l416 1201h210l-540 -1456h-170z" />
    <glyph glyph-name="W" unicode="W" horiz-adv-x="1817" 
d="M61 1456h192l230 -997l28 -192l41 173l288 1016h162l281 -1016l40 -176l31 196l226 996h193l-353 -1456h-175l-300 1061l-23 111l-23 -111l-311 -1061h-175z" />
    <glyph glyph-name="X" unicode="X" horiz-adv-x="1284" 
d="M57 0l472 734l-461 722h225l351 -558l349 558h226l-460 -722l471 -734h-228l-358 568l-360 -568h-227z" />
    <glyph glyph-name="Y" unicode="Y" horiz-adv-x="1230" 
d="M235 1456l378 -731l380 731h218l-502 -913v-543h-192v543l-502 913h220z" />
    <glyph glyph-name="Z" unicode="Z" horiz-adv-x="1226" 
d="M313 157h833v-157h-1060v144l798 1154h-785v158h1015v-141z" />
    <glyph glyph-name="bracketleft" unicode="[" horiz-adv-x="543" 
d="M523 1664v-152h-191v-1672h191v-152h-377v1976h377z" />
    <glyph glyph-name="backslash" unicode="\" horiz-adv-x="840" 
d="M40 1456h176l608 -1581h-176z" />
    <glyph glyph-name="bracketright" unicode="]" horiz-adv-x="543" 
d="M202 -160v1672h-193v152h378v-1976h-378v152h193z" />
    <glyph glyph-name="asciicircum" unicode="^" horiz-adv-x="856" 
d="M363 1456h127l298 -727h-171l-191 482l-190 -482h-172z" />
    <glyph glyph-name="underscore" unicode="_" horiz-adv-x="924" 
d="M920 -151h-916v151h916v-151z" />
    <glyph glyph-name="grave" unicode="`" horiz-adv-x="633" 
d="M474 1242h-159l-258 294h223z" />
    <glyph glyph-name="a" unicode="a" horiz-adv-x="1114" 
d="M238 563q128 93 361 93h180v85q0 97 -58 154.5t-171 57.5q-99 0 -166 -50t-67 -121h-186q0 81 57.5 156.5t156 119.5t216.5 44q187 0 293 -93.5t110 -257.5v-498q0 -149 38 -237v-16h-194q-16 32 -26 114q-129 -134 -308 -134q-160 0 -262.5 90.5t-102.5 229.5
q0 169 129 263zM352 190q58 -49 149 -49q87 0 165 45t113 117v222h-145q-340 0 -340 -199q0 -87 58 -136z" />
    <glyph glyph-name="b" unicode="b" horiz-adv-x="1149" 
d="M140 1536h185v-573q112 139 309 139t309.5 -149t112.5 -408v-16q0 -248 -114 -398.5t-306 -150.5q-205 0 -317 145l-9 -125h-170v1536zM590 137q133 0 207 103t74 310q0 189 -73 292t-210 103q-183 0 -263 -170v-468q85 -170 265 -170z" />
    <glyph glyph-name="c" unicode="c" horiz-adv-x="1072" 
d="M92 531v31q0 158 58 281t166.5 191t256.5 68q182 0 302.5 -109t128.5 -283h-175q-8 105 -79.5 172.5t-176.5 67.5q-141 0 -218.5 -101.5t-77.5 -293.5v-35q0 -187 77 -288t220 -101q99 0 173 60t82 150h175q-5 -93 -64 -177t-157.5 -134t-208.5 -50q-221 0 -351.5 147.5
t-130.5 403.5z" />
    <glyph glyph-name="d" unicode="d" horiz-adv-x="1155" 
d="M95 536v14q0 249 118 400.5t309 151.5q190 0 301 -130v564h185v-1536h-170l-9 116q-111 -136 -309 -136q-188 0 -306.5 154t-118.5 402zM280 529q0 -184 76 -288t210 -104q176 0 257 158v497q-83 153 -255 153q-136 0 -212 -105t-76 -311z" />
    <glyph glyph-name="e" unicode="e" horiz-adv-x="1085" 
d="M93 511v34q0 161 61.5 287.5t172 198t239.5 71.5q211 0 328 -139t117 -398v-77h-733q4 -160 93.5 -258.5t227.5 -98.5q98 0 166 40t119 106l113 -88q-136 -209 -408 -209q-220 0 -358 144.5t-138 386.5zM826 640v14q-8 141 -76 218.5t-184 77.5q-112 0 -188 -81.5
t-94 -228.5h542z" />
    <glyph glyph-name="f" unicode="f" horiz-adv-x="711" 
d="M231 1082v111q0 174 93 269t263 95q64 0 127 -17l-10 -150q-47 9 -100 9q-90 0 -139 -52.5t-49 -150.5v-114h231v-143h-231v-939h-185v939h-171v143h171z" />
    <glyph glyph-name="g" unicode="g" horiz-adv-x="1149" 
d="M96 550q0 253 117 402.5t310 149.5q198 0 309 -140l9 120h169v-1056q0 -210 -124.5 -331t-334.5 -121q-117 0 -229 50t-171 137l96 111q119 -147 291 -147q135 0 210.5 76t75.5 214v93q-111 -128 -303 -128q-190 0 -307.5 153t-117.5 417zM282 529q0 -183 75 -287.5
t210 -104.5q175 0 257 159v494q-85 155 -255 155q-135 0 -211 -105t-76 -311z" />
    <glyph glyph-name="h" unicode="h" horiz-adv-x="1128" 
d="M325 1536v-585q123 151 320 151q343 0 346 -387v-715h-185v716q-1 117 -53.5 173t-163.5 56q-90 0 -158 -48t-106 -126v-771h-185v1536h185z" />
    <glyph glyph-name="i" unicode="i" horiz-adv-x="497" 
d="M341 1082v-1082h-185v1082h185zM141 1369q0 45 27.5 76t81.5 31t82 -31t28 -76t-28 -75t-82 -30t-81.5 30t-27.5 75z" />
    <glyph glyph-name="j" unicode="j" horiz-adv-x="489" 
d="M-65 -419v148q32 -8 84 -8q62 0 94.5 33.5t32.5 116.5v1211h185v-1207q0 -312 -283 -312q-61 0 -113 18zM155 1445q27 31 80 31q54 0 82 -31t28 -76t-28 -75t-82 -30t-81 30t-27 75q0 44 28 76z" />
    <glyph glyph-name="k" unicode="k" horiz-adv-x="1038" 
d="M141 0v1536h185v-929l99 119l337 356h225l-421 -452l470 -630h-217l-377 501l-116 -121v-380h-185z" />
    <glyph glyph-name="l" unicode="l" horiz-adv-x="497" 
d="M341 0h-185v1536h185v-1536z" />
    <glyph glyph-name="m" unicode="m" horiz-adv-x="1795" 
d="M314 1082l5 -120q119 140 321 140q227 0 309 -174q54 78 140.5 126t204.5 48q356 0 362 -377v-725h-185v714q0 116 -53 173.5t-178 57.5q-103 0 -171 -61.5t-79 -165.5v-718h-186v709q0 236 -231 236q-182 0 -249 -155v-790h-185v1082h175z" />
    <glyph glyph-name="n" unicode="n" horiz-adv-x="1130" 
d="M315 1082l6 -136q124 156 324 156q343 0 346 -387v-715h-185v716q-1 117 -53.5 173t-163.5 56q-90 0 -158 -48t-106 -126v-771h-185v1082h175z" />
    <glyph glyph-name="o" unicode="o" horiz-adv-x="1168" 
d="M91 538v13q0 159 62.5 286t174 196t254.5 69q221 0 357.5 -153t136.5 -407v-13q0 -158 -60.5 -283.5t-173 -195.5t-258.5 -70q-220 0 -356.5 153t-136.5 405zM277 529q0 -180 83.5 -289t223.5 -109q141 0 224 110.5t83 309.5q0 178 -84.5 288.5t-224.5 110.5
q-137 0 -221 -109t-84 -312z" />
    <glyph glyph-name="p" unicode="p" horiz-adv-x="1149" 
d="M140 1082h169l9 -120q113 140 314 140q195 0 308.5 -147t113.5 -409v-17q0 -247 -113 -398t-306 -151q-197 0 -310 125v-521h-185v1498zM579 131q133 0 211.5 105.5t78.5 313.5q0 183 -78 289t-214 106q-168 0 -252 -149v-517q83 -148 254 -148z" />
    <glyph glyph-name="q" unicode="q" horiz-adv-x="1164" 
d="M95 537v13q0 255 117 403.5t314 148.5q192 0 303 -129l8 109h170v-1498h-185v516q-112 -120 -298 -120q-196 0 -312.5 152.5t-116.5 404.5zM280 529q0 -186 78.5 -292t211.5 -106q165 0 252 146v530q-88 143 -250 143q-134 0 -213 -106.5t-79 -314.5z" />
    <glyph glyph-name="r" unicode="r" horiz-adv-x="693" 
d="M320 1082l3 -125q91 145 258 145q54 0 82 -14v-172q-42 7 -91 7q-182 0 -247 -155v-768h-185v1082h180z" />
    <glyph glyph-name="s" unicode="s" horiz-adv-x="1056" 
d="M280 333q5 -93 74.5 -147.5t183.5 -54.5q105 0 168.5 42.5t63.5 113.5q0 75 -56.5 116.5t-197 71.5t-223 72t-122 100t-39.5 138q0 133 112.5 225t287.5 92q184 0 298.5 -95t114.5 -243h-186q0 76 -64.5 131t-162.5 55q-101 0 -158 -44t-57 -115q0 -67 53 -101t191.5 -65
t224.5 -74t127.5 -103.5t41.5 -147.5q0 -145 -116 -232.5t-301 -87.5q-130 0 -230 46t-156.5 128.5t-56.5 178.5h185z" />
    <glyph glyph-name="t" unicode="t" horiz-adv-x="669" 
d="M9 1082h197v262h185v-262h202v-143h-202v-671q0 -65 27 -97.5t92 -32.5q32 0 88 12v-150q-73 -20 -142 -20q-124 0 -187 75t-63 213v671h-197v143z" />
    <glyph glyph-name="u" unicode="u" horiz-adv-x="1129" 
d="M136 378v704h185v-699q0 -246 200 -246q212 0 282 158v787h185v-1082h-176l-4 107q-108 -127 -317 -127q-173 0 -263.5 100.5t-91.5 297.5z" />
    <glyph glyph-name="v" unicode="v" horiz-adv-x="992" 
d="M33 1082h189l275 -831l268 831h189l-388 -1082h-141z" />
    <glyph glyph-name="w" unicode="w" horiz-adv-x="1539" 
d="M43 1082h184l213 -810l252 810h149l257 -827l208 827h185l-315 -1082h-150l-263 820l-256 -820h-150z" />
    <glyph glyph-name="x" unicode="x" horiz-adv-x="1015" 
d="M41 0l365 547l-354 535h214l237 -395l240 395h216l-354 -535l365 -547h-214l-250 405l-250 -405h-215z" />
    <glyph glyph-name="y" unicode="y" horiz-adv-x="969" 
d="M22 1082h202l270 -811l252 811h198l-435 -1249q-101 -270 -321 -270l-35 3l-69 13v150l50 -4q94 0 146.5 38t86.5 139l41 110z" />
    <glyph glyph-name="z" unicode="z" horiz-adv-x="1015" 
d="M314 151h633v-151h-859v136l597 793h-588v153h820v-131z" />
    <glyph glyph-name="braceleft" unicode="{" horiz-adv-x="693" 
d="M64 688q212 0 212 242v208q2 183 89.5 295.5t266.5 163.5l38 -115q-209 -67 -209 -349v-202q0 -227 -167 -316q167 -90 167 -319v-206q3 -275 209 -341l-38 -115q-177 50 -266.5 164.5t-89.5 302.5v199q0 243 -212 243v145z" />
    <glyph glyph-name="bar" unicode="|" horiz-adv-x="499" 
d="M324 -270h-149v1726h149v-1726z" />
    <glyph glyph-name="braceright" unicode="}" horiz-adv-x="693" 
d="M19 -251q203 65 210 331v220q0 231 181 315q-181 82 -181 315v203q0 282 -209 349l38 115q177 -50 266 -162.5t90 -297.5v-210q0 -239 212 -239v-145q-212 0 -212 -243v-202q0 -188 -90.5 -301t-265.5 -163z" />
    <glyph glyph-name="asciitilde" unicode="~" horiz-adv-x="1393" 
d="M223 699q92 103 231 103q76 0 146 -32t158 -112.5t152 -90.5l29 -2q76 0 123.5 58t47.5 153l153 1q0 -158 -93.5 -266.5t-230.5 -108.5q-72 0 -136 26.5t-148.5 100.5t-121.5 92t-79 18q-78 0 -120 -53.5t-42 -147.5l-161 -2q0 160 92 263z" />
    <glyph glyph-name="uni00A0" unicode="&#xa0;" horiz-adv-x="507" 
 />
    <glyph glyph-name="exclamdown" unicode="&#xa1;" horiz-adv-x="499" 
d="M170 684h168l13 -1044h-194zM139 996q0 45 28 75t82 30t81.5 -30t27.5 -75t-27.5 -76t-81.5 -31t-82 31t-28 76z" />
    <glyph glyph-name="cent" unicode="&#xa2;" horiz-adv-x="1120" 
d="M105 527v35q0 212 101 354.5t278 175.5v226h185v-223q150 -23 246 -129t102 -256h-175q-8 105 -79.5 172.5t-176.5 67.5q-141 0 -218.5 -101.5t-77.5 -293.5v-35q0 -187 77.5 -288t218.5 -101q100 0 174 60.5t82 149.5h175q-6 -126 -105 -226.5t-243 -126.5v-233h-185
v234q-179 34 -279 176t-100 362z" />
    <glyph glyph-name="sterling" unicode="&#xa3;" horiz-adv-x="1190" 
d="M91 779h160l-9 260q0 199 122.5 318t322.5 119q190 0 301 -106t111 -283h-191q0 107 -63.5 169t-174.5 62q-105 0 -170 -77t-65 -202l9 -260h319v-157h-314l8 -220q0 -154 -62 -245h733l-1 -157h-1032v157h77q40 9 65 74.5t27 161.5v8l-8 221h-165v157z" />
    <glyph glyph-name="currency" unicode="&#xa4;" horiz-adv-x="1460" 
d="M105 1128l130 136l147 -150q158 120 353 120q196 0 355 -121l149 152l132 -137l-151 -154q110 -163 110 -366q0 -196 -102 -355l143 -144l-132 -136l-136 139q-159 -132 -368 -132q-207 0 -366 130l-134 -136l-130 135l139 141q-104 156 -104 358q0 206 112 369zM311 608
q0 -123 57.5 -229t155.5 -167t211 -61t211 61.5t154.5 167t56.5 228.5q0 122 -56.5 227.5t-155 166t-210.5 60.5q-113 0 -211 -60t-155.5 -166t-57.5 -228z" />
    <glyph glyph-name="yen" unicode="&#xa5;" horiz-adv-x="1075" 
d="M15 1456h216l308 -663l308 663h213l-367 -720h261v-125h-324v-165h324v-124h-324v-322h-193v322h-318v124h318v165h-318v125h263z" />
    <glyph glyph-name="brokenbar" unicode="&#xa6;" horiz-adv-x="491" 
d="M147 -270v791h186v-791h-186zM147 698v758h186v-758h-186z" />
    <glyph glyph-name="section" unicode="&#xa7;" horiz-adv-x="1256" 
d="M90 -64l186 2q0 -130 90 -205.5t246 -75.5q136 0 219 58.5t83 154.5q0 89 -71 141.5t-280 114.5q-182 48 -278 103.5t-142.5 133t-46.5 188.5q0 186 182 274q-66 49 -101.5 117t-35.5 168q0 166 133.5 266t355.5 100q232 0 362 -113t130 -318h-185q0 125 -84 202.5
t-223 77.5q-142 0 -222.5 -57.5t-80.5 -155.5q0 -69 28 -109t95.5 -72.5t211 -72.5t228 -76t141 -84.5t85.5 -113t29 -153.5q0 -189 -186 -274q69 -49 105 -117t36 -168q0 -168 -130 -267.5t-358 -99.5q-112 0 -212.5 28t-170.5 85q-139 113 -139 318zM282 553
q0 -70 27 -110t93.5 -73t208.5 -74t186 -58q78 20 120 70.5t42 119.5q0 88 -69.5 142.5t-287.5 120.5q-90 24 -165 51q-80 -19 -117.5 -69.5t-37.5 -119.5z" />
    <glyph glyph-name="dieresis" unicode="&#xa8;" horiz-adv-x="856" 
d="M559 1445q27 31 81 31t82 -31t28 -76t-28 -75t-82 -30t-81.5 30t-27.5 75t28 76zM101 1371q0 45 27.5 75.5t81.5 30.5t82 -30.5t28 -75.5t-28 -75t-82 -30t-81.5 30t-27.5 75z" />
    <glyph glyph-name="copyright" unicode="&#xa9;" horiz-adv-x="1609" 
d="M185 1104q93 173 258.5 272.5t357.5 99.5t357 -99.5t258.5 -272.5t93.5 -375q0 -197 -90 -369t-255.5 -276.5t-363.5 -104.5q-197 0 -362.5 103.5t-256.5 275.5t-91 371q0 202 94 375zM286 411q80 -147 217.5 -230t297.5 -83t297 83t217 229.5t80 318.5q0 170 -79 315
t-216.5 228.5t-298.5 83.5q-160 0 -298 -82.5t-217.5 -228.5t-79.5 -316q0 -172 80 -318zM538 1068q95 105 250 105q160 0 246 -82t86 -231h-146q0 99 -47.5 141.5t-138.5 42.5q-94 0 -148 -69t-54 -192v-113q0 -120 54 -189t148 -69q92 0 138.5 42t46.5 143h146
q0 -153 -86.5 -233.5t-244.5 -80.5q-157 0 -251.5 105.5t-94.5 287.5v110q0 176 96 282z" />
    <glyph glyph-name="ordfeminine" unicode="&#xaa;" horiz-adv-x="915" 
d="M231 1089q83 60 255 60h108v52q0 135 -124 135q-69 0 -108.5 -27t-39.5 -78l-161 12q0 103 86 168t223 65q133 0 210 -71.5t77 -205.5v-316q0 -97 26 -178h-165q-12 34 -18 72q-76 -86 -204 -86q-119 0 -184 62t-65 165q0 111 84 171zM435 828q43 0 87 20t72 47v142h-112
q-83 -1 -127.5 -32.5t-44.5 -82.5q0 -94 125 -94z" />
    <glyph glyph-name="guillemotleft" unicode="&#xab;" horiz-adv-x="961" 
d="M727 947h141l-258 -399l258 -397h-141l-295 388v19zM102 539v19l295 389h141l-258 -399l258 -397h-141z" />
    <glyph glyph-name="logicalnot" unicode="&#xac;" horiz-adv-x="1134" 
d="M958 375h-186v264h-645v161h831v-425z" />
    <glyph glyph-name="uni00AD" unicode="&#xad;" horiz-adv-x="565" 
d="M525 543h-488v151h488v-151z" />
    <glyph glyph-name="registered" unicode="&#xae;" horiz-adv-x="1610" 
d="M184 1104q93 173 258.5 272.5t357.5 99.5t357 -99.5t258.5 -272.5t93.5 -375q0 -197 -90 -369t-255.5 -276.5t-363.5 -104.5q-197 0 -362.5 103.5t-256.5 275.5t-91 371q0 202 94 375zM285 411q80 -147 217.5 -230t297.5 -83q161 0 299 84.5t216.5 229.5t78.5 317
q0 171 -78.5 315.5t-216.5 228t-299 83.5q-160 0 -298 -82.5t-217.5 -228.5t-79.5 -316q0 -172 80 -318zM512 316v849h276q153 0 237.5 -65.5t84.5 -190.5q0 -123 -128 -188q122 -50 123 -204v-61q0 -86 17 -124v-16h-145q-14 36 -14 128.5t-3 109.5q-16 96 -131 100h-176
v-338h-141zM809 782q72 2 116 35t44 87q0 73 -39 103.5t-139 30.5h-138v-256h156z" />
    <glyph glyph-name="macron" unicode="&#xaf;" horiz-adv-x="938" 
d="M814 1302h-672v143h672v-143z" />
    <glyph glyph-name="degree" unicode="&#xb0;" horiz-adv-x="765" 
d="M205 1398q74 78 180 78q104 0 177.5 -77.5t73.5 -182.5q0 -106 -73.5 -181t-177.5 -75q-105 0 -180 75t-75 181q0 104 75 182zM255 1216q0 -54 37.5 -91t92.5 -37q54 0 91 35.5t37 92.5q0 58 -37 95.5t-91 37.5q-55 0 -92.5 -39.5t-37.5 -93.5z" />
    <glyph glyph-name="plusminus" unicode="&#xb1;" horiz-adv-x="1094" 
d="M97 854h385v413h167v-413h364v-151h-364v-414h-167v414h-385v151zM970 152v-152h-835v152h835z" />
    <glyph glyph-name="twosuperior" unicode="&#xb2;" horiz-adv-x="751" 
d="M150 1393q83 74 215 74t209 -63.5t77 -173.5q0 -104 -107 -211l-84 -79l-176 -145h399v-128h-599v108l300 282q109 102 109 171q0 49 -32 79.5t-92 30.5q-75 0 -110.5 -38t-35.5 -95h-157q0 114 84 188z" />
    <glyph glyph-name="threesuperior" unicode="&#xb3;" horiz-adv-x="751" 
d="M220 889q0 -45 39.5 -75t106.5 -30q70 0 106.5 30t36.5 81q0 113 -156 115h-88v116h84q74 0 110 30.5t36 78.5q0 45 -31.5 74t-101.5 29q-57 0 -94.5 -25.5t-37.5 -66.5h-157q0 98 81.5 159.5t205.5 61.5q137 0 215 -60.5t78 -164.5q0 -55 -35 -100.5t-101 -70.5
q149 -41 149 -184q0 -106 -85 -168.5t-221 -62.5q-132 0 -215 63t-83 170h158z" />
    <glyph glyph-name="acute" unicode="&#xb4;" horiz-adv-x="642" 
d="M316 1536h224l-268 -294h-149z" />
    <glyph glyph-name="uni00B5" unicode="&#xb5;" horiz-adv-x="1160" 
d="M154 -416v1498h185v-633q1 -163 52.5 -241t167.5 -78q199 0 261 152v800h186v-1082h-167l-9 115q-93 -135 -263 -135q-147 0 -228 73v-469h-185z" />
    <glyph glyph-name="paragraph" unicode="&#xb6;" horiz-adv-x="1001" 
d="M200 1329q133 127 363 127h269v-1456h-186v520h-84q-230 0 -362.5 127t-132.5 341q0 213 133 341z" />
    <glyph glyph-name="periodcentered" unicode="&#xb7;" horiz-adv-x="534" 
d="M147 729q0 48 28.5 80t85.5 32t86.5 -32t29.5 -80q0 -47 -29.5 -78.5t-86.5 -31.5t-85.5 31.5t-28.5 78.5z" />
    <glyph glyph-name="cedilla" unicode="&#xb8;" horiz-adv-x="507" 
d="M239 -302q43 26 43 73q0 44 -32 65t-130 30l32 134h133l-12 -52q153 -27 153 -173q0 -97 -80 -153.5t-223 -56.5l-7 107q79 0 123 26z" />
    <glyph glyph-name="onesuperior" unicode="&#xb9;" horiz-adv-x="751" 
d="M495 667h-157v601l-216 -57v128l355 117h18v-789z" />
    <glyph glyph-name="ordmasculine" unicode="&#xba;" horiz-adv-x="931" 
d="M122 1049v74q0 158 94 255.5t248 97.5q155 0 249 -96.5t94 -262.5v-74q0 -159 -93.5 -256t-247.5 -97t-249 97t-95 262zM285 1129v-86q0 -100 48.5 -157t132.5 -57q83 0 130.5 57.5t47.5 158.5v78q0 99 -48.5 156t-131.5 57q-81 0 -129 -55t-50 -152z" />
    <glyph glyph-name="guillemotright" unicode="&#xbb;" horiz-adv-x="960" 
d="M709 550l-258 399h142l295 -389v-19l-295 -389h-142zM102 152l258 398l-258 399h142l295 -389v-19l-295 -389h-142z" />
    <glyph glyph-name="onequarter" unicode="&#xbc;" horiz-adv-x="1500" 
d="M1157 789h161v-490h107v-130h-107v-169h-157v169h-375l-6 102zM339 184l711 1138l104 -66l-711 -1138zM440 1453h18v-789h-157v601l-216 -57v128zM938 299h223v289l-17 -28z" />
    <glyph glyph-name="onehalf" unicode="&#xbd;" horiz-adv-x="1589" 
d="M948 726q83 74 215 74t209 -63.5t77 -173.5q0 -104 -107 -211l-84 -79l-176 -145h399v-128h-599v108l300 282q109 102 109 171q0 49 -32 79.5t-92 30.5q-75 0 -110.5 -38t-35.5 -95h-157q0 114 84 188zM1006 1322l104 -66l-711 -1138l-104 66zM80 1208v128l355 117h18
v-789h-157v601z" />
    <glyph glyph-name="threequarters" unicode="&#xbe;" horiz-adv-x="1593" 
d="M872 271l377 518h161v-490h107v-130h-107v-169h-157v169h-375zM269 889q0 -45 39.5 -75t106.5 -30q70 0 106.5 30t36.5 81q0 113 -156 115h-88v116h84q74 0 110 30.5t36 78.5q0 45 -31.5 74t-101.5 29q-57 0 -94.5 -25.5t-37.5 -66.5h-157q0 98 81.5 159.5t205.5 61.5
q137 0 215 -60.5t78 -164.5q0 -55 -35 -100.5t-101 -70.5q149 -41 149 -184q0 -106 -85 -168.5t-221 -62.5q-132 0 -215 63t-83 170h158zM466 184l711 1138l104 -66l-711 -1138zM1253 299v289l-17 -28l-206 -261h223z" />
    <glyph glyph-name="questiondown" unicode="&#xbf;" horiz-adv-x="969" 
d="M228 343l109 113q66 78 66 224h185q-1 -106 -21.5 -169.5t-68.5 -122.5t-140 -155.5t-103 -195.5l-2 -37q0 -109 58 -166.5t167 -57.5q100 0 162.5 56.5t62.5 147.5h185q-2 -161 -114.5 -263t-295.5 -102q-196 0 -303 100.5t-107 279.5q0 173 160 348zM377 997
q0 44 28 74t82 30t81.5 -30t27.5 -74q0 -45 -27.5 -76t-81.5 -31t-82 31t-28 76z" />
    <glyph glyph-name="Agrave" unicode="&#xc0;" horiz-adv-x="1336" 
d="M584 1456h168l557 -1456h-197l-139 380h-610l-137 -380h-198zM421 538h495l-248 681zM584 1846l194 -294h-159l-258 294h223z" />
    <glyph glyph-name="Aacute" unicode="&#xc1;" horiz-adv-x="1336" 
d="M28 0l556 1456h168l557 -1456h-197l-139 380h-610l-137 -380h-198zM916 538l-248 681l-247 -681h495zM570 1552l193 294h224l-268 -294h-149z" />
    <glyph glyph-name="Acircumflex" unicode="&#xc2;" horiz-adv-x="1336" 
d="M584 1456h168l557 -1456h-197l-139 380h-610l-137 -380h-198zM916 538l-248 681l-247 -681h495zM370 1574l246 272h112l247 -274v-10h-153l-150 170l-149 -170h-153v12z" />
    <glyph glyph-name="Atilde" unicode="&#xc3;" horiz-adv-x="1336" 
d="M28 0l556 1456h168l557 -1456h-197l-139 380h-610l-137 -380h-198zM916 538l-248 681l-247 -681h495zM381 1739q60 70 153 70q35 0 63 -10t76 -39t73.5 -38t56.5 -9q43 0 71.5 34t28.5 79l124 -12q0 -108 -61.5 -175t-153.5 -67q-41 0 -71 10t-78.5 41t-70 37.5
t-49.5 6.5q-41 0 -70 -31.5t-29 -80.5l-124 7q0 107 61 177z" />
    <glyph glyph-name="Adieresis" unicode="&#xc4;" horiz-adv-x="1336" 
d="M584 1456h168l557 -1456h-197l-139 380h-610l-137 -380h-198zM916 538l-248 681l-247 -681h495zM780 1679q0 45 27.5 76t81.5 31t82 -31t28 -76t-28 -75t-82 -30t-81.5 30t-27.5 75zM350 1681q0 45 27.5 75.5t81.5 30.5t82 -30.5t28 -75.5t-28 -75t-82 -30t-81.5 30
t-27.5 75z" />
    <glyph glyph-name="Aring" unicode="&#xc5;" horiz-adv-x="1336" 
d="M28 0l556 1456h168l557 -1456h-197l-139 380h-610l-137 -380h-198zM916 538l-248 681l-247 -681h495zM519 1876q61 61 153 61t153.5 -61t61.5 -147q0 -87 -62 -145.5t-153 -58.5q-92 0 -153.5 59t-61.5 145t62 147zM590 1648q33 -34 82 -34q48 0 82 33t34 82t-33.5 83.5
t-82.5 34.5q-50 0 -83 -35t-33 -83q0 -47 34 -81z" />
    <glyph glyph-name="AE" unicode="&#xc6;" horiz-adv-x="1914" 
d="M866 1456h951v-152h-691l20 -471h590v-151h-584l22 -531h705v-151h-883l-15 353h-564l-205 -353h-226zM518 527h456l-31 733z" />
    <glyph glyph-name="Ccedilla" unicode="&#xc7;" horiz-adv-x="1333" 
d="M192 1157q72 154 205 236.5t308 82.5q232 0 372 -129.5t163 -358.5h-193q-25 174 -108.5 252t-233.5 78q-184 0 -288.5 -136t-104.5 -387v-141q0 -237 99 -377t277 -140q160 0 245.5 72.5t113.5 252.5h193q-27 -231 -170 -356q-125 -109 -321 -124l-10 -43
q153 -27 153 -173q0 -97 -80 -153.5t-223 -56.5l-7 107q79 0 122.5 26t43.5 73q0 44 -32 65t-130 30l30 127q-208 22 -341 181q-156 185 -156 495v140q0 203 73 357z" />
    <glyph glyph-name="Egrave" unicode="&#xc8;" horiz-adv-x="1164" 
d="M169 1456h915v-158h-723v-468h631v-157h-631v-516h733v-157h-925v1456zM531 1858l194 -294h-159l-258 294h223z" />
    <glyph glyph-name="Eacute" unicode="&#xc9;" horiz-adv-x="1164" 
d="M169 1456h915v-158h-723v-468h631v-157h-631v-516h733v-157h-925v1456zM517 1564l193 294h224l-268 -294h-149z" />
    <glyph glyph-name="Ecircumflex" unicode="&#xca;" horiz-adv-x="1164" 
d="M169 1456h915v-158h-723v-468h631v-157h-631v-516h733v-157h-925v1456zM563 1858h112l247 -274v-10h-153l-150 170l-149 -170h-153v12z" />
    <glyph glyph-name="Edieresis" unicode="&#xcb;" horiz-adv-x="1164" 
d="M169 1456h915v-158h-723v-468h631v-157h-631v-516h733v-157h-925v1456zM727 1691q0 45 27.5 76t81.5 31t82 -31t28 -76t-28 -75t-82 -30t-81.5 30t-27.5 75zM297 1693q0 45 27.5 75.5t81.5 30.5t82 -30.5t28 -75.5t-28 -75t-82 -30t-81.5 30t-27.5 75z" />
    <glyph glyph-name="Igrave" unicode="&#xcc;" horiz-adv-x="557" 
d="M375 0h-192v1456h192v-1456zM385 1564h-159l-258 294h223z" />
    <glyph glyph-name="Iacute" unicode="&#xcd;" horiz-adv-x="557" 
d="M375 0h-192v1456h192v-1456zM369 1858h224l-268 -294h-149z" />
    <glyph glyph-name="Icircumflex" unicode="&#xce;" horiz-adv-x="557" 
d="M183 0v1456h192v-1456h-192zM223 1858h112l247 -274v-10h-153l-150 170l-149 -170h-153v12z" />
    <glyph glyph-name="Idieresis" unicode="&#xcf;" horiz-adv-x="557" 
d="M183 1456h192v-1456h-192v1456zM387 1691q0 45 27.5 76t81.5 31t82 -31t28 -76t-28 -75t-82 -30t-81.5 30t-27.5 75zM-43 1693q0 45 27.5 75.5t81.5 30.5t82 -30.5t28 -75.5t-28 -75t-82 -30t-81.5 30t-27.5 75z" />
    <glyph glyph-name="Eth" unicode="&#xd0;" horiz-adv-x="1373" 
d="M199 817v639h411q190 0 336 -84t225.5 -239t80.5 -356v-93q0 -206 -79.5 -361t-227 -238t-343.5 -85h-403v666h-192v151h192zM391 666v-509h201q222 0 345.5 137t124.5 386v93q0 248 -116.5 385.5t-330.5 139.5h-224v-481h252v-151h-252z" />
    <glyph glyph-name="Ntilde" unicode="&#xd1;" horiz-adv-x="1460" 
d="M169 1456h193l735 -1127v1127h191v-1456h-193l-733 1122v-1122h-193v1456zM435 1739q60 70 153 70q35 0 63 -10t76 -39t73.5 -38t56.5 -9q43 0 71.5 34t28.5 79l124 -12q0 -108 -61.5 -175t-153.5 -67q-41 0 -71 10t-78.5 41t-70 37.5t-49.5 6.5q-41 0 -70 -31.5
t-29 -80.5l-124 7q0 107 61 177z" />
    <glyph glyph-name="Ograve" unicode="&#xd2;" horiz-adv-x="1408" 
d="M191 1144q73 161 206.5 246.5t305.5 85.5q175 0 308.5 -84.5t205.5 -245t72 -373.5v-92q0 -214 -72 -373.5t-204 -243.5t-308 -84q-172 0 -305 84.5t-206.5 241t-75.5 362.5v105q0 210 73 371zM415 287q105 -144 290 -144q186 0 288 135.5t105 388.5v108
q0 259 -104 397.5t-291 138.5q-182 0 -286.5 -138.5t-107.5 -384.5v-107q0 -251 106 -394zM395 1848h223l194 -294h-159z" />
    <glyph glyph-name="Oacute" unicode="&#xd3;" horiz-adv-x="1408" 
d="M118 773q0 210 73 371t206.5 246.5t305.5 85.5q175 0 308.5 -84.5t205.5 -245t72 -373.5v-92q0 -214 -72 -373.5t-204 -243.5t-308 -84q-172 0 -305 84.5t-206.5 241t-75.5 362.5v105zM415 287q105 -144 290 -144q186 0 288 135.5t105 388.5v108q0 259 -104 397.5
t-291 138.5q-182 0 -286.5 -138.5t-107.5 -384.5v-107q0 -251 106 -394zM604 1554l193 294h224l-268 -294h-149z" />
    <glyph glyph-name="Ocircumflex" unicode="&#xd4;" horiz-adv-x="1408" 
d="M118 668v105q0 210 73 371t206.5 246.5t305.5 85.5q175 0 308.5 -84.5t205.5 -245t72 -373.5v-92q0 -214 -72 -373.5t-204 -243.5t-308 -84q-172 0 -305 84.5t-206.5 241t-75.5 362.5zM309 788v-107q0 -251 105.5 -394.5t290.5 -143.5q186 0 288 135.5t105 388.5v108
q0 259 -104 397.5t-291 138.5q-182 0 -286.5 -138.5t-107.5 -384.5zM404 1564v12l246 272h112l247 -274v-10h-153l-150 170l-149 -170h-153z" />
    <glyph glyph-name="Otilde" unicode="&#xd5;" horiz-adv-x="1408" 
d="M118 773q0 210 73 371t206.5 246.5t305.5 85.5q175 0 308.5 -84.5t205.5 -245t72 -373.5v-92q0 -214 -72 -373.5t-204 -243.5t-308 -84q-172 0 -305 84.5t-206.5 241t-75.5 362.5v105zM309 788v-107q0 -251 105.5 -394.5t290.5 -143.5q186 0 288 135.5t105 388.5v108
q0 259 -104 397.5t-291 138.5q-182 0 -286.5 -138.5t-107.5 -384.5zM415 1741q60 70 153 70q35 0 63 -10t76 -39t73.5 -38t56.5 -9q43 0 71.5 34t28.5 79l124 -12q0 -108 -61.5 -175t-153.5 -67q-41 0 -71 10t-78.5 41t-70 37.5t-49.5 6.5q-41 0 -70 -31.5t-29 -80.5l-124 7
q0 107 61 177z" />
    <glyph glyph-name="Odieresis" unicode="&#xd6;" horiz-adv-x="1408" 
d="M118 773q0 210 73 371t206.5 246.5t305.5 85.5q175 0 308.5 -84.5t205.5 -245t72 -373.5v-92q0 -214 -72 -373.5t-204 -243.5t-308 -84q-172 0 -305 84.5t-206.5 241t-75.5 362.5v105zM309 788v-107q0 -251 105.5 -394.5t290.5 -143.5q186 0 288 135.5t105 388.5v108
q0 259 -104 397.5t-291 138.5q-182 0 -286.5 -138.5t-107.5 -384.5zM814 1681q0 45 27.5 76t81.5 31t82 -31t28 -76t-28 -75t-82 -30t-81.5 30t-27.5 75zM412 1759q27 30 81 30t82 -30.5t28 -75.5t-28 -75t-82 -30t-81.5 30t-27.5 75t28 76z" />
    <glyph glyph-name="multiply" unicode="&#xd7;" horiz-adv-x="1092" 
d="M89 329l330 336l-328 335l119 123l329 -335l329 335l119 -123l-328 -335l330 -336l-119 -123l-331 337l-331 -337z" />
    <glyph glyph-name="Oslash" unicode="&#xd8;" horiz-adv-x="1408" 
d="M118 690v83q0 210 73 371t206.5 246.5t305.5 85.5q214 0 362 -125l103 165h141l-159 -255q137 -187 139 -481v-99q0 -214 -72 -373.5t-204 -243.5t-308 -84q-171 0 -302 82l-97 -155h-142l144 231q-190 192 -190 552zM407 296l564 904q-102 111 -268 111
q-182 0 -286.5 -138.5t-107.5 -384.5v-107q0 -244 98 -385zM705 143q186 0 288 135.5t105 388.5v108q0 182 -56 313l-549 -881q91 -64 212 -64z" />
    <glyph glyph-name="Ugrave" unicode="&#xd9;" horiz-adv-x="1328" 
d="M330 1456v-986q0 -158 87 -245.5t248 -87.5q163 0 249.5 87t86.5 245v987h193v-990q-1 -206 -129.5 -337t-348.5 -147l-51 -2q-239 0 -381 129t-144 355v992h190zM356 1846h223l194 -294h-159z" />
    <glyph glyph-name="Uacute" unicode="&#xda;" horiz-adv-x="1328" 
d="M140 1456h190v-986q0 -158 87 -245.5t248 -87.5q163 0 249.5 87t86.5 245v987h193v-990q-1 -206 -129.5 -337t-348.5 -147l-51 -2q-239 0 -381 129t-144 355v992zM565 1552l193 294h224l-268 -294h-149z" />
    <glyph glyph-name="Ucircumflex" unicode="&#xdb;" horiz-adv-x="1328" 
d="M140 464v992h190v-986q0 -158 87 -245.5t248 -87.5q163 0 249.5 87t86.5 245v987h193v-990q-1 -206 -129.5 -337t-348.5 -147l-51 -2q-239 0 -381 129t-144 355zM611 1846h112l247 -274v-10h-153l-150 170l-149 -170h-153v12z" />
    <glyph glyph-name="Udieresis" unicode="&#xdc;" horiz-adv-x="1328" 
d="M140 1456h190v-986q0 -158 87 -245.5t248 -87.5q163 0 249.5 87t86.5 245v987h193v-990q-1 -206 -129.5 -337t-348.5 -147l-51 -2q-239 0 -381 129t-144 355v992zM803 1755q27 31 81 31t82 -31t28 -76t-28 -75t-82 -30t-81.5 30t-27.5 75t28 76zM373 1757q27 30 81 30
t82 -30.5t28 -75.5t-28 -75t-82 -30t-81.5 30t-27.5 75t28 76z" />
    <glyph glyph-name="Yacute" unicode="&#xdd;" horiz-adv-x="1230" 
d="M235 1456l378 -731l380 731h218l-502 -913v-543h-192v543l-502 913h220zM515 1552l193 294h224l-268 -294h-149z" />
    <glyph glyph-name="Thorn" unicode="&#xde;" horiz-adv-x="1210" 
d="M352 1456v-293h279q147 0 257 -52.5t169.5 -149.5t59.5 -223q0 -194 -132 -309.5t-359 -115.5h-274v-313h-186v1456h186zM352 1011v-546h277q142 0 222 75.5t80 195.5q0 123 -80 198.5t-216 76.5h-283z" />
    <glyph glyph-name="germandbls" unicode="&#xdf;" horiz-adv-x="1218" 
d="M324 0h-185v1111q0 208 103.5 325.5t289.5 117.5q180 0 278.5 -89.5t98.5 -248.5q0 -125 -64 -226.5t-64 -170.5q0 -51 37.5 -98.5t131.5 -119.5t137 -140t43 -144q0 -159 -101.5 -248t-283.5 -89q-81 0 -171.5 22t-128.5 50l43 155q49 -32 116.5 -54t120.5 -22
q107 0 163.5 47t56.5 129q0 52 -37 100t-131.5 121.5t-138 142.5t-43.5 150q0 89 69.5 192.5t69.5 187.5q0 94 -52 147.5t-140 53.5q-218 0 -218 -293v-1109z" />
    <glyph glyph-name="agrave" unicode="&#xe0;" horiz-adv-x="1114" 
d="M109 300q0 169 128.5 262.5t361.5 93.5h180v85q0 97 -58 154.5t-171 57.5q-99 0 -166 -50t-67 -121h-186q0 81 57.5 156.5t156 119.5t216.5 44q187 0 293 -93.5t110 -257.5v-498q0 -149 38 -237v-16h-194q-16 32 -26 114q-129 -134 -308 -134q-160 0 -262.5 90.5
t-102.5 229.5zM352 190q58 -49 149 -49q87 0 165 45t113 117v222h-145q-340 0 -340 -199q0 -87 58 -136zM270 1536h223l194 -294h-159z" />
    <glyph glyph-name="aacute" unicode="&#xe1;" horiz-adv-x="1114" 
d="M109 300q0 169 128.5 262.5t361.5 93.5h180v85q0 97 -58 154.5t-171 57.5q-99 0 -166 -50t-67 -121h-186q0 81 57.5 156.5t156 119.5t216.5 44q187 0 293 -93.5t110 -257.5v-498q0 -149 38 -237v-16h-194q-16 32 -26 114q-129 -134 -308 -134q-160 0 -262.5 90.5
t-102.5 229.5zM294 326q0 -87 58 -136t149 -49q87 0 165 45t113 117v222h-145q-340 0 -340 -199zM479 1242l193 294h224l-268 -294h-149z" />
    <glyph glyph-name="acircumflex" unicode="&#xe2;" horiz-adv-x="1114" 
d="M238 563q128 93 361 93h180v85q0 97 -58 154.5t-171 57.5q-99 0 -166 -50t-67 -121h-186q0 81 57.5 156.5t156 119.5t216.5 44q187 0 293 -93.5t110 -257.5v-498q0 -149 38 -237v-16h-194q-16 32 -26 114q-129 -134 -308 -134q-160 0 -262.5 90.5t-102.5 229.5
q0 169 129 263zM294 326q0 -87 58 -136t149 -49q87 0 165 45t113 117v222h-145q-340 0 -340 -199zM525 1536h112l247 -274v-10h-153l-150 170l-149 -170h-153v12z" />
    <glyph glyph-name="atilde" unicode="&#xe3;" horiz-adv-x="1114" 
d="M109 300q0 169 128.5 262.5t361.5 93.5h180v85q0 97 -58 154.5t-171 57.5q-99 0 -166 -50t-67 -121h-186q0 81 57.5 156.5t156 119.5t216.5 44q187 0 293 -93.5t110 -257.5v-498q0 -149 38 -237v-16h-194q-16 32 -26 114q-129 -134 -308 -134q-160 0 -262.5 90.5
t-102.5 229.5zM294 326q0 -87 58 -136t149 -49q87 0 165 45t113 117v222h-145q-340 0 -340 -199zM229 1252q0 107 60.5 177t153.5 70q35 0 63 -10t76 -39t73.5 -38t56.5 -9q43 0 71.5 34t28.5 79l124 -12q0 -108 -61.5 -175t-153.5 -67q-41 0 -71 10t-78.5 41t-70 37.5
t-49.5 6.5q-41 0 -70 -31.5t-29 -80.5z" />
    <glyph glyph-name="adieresis" unicode="&#xe4;" horiz-adv-x="1114" 
d="M238 563q128 93 361 93h180v85q0 97 -58 154.5t-171 57.5q-99 0 -166 -50t-67 -121h-186q0 81 57.5 156.5t156 119.5t216.5 44q187 0 293 -93.5t110 -257.5v-498q0 -149 38 -237v-16h-194q-16 32 -26 114q-129 -134 -308 -134q-160 0 -262.5 90.5t-102.5 229.5
q0 169 129 263zM352 190q58 -49 149 -49q87 0 165 45t113 117v222h-145q-340 0 -340 -199q0 -87 58 -136zM717 1445q27 31 81 31t82 -31t28 -76t-28 -75t-82 -30t-81.5 30t-27.5 75t28 76zM259 1371q0 45 27.5 75.5t81.5 30.5t82 -30.5t28 -75.5t-28 -75t-82 -30t-81.5 30
t-27.5 75z" />
    <glyph glyph-name="aring" unicode="&#xe5;" horiz-adv-x="1114" 
d="M109 300q0 169 128.5 262.5t361.5 93.5h180v85q0 97 -58 154.5t-171 57.5q-99 0 -166 -50t-67 -121h-186q0 81 57.5 156.5t156 119.5t216.5 44q187 0 293 -93.5t110 -257.5v-498q0 -149 38 -237v-16h-194q-16 32 -26 114q-129 -134 -308 -134q-160 0 -262.5 90.5
t-102.5 229.5zM294 326q0 -87 58 -136t149 -49q87 0 165 45t113 117v222h-145q-340 0 -340 -199zM428 1566q61 61 153 61t153.5 -61t61.5 -147q0 -87 -62 -145.5t-153 -58.5q-92 0 -153.5 59t-61.5 145t62 147zM465 1419q0 -47 33.5 -81t82.5 -34q48 0 82 33t34 82
t-33.5 83.5t-82.5 34.5q-50 0 -83 -35t-33 -83z" />
    <glyph glyph-name="ae" unicode="&#xe6;" horiz-adv-x="1729" 
d="M78 304q0 157 113.5 244t334.5 87h223v85q0 107 -55 168.5t-159 61.5q-105 0 -175 -55t-70 -136l-184 19q0 143 121 233.5t308 90.5q115 0 203 -41.5t138 -124.5q63 79 150 122.5t192 43.5q210 0 326 -128.5t116 -361.5v-115h-728q7 -176 94 -271.5t236 -95.5
q148 0 269 76l47 31l64 -136q-158 -121 -380 -121q-261 0 -397 180q-65 -86 -178 -133t-254 -47q-167 0 -261 86.5t-94 237.5zM264 300q0 -77 53 -123.5t152 -46.5q72 0 151 37t129 91v237h-228q-117 -2 -187 -57t-70 -138zM1475 640v31q0 132 -67 205.5t-190 73.5
q-115 0 -189.5 -85.5t-91.5 -224.5h538z" />
    <glyph glyph-name="ccedilla" unicode="&#xe7;" horiz-adv-x="1072" 
d="M92 531v31q0 158 58 281t166.5 191t256.5 68q182 0 302.5 -109t128.5 -283h-175q-8 105 -79.5 172.5t-176.5 67.5q-141 0 -218.5 -101.5t-77.5 -293.5v-35q0 -187 77 -288t220 -101q99 0 173 60t82 150h175q-5 -93 -64 -177t-157 -134q-87 -44 -181 -49l-10 -42
q153 -27 153 -173q0 -97 -80 -153.5t-223 -56.5l-7 107q79 0 122.5 26t43.5 73q0 44 -32 65t-130 30l32 132q-150 27 -248 139q-131 147 -131 403z" />
    <glyph glyph-name="egrave" unicode="&#xe8;" horiz-adv-x="1085" 
d="M93 511v34q0 161 61.5 287.5t172 198t239.5 71.5q211 0 328 -139t117 -398v-77h-733q4 -160 93.5 -258.5t227.5 -98.5q98 0 166 40t119 106l113 -88q-136 -209 -408 -209q-220 0 -358 144.5t-138 386.5zM826 640v14q-8 141 -76 218.5t-184 77.5q-112 0 -188 -81.5
t-94 -228.5h542zM477 1536l194 -294h-159l-258 294h223z" />
    <glyph glyph-name="eacute" unicode="&#xe9;" horiz-adv-x="1085" 
d="M93 511v34q0 161 61.5 287.5t172 198t239.5 71.5q211 0 328 -139t117 -398v-77h-733q4 -160 93.5 -258.5t227.5 -98.5q98 0 166 40t119 106l113 -88q-136 -209 -408 -209q-220 0 -358 144.5t-138 386.5zM826 640v14q-8 141 -76 218.5t-184 77.5q-112 0 -188 -81.5
t-94 -228.5h542zM656 1536h224l-268 -294h-149z" />
    <glyph glyph-name="ecircumflex" unicode="&#xea;" horiz-adv-x="1085" 
d="M93 511v34q0 161 61.5 287.5t172 198t239.5 71.5q211 0 328 -139t117 -398v-77h-733q4 -160 93.5 -258.5t227.5 -98.5q98 0 166 40t119 106l113 -88q-136 -209 -408 -209q-220 0 -358 144.5t-138 386.5zM826 640v14q-8 141 -76 218.5t-184 77.5q-112 0 -188 -81.5
t-94 -228.5h542zM263 1252v12l246 272h112l247 -274v-10h-153l-150 170l-149 -170h-153z" />
    <glyph glyph-name="edieresis" unicode="&#xeb;" horiz-adv-x="1085" 
d="M93 511v34q0 161 61.5 287.5t172 198t239.5 71.5q211 0 328 -139t117 -398v-77h-733q4 -160 93.5 -258.5t227.5 -98.5q98 0 166 40t119 106l113 -88q-136 -209 -408 -209q-220 0 -358 144.5t-138 386.5zM826 640v14q-8 141 -76 218.5t-184 77.5q-112 0 -188 -81.5
t-94 -228.5h542zM701 1445q27 31 81 31t82 -31t28 -76t-28 -75t-82 -30t-81.5 30t-27.5 75t28 76zM243 1371q0 45 27.5 75.5t81.5 30.5t82 -30.5t28 -75.5t-28 -75t-82 -30t-81.5 30t-27.5 75z" />
    <glyph glyph-name="igrave" unicode="&#xec;" horiz-adv-x="506" 
d="M341 0h-186v1082h186v-1082zM359 1241h-159l-258 294h223z" />
    <glyph glyph-name="iacute" unicode="&#xed;" horiz-adv-x="506" 
d="M341 0h-186v1082h186v-1082zM343 1535h224l-268 -294h-149z" />
    <glyph glyph-name="icircumflex" unicode="&#xee;" horiz-adv-x="506" 
d="M155 0v1082h186v-1082h-186zM197 1535h112l247 -274v-10h-153l-150 170l-149 -170h-153v12z" />
    <glyph glyph-name="idieresis" unicode="&#xef;" horiz-adv-x="506" 
d="M155 1082h186v-1082h-186v1082zM361 1368q0 45 27.5 76t81.5 31t82 -31t28 -76t-28 -75t-82 -30t-81.5 30t-27.5 75zM-69 1370q0 45 27.5 75.5t81.5 30.5t82 -30.5t28 -75.5t-28 -75t-82 -30t-81.5 30t-27.5 75z" />
    <glyph glyph-name="eth" unicode="&#xf0;" horiz-adv-x="1200" 
d="M820 1301q249 -264 249 -673v-93q0 -158 -58.5 -284.5t-166.5 -198.5t-242 -72q-135 0 -245 64.5t-170.5 176.5t-60.5 246q0 147 56 263.5t159.5 181.5t232.5 65q163 0 284 -114q-48 195 -189 336l-218 -148l-73 99l192 131q-132 91 -315 140l57 159q239 -54 414 -193
l189 129l73 -100zM884 635l-2 56q-33 61 -102.5 97.5t-161.5 36.5q-145 0 -226 -95.5t-81 -262.5q0 -140 83.5 -238t211.5 -98q125 0 201.5 113t76.5 297v94z" />
    <glyph glyph-name="ntilde" unicode="&#xf1;" horiz-adv-x="1130" 
d="M315 1082l6 -136q124 156 324 156q343 0 346 -387v-715h-185v716q-1 117 -53.5 173t-163.5 56q-90 0 -158 -48t-106 -126v-771h-185v1082h175zM281 1429q60 70 153 70q35 0 63 -10t76 -39t73.5 -38t56.5 -9q43 0 71.5 34t28.5 79l124 -12q0 -108 -61.5 -175t-153.5 -67
q-41 0 -71 10t-78.5 41t-70 37.5t-49.5 6.5q-41 0 -70 -31.5t-29 -80.5l-124 7q0 107 61 177z" />
    <glyph glyph-name="ograve" unicode="&#xf2;" horiz-adv-x="1168" 
d="M91 551q0 159 62.5 286t174 196t254.5 69q221 0 357.5 -153t136.5 -407v-13q0 -158 -60.5 -283.5t-173 -195.5t-258.5 -70q-220 0 -356.5 153t-136.5 405v13zM361 240q83 -109 223 -109q141 0 224 110.5t83 309.5q0 178 -84.5 288.5t-224.5 110.5q-137 0 -221 -109
t-84 -312q0 -180 84 -289zM487 1536l194 -294h-159l-258 294h223z" />
    <glyph glyph-name="oacute" unicode="&#xf3;" horiz-adv-x="1168" 
d="M91 551q0 159 62.5 286t174 196t254.5 69q221 0 357.5 -153t136.5 -407v-13q0 -158 -60.5 -283.5t-173 -195.5t-258.5 -70q-220 0 -356.5 153t-136.5 405v13zM277 529q0 -180 83.5 -289t223.5 -109q141 0 224 110.5t83 309.5q0 178 -84.5 288.5t-224.5 110.5
q-137 0 -221 -109t-84 -312zM473 1242l193 294h224l-268 -294h-149z" />
    <glyph glyph-name="ocircumflex" unicode="&#xf4;" horiz-adv-x="1168" 
d="M91 538v13q0 159 62.5 286t174 196t254.5 69q221 0 357.5 -153t136.5 -407v-13q0 -158 -60.5 -283.5t-173 -195.5t-258.5 -70q-220 0 -356.5 153t-136.5 405zM361 240q83 -109 223 -109q141 0 224 110.5t83 309.5q0 178 -84.5 288.5t-224.5 110.5q-137 0 -221 -109
t-84 -312q0 -180 84 -289zM273 1252v12l246 272h112l247 -274v-10h-153l-150 170l-149 -170h-153z" />
    <glyph glyph-name="otilde" unicode="&#xf5;" horiz-adv-x="1168" 
d="M91 551q0 159 62.5 286t174 196t254.5 69q221 0 357.5 -153t136.5 -407v-13q0 -158 -60.5 -283.5t-173 -195.5t-258.5 -70q-220 0 -356.5 153t-136.5 405v13zM277 529q0 -180 83.5 -289t223.5 -109q141 0 224 110.5t83 309.5q0 178 -84.5 288.5t-224.5 110.5
q-137 0 -221 -109t-84 -312zM223 1252q0 107 60.5 177t153.5 70q35 0 63 -10t76 -39t73.5 -38t56.5 -9q43 0 71.5 34t28.5 79l124 -12q0 -108 -61.5 -175t-153.5 -67q-41 0 -71 10t-78.5 41t-70 37.5t-49.5 6.5q-41 0 -70 -31.5t-29 -80.5z" />
    <glyph glyph-name="odieresis" unicode="&#xf6;" horiz-adv-x="1168" 
d="M91 538v13q0 159 62.5 286t174 196t254.5 69q221 0 357.5 -153t136.5 -407v-13q0 -158 -60.5 -283.5t-173 -195.5t-258.5 -70q-220 0 -356.5 153t-136.5 405zM361 240q83 -109 223 -109q141 0 224 110.5t83 309.5q0 178 -84.5 288.5t-224.5 110.5q-137 0 -221 -109
t-84 -312q0 -180 84 -289zM683 1369q0 45 27.5 76t81.5 31t82 -31t28 -76t-28 -75t-82 -30t-81.5 30t-27.5 75zM281 1447q27 30 81 30t82 -30.5t28 -75.5t-28 -75t-82 -30t-81.5 30t-27.5 75t28 76z" />
    <glyph glyph-name="divide" unicode="&#xf7;" horiz-adv-x="1169" 
d="M1069 600h-998v184h998v-184zM461 1098q0 48 28.5 80t85.5 32t86.5 -32t29.5 -80q0 -47 -29.5 -78t-86.5 -31t-85.5 31t-28.5 78zM461 281q0 48 28.5 80t85.5 32t86.5 -32t29.5 -80q0 -46 -29.5 -77.5t-86.5 -31.5t-85.5 31.5t-28.5 77.5z" />
    <glyph glyph-name="oslash" unicode="&#xf8;" horiz-adv-x="1160" 
d="M91 551q0 159 61.5 285.5t174 196t255.5 69.5q110 0 204 -42l73 148h124l-102 -205q195 -154 195 -474q0 -158 -62 -285t-174 -195.5t-256 -68.5q-104 0 -190 35l-74 -149h-124l100 203q-205 149 -205 482zM373 224l343 694q-62 32 -134 32q-138 0 -222 -109t-84 -312
q0 -194 97 -305zM584 131q139 0 222.5 109.5t83.5 294.5v16q0 182 -87 293l-340 -688q55 -25 121 -25z" />
    <glyph glyph-name="ugrave" unicode="&#xf9;" horiz-adv-x="1129" 
d="M136 1082h185v-699q0 -246 200 -246q212 0 282 158v787h185v-1082h-176l-4 107q-108 -127 -317 -127q-173 0 -263.5 100.5t-91.5 297.5v704zM479 1536l194 -294h-159l-258 294h223z" />
    <glyph glyph-name="uacute" unicode="&#xfa;" horiz-adv-x="1129" 
d="M136 1082h185v-699q0 -246 200 -246q212 0 282 158v787h185v-1082h-176l-4 107q-108 -127 -317 -127q-173 0 -263.5 100.5t-91.5 297.5v704zM465 1242l193 294h224l-268 -294h-149z" />
    <glyph glyph-name="ucircumflex" unicode="&#xfb;" horiz-adv-x="1129" 
d="M321 1082v-699q0 -246 200 -246q212 0 282 158v787h185v-1082h-176l-4 107q-108 -127 -317 -127q-173 0 -263.5 100.5t-91.5 297.5v704h185zM265 1264l246 272h112l247 -274v-10h-153l-150 170l-149 -170h-153v12z" />
    <glyph glyph-name="udieresis" unicode="&#xfc;" horiz-adv-x="1129" 
d="M136 1082h185v-699q0 -246 200 -246q212 0 282 158v787h185v-1082h-176l-4 107q-108 -127 -317 -127q-173 0 -263.5 100.5t-91.5 297.5v704zM675 1369q0 45 27.5 76t81.5 31t82 -31t28 -76t-28 -75t-82 -30t-81.5 30t-27.5 75zM245 1371q0 45 27.5 75.5t81.5 30.5
t82 -30.5t28 -75.5t-28 -75t-82 -30t-81.5 30t-27.5 75z" />
    <glyph glyph-name="yacute" unicode="&#xfd;" horiz-adv-x="969" 
d="M22 1082h202l270 -811l252 811h198l-435 -1249q-101 -270 -321 -270l-35 3l-69 13v150l50 -4q94 0 146.5 38t86.5 139l41 110zM406 1242l193 294h224l-268 -294h-149z" />
    <glyph glyph-name="thorn" unicode="&#xfe;" horiz-adv-x="1180" 
d="M1063 529q0 -247 -113 -398t-306 -151q-197 0 -310 125v-521h-185v1952h185v-566q113 132 307 132q195 0 308.5 -147t113.5 -409v-17zM878 550q0 183 -78 289t-214 106q-168 0 -252 -149v-517q83 -148 254 -148q133 0 211.5 105.5t78.5 313.5z" />
    <glyph glyph-name="ydieresis" unicode="&#xff;" horiz-adv-x="969" 
d="M22 1082h202l270 -811l252 811h198l-435 -1249q-101 -270 -321 -270l-35 3l-69 13v150l50 -4q94 0 146.5 38t86.5 139l41 110zM644 1445q27 31 81 31t82 -31t28 -76t-28 -75t-82 -30t-81.5 30t-27.5 75t28 76zM186 1371q0 45 27.5 75.5t81.5 30.5t82 -30.5t28 -75.5
t-28 -75t-82 -30t-81.5 30t-27.5 75z" />
    <glyph glyph-name="Amacron" unicode="&#x100;" horiz-adv-x="1336" 
d="M28 0l556 1456h168l557 -1456h-197l-139 380h-610l-137 -380h-198zM421 538h495l-248 681zM341 1620v143h672v-143h-672z" />
    <glyph glyph-name="amacron" unicode="&#x101;" horiz-adv-x="1114" 
d="M238 563q128 93 361 93h180v85q0 97 -58 154.5t-171 57.5q-99 0 -166 -50t-67 -121h-186q0 81 57.5 156.5t156 119.5t216.5 44q187 0 293 -93.5t110 -257.5v-498q0 -149 38 -237v-16h-194q-16 32 -26 114q-129 -134 -308 -134q-160 0 -262.5 90.5t-102.5 229.5
q0 169 129 263zM352 190q58 -49 149 -49q87 0 165 45t113 117v222h-145q-340 0 -340 -199q0 -87 58 -136zM250 1453h672v-143h-672v143z" />
    <glyph glyph-name="Abreve" unicode="&#x102;" horiz-adv-x="1336" 
d="M28 0l556 1456h168l557 -1456h-197l-139 380h-610l-137 -380h-198zM421 538h495l-248 681zM373 1806h151q0 -70 38 -109.5t111 -39.5q70 0 109.5 39t39.5 110h150q0 -121 -82.5 -194.5t-216.5 -73.5t-217 74t-83 194z" />
    <glyph glyph-name="abreve" unicode="&#x103;" horiz-adv-x="1114" 
d="M109 300q0 169 128.5 262.5t361.5 93.5h180v85q0 97 -58 154.5t-171 57.5q-99 0 -166 -50t-67 -121h-186q0 81 57.5 156.5t156 119.5t216.5 44q187 0 293 -93.5t110 -257.5v-498q0 -149 38 -237v-16h-194q-16 32 -26 114q-129 -134 -308 -134q-160 0 -262.5 90.5
t-102.5 229.5zM294 326q0 -87 58 -136t149 -49q87 0 165 45t113 117v222h-145q-340 0 -340 -199zM433 1496q0 -70 38 -109.5t111 -39.5q70 0 109.5 39t39.5 110h150q0 -121 -82.5 -194.5t-216.5 -73.5t-217 74t-83 194h151z" />
    <glyph glyph-name="Aogonek" unicode="&#x104;" horiz-adv-x="1336" 
d="M584 1456h168l557 -1456h-38l-58 -45q-113 -91 -113 -177q0 -72 78 -72q48 0 100 26l13 -121q-70 -44 -160 -44q-89 0 -140.5 52t-51.5 138q0 144 169 252l-135 371h-610l-137 -380h-198zM421 538h495l-248 681z" />
    <glyph glyph-name="aogonek" unicode="&#x105;" horiz-adv-x="1114" 
d="M109 300q0 169 128.5 262.5t361.5 93.5h180v85q0 97 -58 154.5t-171 57.5q-99 0 -166 -50t-67 -121h-186q0 81 57.5 156.5t156 119.5t216.5 44q187 0 293 -93.5t110 -257.5v-498q0 -149 38 -237v-16h-33l-58 -45q-113 -91 -113 -177q0 -72 78 -72q48 0 100 26l13 -121
q-70 -44 -160 -44q-89 0 -140.5 52t-51.5 138q0 144 167 250q-15 38 -22 107q-129 -134 -308 -134q-160 0 -262.5 90.5t-102.5 229.5zM352 190q58 -49 149 -49q87 0 165 45t113 117v222h-145q-340 0 -340 -199q0 -87 58 -136z" />
    <glyph glyph-name="Cacute" unicode="&#x106;" horiz-adv-x="1333" 
d="M192 1157q72 154 205 236.5t308 82.5q232 0 372 -129.5t163 -358.5h-193q-25 174 -108.5 252t-233.5 78q-184 0 -288.5 -136t-104.5 -387v-141q0 -237 99 -377t277 -140q160 0 245.5 72.5t113.5 252.5h193q-27 -231 -170.5 -356.5t-381.5 -125.5q-258 0 -413.5 185
t-155.5 495v140q0 203 73 357zM577 1585l193 294h224l-268 -294h-149z" />
    <glyph glyph-name="cacute" unicode="&#x107;" horiz-adv-x="1072" 
d="M92 562q0 158 58 281t166.5 191t256.5 68q182 0 302.5 -109t128.5 -283h-175q-8 105 -79.5 172.5t-176.5 67.5q-141 0 -218.5 -101.5t-77.5 -293.5v-35q0 -187 77 -288t220 -101q99 0 173 60t82 150h175q-5 -93 -64 -177t-157.5 -134t-208.5 -50q-221 0 -351.5 147.5
t-130.5 403.5v31zM430 1242l193 294h224l-268 -294h-149z" />
    <glyph glyph-name="Ccircumflex" unicode="&#x108;" horiz-adv-x="1333" 
d="M119 800q0 203 72.5 357t205.5 236.5t308 82.5q232 0 372 -129.5t163 -358.5h-193q-25 174 -108.5 252t-233.5 78q-184 0 -288.5 -136t-104.5 -387v-141q0 -237 99 -377t277 -140q160 0 245.5 72.5t113.5 252.5h193q-27 -231 -170.5 -356.5t-381.5 -125.5
q-258 0 -413.5 185t-155.5 495v140zM623 1879h112l247 -274v-10h-153l-150 170l-149 -170h-153v12z" />
    <glyph glyph-name="ccircumflex" unicode="&#x109;" horiz-adv-x="1072" 
d="M92 531v31q0 158 58 281t166.5 191t256.5 68q182 0 302.5 -109t128.5 -283h-175q-8 105 -79.5 172.5t-176.5 67.5q-141 0 -218.5 -101.5t-77.5 -293.5v-35q0 -187 77 -288t220 -101q99 0 173 60t82 150h175q-5 -93 -64 -177t-157.5 -134t-208.5 -50q-221 0 -351.5 147.5
t-130.5 403.5zM230 1264l246 272h112l247 -274v-10h-153l-150 170l-149 -170h-153v12z" />
    <glyph glyph-name="Cdotaccent" unicode="&#x10a;" horiz-adv-x="1333" 
d="M192 1157q72 154 205 236.5t308 82.5q232 0 372 -129.5t163 -358.5h-193q-25 174 -108.5 252t-233.5 78q-184 0 -288.5 -136t-104.5 -387v-141q0 -237 99 -377t277 -140q160 0 245.5 72.5t113.5 252.5h193q-27 -231 -170.5 -356.5t-381.5 -125.5q-258 0 -413.5 185
t-155.5 495v140q0 203 73 357zM570 1710q0 45 27.5 76t81.5 31t82 -31t28 -76t-28 -75t-82 -30t-81.5 30t-27.5 75z" />
    <glyph glyph-name="cdotaccent" unicode="&#x10b;" horiz-adv-x="1072" 
d="M92 531v31q0 158 58 281t166.5 191t256.5 68q182 0 302.5 -109t128.5 -283h-175q-8 105 -79.5 172.5t-176.5 67.5q-141 0 -218.5 -101.5t-77.5 -293.5v-35q0 -187 77 -288t220 -101q99 0 173 60t82 150h175q-5 -93 -64 -177t-157.5 -134t-208.5 -50q-221 0 -351.5 147.5
t-130.5 403.5zM423 1367q0 45 27.5 76t81.5 31t82 -31t28 -76t-28 -75t-82 -30t-81.5 30t-27.5 75z" />
    <glyph glyph-name="Ccaron" unicode="&#x10c;" horiz-adv-x="1333" 
d="M192 1157q72 154 205 236.5t308 82.5q232 0 372 -129.5t163 -358.5h-193q-25 174 -108.5 252t-233.5 78q-184 0 -288.5 -136t-104.5 -387v-141q0 -237 99 -377t277 -140q160 0 245.5 72.5t113.5 252.5h193q-27 -231 -170.5 -356.5t-381.5 -125.5q-258 0 -413.5 185
t-155.5 495v140q0 203 73 357zM370 1869v10h157l151 -170l150 170h160v-10l-254 -274h-113z" />
    <glyph glyph-name="ccaron" unicode="&#x10d;" horiz-adv-x="1072" 
d="M150 843q58 123 166.5 191t256.5 68q182 0 302.5 -109t128.5 -283h-175q-8 105 -79.5 172.5t-176.5 67.5q-141 0 -218.5 -101.5t-77.5 -293.5v-35q0 -187 77 -288t220 -101q99 0 173 60t82 150h175q-5 -93 -64 -177t-157.5 -134t-208.5 -50q-221 0 -351.5 147.5
t-130.5 403.5v31q0 158 58 281zM223 1536h157l151 -170l150 170h160v-10l-254 -274h-113l-251 274v10z" />
    <glyph glyph-name="Dcaron" unicode="&#x10e;" horiz-adv-x="1343" 
d="M580 1456q190 0 336 -84t225.5 -239t80.5 -356v-93q0 -206 -79.5 -361t-227 -238t-343.5 -85h-403v1456h411zM361 157h202q222 0 345.5 138t123.5 393v85q0 248 -116.5 385.5t-330.5 139.5h-224v-1141zM299 1858h157l151 -170l150 170h160v-10l-254 -274h-113l-251 274
v10z" />
    <glyph glyph-name="dcaron" unicode="&#x10f;" horiz-adv-x="1305" 
d="M95 536v14q0 249 118 400.5t309 151.5q190 0 301 -130v564h185v-1536h-170l-9 116q-111 -136 -309 -136q-188 0 -306.5 154t-118.5 402zM280 529q0 -184 76 -288t210 -104q176 0 257 158v497q-83 153 -255 153q-136 0 -212 -105t-76 -311zM1072 1210q72 109 74 236v92
h177v-76q0 -91 -39.5 -180.5t-106.5 -143.5z" />
    <glyph glyph-name="Dcroat" unicode="&#x110;" horiz-adv-x="1373" 
d="M199 817v639h411q190 0 336 -84t225.5 -239t80.5 -356v-93q0 -206 -79.5 -361t-227 -238t-343.5 -85h-403v666h-192v151h192zM391 666v-509h201q222 0 345.5 137t124.5 386v93q0 248 -116.5 385.5t-330.5 139.5h-224v-481h252v-151h-252z" />
    <glyph glyph-name="dcroat" unicode="&#x111;" horiz-adv-x="1223" 
d="M95 536v14q0 249 118 400.5t309 151.5q190 0 301 -130v261h-264v151h264v152h185v-152h188v-151h-188v-1233h-170l-9 116q-111 -136 -309 -136q-188 0 -306.5 154t-118.5 402zM280 529q0 -184 76 -288t210 -104q176 0 257 158v497q-83 153 -255 153q-136 0 -212 -105
t-76 -311z" />
    <glyph glyph-name="Emacron" unicode="&#x112;" horiz-adv-x="1164" 
d="M169 0v1456h915v-158h-723v-468h631v-157h-631v-516h733v-157h-925zM288 1775h672v-143h-672v143z" />
    <glyph glyph-name="emacron" unicode="&#x113;" horiz-adv-x="1085" 
d="M93 511v34q0 161 61.5 287.5t172 198t239.5 71.5q211 0 328 -139t117 -398v-77h-733q4 -160 93.5 -258.5t227.5 -98.5q98 0 166 40t119 106l113 -88q-136 -209 -408 -209q-220 0 -358 144.5t-138 386.5zM826 640v14q-8 141 -76 218.5t-184 77.5q-112 0 -188 -81.5
t-94 -228.5h542zM234 1310v143h672v-143h-672z" />
    <glyph glyph-name="Ebreve" unicode="&#x114;" horiz-adv-x="1164" 
d="M1084 1456v-158h-723v-468h631v-157h-631v-516h733v-157h-925v1456h915zM320 1818h151q0 -70 38 -109.5t111 -39.5q70 0 109.5 39t39.5 110h150q0 -121 -82.5 -194.5t-216.5 -73.5t-217 74t-83 194z" />
    <glyph glyph-name="ebreve" unicode="&#x115;" horiz-adv-x="1085" 
d="M93 511v34q0 161 61.5 287.5t172 198t239.5 71.5q211 0 328 -139t117 -398v-77h-733q4 -160 93.5 -258.5t227.5 -98.5q98 0 166 40t119 106l113 -88q-136 -209 -408 -209q-220 0 -358 144.5t-138 386.5zM284 640h542v14q-8 141 -76 218.5t-184 77.5q-112 0 -188 -81.5
t-94 -228.5zM266 1496h151q0 -70 38 -109.5t111 -39.5q70 0 109.5 39t39.5 110h150q0 -121 -82.5 -194.5t-216.5 -73.5t-217 74t-83 194z" />
    <glyph glyph-name="Edotaccent" unicode="&#x116;" horiz-adv-x="1164" 
d="M1084 1456v-158h-723v-468h631v-157h-631v-516h733v-157h-925v1456h915zM538 1765q27 31 81 31t82 -31t28 -76t-28 -75t-82 -30t-81.5 30t-27.5 75t28 76z" />
    <glyph glyph-name="edotaccent" unicode="&#x117;" horiz-adv-x="1085" 
d="M93 511v34q0 161 61.5 287.5t172 198t239.5 71.5q211 0 328 -139t117 -398v-77h-733q4 -160 93.5 -258.5t227.5 -98.5q98 0 166 40t119 106l113 -88q-136 -209 -408 -209q-220 0 -358 144.5t-138 386.5zM826 640v14q-8 141 -76 218.5t-184 77.5q-112 0 -188 -81.5
t-94 -228.5h542zM456 1367q0 45 27.5 76t81.5 31t82 -31t28 -76t-28 -75t-82 -30t-81.5 30t-27.5 75z" />
    <glyph glyph-name="Eogonek" unicode="&#x118;" horiz-adv-x="1164" 
d="M1084 1456v-158h-723v-468h631v-157h-631v-516h733v-157h-73l-58 -45q-113 -91 -113 -177q0 -72 78 -72q48 0 100 26l13 -121q-70 -44 -160 -44q-89 0 -140.5 52t-51.5 138q0 138 155 243h-675v1456h915z" />
    <glyph glyph-name="eogonek" unicode="&#x119;" horiz-adv-x="1085" 
d="M93 512v33q0 161 61.5 287.5t172 198t239.5 71.5q211 0 328 -139t117 -398v-77h-733q4 -160 93.5 -258.5t227.5 -98.5q98 0 166 40t119 106l113 -88q-71 -110 -186 -164h1l-58 -45q-113 -91 -113 -177q0 -72 78 -72q48 0 100 26l13 -121q-70 -44 -160 -44
q-89 0 -140.5 52t-51.5 138q0 108 98 198q-218 4 -351.5 148.5t-133.5 383.5zM826 640v14q-8 141 -76 218.5t-184 77.5q-112 0 -188 -81.5t-94 -228.5h542z" />
    <glyph glyph-name="Ecaron" unicode="&#x11a;" horiz-adv-x="1164" 
d="M169 1456h915v-158h-723v-468h631v-157h-631v-516h733v-157h-925v1456zM310 1858h157l151 -170l150 170h160v-10l-254 -274h-113l-251 274v10z" />
    <glyph glyph-name="ecaron" unicode="&#x11b;" horiz-adv-x="1085" 
d="M93 511v34q0 161 61.5 287.5t172 198t239.5 71.5q211 0 328 -139t117 -398v-77h-733q4 -160 93.5 -258.5t227.5 -98.5q98 0 166 40t119 106l113 -88q-136 -209 -408 -209q-220 0 -358 144.5t-138 386.5zM284 640h542v14q-8 141 -76 218.5t-184 77.5q-112 0 -188 -81.5
t-94 -228.5zM256 1536h157l151 -170l150 170h160v-10l-254 -274h-113l-251 274v10z" />
    <glyph glyph-name="Gcircumflex" unicode="&#x11c;" horiz-adv-x="1395" 
d="M122 785q0 329 153.5 510t431.5 181q228 0 367 -116.5t170 -330.5h-192q-54 289 -344 289q-193 0 -292.5 -135.5t-100.5 -392.5v-119q0 -245 112 -389.5t303 -144.5q108 0 189 24t134 81v327h-337v156h528v-534q-74 -106 -206.5 -158.5t-308.5 -52.5q-178 0 -316 83.5
t-213.5 237.5t-77.5 357v127zM369 1595v12l246 272h112l247 -274v-10h-153l-150 170l-149 -170h-153z" />
    <glyph glyph-name="gcircumflex" unicode="&#x11d;" horiz-adv-x="1149" 
d="M213 953q117 149 310 149q198 0 309 -140l9 120h169v-1056q0 -210 -124.5 -331t-334.5 -121q-117 0 -229 50t-171 137l96 111q119 -147 291 -147q135 0 210.5 76t75.5 214v93q-111 -128 -303 -128q-190 0 -307.5 153t-117.5 417q0 253 117 403zM282 529q0 -183 75 -287.5
t210 -104.5q175 0 257 159v494q-85 155 -255 155q-135 0 -211 -105t-76 -311zM254 1264l246 272h112l247 -274v-10h-153l-150 170l-149 -170h-153v12z" />
    <glyph glyph-name="Gbreve" unicode="&#x11e;" horiz-adv-x="1395" 
d="M276 1295q153 181 431 181q228 0 367 -116.5t170 -330.5h-192q-54 289 -344 289q-193 0 -292.5 -135.5t-100.5 -392.5v-119q0 -245 112 -389.5t303 -144.5q108 0 189 24t134 81v327h-337v156h528v-534q-74 -106 -206.5 -158.5t-308.5 -52.5q-178 0 -316 83.5
t-213.5 237.5t-77.5 357v127q0 329 154 510zM372 1839h151q0 -70 38 -109.5t111 -39.5q70 0 109.5 39t39.5 110h150q0 -121 -82.5 -194.5t-216.5 -73.5t-217 74t-83 194z" />
    <glyph glyph-name="gbreve" unicode="&#x11f;" horiz-adv-x="1149" 
d="M213 953q117 149 310 149q198 0 309 -140l9 120h169v-1056q0 -210 -124.5 -331t-334.5 -121q-117 0 -229 50t-171 137l96 111q119 -147 291 -147q135 0 210.5 76t75.5 214v93q-111 -128 -303 -128q-190 0 -307.5 153t-117.5 417q0 253 117 403zM282 529q0 -183 75 -287.5
t210 -104.5q175 0 257 159v494q-85 155 -255 155q-135 0 -211 -105t-76 -311zM257 1496h151q0 -70 38 -109.5t111 -39.5q70 0 109.5 39t39.5 110h150q0 -121 -82.5 -194.5t-216.5 -73.5t-217 74t-83 194z" />
    <glyph glyph-name="Gdotaccent" unicode="&#x120;" horiz-adv-x="1395" 
d="M276 1295q153 181 431 181q228 0 367 -116.5t170 -330.5h-192q-54 289 -344 289q-193 0 -292.5 -135.5t-100.5 -392.5v-119q0 -245 112 -389.5t303 -144.5q108 0 189 24t134 81v327h-337v156h528v-534q-74 -106 -206.5 -158.5t-308.5 -52.5q-178 0 -316 83.5
t-213.5 237.5t-77.5 357v127q0 329 154 510zM590 1786q27 31 81 31t82 -31t28 -76t-28 -75t-82 -30t-81.5 30t-27.5 75t28 76z" />
    <glyph glyph-name="gdotaccent" unicode="&#x121;" horiz-adv-x="1149" 
d="M96 550q0 253 117 402.5t310 149.5q198 0 309 -140l9 120h169v-1056q0 -210 -124.5 -331t-334.5 -121q-117 0 -229 50t-171 137l96 111q119 -147 291 -147q135 0 210.5 76t75.5 214v93q-111 -128 -303 -128q-190 0 -307.5 153t-117.5 417zM282 529q0 -183 75 -287.5
t210 -104.5q175 0 257 159v494q-85 155 -255 155q-135 0 -211 -105t-76 -311zM475 1443q27 31 81 31t82 -31t28 -76t-28 -75t-82 -30t-81.5 30t-27.5 75t28 76z" />
    <glyph glyph-name="uni0122" unicode="&#x122;" horiz-adv-x="1395" 
d="M122 785q0 329 153.5 510t431.5 181q228 0 367 -116.5t170 -330.5h-192q-54 289 -344 289q-193 0 -292.5 -135.5t-100.5 -392.5v-119q0 -245 112 -389.5t303 -144.5q108 0 189 24t134 81v327h-337v156h528v-534q-74 -106 -206.5 -158.5t-308.5 -52.5q-178 0 -316 83.5
t-213.5 237.5t-77.5 357v127zM640 -214v92h177v-76q0 -91 -39.5 -180.5t-106.5 -143.5l-105 72q72 109 74 236z" />
    <glyph glyph-name="uni0123" unicode="&#x123;" horiz-adv-x="1149" 
d="M213 953q117 149 310 149q198 0 309 -140l9 120h169v-1056q0 -210 -124.5 -331t-334.5 -121q-117 0 -229 50t-171 137l96 111q119 -147 291 -147q135 0 210.5 76t75.5 214v93q-111 -128 -303 -128q-190 0 -307.5 153t-117.5 417q0 253 117 403zM357 242q75 -105 210 -105
q175 0 257 159v494q-85 155 -255 155q-135 0 -211 -105t-76 -311q0 -183 75 -287zM458 1254v130q0 77 42 163.5t98 135.5l107 -83q-59 -99 -62 -210v-136h-185z" />
    <glyph glyph-name="Hcircumflex" unicode="&#x124;" horiz-adv-x="1460" 
d="M169 0v1456h192v-626h734v626h193v-1456h-193v673h-734v-673h-192zM656 1858h112l247 -274v-10h-153l-150 170l-149 -170h-153v12z" />
    <glyph glyph-name="hcircumflex" unicode="&#x125;" horiz-adv-x="1128" 
d="M325 1536v-585q123 151 320 151q343 0 346 -387v-715h-185v716q-1 117 -53.5 173t-163.5 56q-90 0 -158 -48t-106 -126v-771h-185v1536h185zM198 1585l246 272h112l247 -274v-10h-153l-150 170l-149 -170h-153v12z" />
    <glyph glyph-name="Hbar" unicode="&#x126;" horiz-adv-x="1434" 
d="M29 1166h134v290h193v-290h733v290h193v-290h134v-142h-134v-1024h-193v673h-733v-673h-193v1024h-134v142zM356 830h733v194h-733v-194z" />
    <glyph glyph-name="hbar" unicode="&#x127;" horiz-adv-x="1158" 
d="M170 1385v151h185v-151h251v-151h-251v-283q123 151 320 151q343 0 346 -387v-715h-185v716q-1 117 -53.5 173t-163.5 56q-90 0 -158 -48t-106 -126v-771h-185v1234h-200v151h200z" />
    <glyph glyph-name="Itilde" unicode="&#x128;" horiz-adv-x="557" 
d="M375 1456v-1456h-192v1456h192zM-13 1751q61 70 154 70q35 0 63 -10t76 -39t73.5 -38t56.5 -9q43 0 71.5 34t28.5 79l124 -12q0 -108 -61.5 -175t-153.5 -67q-41 0 -71 10t-78.5 41t-70 37.5t-49.5 6.5q-41 0 -70 -31.5t-29 -80.5l-124 7q0 107 60 177z" />
    <glyph glyph-name="itilde" unicode="&#x129;" horiz-adv-x="506" 
d="M341 1082v-1082h-186v1082h186zM-39 1427q61 70 154 70q35 0 63 -10t76 -39t73.5 -38t56.5 -9q43 0 71.5 34t28.5 79l124 -12q0 -108 -61.5 -175t-153.5 -67q-41 0 -71 10t-78.5 41t-70 37.5t-49.5 6.5q-41 0 -70 -31.5t-29 -80.5l-124 7q0 107 60 177z" />
    <glyph glyph-name="Imacron" unicode="&#x12a;" horiz-adv-x="557" 
d="M375 0h-192v1456h192v-1456zM620 1632h-672v143h672v-143z" />
    <glyph glyph-name="imacron" unicode="&#x12b;" horiz-adv-x="506" 
d="M341 0h-186v1082h186v-1082zM594 1308h-672v143h672v-143z" />
    <glyph glyph-name="Ibreve" unicode="&#x12c;" horiz-adv-x="557" 
d="M183 0v1456h192v-1456h-192zM-20 1818h151q0 -70 38 -109.5t111 -39.5q70 0 109.5 39t39.5 110h150q0 -121 -82.5 -194.5t-216.5 -73.5t-217 74t-83 194z" />
    <glyph glyph-name="ibreve" unicode="&#x12d;" horiz-adv-x="506" 
d="M155 0v1082h186v-1082h-186zM-46 1495h151q0 -70 38 -109.5t111 -39.5q70 0 109.5 39t39.5 110h150q0 -121 -82.5 -194.5t-216.5 -73.5t-217 74t-83 194z" />
    <glyph glyph-name="Iogonek" unicode="&#x12e;" horiz-adv-x="557" 
d="M91 -68q37 43 92 79v1445h192v-1456h-31l-46 -36q-113 -91 -113 -177q0 -72 78 -72q48 0 100 26l13 -121q-70 -44 -160 -44q-89 0 -140.5 52t-51.5 138q0 89 67 166z" />
    <glyph glyph-name="iogonek" unicode="&#x12f;" horiz-adv-x="497" 
d="M62 -77q38 44 94 81v1078h185v-1082h-14l-58 -45q-113 -91 -113 -177q0 -72 78 -72q48 0 100 26l13 -121q-70 -44 -160 -44q-89 0 -140.5 52t-51.5 138q0 89 67 166zM141 1369q0 45 27.5 76t81.5 31t82 -31t28 -76t-28 -75t-82 -30t-81.5 30t-27.5 75z" />
    <glyph glyph-name="Idotaccent" unicode="&#x130;" horiz-adv-x="557" 
d="M375 1456v-1456h-192v1456h192zM169 1689q0 45 27.5 76t81.5 31t82 -31t28 -76t-28 -75t-82 -30t-81.5 30t-27.5 75z" />
    <glyph glyph-name="dotlessi" unicode="&#x131;" horiz-adv-x="506" 
d="M341 0h-186v1082h186v-1082z" />
    <glyph glyph-name="IJ" unicode="&#x132;" horiz-adv-x="1687" 
d="M375 0h-192v1456h192v-1456zM1336 1456h193v-1031q0 -209 -125.5 -327t-334.5 -118q-217 0 -338 111t-121 311h192q0 -125 68.5 -195t198.5 -70q119 0 192.5 75t74.5 210v1034z" />
    <glyph glyph-name="ij" unicode="&#x133;" horiz-adv-x="986" 
d="M341 0h-185v1082h185v-1082zM141 1369q0 45 27.5 76t81.5 31t82 -31t28 -76t-28 -75t-82 -30t-81.5 30t-27.5 75zM828 1082v-1207q0 -312 -283 -312q-61 0 -113 18v148q32 -8 84 -8q62 0 94.5 33.5t32.5 116.5v1211h185zM624 1369q0 44 27.5 75.5t80.5 31.5q54 0 82 -31
t28 -76t-28 -75t-82 -30t-81 30t-27 75z" />
    <glyph glyph-name="Jcircumflex" unicode="&#x134;" horiz-adv-x="1130" 
d="M245 402q0 -125 68.5 -195t198.5 -70q119 0 192.5 75t74.5 210v1034h193v-1031q0 -209 -125.5 -327t-334.5 -118q-217 0 -338 111t-121 311h192zM549 1573l246 272h112l247 -274v-10h-153l-150 170l-149 -170h-153v12z" />
    <glyph glyph-name="jcircumflex" unicode="&#x135;" horiz-adv-x="515" 
d="M-76 -419l14 147q30 -13 97 -13q65 0 101 52t36 144v1171h185v-1171q0 -170 -85 -259t-237 -89q-59 0 -111 18zM-36 1224l246 272h112l247 -274v-10h-153l-150 170l-149 -170h-153v12z" />
    <glyph glyph-name="uni0136" unicode="&#x136;" horiz-adv-x="1284" 
d="M169 1456h192v-720l647 720h232l-573 -643l618 -813h-230l-516 677l-178 -185v-492h-192v1456zM496 -352q72 109 74 236v92h177v-76q0 -91 -39.5 -180.5t-106.5 -143.5z" />
    <glyph glyph-name="uni0137" unicode="&#x137;" horiz-adv-x="1038" 
d="M141 1536h185v-929l99 119l337 356h225l-421 -452l470 -630h-217l-377 501l-116 -121v-380h-185v1536zM365 -371q72 109 74 236v92h177v-76q0 -91 -39.5 -180.5t-106.5 -143.5z" />
    <glyph glyph-name="kgreenlandic" unicode="&#x138;" horiz-adv-x="1139" 
d="M154 0v1082h186v-458h91l397 458h223l-452 -525l488 -557h-233l-407 461h-107v-461h-186z" />
    <glyph glyph-name="Lacute" unicode="&#x139;" horiz-adv-x="1102" 
d="M362 157h690v-157h-883v1456h193v-1299zM354 1841h224l-268 -294h-149z" />
    <glyph glyph-name="lacute" unicode="&#x13a;" horiz-adv-x="497" 
d="M341 0h-185v1536h185v-1536zM340 1942h224l-268 -294h-149z" />
    <glyph glyph-name="uni013B" unicode="&#x13b;" horiz-adv-x="1102" 
d="M362 1456v-1299h690v-157h-883v1456h193zM456 -431q72 109 74 236v92h177v-76q0 -91 -39.5 -180.5t-106.5 -143.5z" />
    <glyph glyph-name="uni013C" unicode="&#x13c;" horiz-adv-x="497" 
d="M156 1536h185v-1536h-185v1536zM161 -195v92h177v-76q0 -91 -39.5 -180.5t-106.5 -143.5l-105 72q72 109 74 236z" />
    <glyph glyph-name="Lcaron" unicode="&#x13d;" horiz-adv-x="1102" 
d="M362 1456v-1299h690v-157h-883v1456h193zM561 1129q72 109 74 236v92h177v-76q0 -91 -39.5 -180.5t-106.5 -143.5z" />
    <glyph glyph-name="lcaron" unicode="&#x13e;" horiz-adv-x="647" 
d="M156 0v1536h185v-1536h-185zM434 1210q72 109 74 236v92h177v-76q0 -91 -39.5 -180.5t-106.5 -143.5z" />
    <glyph glyph-name="Ldot" unicode="&#x13f;" horiz-adv-x="1102" 
d="M362 1456v-1299h690v-157h-883v1456h193zM613 872q27 31 81 31t82 -31t28 -76t-28 -75t-82 -30t-81.5 30t-27.5 75t28 76z" />
    <glyph glyph-name="ldot" unicode="&#x140;" horiz-adv-x="717" 
d="M156 1536h185v-1536h-185v1536zM453 781q0 45 27.5 76t81.5 31t82 -31t28 -76t-28 -75t-82 -30t-81.5 30t-27.5 75z" />
    <glyph glyph-name="Lslash" unicode="&#x141;" horiz-adv-x="1103" 
d="M34 740l134 42v674h193v-613l263 84v-125l-263 -84v-561h690v-157h-883v657l-134 -42v125z" />
    <glyph glyph-name="lslash" unicode="&#x142;" horiz-adv-x="553" 
d="M34 743l144 55v738h186v-667l158 61v-123l-158 -61v-746h-186v675l-144 -55v123z" />
    <glyph glyph-name="Nacute" unicode="&#x143;" horiz-adv-x="1460" 
d="M362 1456l735 -1127v1127h191v-1456h-193l-733 1122v-1122h-193v1456h193zM624 1552l193 294h224l-268 -294h-149z" />
    <glyph glyph-name="nacute" unicode="&#x144;" horiz-adv-x="1130" 
d="M140 1082h175l6 -136q124 156 324 156q343 0 346 -387v-715h-185v716q-1 117 -53.5 173t-163.5 56q-90 0 -158 -48t-106 -126v-771h-185v1082zM663 1536h224l-268 -294h-149z" />
    <glyph glyph-name="uni0145" unicode="&#x145;" horiz-adv-x="1460" 
d="M169 0v1456h193l735 -1127v1127h191v-1456h-193l-733 1122v-1122h-193zM556 -431q72 109 74 236v92h177v-76q0 -91 -39.5 -180.5t-106.5 -143.5z" />
    <glyph glyph-name="uni0146" unicode="&#x146;" horiz-adv-x="1130" 
d="M140 1082h175l6 -136q124 156 324 156q343 0 346 -387v-715h-185v716q-1 117 -53.5 173t-163.5 56q-90 0 -158 -48t-106 -126v-771h-185v1082zM399 -431q72 109 74 236v92h177v-76q0 -91 -39.5 -180.5t-106.5 -143.5z" />
    <glyph glyph-name="Ncaron" unicode="&#x147;" horiz-adv-x="1460" 
d="M169 1456h193l735 -1127v1127h191v-1456h-193l-733 1122v-1122h-193v1456zM574 1846l151 -170l150 170h160v-10l-254 -274h-113l-251 274v10h157z" />
    <glyph glyph-name="ncaron" unicode="&#x148;" horiz-adv-x="1130" 
d="M315 1082l6 -136q124 156 324 156q343 0 346 -387v-715h-185v716q-1 117 -53.5 173t-163.5 56q-90 0 -158 -48t-106 -126v-771h-185v1082h175zM263 1526v10h157l151 -170l150 170h160v-10l-254 -274h-113z" />
    <glyph glyph-name="napostrophe" unicode="&#x149;" horiz-adv-x="1130" 
d="M140 1082h175l6 -136q124 156 324 156q343 0 346 -387v-715h-185v716q-1 117 -53.5 173t-163.5 56q-90 0 -158 -48t-106 -126v-771h-185v1082zM-68 1212q72 109 74 236v92h177v-76q0 -91 -39.5 -180.5t-106.5 -143.5z" />
    <glyph glyph-name="Eng" unicode="&#x14a;" horiz-adv-x="1419" 
d="M162 1456h192l717 -1128v1128h194v-1539q0 -168 -85.5 -261t-241.5 -93q-61 0 -115 18l14 154q37 -14 98 -14q136 0 136 208v71l-717 1130v-1130h-192v1456z" />
    <glyph glyph-name="eng" unicode="&#x14b;" horiz-adv-x="1160" 
d="M145 1082h166l13 -154q116 174 319 174q179 0 271 -104t94 -307v-780q0 -164 -83.5 -256t-238.5 -92q-61 0 -115 18l14 157q35 -13 101 -13q137 0 137 194v759q0 139 -55.5 203t-180.5 64q-175 0 -256 -133v-812h-186v1082z" />
    <glyph glyph-name="Omacron" unicode="&#x14c;" horiz-adv-x="1408" 
d="M118 773q0 210 73 371t206.5 246.5t305.5 85.5q175 0 308.5 -84.5t205.5 -245t72 -373.5v-92q0 -214 -72 -373.5t-204 -243.5t-308 -84q-172 0 -305 84.5t-206.5 241t-75.5 362.5v105zM309 788v-107q0 -251 105.5 -394.5t290.5 -143.5q186 0 288 135.5t105 388.5v108
q0 259 -104 397.5t-291 138.5q-182 0 -286.5 -138.5t-107.5 -384.5zM375 1622v143h672v-143h-672z" />
    <glyph glyph-name="omacron" unicode="&#x14d;" horiz-adv-x="1168" 
d="M91 538v13q0 159 62.5 286t174 196t254.5 69q221 0 357.5 -153t136.5 -407v-13q0 -158 -60.5 -283.5t-173 -195.5t-258.5 -70q-220 0 -356.5 153t-136.5 405zM361 240q83 -109 223 -109q141 0 224 110.5t83 309.5q0 178 -84.5 288.5t-224.5 110.5q-137 0 -221 -109
t-84 -312q0 -180 84 -289zM244 1310v143h672v-143h-672z" />
    <glyph glyph-name="Obreve" unicode="&#x14e;" horiz-adv-x="1408" 
d="M118 668v105q0 210 73 371t206.5 246.5t305.5 85.5q175 0 308.5 -84.5t205.5 -245t72 -373.5v-92q0 -214 -72 -373.5t-204 -243.5t-308 -84q-172 0 -305 84.5t-206.5 241t-75.5 362.5zM309 681q0 -251 105.5 -394.5t290.5 -143.5q186 0 288 135.5t105 388.5v108
q0 259 -104 397.5t-291 138.5q-182 0 -286.5 -138.5t-107.5 -384.5v-107zM558 1808q0 -70 38 -109.5t111 -39.5q70 0 109.5 39t39.5 110h150q0 -121 -82.5 -194.5t-216.5 -73.5t-217 74t-83 194h151z" />
    <glyph glyph-name="obreve" unicode="&#x14f;" horiz-adv-x="1168" 
d="M91 551q0 159 62.5 286t174 196t254.5 69q221 0 357.5 -153t136.5 -407v-13q0 -158 -60.5 -283.5t-173 -195.5t-258.5 -70q-220 0 -356.5 153t-136.5 405v13zM277 529q0 -180 83.5 -289t223.5 -109q141 0 224 110.5t83 309.5q0 178 -84.5 288.5t-224.5 110.5
q-137 0 -221 -109t-84 -312zM276 1496h151q0 -70 38 -109.5t111 -39.5q70 0 109.5 39t39.5 110h150q0 -121 -82.5 -194.5t-216.5 -73.5t-217 74t-83 194z" />
    <glyph glyph-name="Ohungarumlaut" unicode="&#x150;" horiz-adv-x="1408" 
d="M118 773q0 210 73 371t206.5 246.5t305.5 85.5q175 0 308.5 -84.5t205.5 -245t72 -373.5v-92q0 -214 -72 -373.5t-204 -243.5t-308 -84q-172 0 -305 84.5t-206.5 241t-75.5 362.5v105zM309 788v-107q0 -251 105.5 -394.5t290.5 -143.5q186 0 288 135.5t105 388.5v108
q0 259 -104 397.5t-291 138.5q-182 0 -286.5 -138.5t-107.5 -384.5zM737 1544l231 303h207l-269 -303h-169zM457 1544l171 303h197l-218 -303h-150z" />
    <glyph glyph-name="ohungarumlaut" unicode="&#x151;" horiz-adv-x="1168" 
d="M91 551q0 159 62.5 286t174 196t254.5 69q221 0 357.5 -153t136.5 -407v-13q0 -158 -60.5 -283.5t-173 -195.5t-258.5 -70q-220 0 -356.5 153t-136.5 405v13zM361 240q83 -109 223 -109q141 0 224 110.5t83 309.5q0 178 -84.5 288.5t-224.5 110.5q-137 0 -221 -109
t-84 -312q0 -180 84 -289zM606 1232l231 303h207l-269 -303h-169zM326 1232l171 303h197l-218 -303h-150z" />
    <glyph glyph-name="OE" unicode="&#x152;" horiz-adv-x="1953" 
d="M104 571v309q0 172 69.5 308.5t196.5 212t289 75.5q124 0 294 -20h838v-158h-723v-468h631v-157h-631v-516h733v-157h-848q-178 -21 -292 -21q-162 0 -289 75t-197 210.5t-71 306.5zM388 248q97 -118 273 -118q113 0 215 14v1166q-109 15 -217 15q-173 0 -270 -114.5
t-99 -321.5v-313q0 -211 98 -328z" />
    <glyph glyph-name="oe" unicode="&#x153;" horiz-adv-x="1860" 
d="M97 551q0 160 60.5 287t170 195.5t251.5 68.5q137 0 237.5 -58.5t161.5 -158.5q65 102 163 159.5t210 57.5q207 0 324 -127t117 -362v-116h-718q7 -170 89 -268.5t216 -98.5q188 0 308 108l74 -126q-137 -132 -382 -132q-135 0 -237.5 56t-165.5 156
q-62 -99 -161.5 -155.5t-233.5 -56.5q-220 0 -352 152t-132 406v13zM282 529q0 -183 80 -291t219 -108q137 0 217 107.5t80 313.5q0 182 -80.5 290.5t-218.5 108.5q-135 0 -216 -107t-81 -314zM1606 649v26q0 125 -68.5 200t-186.5 75q-99 0 -174 -81.5t-97 -219.5h526z" />
    <glyph glyph-name="Racute" unicode="&#x154;" horiz-adv-x="1261" 
d="M168 1456h482q246 0 378.5 -112t132.5 -326q0 -136 -73.5 -237t-204.5 -151l342 -618v-12h-206l-316 589h-342v-589h-193v1456zM361 746h295q143 0 227.5 74t84.5 198q0 135 -80.5 207t-232.5 73h-294v-552zM507 1552l193 294h224l-268 -294h-149z" />
    <glyph glyph-name="racute" unicode="&#x155;" horiz-adv-x="693" 
d="M140 0v1082h180l3 -125q91 145 258 145q54 0 82 -14v-172q-42 7 -91 7q-182 0 -247 -155v-768h-185zM305 1242l193 294h224l-268 -294h-149z" />
    <glyph glyph-name="uni0156" unicode="&#x156;" horiz-adv-x="1261" 
d="M168 1456h482q246 0 378.5 -112t132.5 -326q0 -136 -73.5 -237t-204.5 -151l342 -618v-12h-206l-316 589h-342v-589h-193v1456zM361 746h295q143 0 227.5 74t84.5 198q0 135 -80.5 207t-232.5 73h-294v-552zM447 -431q72 109 74 236v92h177v-76q0 -91 -39.5 -180.5
t-106.5 -143.5z" />
    <glyph glyph-name="uni0157" unicode="&#x157;" horiz-adv-x="693" 
d="M140 1082h180l3 -125q91 145 258 145q54 0 82 -14v-172q-42 7 -91 7q-182 0 -247 -155v-768h-185v1082zM157 -195v92h177v-76q0 -91 -39.5 -180.5t-106.5 -143.5l-105 72q72 109 74 236z" />
    <glyph glyph-name="Rcaron" unicode="&#x158;" horiz-adv-x="1261" 
d="M168 1456h482q246 0 378.5 -112t132.5 -326q0 -136 -73.5 -237t-204.5 -151l342 -618v-12h-206l-316 589h-342v-589h-193v1456zM361 746h295q143 0 227.5 74t84.5 198q0 135 -80.5 207t-232.5 73h-294v-552zM300 1846h157l151 -170l150 170h160v-10l-254 -274h-113
l-251 274v10z" />
    <glyph glyph-name="rcaron" unicode="&#x159;" horiz-adv-x="693" 
d="M140 1082h180l3 -125q91 145 258 145q54 0 82 -14v-172q-42 7 -91 7q-182 0 -247 -155v-768h-185v1082zM256 1536l151 -170l150 170h160v-10l-254 -274h-113l-251 274v10h157z" />
    <glyph glyph-name="Sacute" unicode="&#x15a;" horiz-adv-x="1215" 
d="M80 422h193q0 -132 97.5 -208.5t260.5 -76.5q152 0 233 62t81 169t-75 165.5t-272 115.5q-247 71 -359.5 174.5t-112.5 255.5q0 172 137.5 284.5t357.5 112.5q150 0 267.5 -58t182 -160t64.5 -223h-193q0 132 -84 207.5t-237 75.5q-142 0 -221.5 -62.5t-79.5 -173.5
q0 -89 75.5 -150.5t257 -112.5t284 -112.5t152 -143.5t49.5 -193q0 -177 -138 -283.5t-369 -106.5q-150 0 -280 57.5t-200.5 157.5t-70.5 227zM520 1554l193 294h224l-268 -294h-149z" />
    <glyph glyph-name="sacute" unicode="&#x15b;" horiz-adv-x="1056" 
d="M95 333h185q5 -93 74.5 -147.5t183.5 -54.5q105 0 168.5 42.5t63.5 113.5q0 75 -56.5 116.5t-197 71.5t-223 72t-122 100t-39.5 138q0 133 112.5 225t287.5 92q184 0 298.5 -95t114.5 -243h-186q0 76 -64.5 131t-162.5 55q-101 0 -158 -44t-57 -115q0 -67 53 -101
t191.5 -65t224.5 -74t127.5 -103.5t41.5 -147.5q0 -145 -116 -232.5t-301 -87.5q-130 0 -230 46t-156.5 128.5t-56.5 178.5zM653 1536h224l-268 -294h-149z" />
    <glyph glyph-name="Scircumflex" unicode="&#x15c;" horiz-adv-x="1215" 
d="M80 422h193q0 -132 97.5 -208.5t260.5 -76.5q152 0 233 62t81 169t-75 165.5t-272 115.5q-247 71 -359.5 174.5t-112.5 255.5q0 172 137.5 284.5t357.5 112.5q150 0 267.5 -58t182 -160t64.5 -223h-193q0 132 -84 207.5t-237 75.5q-142 0 -221.5 -62.5t-79.5 -173.5
q0 -89 75.5 -150.5t257 -112.5t284 -112.5t152 -143.5t49.5 -193q0 -177 -138 -283.5t-369 -106.5q-150 0 -280 57.5t-200.5 157.5t-70.5 227zM320 1576l246 272h112l247 -274v-10h-153l-150 170l-149 -170h-153v12z" />
    <glyph glyph-name="scircumflex" unicode="&#x15d;" horiz-adv-x="1056" 
d="M280 333q5 -93 74.5 -147.5t183.5 -54.5q105 0 168.5 42.5t63.5 113.5q0 75 -56.5 116.5t-197 71.5t-223 72t-122 100t-39.5 138q0 133 112.5 225t287.5 92q184 0 298.5 -95t114.5 -243h-186q0 76 -64.5 131t-162.5 55q-101 0 -158 -44t-57 -115q0 -67 53 -101t191.5 -65
t224.5 -74t127.5 -103.5t41.5 -147.5q0 -145 -116 -232.5t-301 -87.5q-130 0 -230 46t-156.5 128.5t-56.5 178.5h185zM260 1252v12l246 272h112l247 -274v-10h-153l-150 170l-149 -170h-153z" />
    <glyph glyph-name="Scedilla" unicode="&#x15e;" horiz-adv-x="1215" 
d="M80 422h193q0 -132 97.5 -208.5t260.5 -76.5q152 0 233 62t81 169t-75 165.5t-272 115.5q-247 71 -359.5 174.5t-112.5 255.5q0 172 137.5 284.5t357.5 112.5q150 0 267.5 -58t182 -160t64.5 -223h-193q0 132 -84 207.5t-237 75.5q-142 0 -221.5 -62.5t-79.5 -173.5
q0 -89 75.5 -150.5t257 -112.5t284 -112.5t152 -143.5t49.5 -193q0 -177 -138 -283q-118 -92 -304 -105l-8 -34q153 -27 153 -173q0 -97 -80 -153.5t-223 -56.5l-7 107q79 0 122.5 26t43.5 73q0 44 -32 65t-130 30l28 117q-112 10 -212 55q-130 57 -200.5 157t-70.5 227z
" />
    <glyph glyph-name="scedilla" unicode="&#x15f;" horiz-adv-x="1056" 
d="M280 333q5 -93 74.5 -147.5t183.5 -54.5q105 0 168.5 42.5t63.5 113.5q0 75 -56.5 116.5t-197 71.5t-223 72t-122 100t-39.5 138q0 133 112.5 225t287.5 92q184 0 298.5 -95t114.5 -243h-186q0 76 -64.5 131t-162.5 55q-101 0 -158 -44t-57 -115q0 -67 53 -101t191.5 -65
t224.5 -74t127.5 -103.5t41.5 -147.5q0 -145 -116 -232q-85 -64 -206 -82l-11 -46q153 -27 153 -173q0 -97 -80 -153.5t-223 -56.5l-7 107q79 0 122.5 26t43.5 73q0 44 -32 65t-130 30l29 123q-106 6 -190 45q-100 46 -156.5 128.5t-56.5 178.5h185z" />
    <glyph glyph-name="Scaron" unicode="&#x160;" horiz-adv-x="1215" 
d="M80 422h193q0 -132 97.5 -208.5t260.5 -76.5q152 0 233 62t81 169t-75 165.5t-272 115.5q-247 71 -359.5 174.5t-112.5 255.5q0 172 137.5 284.5t357.5 112.5q150 0 267.5 -58t182 -160t64.5 -223h-193q0 132 -84 207.5t-237 75.5q-142 0 -221.5 -62.5t-79.5 -173.5
q0 -89 75.5 -150.5t257 -112.5t284 -112.5t152 -143.5t49.5 -193q0 -177 -138 -283.5t-369 -106.5q-150 0 -280 57.5t-200.5 157.5t-70.5 227zM313 1848h157l151 -170l150 170h160v-10l-254 -274h-113l-251 274v10z" />
    <glyph glyph-name="scaron" unicode="&#x161;" horiz-adv-x="1056" 
d="M280 333q5 -93 74.5 -147.5t183.5 -54.5q105 0 168.5 42.5t63.5 113.5q0 75 -56.5 116.5t-197 71.5t-223 72t-122 100t-39.5 138q0 133 112.5 225t287.5 92q184 0 298.5 -95t114.5 -243h-186q0 76 -64.5 131t-162.5 55q-101 0 -158 -44t-57 -115q0 -67 53 -101t191.5 -65
t224.5 -74t127.5 -103.5t41.5 -147.5q0 -145 -116 -232.5t-301 -87.5q-130 0 -230 46t-156.5 128.5t-56.5 178.5h185zM253 1526v10h157l151 -170l150 170h160v-10l-254 -274h-113z" />
    <glyph glyph-name="uni0162" unicode="&#x162;" horiz-adv-x="1222" 
d="M49 1298v158h1126v-158h-468v-1298h-22l-12 -52q153 -27 153 -173q0 -97 -80 -153.5t-223 -56.5l-7 107q79 0 122.5 26t43.5 73q0 44 -32 65t-130 30l32 134h-36v1298h-467z" />
    <glyph glyph-name="uni0163" unicode="&#x163;" horiz-adv-x="669" 
d="M206 1082v262h185v-262h202v-143h-202v-671q0 -65 27 -97.5t92 -32.5q32 0 88 12v-150q-39 -11 -78 -16l-8 -36q153 -27 153 -173q0 -97 -80 -153.5t-223 -56.5l-7 107q79 0 122.5 26t43.5 73q0 44 -32 65t-130 30l29 121q-75 15 -119 68q-63 75 -63 213v671h-197v143
h197z" />
    <glyph glyph-name="Tcaron" unicode="&#x164;" horiz-adv-x="1222" 
d="M49 1298v158h1126v-158h-468v-1298h-191v1298h-467zM302 1836v10h157l151 -170l150 170h160v-10l-254 -274h-113z" />
    <glyph glyph-name="tcaron" unicode="&#x165;" horiz-adv-x="709" 
d="M206 1082v262h185v-262h202v-143h-202v-671q0 -65 27 -97.5t92 -32.5q32 0 88 12v-150q-73 -20 -142 -20q-124 0 -187 75t-63 213v671h-197v143h197zM571 1565v92h177v-76q0 -91 -39.5 -180.5t-106.5 -143.5l-105 72q72 109 74 236z" />
    <glyph glyph-name="Tbar" unicode="&#x166;" horiz-adv-x="1222" 
d="M49 1456h1126v-158h-468v-324h231v-151h-231v-823h-191v823h-214v151h214v324h-467v158z" />
    <glyph glyph-name="tbar" unicode="&#x167;" horiz-adv-x="669" 
d="M206 753v186h-197v143h197v262h185v-262h202v-143h-202v-186h233v-151h-233v-334q0 -65 27 -97.5t92 -32.5q32 0 88 12v-150q-73 -20 -142 -20q-124 0 -187 75t-63 213v334h-218v151h218z" />
    <glyph glyph-name="Utilde" unicode="&#x168;" horiz-adv-x="1328" 
d="M330 1456v-986q0 -158 87 -245.5t248 -87.5q163 0 249.5 87t86.5 245v987h193v-990q-1 -206 -129.5 -337t-348.5 -147l-51 -2q-239 0 -381 129t-144 355v992h190zM315 1562q0 107 60.5 177t153.5 70q35 0 63 -10t76 -39t73.5 -38t56.5 -9q43 0 71.5 34t28.5 79l124 -12
q0 -108 -61.5 -175t-153.5 -67q-41 0 -71 10t-78.5 41t-70 37.5t-49.5 6.5q-41 0 -70 -31.5t-29 -80.5z" />
    <glyph glyph-name="utilde" unicode="&#x169;" horiz-adv-x="1129" 
d="M321 1082v-699q0 -246 200 -246q212 0 282 158v787h185v-1082h-176l-4 107q-108 -127 -317 -127q-173 0 -263.5 100.5t-91.5 297.5v704h185zM215 1252q0 107 60.5 177t153.5 70q35 0 63 -10t76 -39t73.5 -38t56.5 -9q43 0 71.5 34t28.5 79l124 -12q0 -108 -61.5 -175
t-153.5 -67q-41 0 -71 10t-78.5 41t-70 37.5t-49.5 6.5q-41 0 -70 -31.5t-29 -80.5z" />
    <glyph glyph-name="Umacron" unicode="&#x16a;" horiz-adv-x="1328" 
d="M330 1456v-986q0 -158 87 -245.5t248 -87.5q163 0 249.5 87t86.5 245v987h193v-990q-1 -206 -129.5 -337t-348.5 -147l-51 -2q-239 0 -381 129t-144 355v992h190zM336 1763h672v-143h-672v143z" />
    <glyph glyph-name="umacron" unicode="&#x16b;" horiz-adv-x="1129" 
d="M321 1082v-699q0 -246 200 -246q212 0 282 158v787h185v-1082h-176l-4 107q-108 -127 -317 -127q-173 0 -263.5 100.5t-91.5 297.5v704h185zM236 1453h672v-143h-672v143z" />
    <glyph glyph-name="Ubreve" unicode="&#x16c;" horiz-adv-x="1328" 
d="M140 1456h190v-986q0 -158 87 -245.5t248 -87.5q163 0 249.5 87t86.5 245v987h193v-990q-1 -206 -129.5 -337t-348.5 -147l-51 -2q-239 0 -381 129t-144 355v992zM519 1806q0 -70 38 -109.5t111 -39.5q70 0 109.5 39t39.5 110h150q0 -121 -82.5 -194.5t-216.5 -73.5
t-217 74t-83 194h151z" />
    <glyph glyph-name="ubreve" unicode="&#x16d;" horiz-adv-x="1129" 
d="M136 378v704h185v-699q0 -246 200 -246q212 0 282 158v787h185v-1082h-176l-4 107q-108 -127 -317 -127q-173 0 -263.5 100.5t-91.5 297.5zM268 1496h151q0 -70 38 -109.5t111 -39.5q70 0 109.5 39t39.5 110h150q0 -121 -82.5 -194.5t-216.5 -73.5t-217 74t-83 194z" />
    <glyph glyph-name="Uring" unicode="&#x16e;" horiz-adv-x="1328" 
d="M140 1456h190v-986q0 -158 87 -245.5t248 -87.5q163 0 249.5 87t86.5 245v987h193v-990q-1 -206 -129.5 -337t-348.5 -147l-51 -2q-239 0 -381 129t-144 355v992zM452 1729q0 86 61.5 147t153.5 61t153.5 -61t61.5 -147q0 -87 -62 -145.5t-153 -58.5q-92 0 -153.5 59
t-61.5 145zM585 1648q33 -34 82 -34q48 0 82 33t34 82t-33.5 83.5t-82.5 34.5q-50 0 -83 -35t-33 -83q0 -47 34 -81z" />
    <glyph glyph-name="uring" unicode="&#x16f;" horiz-adv-x="1129" 
d="M136 1082h185v-699q0 -246 200 -246q212 0 282 158v787h185v-1082h-176l-4 107q-108 -127 -317 -127q-173 0 -263.5 100.5t-91.5 297.5v704zM414 1566q61 61 153 61t153.5 -61t61.5 -147q0 -87 -62 -145.5t-153 -58.5q-92 0 -153.5 59t-61.5 145t62 147zM451 1419
q0 -47 33.5 -81t82.5 -34q48 0 82 33t34 82t-33.5 83.5t-82.5 34.5q-50 0 -83 -35t-33 -83z" />
    <glyph glyph-name="Uhungarumlaut" unicode="&#x170;" horiz-adv-x="1328" 
d="M140 464v992h190v-986q0 -158 87 -245.5t248 -87.5q163 0 249.5 87t86.5 245v987h193v-990q-1 -206 -129.5 -337t-348.5 -147l-51 -2q-239 0 -381 129t-144 355zM698 1542l231 303h207l-269 -303h-169zM418 1542l171 303h197l-218 -303h-150z" />
    <glyph glyph-name="uhungarumlaut" unicode="&#x171;" horiz-adv-x="1129" 
d="M321 1082v-699q0 -246 200 -246q212 0 282 158v787h185v-1082h-176l-4 107q-108 -127 -317 -127q-173 0 -263.5 100.5t-91.5 297.5v704h185zM829 1535h207l-269 -303h-169zM318 1232l171 303h197l-218 -303h-150z" />
    <glyph glyph-name="Uogonek" unicode="&#x172;" horiz-adv-x="1328" 
d="M140 1456h190v-986q0 -158 87 -245.5t248 -87.5q163 0 249.5 87t86.5 245v987h193v-991q-1 -148 -70 -261t-200 -172q-155 -114 -155 -210q0 -72 78 -72q48 0 100 26l13 -121q-70 -44 -160 -44q-89 0 -140.5 52t-51.5 138q0 97 79 180l-22 -1q-239 0 -381 129t-144 355
v992z" />
    <glyph glyph-name="uogonek" unicode="&#x173;" horiz-adv-x="1129" 
d="M321 1082v-699q0 -246 200 -246q212 0 282 158v787h185v-1082h-10l-58 -45q-113 -91 -113 -177q0 -72 78 -72q48 0 100 26l13 -121q-70 -44 -160 -44q-89 0 -140.5 52t-51.5 138q0 143 166 249l-4 101q-108 -127 -317 -127q-173 0 -263.5 100.5t-91.5 297.5v704h185z" />
    <glyph glyph-name="Wcircumflex" unicode="&#x174;" horiz-adv-x="1817" 
d="M61 1456h192l230 -997l28 -192l41 173l288 1016h162l281 -1016l40 -176l31 196l226 996h193l-353 -1456h-175l-300 1061l-23 111l-23 -111l-311 -1061h-175zM622 1562v12l246 272h112l247 -274v-10h-153l-150 170l-149 -170h-153z" />
    <glyph glyph-name="wcircumflex" unicode="&#x175;" horiz-adv-x="1539" 
d="M43 1082h184l213 -810l252 810h149l257 -827l208 827h185l-315 -1082h-150l-263 820l-256 -820h-150zM461 1252v12l246 272h112l247 -274v-10h-153l-150 170l-149 -170h-153z" />
    <glyph glyph-name="Ycircumflex" unicode="&#x176;" horiz-adv-x="1230" 
d="M235 1456l378 -731l380 731h218l-502 -913v-543h-192v543l-502 913h220zM315 1574l246 272h112l247 -274v-10h-153l-150 170l-149 -170h-153v12z" />
    <glyph glyph-name="ycircumflex" unicode="&#x177;" horiz-adv-x="969" 
d="M22 1082h202l270 -811l252 811h198l-435 -1249q-101 -270 -321 -270l-35 3l-69 13v150l50 -4q94 0 146.5 38t86.5 139l41 110zM206 1252v12l246 272h112l247 -274v-10h-153l-150 170l-149 -170h-153z" />
    <glyph glyph-name="Ydieresis" unicode="&#x178;" horiz-adv-x="1230" 
d="M235 1456l378 -731l380 731h218l-502 -913v-543h-192v543l-502 913h220zM725 1679q0 45 27.5 76t81.5 31t82 -31t28 -76t-28 -75t-82 -30t-81.5 30t-27.5 75zM295 1681q0 45 27.5 75.5t81.5 30.5t82 -30.5t28 -75.5t-28 -75t-82 -30t-81.5 30t-27.5 75z" />
    <glyph glyph-name="Zacute" unicode="&#x179;" horiz-adv-x="1226" 
d="M313 157h833v-157h-1060v144l798 1154h-785v158h1015v-141zM707 1846h224l-268 -294h-149z" />
    <glyph glyph-name="zacute" unicode="&#x17a;" horiz-adv-x="1015" 
d="M314 151h633v-151h-859v136l597 793h-588v153h820v-131zM605 1536h224l-268 -294h-149z" />
    <glyph glyph-name="Zdotaccent" unicode="&#x17b;" horiz-adv-x="1226" 
d="M86 0v144l798 1154h-785v158h1015v-141l-801 -1158h833v-157h-1060zM535 1753q27 31 81 31t82 -31t28 -76t-28 -75t-82 -30t-81.5 30t-27.5 75t28 76z" />
    <glyph glyph-name="zdotaccent" unicode="&#x17c;" horiz-adv-x="1015" 
d="M88 0v136l597 793h-588v153h820v-131l-603 -800h633v-151h-859zM433 1443q27 31 81 31t82 -31t28 -76t-28 -75t-82 -30t-81.5 30t-27.5 75t28 76z" />
    <glyph glyph-name="Zcaron" unicode="&#x17d;" horiz-adv-x="1226" 
d="M86 0v144l798 1154h-785v158h1015v-141l-801 -1158h833v-157h-1060zM307 1846h157l151 -170l150 170h160v-10l-254 -274h-113l-251 274v10z" />
    <glyph glyph-name="zcaron" unicode="&#x17e;" horiz-adv-x="1015" 
d="M88 0v136l597 793h-588v153h820v-131l-603 -800h633v-151h-859zM205 1536h157l151 -170l150 170h160v-10l-254 -274h-113l-251 274v10z" />
    <glyph glyph-name="longs" unicode="&#x17f;" horiz-adv-x="508" 
d="M160 1198q1 169 89 264t250 95q59 0 143 -21l-23 -142q-40 11 -91 11q-183 0 -183 -221v-1184h-185v1198z" />
    <glyph glyph-name="uni0180" unicode="&#x180;" horiz-adv-x="1233" 
d="M408 1226v-263q112 139 309 139t309.5 -149t112.5 -408v-16q0 -248 -114 -398.5t-306 -150.5q-205 0 -317 145l-9 -125h-170v1226h-190v151h190v159h185v-159h261v-151h-261zM673 137q133 0 207 103t74 310q0 189 -73 292t-210 103q-183 0 -263 -170v-468
q85 -170 265 -170z" />
    <glyph glyph-name="uni0181" unicode="&#x181;" horiz-adv-x="1479" 
d="M373 0v1298q-100 -1 -143.5 -45t-43.5 -129q0 -39 9 -66l-149 -1q-18 54 -18 115q0 284 352 284h469q237 0 356.5 -98t119.5 -290q0 -102 -58 -180.5t-158 -121.5q118 -33 186.5 -125.5t68.5 -220.5q0 -196 -127 -308t-359 -112h-505zM565 681v-524h317q134 0 211.5 69.5
t77.5 191.5q0 263 -286 263h-320zM565 835h302q121 2 193 65t72 169q0 120 -70 174.5t-213 54.5h-284v-463z" />
    <glyph glyph-name="uni0182" unicode="&#x182;" horiz-adv-x="1283" 
d="M1058 1298h-702v-1298h-193v1456h895v-158zM355 862h362q228 -3 356 -117t128 -310q0 -197 -129 -314t-352 -121h-557v1456h192v-594zM355 704v-547h351q143 0 222.5 76t79.5 204q0 123 -76.5 194t-217.5 73h-359z" />
    <glyph glyph-name="uni0183" unicode="&#x183;" horiz-adv-x="1149" 
d="M840 1536v-152h-515v-421q112 139 309 139t309.5 -149t112.5 -408v-16q0 -248 -114 -398.5t-306 -150.5q-205 0 -317 145l-9 -125h-170v1536h700zM871 550q0 189 -73 292t-210 103q-183 0 -263 -170v-468q85 -170 265 -170q133 0 207 103t74 310z" />
    <glyph glyph-name="uni0184" unicode="&#x184;" horiz-adv-x="1374" 
d="M448 1456v-594h366q225 -4 352.5 -117.5t127.5 -309.5q0 -197 -129 -314t-352 -121h-557v967l-158 205v77l158 207h192zM448 704v-547h351q143 0 222.5 76t79.5 204q0 123 -76.5 194t-217.5 73h-359z" />
    <glyph glyph-name="uni0185" unicode="&#x185;" horiz-adv-x="1262" 
d="M1171 529q0 -249 -114.5 -399t-306.5 -150q-205 0 -316 144l-9 -124h-171v1047l-158 205v77l158 207h186v-573q112 139 308 139q198 0 310.5 -149t112.5 -408v-16zM985 550q0 192 -73 293.5t-209 101.5q-91 0 -158 -44t-105 -124v-471q84 -169 265 -169q134 0 207 103.5
t73 309.5z" />
    <glyph glyph-name="uni0186" unicode="&#x186;" horiz-adv-x="1333" 
d="M285 467q25 -174 108.5 -252t234.5 -78q184 0 288.5 137.5t104.5 383.5v143q0 238 -100 377.5t-276 139.5q-163 0 -247.5 -73.5t-112.5 -251.5h-193q27 232 171.5 357.5t381.5 125.5q166 0 295 -81.5t200.5 -234.5t72.5 -353v-152q0 -203 -73 -358t-205.5 -236
t-306.5 -81q-235 0 -374 129.5t-162 357.5h193z" />
    <glyph glyph-name="uni0187" unicode="&#x187;" horiz-adv-x="1447" 
d="M1240 462q-27 -231 -170.5 -356.5t-381.5 -125.5q-258 0 -413.5 185t-155.5 495v140q0 203 72.5 357t205.5 236.5t308 82.5q257 0 399 -157q59 189 266 189q59 0 115 -17l-1 -155q-27 9 -68 9q-93 0 -133.5 -44t-42.5 -131v-182h-193q-25 174 -108.5 252t-233.5 78
q-184 0 -288.5 -136t-104.5 -387v-141q0 -237 99 -377t277 -140q160 0 245.5 72.5t113.5 252.5h193z" />
    <glyph glyph-name="uni0188" unicode="&#x188;" horiz-adv-x="1241" 
d="M574 131q99 0 173 60t82 150h175q-5 -93 -64 -177t-157.5 -134t-208.5 -50q-221 0 -351.5 147.5t-130.5 403.5v31q0 158 58 281t166.5 191t256.5 68q195 0 317 -124q47 174 229 174q55 0 100 -15l-1 -128q-28 8 -60 8q-150 0 -154 -156v-151h-175q-8 105 -79.5 172.5
t-176.5 67.5q-141 0 -218.5 -101.5t-77.5 -293.5v-35q0 -187 77 -288t220 -101z" />
    <glyph glyph-name="uni0189" unicode="&#x189;" horiz-adv-x="1415" 
d="M240 0v1456h411q190 0 336 -84t225.5 -239t80.5 -356v-93q0 -206 -79.5 -361t-227 -238t-343.5 -85h-403zM432 1298v-1141h202q222 0 345.5 138t123.5 393v85q0 248 -116.5 385.5t-330.5 139.5h-224zM677 651h-636v151h636v-151z" />
    <glyph glyph-name="uni018A" unicode="&#x18a;" horiz-adv-x="1548" 
d="M373 0v1298q-100 -1 -143.5 -45t-43.5 -129q0 -39 9 -66l-149 -1q-18 54 -18 115q0 284 352 284h404q190 0 336 -84t225.5 -239t80.5 -356v-93q0 -206 -79.5 -361t-227 -238t-343.5 -85h-403zM565 1298v-1141h202q222 0 345.5 138t123.5 393v85q0 248 -116.5 385.5
t-330.5 139.5h-224z" />
    <glyph glyph-name="uni018B" unicode="&#x18b;" horiz-adv-x="1282" 
d="M81 435q0 196 128.5 310.5t359.5 116.5h358v436h-702v158h894v-1456h-544q-152 0 -263.5 53t-171 152t-59.5 230zM927 704h-351q-145 0 -223.5 -71t-78.5 -196q0 -126 77.5 -202t216.5 -78h359v547z" />
    <glyph glyph-name="uni018C" unicode="&#x18c;" horiz-adv-x="1155" 
d="M95 550q0 249 118 400.5t309 151.5q190 0 301 -130v412h-514v152h699v-1536h-170l-9 116q-111 -136 -309 -136q-188 0 -306.5 154t-118.5 402v14zM280 529q0 -184 76 -288t210 -104q176 0 257 158v497q-83 153 -255 153q-136 0 -212 -105t-76 -311z" />
    <glyph glyph-name="uni018D" unicode="&#x18d;" horiz-adv-x="1160" 
d="M211 -375v147h460q-51 54 -220 194q-192 167 -272 300t-84 267v37q0 153 59.5 275t169.5 189t254 67q209 0 340.5 -135.5t142.5 -359.5l1 -58q0 -193 -127 -324t-333 -154q-22 -2 -44 1l147 -130q151 -130 215 -202v-114h-709zM877 570q0 171 -79.5 275t-219.5 104
q-138 0 -217.5 -103.5t-79.5 -297.5q0 -104 48 -197.5t130 -150.5q46 -11 99 -11q147 0 233 97.5t86 268.5v15z" />
    <glyph glyph-name="uni018E" unicode="&#x18e;" horiz-adv-x="1164" 
d="M70 1456h924v-1456h-914v157h722v472h-630v157h630v512h-732v158z" />
    <glyph glyph-name="uni018F" unicode="&#x18f;" horiz-adv-x="1415" 
d="M93 650v117h1012v7q0 258 -122 400t-343 142q-165 0 -304 -58l-61 -26l-47 143l22 13q158 88 390 88q302 0 480 -188.5t178 -523.5v-84q0 -197 -78 -357.5t-217 -251.5t-306 -91q-285 0 -444.5 172.5t-159.5 497.5zM286 618v-34q0 -218 105.5 -332t305.5 -114
q169 0 280 130.5t126 349.5h-817z" />
    <glyph glyph-name="uni0190" unicode="&#x190;" horiz-adv-x="1226" 
d="M85 406q0 125 65 210.5t188 128.5q-108 44 -169.5 124.5t-61.5 192.5q0 194 136 304t381 110q136 0 250.5 -51t177.5 -142.5t63 -207.5h-193q0 105 -83.5 174t-214.5 69q-155 0 -239.5 -66.5t-84.5 -185.5q0 -245 317 -245h158v-158h-175q-160 -2 -241 -65t-81 -196
q0 -129 88.5 -197.5t257.5 -68.5q140 0 229.5 75.5t89.5 192.5h193q0 -131 -65.5 -226t-183 -147t-263.5 -52q-261 0 -400 111t-139 316z" />
    <glyph glyph-name="uni0191" unicode="&#x191;" horiz-adv-x="1193" 
d="M1033 643h-610v-730q0 -166 -85 -258t-241 -92q-61 0 -111 18l14 159q44 -13 97 -13q133 0 133 187v1542h902v-158h-709v-498h610v-157z" />
    <glyph glyph-name="florin" unicode="&#x192;" horiz-adv-x="697" 
d="M608 939h-203v-1026q0 -167 -84 -258.5t-238 -91.5q-61 0 -111 18l14 147q30 -13 97 -13q65 0 100.5 52t35.5 144v1028h-171v143h171v120q2 167 89.5 261t248.5 94q59 0 143 -21l-22 -147q-38 10 -98 10q-171 0 -175 -195v-122h203v-143z" />
    <glyph glyph-name="uni0193" unicode="&#x193;" horiz-adv-x="1451" 
d="M1244 191q-74 -106 -206.5 -158.5t-308.5 -52.5q-178 0 -316 83.5t-213.5 237.5t-77.5 357v127q0 329 153.5 510t431.5 181q266 0 406 -153q57 185 261 185q65 0 116 -17l-2 -149q-27 9 -67 9q-172 0 -177 -178v-144h-192q-54 289 -344 289q-193 0 -292.5 -135.5
t-100.5 -392.5v-119q0 -245 112 -389.5t303 -144.5q108 0 189 24t134 81v327h-337v156h528v-534z" />
    <glyph glyph-name="uni0194" unicode="&#x194;" horiz-adv-x="1285" 
d="M235 1456l405 -987l411 987h213l-532 -1213l133 -304q33 -83 33 -133q0 -112 -67.5 -173.5t-188.5 -61.5t-188.5 61.5t-67.5 173.5q0 58 45 169l118 275l-528 1206h214zM713 -194q0 61 -71 230q-71 -168 -71 -230q0 -77 71 -77t71 77z" />
    <glyph glyph-name="uni0195" unicode="&#x195;" horiz-adv-x="1714" 
d="M1191 -20q-194 0 -288 112.5t-97 336.5v277q0 127 -54 183t-163 56q-90 0 -158 -48t-106 -126v-771h-185v1536h185v-585q123 151 320 151q171 0 258 -96t88 -297v-259q0 -314 200 -314q199 0 199 314v632h185v-653q-3 -224 -97 -336.5t-287 -112.5z" />
    <glyph glyph-name="uni0196" unicode="&#x196;" horiz-adv-x="662" 
d="M345 340q0 -98 46.5 -153.5t136.5 -55.5q29 0 51 3t40 8l23 -142q-36 -8 -71.5 -14t-71.5 -6q-79 0 -142 23.5t-106.5 69t-67 113t-23.5 154.5v1196h185v-1196z" />
    <glyph glyph-name="uni0197" unicode="&#x197;" horiz-adv-x="676" 
d="M430 651v-651h-192v651h-217v151h217v654h192v-654h227v-151h-227z" />
    <glyph glyph-name="uni0198" unicode="&#x198;" horiz-adv-x="1284" 
d="M543 672l-182 -209v-463h-192v1456h192v-741l158 197l294 367q35 44 66 80t63.5 62t69 40.5t81.5 14.5q59 0 109.5 -22.5t89.5 -56.5l-68 -132q-21 15 -47.5 25.5t-65.5 10.5q-21 0 -39 -7.5t-34.5 -21.5t-33 -33.5t-36.5 -44.5l-302 -379l619 -815h-230z" />
    <glyph glyph-name="uni0199" unicode="&#x199;" horiz-adv-x="1038" 
d="M442 501l-116 -121v-380h-185v1254q0 137 83 220t217 83q52 0 100 -16l-1 -127q-28 8 -60 8q-150 0 -154 -156v-659l99 119l337 356h225l-421 -452l470 -630h-217z" />
    <glyph glyph-name="uni019A" unicode="&#x19a;" horiz-adv-x="676" 
d="M429 720v-720h-185v720h-223v151h223v665h185v-665h228v-151h-228z" />
    <glyph glyph-name="uni019B" unicode="&#x19b;" horiz-adv-x="1134" 
d="M431 1029l-44 106l-184 -70v162l127 48q-23 50 -48 70.5t-68 20.5l-47 -2l-1 142q42 12 95 12q95 0 155.5 -39t94.5 -134l180 69v-162l-126 -48l374 -970q20 -51 42.5 -70.5t57.5 -19.5l38 3l6 -152q-36 -12 -78 -12q-77 0 -116 18.5t-70 61.5t-60 123l-230 593
l-286 -779h-206z" />
    <glyph glyph-name="uni019C" unicode="&#x19c;" horiz-adv-x="1865" 
d="M1510 121q-107 -141 -315 -141q-110 0 -191.5 45.5t-123.5 155.5q-103 -201 -352 -201q-180 0 -266 110.5t-89 336.5v1029h185v-1006q0 -314 199 -314q235 0 285 230l-2 54v1036h185v-1006q0 -314 199 -314q228 0 282 214v1106h186v-1456h-176z" />
    <glyph glyph-name="uni019D" unicode="&#x19d;" horiz-adv-x="1521" 
d="M1349 0h-193l-733 1122v-1209q0 -166 -85 -258t-241 -92q-61 0 -111 18l14 159q44 -13 97 -13q133 0 133 187v1542h193l736 -1127v1127h190v-1456z" />
    <glyph glyph-name="uni019E" unicode="&#x19e;" horiz-adv-x="1160" 
d="M312 1082l11 -136q120 156 320 156q190 0 277 -98.5t88 -302.5v-1116h-185v1105q0 136 -54 198t-182 62q-92 0 -157 -43.5t-99 -121.5v-785h-186v1082h167z" />
    <glyph glyph-name="uni019F" unicode="&#x19f;" horiz-adv-x="1393" 
d="M103 773q0 210 73 371t206.5 246.5t305.5 85.5q175 0 307 -84t204.5 -241.5t74.5 -364.5v-105q0 -213 -71.5 -372t-203.5 -244t-309 -85q-172 0 -305 84.5t-206.5 241t-75.5 362.5v105zM1082 794q-4 248 -107 382.5t-287 134.5q-182 0 -286 -137.5t-108 -379.5h788z
M408 275q105 -132 282 -132q182 0 283 128t109 372h-788q8 -236 114 -368z" />
    <glyph glyph-name="Ohorn" unicode="&#x1a0;" horiz-adv-x="1406" 
d="M101 673v100q0 210 73 370.5t206.5 246.5t305.5 86q240 0 395 -155q96 7 142.5 72.5t46.5 197.5h167q0 -333 -263 -394q97 -172 98 -418v-98q0 -214 -72 -373.5t-204 -243.5t-308 -84q-171 0 -304 84t-207.5 243t-75.5 366zM292 681q0 -251 105.5 -394.5t290.5 -143.5
q191 0 292.5 141t101.5 398v93q0 258 -103.5 397t-292.5 139q-182 0 -286.5 -138.5t-107.5 -384.5v-107z" />
    <glyph glyph-name="ohorn" unicode="&#x1a1;" horiz-adv-x="1170" 
d="M91 551q0 159 61.5 285.5t174 196t255.5 69.5q207 0 343 -138q71 8 103 58t32 178h150q0 -291 -207 -342q73 -138 73 -307v-22q0 -158 -62 -285t-174 -195.5t-256 -68.5q-222 0 -357.5 153.5t-135.5 404.5v13zM276 529q0 -180 83.5 -289t224.5 -109q139 0 222.5 109.5
t83.5 294.5v16q0 181 -84.5 290t-223.5 109q-138 0 -222 -109t-84 -312z" />
    <glyph glyph-name="uni01A2" unicode="&#x1a2;" horiz-adv-x="1737" 
d="M1565 -416h-185v1686l-143 -56v-1022q-148 -212 -512 -212q-179 0 -315.5 81t-212.5 235.5t-78 360.5v127q0 207 74.5 363.5t213.5 242.5t318 86q285 0 437 -131l259 111h144v-1872zM1053 1210l-31 29q-94 79 -297 79q-188 0 -299.5 -138.5t-116.5 -375.5v-133
q0 -251 112 -393t312 -142q224 0 320 109v965z" />
    <glyph glyph-name="uni01A3" unicode="&#x1a3;" horiz-adv-x="1368" 
d="M1221 -416h-185v1253l-121 -72v-633l-35 -35q-130 -117 -306 -117q-221 0 -351.5 147.5t-130.5 403.5v31q0 158 58.5 282t167.5 191t256 67q192 0 313 -121l186 101h148v-1498zM574 131q89 0 156 46v723q-67 50 -156 50q-141 0 -218.5 -101.5t-77.5 -293.5v-35
q0 -185 77.5 -287t218.5 -102z" />
    <glyph glyph-name="uni01A4" unicode="&#x1a4;" horiz-adv-x="1496" 
d="M565 570v-570h-192v1298q-100 -1 -143.5 -45t-43.5 -129q0 -39 9 -66l-149 -1q-18 54 -18 115q0 284 352 284h530q239 0 374.5 -122t135.5 -323q0 -212 -132.5 -326.5t-379.5 -114.5h-343zM565 727h345q154 0 236 72.5t82 209.5q0 130 -82 208t-225 81h-356v-571z" />
    <glyph glyph-name="uni01A5" unicode="&#x1a5;" horiz-adv-x="1149" 
d="M1054 529q0 -247 -113 -398t-306 -151q-197 0 -310 125v-521h-185v1486q0 141 83.5 223t216.5 82q55 0 100 -15l-1 -128q-28 8 -60 8q-150 0 -154 -156v-114q113 132 307 132q195 0 308.5 -147t113.5 -409v-17zM869 550q0 183 -78 289t-214 106q-168 0 -252 -149v-517
q83 -148 254 -148q133 0 211.5 105.5t78.5 313.5z" />
    <glyph glyph-name="uni01A6" unicode="&#x1a6;" horiz-adv-x="1403" 
d="M361 1558v-102h301q241 -3 370 -115t129 -323q0 -136 -73.5 -237t-204.5 -151l540 -977v-12h-207l-513 948h-342v-589h-193v1558h193zM361 746h295q143 0 227.5 74t84.5 198q0 135 -80.5 207t-232.5 73h-294v-552z" />
    <glyph glyph-name="uni01A7" unicode="&#x1a7;" horiz-adv-x="1215" 
d="M270 368q0 -107 81 -169t233 -62q163 0 260.5 76.5t97.5 208.5h192q0 -129 -71.5 -229t-200 -156.5t-278.5 -56.5q-230 0 -369 106t-139 284q0 165 112.5 270.5t366.5 176.5q187 52 263.5 113.5t76.5 151.5q0 112 -80.5 174t-221.5 62q-153 0 -237 -75.5t-84 -207.5h-192
q0 120 64 222t181.5 160.5t267.5 58.5q222 0 358.5 -113t136.5 -284q0 -150 -112 -254t-357 -175q-201 -58 -275 -117t-74 -165z" />
    <glyph glyph-name="uni01A8" unicode="&#x1a8;" horiz-adv-x="1056" 
d="M286 287q0 -71 63.5 -113.5t168.5 -42.5q113 0 183 54t75 148h185q0 -96 -56.5 -178.5t-156.5 -128.5t-230 -46q-184 0 -300.5 87.5t-116.5 232.5q0 128 93.5 203.5t295.5 120.5q141 31 195 65.5t54 101.5q0 71 -57 115t-158 44q-98 0 -162.5 -55t-64.5 -131h-186
q0 148 114.5 243t298.5 95q175 0 287.5 -92t112.5 -225q0 -119 -90.5 -193t-298.5 -118q-133 -28 -191 -69.5t-58 -117.5z" />
    <glyph glyph-name="uni01A9" unicode="&#x1a9;" horiz-adv-x="1170" 
d="M69 143l481 586l-481 583v144h974v-158h-732l443 -556v-24l-445 -561h783v-157h-1023v143z" />
    <glyph glyph-name="uni01AA" unicode="&#x1aa;" horiz-adv-x="954" 
d="M360 1561q141 0 240 -98.5t101 -236.5v-1287q0 -105 37 -148t107 -43q41 0 68 9l1 -149q-51 -17 -116 -17q-283 0 -283 352v976q-72 -37 -155 -37q-91 0 -169 44.5t-123.5 123.5t-45.5 171t45.5 171t124 124t168.5 45zM361 1053q72 0 118.5 45t46.5 124q0 77 -45.5 124
t-119.5 47q-75 0 -120.5 -47t-45.5 -124q0 -79 46.5 -124t119.5 -45z" />
    <glyph glyph-name="uni01AB" unicode="&#x1ab;" horiz-adv-x="669" 
d="M593 939h-202v-671q0 -65 27 -97.5t92 -32.5q32 0 88 12v-225q-5 -291 -243 -291q-52 0 -100 16l1 127q28 -8 60 -8q150 0 154 156v55h-9q-255 0 -255 295v664h-197v143h197v262h185v-262h202v-143z" />
    <glyph glyph-name="uni01AC" unicode="&#x1ac;" horiz-adv-x="1281" 
d="M1234 1298h-468v-1298h-190v1298h-200q-102 0 -146 -44t-44 -130q0 -39 9 -66l-149 -1q-18 54 -18 115q0 284 352 284h854v-158z" />
    <glyph glyph-name="uni01AD" unicode="&#x1ad;" horiz-adv-x="680" 
d="M220 1259q0 139 84.5 220.5t215.5 81.5q54 0 101 -15l-2 -128q-21 8 -59 8q-150 0 -154 -156v-188h202v-143h-202v-644q0 -157 119 -157q35 0 87 12l1 -150q-73 -20 -143 -20q-120 0 -185 82.5t-65 232.5v644h-197v143h197v177z" />
    <glyph glyph-name="uni01AE" unicode="&#x1ae;" horiz-adv-x="1222" 
d="M951 -419q-52 -18 -112 -18q-152 0 -237.5 89t-85.5 259v1387h-467v158h1126v-158h-468v-1387q0 -189 132 -189q42 0 98 14z" />
    <glyph glyph-name="Uhorn" unicode="&#x1af;" horiz-adv-x="1424" 
d="M330 1456v-986q0 -158 87 -245.5t248 -87.5q163 0 249.5 87t86.5 245v987h193v-213q115 11 163.5 79.5t48.5 215.5h159q0 -210 -88.5 -314.5t-282.5 -116.5v-642q-1 -199 -123 -329t-333 -152l-73 -4q-239 0 -381 129t-144 355v992h190z" />
    <glyph glyph-name="uhorn" unicode="&#x1b0;" horiz-adv-x="1267" 
d="M321 1082v-699q0 -246 200 -246q212 0 282 158v787h185v-131q68 2 102 19.5t48.5 53.5t14.5 144h142q0 -180 -73.5 -253.5t-233.5 -77.5v-837h-176l-4 107q-108 -127 -317 -127q-173 0 -263.5 100.5t-91.5 297.5v704h185z" />
    <glyph glyph-name="uni01B1" unicode="&#x1b1;" horiz-adv-x="1361" 
d="M614 1292q-142 -30 -219 -176t-77 -389v-114q0 -231 97 -354t266 -123t265 125t96 354v113q0 244 -79 390t-222 174v164h492v-158h-224q108 -106 168 -257.5t60 -315.5v-110q0 -185 -69.5 -330t-197 -225t-289.5 -80q-161 0 -288.5 78.5t-198 222.5t-71.5 328v119
q0 158 59 311t167 259h-219v158h484v-164z" />
    <glyph glyph-name="uni01B2" unicode="&#x1b2;" horiz-adv-x="1337" 
d="M667 -20q-241 0 -383 130t-143 357v989h191v-985q0 -164 89 -249.5t246 -85.5q159 0 247.5 85.5t88.5 250.5v656q0 101 -42 144.5t-128 43.5q-40 0 -67 -9l-1 151q54 18 115 18q147 0 231 -92.5t84 -257.5v-656q0 -149 -66.5 -259.5t-187.5 -170.5t-274 -60z" />
    <glyph glyph-name="uni01B3" unicode="&#x1b3;" horiz-adv-x="1328" 
d="M614 716l272 530q69 128 133.5 179t148.5 51q119 0 212 -79l-68 -132q-50 36 -112 36q-44 0 -75 -27t-69 -98l-70 -136l-277 -502v-538h-192v542l-502 914h220z" />
    <glyph glyph-name="uni01B4" unicode="&#x1b4;" horiz-adv-x="1216" 
d="M464 363l28 -104l256 810l27 78q81 225 282 225q109 0 196 -69l-45 -116q-68 40 -127 40q-51 0 -89.5 -42t-79.5 -158l-402 -1191q-46 -136 -129.5 -204.5t-192.5 -68.5l-27 2l-77 14v150l50 -4q92 0 143.5 38.5t87.5 132.5l43 116l-386 1070h202z" />
    <glyph glyph-name="uni01B5" unicode="&#x1b5;" horiz-adv-x="1226" 
d="M443 660h-319v152h424l336 486h-785v158h1015v-141l-348 -503h306v-152h-411l-348 -503h833v-157h-1060v144z" />
    <glyph glyph-name="uni01B6" unicode="&#x1b6;" horiz-adv-x="1033" 
d="M349 470h-198v151h312l232 308h-588v153h820v-131l-249 -330h194v-151h-307l-241 -319h632v-151h-858v136z" />
    <glyph glyph-name="uni01B7" unicode="&#x1b7;" horiz-adv-x="1318" 
d="M610 740q292 0 441 -146.5t149 -432.5q0 -282 -145.5 -430t-424.5 -148q-235 0 -378.5 125t-170.5 356h192q22 -131 63.5 -196.5t112.5 -96.5t181 -31q196 0 287 104t91 317q0 221 -93.5 324t-300.5 103h-225v143l505 567h-780v158h1009v-138z" />
    <glyph glyph-name="uni01B8" unicode="&#x1b8;" horiz-adv-x="1318" 
d="M706 588q-209 0 -302.5 -103t-93.5 -324q0 -213 90.5 -317t287.5 -104q111 0 182 31.5t112 97t63 195.5h192q-27 -231 -170.5 -356t-378.5 -125q-279 0 -424.5 148t-145.5 430q0 286 149 432.5t441 146.5l-513 578v138h1009v-158h-780l505 -567v-143h-223z" />
    <glyph glyph-name="uni01B9" unicode="&#x1b9;" horiz-adv-x="1156" 
d="M1025 1082v-153h-632l372 -453v-151h-146q-165 -1 -245 -74.5t-80 -223.5q0 -121 82 -195.5t223 -74.5q125 0 204 79.5t79 192.5h186q0 -131 -61 -226.5t-168.5 -146.5t-239.5 -51q-222 0 -356 115.5t-134 310.5q0 196 115.5 309t327.5 129l-397 495l1 118h869z" />
    <glyph glyph-name="uni01BA" unicode="&#x1ba;" horiz-adv-x="1091" 
d="M261 -129q0 -71 63.5 -113.5t169.5 -42.5q113 0 182.5 53.5t74.5 148.5h186q0 -97 -56.5 -179.5t-156.5 -128.5t-230 -46q-188 0 -303 89.5t-115 231.5q0 123 97 200.5t314 122.5q131 27 179.5 62.5t48.5 104.5q0 131 -220 131h-166v119l389 306h-594v152h858v-117
l-354 -321q130 -27 201 -100.5t71 -175.5q0 -122 -90 -196.5t-305 -120.5q-127 -27 -185.5 -67.5t-58.5 -112.5z" />
    <glyph glyph-name="uni01BB" unicode="&#x1bb;" horiz-adv-x="1156" 
d="M1075 0h-954v133l462 514h-286v152h416q59 78 84 138.5t25 126.5q0 114 -69 187t-184 73q-138 0 -214.5 -78.5t-76.5 -218.5h-185q0 201 129.5 325t346.5 124q203 0 321 -106.5t118 -283.5q0 -130 -98 -287h164v-152h-276l-51 -59l-403 -437h731v-151z" />
    <glyph glyph-name="uni01BC" unicode="&#x1bc;" horiz-adv-x="1150" 
d="M206 730l56 555h-198v171h962v-171h-589l-44 -397q107 63 243 63q199 0 316 -131.5t117 -355.5q0 -225 -121.5 -354.5t-339.5 -129.5q-193 0 -315 107t-139 296h175q17 -125 89 -188.5t190 -63.5q129 0 202.5 88t73.5 243q0 146 -79.5 234.5t-211.5 88.5q-121 0 -190 -53
l-49 -40z" />
    <glyph glyph-name="uni01BD" unicode="&#x1bd;" horiz-adv-x="1026" 
d="M899 920h-516l-32 -249q36 24 96 43t124 21q182 2 283 -97.5t101 -276.5q0 -181 -111 -279t-315 -98q-107 0 -203 40.5t-151 113t-55 168.5l178 14q0 -81 63 -133t168 -52q114 0 177 56.5t63 167.5q0 105 -60.5 165.5t-169.5 60.5q-153 0 -224 -112l-157 13l50 434h-167
v162h858v-162z" />
    <glyph glyph-name="uni01BE" unicode="&#x1be;" horiz-adv-x="1047" 
d="M787 939h-202v-148q0 -74 41.5 -125.5t139.5 -102.5t142 -113t44 -150q0 -144 -116.5 -232t-301.5 -88q-130 0 -230 46t-156.5 128.5t-56.5 178.5h185q5 -93 74.5 -147.5t183.5 -54.5q105 0 168.5 42.5t63.5 113.5q0 55 -37.5 95.5t-143.5 101.5q-180 103 -185 286v169
h-198v143h198v262h185v-262h202v-143z" />
    <glyph glyph-name="uni01BF" unicode="&#x1bf;" horiz-adv-x="1149" 
d="M308 1082l10 -121q114 141 314 141q195 0 308.5 -145.5t113.5 -408.5v-15q0 -175 -72.5 -299t-223.5 -215t-433 -171v-264h-185v1498h168zM577 945q-168 0 -252 -149v-799q279 73 409 201.5t135 317.5v38q0 181 -77.5 286t-214.5 105z" />
    <glyph glyph-name="uni01C0" unicode="&#x1c0;" horiz-adv-x="521" 
d="M335 0h-149v1456h149v-1456z" />
    <glyph glyph-name="uni01C1" unicode="&#x1c1;" horiz-adv-x="779" 
d="M335 0h-149v1456h149v-1456zM593 0h-149v1456h149v-1456z" />
    <glyph glyph-name="uni01C2" unicode="&#x1c2;" horiz-adv-x="680" 
d="M421 0h-149v1456h149v-1456zM659 929h-636v151h636v-151zM659 422h-636v151h636v-151z" />
    <glyph glyph-name="uni01C3" unicode="&#x1c3;" horiz-adv-x="527" 
d="M347 411h-167l-13 1045h194zM160 93q0 45 27.5 75.5t81.5 30.5t82 -30.5t28 -75.5t-28 -74.5t-82 -29.5t-81.5 29.5t-27.5 74.5z" />
    <glyph glyph-name="uni01C4" unicode="&#x1c4;" horiz-adv-x="2382" 
d="M169 0v1456h411q190 0 336 -84t225.5 -239t80.5 -356v-93q0 -206 -79.5 -361t-227 -238t-343.5 -85h-403zM361 1298v-1141h202q222 0 345.5 138t123.5 393v85q0 248 -116.5 385.5t-330.5 139.5h-224zM1468 157h833v-157h-1060v144l798 1154h-785v158h1015v-141z
M1772 1676l150 170h160v-10l-254 -274h-113l-251 274v10h157z" />
    <glyph glyph-name="uni01C5" unicode="&#x1c5;" horiz-adv-x="2226" 
d="M169 0v1456h411q190 0 336 -84t225.5 -239t80.5 -356v-93q0 -206 -79.5 -361t-227 -238t-343.5 -85h-403zM361 1298v-1141h202q222 0 345.5 138t123.5 393v85q0 248 -116.5 385.5t-330.5 139.5h-224zM1526 151h632v-151h-859v136l597 793h-588v153h820v-131zM1724 1365
l150 149h162v-18l-254 -244h-116l-250 242v20h159z" />
    <glyph glyph-name="uni01C6" unicode="&#x1c6;" horiz-adv-x="2033" 
d="M95 550q0 249 118 400.5t309 151.5q190 0 301 -130v588h185v-1560h-161l-14 120q-111 -140 -313 -140q-188 0 -306.5 154t-118.5 402v14zM1333 151h632v-151h-859v136l597 793h-588v153h820v-131zM280 529q0 -183 75.5 -288t210.5 -105q175 0 257 159v497
q-83 153 -255 153q-136 0 -212 -105t-76 -311zM1531 1365l150 149h162v-18l-254 -244h-116l-250 242v20h159z" />
    <glyph glyph-name="uni01C7" unicode="&#x1c7;" horiz-adv-x="2232" 
d="M362 157h690v-157h-883v1456h193v-1299zM1881 1456h193v-1031q0 -209 -125.5 -327t-334.5 -118q-217 0 -338 111t-121 311h192q0 -125 68.5 -195t198.5 -70q119 0 192.5 75t74.5 210v1034z" />
    <glyph glyph-name="uni01C8" unicode="&#x1c8;" horiz-adv-x="1591" 
d="M362 157h690v-157h-883v1456h193v-1299zM1433 1082v-1207q0 -312 -283 -312q-61 0 -113 18v148q32 -8 84 -8q62 0 94.5 33.5t32.5 116.5v1211h185zM1229 1369q0 44 27.5 75.5t80.5 31.5q54 0 82 -31t28 -76t-28 -75t-82 -30t-81 30t-27 75z" />
    <glyph glyph-name="uni01C9" unicode="&#x1c9;" horiz-adv-x="986" 
d="M341 0h-185v1536h185v-1536zM828 1082v-1207q0 -312 -283 -312q-61 0 -113 18v148q32 -8 84 -8q62 0 94.5 33.5t32.5 116.5v1211h185zM624 1369q0 44 27.5 75.5t80.5 31.5q54 0 82 -31t28 -76t-28 -75t-82 -30t-81 30t-27 75z" />
    <glyph glyph-name="uni01CA" unicode="&#x1ca;" horiz-adv-x="2590" 
d="M1288 0h-193l-733 1122v-1122h-193v1456h193l735 -1127v1127h191v-1456zM2239 1456h193v-1031q0 -209 -125.5 -327t-334.5 -118q-217 0 -338 111t-121 311h192q0 -125 68.5 -195t198.5 -70q119 0 192.5 75t74.5 210v1034z" />
    <glyph glyph-name="uni01CB" unicode="&#x1cb;" horiz-adv-x="1949" 
d="M1288 0h-193l-733 1122v-1122h-193v1456h193l735 -1127v1127h191v-1456zM1791 1082v-1207q0 -312 -283 -312q-61 0 -113 18v148q32 -8 84 -8q62 0 94.5 33.5t32.5 116.5v1211h185zM1587 1369q0 44 27.5 75.5t80.5 31.5q54 0 82 -31t28 -76t-28 -75t-82 -30t-81 30t-27 75
z" />
    <glyph glyph-name="uni01CC" unicode="&#x1cc;" horiz-adv-x="1619" 
d="M315 1082l6 -136q124 156 324 156q343 0 346 -387v-715h-185v716q-1 117 -53.5 173t-163.5 56q-90 0 -158 -48t-106 -126v-771h-185v1082h175zM1461 1082v-1207q0 -312 -283 -312q-61 0 -113 18v148q32 -8 84 -8q62 0 94.5 33.5t32.5 116.5v1211h185zM1257 1369
q0 44 27.5 75.5t80.5 31.5q54 0 82 -31t28 -76t-28 -75t-82 -30t-81 30t-27 75z" />
    <glyph glyph-name="uni01CD" unicode="&#x1cd;" horiz-adv-x="1336" 
d="M584 1456h168l557 -1456h-197l-139 380h-610l-137 -380h-198zM916 538l-248 681l-247 -681h495zM520 1846l151 -170l150 170h160v-10l-254 -274h-113l-251 274v10h157z" />
    <glyph glyph-name="uni01CE" unicode="&#x1ce;" horiz-adv-x="1114" 
d="M238 563q128 93 361 93h180v85q0 97 -58 154.5t-171 57.5q-99 0 -166 -50t-67 -121h-186q0 81 57.5 156.5t156 119.5t216.5 44q187 0 293 -93.5t110 -257.5v-498q0 -149 38 -237v-16h-194q-16 32 -26 114q-129 -134 -308 -134q-160 0 -262.5 90.5t-102.5 229.5
q0 169 129 263zM294 326q0 -87 58 -136t149 -49q87 0 165 45t113 117v222h-145q-340 0 -340 -199zM272 1526v10h157l151 -170l150 170h160v-10l-254 -274h-113z" />
    <glyph glyph-name="uni01CF" unicode="&#x1cf;" horiz-adv-x="557" 
d="M183 0v1456h192v-1456h-192zM-30 1858h157l151 -170l150 170h160v-10l-254 -274h-113l-251 274v10z" />
    <glyph glyph-name="uni01D0" unicode="&#x1d0;" horiz-adv-x="506" 
d="M155 0v1082h186v-1082h-186zM-56 1535h157l151 -170l150 170h160v-10l-254 -274h-113l-251 274v10z" />
    <glyph glyph-name="uni01D1" unicode="&#x1d1;" horiz-adv-x="1408" 
d="M191 1144q73 161 206.5 246.5t305.5 85.5q175 0 308.5 -84.5t205.5 -245t72 -373.5v-92q0 -214 -72 -373.5t-204 -243.5t-308 -84q-172 0 -305 84.5t-206.5 241t-75.5 362.5v105q0 210 73 371zM309 788v-107q0 -251 105.5 -394.5t290.5 -143.5q186 0 288 135.5t105 388.5
v108q0 259 -104 397.5t-291 138.5q-182 0 -286.5 -138.5t-107.5 -384.5zM397 1838v10h157l151 -170l150 170h160v-10l-254 -274h-113z" />
    <glyph glyph-name="uni01D2" unicode="&#x1d2;" horiz-adv-x="1168" 
d="M91 538v13q0 159 62.5 286t174 196t254.5 69q221 0 357.5 -153t136.5 -407v-13q0 -158 -60.5 -283.5t-173 -195.5t-258.5 -70q-220 0 -356.5 153t-136.5 405zM361 240q83 -109 223 -109q141 0 224 110.5t83 309.5q0 178 -84.5 288.5t-224.5 110.5q-137 0 -221 -109
t-84 -312q0 -180 84 -289zM266 1526v10h157l151 -170l150 170h160v-10l-254 -274h-113z" />
    <glyph glyph-name="uni01D3" unicode="&#x1d3;" horiz-adv-x="1328" 
d="M140 464v992h190v-986q0 -158 87 -245.5t248 -87.5q163 0 249.5 87t86.5 245v987h193v-990q-1 -206 -129.5 -337t-348.5 -147l-51 -2q-239 0 -381 129t-144 355zM358 1846h157l151 -170l150 170h160v-10l-254 -274h-113l-251 274v10z" />
    <glyph glyph-name="uni01D4" unicode="&#x1d4;" horiz-adv-x="1129" 
d="M321 1082v-699q0 -246 200 -246q212 0 282 158v787h185v-1082h-176l-4 107q-108 -127 -317 -127q-173 0 -263.5 100.5t-91.5 297.5v704h185zM258 1526v10h157l151 -170l150 170h160v-10l-254 -274h-113z" />
    <glyph glyph-name="uni01D5" unicode="&#x1d5;" horiz-adv-x="1328" 
d="M140 1456h190v-986q0 -158 87 -245.5t248 -87.5q163 0 249.5 87t86.5 245v987h193v-990q-1 -206 -129.5 -337t-348.5 -147l-51 -2q-239 0 -381 129t-144 355v992zM1003 2006v-142h-671v142h671zM355 1751q27 31 81 31t82 -31t28 -76t-28 -75t-82 -30t-81.5 30t-27.5 75
t28 76zM790 1673q0 45 27.5 76t81.5 31t82 -31t28 -76t-28 -75t-82 -30t-81.5 30t-27.5 75z" />
    <glyph glyph-name="uni01D6" unicode="&#x1d6;" horiz-adv-x="1129" 
d="M136 1082h185v-699q0 -246 200 -246q212 0 282 158v787h185v-1082h-176l-4 107q-108 -127 -317 -127q-173 0 -263.5 100.5t-91.5 297.5v704zM237 1740h671v-143h-671v143zM676 1369q0 45 27.5 76t81.5 31t82 -31t28 -76t-28 -75t-82 -30t-81.5 30t-27.5 75zM245 1371
q0 45 27.5 75.5t81.5 30.5t82 -30.5t28 -75.5t-28 -75t-82 -30t-81.5 30t-27.5 75z" />
    <glyph glyph-name="uni01D7" unicode="&#x1d7;" horiz-adv-x="1328" 
d="M140 1456h190v-986q0 -158 87 -245.5t248 -87.5q163 0 249.5 87t86.5 245v987h193v-990q-1 -206 -129.5 -337t-348.5 -147l-51 -2q-239 0 -381 129t-144 355v992zM355 1757q27 31 81 31t82 -31t28 -76q0 -44 -28 -74.5t-82 -30.5t-81.5 30.5t-27.5 74.5q0 45 28 76z
M818 1755q27 31 81 31t82 -31t28 -76q0 -44 -28 -74t-82 -30t-81.5 30t-27.5 74q0 45 28 76zM718 1950h171l-182 -226h-120z" />
    <glyph glyph-name="uni01D8" unicode="&#x1d8;" horiz-adv-x="1129" 
d="M321 1082v-699q0 -246 200 -246q212 0 282 158v787h185v-1082h-176l-4 107q-108 -127 -317 -127q-173 0 -263.5 100.5t-91.5 297.5v704h185zM465 1528l194 294h223l-268 -294h-149zM676 1369q0 45 27.5 76t81.5 31t82 -31t28 -76t-28 -75t-82 -30t-81.5 30t-27.5 75z
M245 1371q0 45 27.5 75.5t81.5 30.5t82 -30.5t28 -75.5t-28 -75t-82 -30t-81.5 30t-27.5 75z" />
    <glyph glyph-name="uni01D9" unicode="&#x1d9;" horiz-adv-x="1328" 
d="M140 1456h190v-986q0 -158 87 -245.5t248 -87.5q163 0 249.5 87t86.5 245v987h193v-990q-1 -206 -129.5 -337t-348.5 -147l-51 -2q-239 0 -381 129t-144 355v992zM357 1982v20h159l149 -127l150 127h162v-18l-254 -213h-116zM327 1679q0 45 27.5 75.5t81.5 30.5t82 -30.5
t28 -75.5t-28 -75t-82 -30t-81.5 30t-27.5 75zM790 1677q0 45 27.5 75.5t81.5 30.5t82 -30.5t28 -75.5t-28 -75t-82 -30t-81.5 30t-27.5 75z" />
    <glyph glyph-name="uni01DA" unicode="&#x1da;" horiz-adv-x="1129" 
d="M136 378v704h185v-699q0 -246 200 -246q212 0 282 158v787h185v-1082h-176l-4 107q-108 -127 -317 -127q-173 0 -263.5 100.5t-91.5 297.5zM259 1812v10h156l151 -170l151 170h160v-10l-254 -274h-114zM676 1369q0 45 27.5 76t81.5 31t82 -31t28 -76t-28 -75t-82 -30
t-81.5 30t-27.5 75zM245 1371q0 45 27.5 75.5t81.5 30.5t82 -30.5t28 -75.5t-28 -75t-82 -30t-81.5 30t-27.5 75z" />
    </font>
</defs>
</svg>
