<?xml version="1.0" standalone="no"?>
<!DOCTYPE svg PUBLIC "-//W3C//DTD SVG 1.1//EN" "http://www.w3.org/Graphics/SVG/1.1/DTD/svg11.dtd" >
<svg xmlns="http://www.w3.org/2000/svg" xmlns:xlink="http://www.w3.org/1999/xlink" version="1.1">
<metadata>
Created by FontForge 20170731 at Thu Sep 24 15:45:55 2015
 By Aleksey,,,
Copyright (c) 2015 The Monotype Corporation. All rights reserved.
</metadata>
<defs>
<font id="TwCenClassMTStd-Bold" horiz-adv-x="333" >
  <font-face 
    font-family="Tw Cen Classified MT Std"
    font-weight="700"
    font-stretch="normal"
    units-per-em="1000"
    panose-1="2 11 8 2 2 1 4 2 6 3"
    ascent="800"
    descent="-200"
    x-height="578"
    cap-height="738"
    bbox="-211 -233 1303 1030"
    underline-thickness="50"
    underline-position="-175"
    unicode-range="U+000D-FB02"
  />
<missing-glyph horiz-adv-x="500" 
d="M250 290l-162 -242h323zM440 575l-162 -242l162 -243v485zM60 91l161 242l-161 242v-484zM250 375l161 243h-323zM487 665v-665h-475v665h475z" />
    <glyph glyph-name="fi" unicode="fi" horiz-adv-x="622" 
d="M552 500v-500h-158v500h158zM83 569q0 60 19.5 98.5t52 60.5t75.5 30t90 8t89.5 -11t74 -33.5t50 -56.5t18.5 -80h-157q-1 35 -21.5 54t-55.5 19q-77 0 -77 -85v-71h87v-115h-87v-387h-158v387h-74v115h74v67v0z" />
    <glyph glyph-name="fl" unicode="fl" horiz-adv-x="622" 
d="M83 582q0 33 10.5 66t37 59t71 42.5t112.5 16.5q66 0 111.5 -16.5t73.5 -43t40.5 -59.5t12.5 -67v-580h-158v592q0 11 -4 22.5t-13 21.5t-24 16t-37 6q-37 0 -56 -18t-19 -66v-72h87v-115h-87v-387h-158v387h-74v115h74v80v0z" />
    <glyph glyph-name=".notdef" horiz-adv-x="500" 
d="M250 290l-162 -242h323zM440 575l-162 -242l162 -243v485zM60 91l161 242l-161 242v-484zM250 375l161 243h-323zM487 665v-665h-475v665h475z" />
    <glyph glyph-name=".null" horiz-adv-x="0" 
 />
    <glyph glyph-name="nonmarkingreturn" unicode="&#xd;" horiz-adv-x="250" 
 />
    <glyph glyph-name="NULL" horiz-adv-x="0" 
 />
    <glyph glyph-name="NULL" horiz-adv-x="0" 
 />
    <glyph glyph-name="space" unicode=" " horiz-adv-x="250" 
 />
    <glyph glyph-name="exclam" unicode="!" horiz-adv-x="271" 
d="M37 82q0 41 28 70t70 29q20 0 38 -8t31.5 -21.5t21.5 -31.5t8 -38t-8 -38t-21.5 -31.5t-31.5 -21t-38 -7.5q-42 0 -70 28.5t-28 69.5zM215 695v-443h-158v443h158z" />
    <glyph glyph-name="quotedbl" unicode="&#x22;" horiz-adv-x="611" 
d="M468 688v-266h-100v266h100zM244 688v-266h-100v266h100z" />
    <glyph glyph-name="numbersign" unicode="#" horiz-adv-x="604" 
d="M262 424l-27 -133h107l27 133h-107zM323 728l-37 -183h107l37 183h125l-36 -183h67v-121h-92l-27 -133h119v-122h-143l-37 -181h-124l36 181h-108l-36 -181h-125l37 181h-67v122h91l27 133h-118v121h143l36 183h125z" />
    <glyph glyph-name="dollar" unicode="$" horiz-adv-x="500" 
d="M282 129q15 1 26.5 7.5t19.5 16.5t12 21.5t4 22.5q0 19 -14.5 39.5t-47.5 33.5v-141zM217 559q-24 -2 -42.5 -15t-18.5 -35q0 -24 19 -39.5t42 -25.5v115v0zM282 757v-72q52 -7 96 -24t70 -42l-56 -99q-27 14 -58 27t-52 13v-146q29 -12 63.5 -28.5t64 -40.5t49 -59
t19.5 -85q0 -42 -14.5 -75.5t-40.5 -57.5t-62 -39t-79 -19v-74h-65v76h-1q-49 5 -97.5 25.5t-85.5 43.5l57 100q26 -16 61.5 -31.5t65.5 -19.5v169q-102 40 -147 91t-45 112q0 37 13 69.5t37.5 57t60 40t80.5 19.5h1v69h65z" />
    <glyph glyph-name="percent" unicode="%" horiz-adv-x="1000" 
d="M755 233q-32 0 -55.5 -22t-23.5 -56q0 -32 24 -54.5t56 -22.5t54.5 22.5t22.5 54.5q0 31 -22 54.5t-56 23.5zM564 154q0 39 15 73.5t41 60.5t60.5 41t74.5 15q39 0 73.5 -15t61 -40.5t41.5 -60.5t15 -75q0 -39 -15 -73t-41.5 -59t-61 -39.5t-73.5 -14.5q-40 0 -74.5 14.5
t-60.5 40t-41 59.5t-15 73zM240 641q-30 0 -53 -22t-23 -56q0 -32 22.5 -54.5t54.5 -22.5t55 23t23 55t-22.5 54.5t-56.5 22.5zM54 567q0 36 14.5 69.5t39.5 59t59.5 41t75.5 15.5q37 0 70.5 -14t59.5 -39t41.5 -59t15.5 -74q0 -39 -14 -73.5t-39.5 -60.5t-60 -41.5
t-75.5 -15.5q-40 0 -74 15t-59 41t-39.5 61t-14.5 75zM779 774l-448 -809h-102l448 809h102z" />
    <glyph glyph-name="ampersand" unicode="&#x26;" horiz-adv-x="771" 
d="M282 302q-15 -9 -31.5 -19.5t-30 -23t-22 -28.5t-8.5 -35q0 -20 8.5 -35.5t22 -27t31 -17.5t35.5 -6q28 0 64 12t68 35l-137 145v0zM343 635q-13 0 -27 -4t-25.5 -11.5t-19 -19.5t-7.5 -27q0 -26 16.5 -51.5t40.5 -49.5q16 7 33.5 16t32.5 21t25 27t10 33q0 29 -22 47.5
t-57 18.5zM123 573q0 30 12 62.5t38.5 59.5t67.5 44.5t100 17.5q63 0 104.5 -17t66.5 -43t35.5 -58.5t10.5 -63.5q0 -26 -7 -52.5t-23.5 -52.5t-44.5 -51t-69 -48l120 -128q10 7 22 19.5t25 27.5t26.5 31.5t26.5 31.5l100 -82q-10 -13 -23.5 -29.5t-28.5 -33t-30.5 -32.5
t-28.5 -28l-1 -1l136 -147h-193l-53 56q-28 -18 -54.5 -32t-54.5 -23.5t-59.5 -14.5t-68.5 -5q-65 0 -110.5 18.5t-74 49t-42 69t-13.5 77.5q0 36 10 65.5t29.5 54.5t49 47t67.5 44q-33 46 -50.5 87t-17.5 80z" />
    <glyph glyph-name="quotesingle" unicode="'" horiz-adv-x="306" 
d="M203 689v-266h-100v266h100z" />
    <glyph glyph-name="parenleft" unicode="(" horiz-adv-x="438" 
d="M394 766q-78 -95 -115.5 -204.5t-37.5 -230.5q0 -114 40.5 -223t115.5 -200h-145q-90 95 -131 206t-41 223q0 120 42.5 229t127.5 200h144z" />
    <glyph glyph-name="parenright" unicode=")" horiz-adv-x="438" 
d="M188 766q85 -91 127.5 -200t42.5 -229q0 -112 -41 -223t-131 -206h-145q75 91 115.5 200t40.5 223q0 121 -37.5 231t-115.5 204h144z" />
    <glyph glyph-name="asterisk" unicode="*" horiz-adv-x="500" 
d="M328 766l-42 -149l130 86l51 -149l-158 -6l122 -97l-126 -91l-56 146l-51 -146l-129 91l120 97l-155 7l48 148l131 -84l-42 147h157z" />
    <glyph glyph-name="plus" unicode="+" horiz-adv-x="667" 
d="M394 607v-214h214v-121h-214v-214h-121v214h-214v121h214v214h121z" />
    <glyph glyph-name="comma" unicode="," 
d="M300 241l-140 -331h-121l107 331h154z" />
    <glyph glyph-name="hyphen" unicode="-" horiz-adv-x="500" 
d="M455 368v-157h-411v157h411z" />
    <glyph glyph-name="period" unicode="." horiz-adv-x="271" 
d="M37 82q0 41 28 70t70 29q20 0 38 -8t31.5 -21.5t21.5 -31.5t8 -38t-8 -38t-21.5 -31.5t-31.5 -21t-38 -7.5q-42 0 -70 28.5t-28 69.5z" />
    <glyph glyph-name="slash" unicode="/" horiz-adv-x="413" 
d="M393 738l-263 -738h-110l263 738h110z" />
    <glyph glyph-name="zero" unicode="0" horiz-adv-x="500" 
d="M247 607q-24 0 -37.5 -20.5t-20.5 -53.5t-8.5 -74.5t-1.5 -83.5q0 -53 1.5 -99t8.5 -80.5t21.5 -54.5t40.5 -20q24 0 38 20.5t21 54t9 76.5t2 88q0 52 -2 97t-9.5 78.5t-22.5 52.5t-40 19zM32 376q0 58 8.5 122t32 118t65 89.5t107.5 35.5q68 0 111.5 -32.5t68 -85.5
t34 -121t9.5 -140q0 -186 -54 -280.5t-164 -94.5q-65 0 -107.5 30.5t-67 83t-34 123.5t-9.5 152z" />
    <glyph glyph-name="one" unicode="1" horiz-adv-x="500" 
d="M344 728v-728h-144v601h-115v127h259z" />
    <glyph glyph-name="two" unicode="2" horiz-adv-x="500" 
d="M35 488q0 56 13 102.5t39.5 80t65.5 52t90 18.5q50 0 89.5 -18t67 -48.5t42 -72t14.5 -89.5q0 -46 -11.5 -86t-35.5 -83.5t-60.5 -95.5t-85.5 -121h205v-127h-440v33l77 104q36 49 65.5 97t58.5 91q42 63 61 107t19 83q0 92 -69 92q-24 0 -37 -11.5t-19.5 -30t-8 -41.5
t-1.5 -45h-139v9v0z" />
    <glyph glyph-name="three" unicode="3" horiz-adv-x="500" 
d="M45 538q6 94 56.5 148.5t142.5 54.5q63 0 102 -20t61.5 -49.5t30.5 -62.5t8 -59q0 -117 -83 -174q54 -29 76 -78t22 -108q0 -38 -12 -74.5t-37.5 -65t-67 -46t-99.5 -17.5q-100 0 -155.5 54.5t-61.5 157.5h132q8 -39 26 -61.5t56 -22.5q33 0 52.5 22.5t19.5 69.5
q0 31 -6.5 51t-18 31.5t-26.5 16t-32 4.5h-24v118q55 0 79 25t24 77q0 38 -17.5 60.5t-50.5 22.5q-27 0 -44 -20t-19 -55h-134v0z" />
    <glyph glyph-name="four" unicode="4" horiz-adv-x="500" 
d="M124 284h157v267zM416 728v-444h61v-115h-61v-169h-135v169h-261v132l250 427h146z" />
    <glyph glyph-name="five" unicode="5" horiz-adv-x="500" 
d="M449 728v-127h-223l-17 -121q16 2 27 3t22 1q51 0 89 -18t63 -50t37.5 -77t12.5 -99q0 -50 -14 -95.5t-44.5 -80t-78.5 -55.5t-116 -21q-49 0 -87.5 12t-82.5 39l16 129q39 -23 81.5 -37.5t72.5 -14.5q25 0 45 9.5t33.5 25.5t20.5 38t7 46q0 60 -31 92t-93 32
q-17 0 -36.5 -3t-37.5 -7t-33 -8t-22 -5l52 392h337z" />
    <glyph glyph-name="six" unicode="6" horiz-adv-x="500" 
d="M255 329q-22 0 -36 -9.5t-21.5 -25t-10.5 -34.5t-3 -38q0 -44 17.5 -72.5t54.5 -28.5q19 0 32.5 9t22.5 23.5t13 33.5t4 40q0 19 -4 37.5t-13 33t-23 23t-33 8.5zM419 728q-18 -30 -39 -64.5t-42 -71t-41.5 -74t-38.5 -73.5q20 4 37 4q37 0 69 -16t55.5 -46t37 -73.5
t13.5 -98.5q0 -46 -13.5 -87.5t-41 -72.5t-69.5 -49.5t-99 -18.5q-53 0 -92.5 19t-65.5 51.5t-39 76.5t-13 94q0 68 23.5 137t57 134t70 123.5t63.5 105.5h168z" />
    <glyph glyph-name="seven" unicode="7" horiz-adv-x="500" 
d="M475 728v-26l-271 -702h-153l245 598h-255v130h434z" />
    <glyph glyph-name="eight" unicode="8" horiz-adv-x="500" 
d="M246 319q-34 0 -51 -29t-17 -74q0 -20 3 -40t11.5 -35.5t22 -25t34.5 -9.5q19 0 33 9t22.5 24t12.5 35t4 41q0 46 -17.5 75t-57.5 29zM247 619q-17 0 -28.5 -7.5t-18 -20.5t-9.5 -29t-3 -33q0 -50 17 -71t43 -21q16 0 28 8t19 21.5t10.5 31t3.5 35.5q0 39 -14 62.5
t-48 23.5zM54 548q0 44 14.5 80t40.5 61t61.5 38.5t76.5 13.5q44 0 80 -13t62 -38t40.5 -61t14.5 -81q0 -61 -24 -101.5t-66 -64.5q49 -20 79 -67.5t30 -120.5q0 -48 -16.5 -86t-45.5 -65t-69 -41.5t-87 -14.5q-52 0 -91 17t-65.5 46t-39.5 68t-13 83q0 64 25 108.5t83 71.5
q-48 29 -69 71t-21 96z" />
    <glyph glyph-name="nine" unicode="9" horiz-adv-x="500" 
d="M248 607q-34 0 -53 -29.5t-19 -76.5q0 -41 17.5 -71.5t54.5 -30.5q41 0 56.5 30.5t15.5 76.5q0 42 -17 71.5t-55 29.5zM34 513q0 46 13.5 87.5t41 72.5t69.5 49.5t99 18.5q53 0 92.5 -19t65.5 -51.5t39 -76.5t13 -94q0 -68 -23.5 -137t-57 -134t-70 -123.5t-63.5 -105.5
h-168q18 30 39 64.5t42 71t41.5 74t38.5 73.5q-20 -4 -37 -4q-37 0 -69 16t-55.5 46t-37 73.5t-13.5 98.5z" />
    <glyph glyph-name="colon" unicode=":" horiz-adv-x="271" 
d="M37 82q0 41 28 70t70 29q20 0 38 -8t31.5 -21.5t21.5 -31.5t8 -38t-8 -38t-21.5 -31.5t-31.5 -21t-38 -7.5q-42 0 -70 28.5t-28 69.5zM36 424q0 41 28.5 69.5t69.5 28.5q20 0 38 -7.5t31.5 -21t21.5 -31.5t8 -38q0 -21 -8 -39t-21.5 -31.5t-31.5 -21t-38 -7.5
q-41 0 -69.5 28.5t-28.5 70.5z" />
    <glyph glyph-name="semicolon" unicode=";" 
d="M277 241l-141 -329h-118l108 329h151zM82 424q0 41 28.5 69.5t69.5 28.5q42 0 70.5 -28.5t28.5 -69.5q0 -20 -7.5 -38t-21 -31.5t-31.5 -21.5t-39 -8q-20 0 -38 8t-31.5 21.5t-21 31.5t-7.5 38z" />
    <glyph glyph-name="less" unicode="&#x3c;" horiz-adv-x="667" 
d="M608 486l-380 -153l380 -153v-130l-549 228v110l549 227v-129z" />
    <glyph glyph-name="equal" unicode="=" horiz-adv-x="667" 
d="M608 276v-122h-549v122h549zM608 511v-121h-549v121h549z" />
    <glyph glyph-name="greater" unicode="&#x3e;" horiz-adv-x="667" 
d="M59 615l549 -227v-110l-549 -228v130l380 153l-380 153v129z" />
    <glyph glyph-name="question" unicode="?" horiz-adv-x="552" 
d="M160 81q0 20 7.5 38t21 31.5t31.5 21.5t38 8q21 0 39 -8t31.5 -21.5t21 -31.5t7.5 -38q0 -41 -28.5 -69.5t-70.5 -28.5q-41 0 -69.5 28.5t-28.5 69.5zM44 515q0 40 15 74.5t44.5 59.5t73.5 39t102 14q57 0 101 -14.5t74 -40.5t46 -62.5t16 -80.5q0 -76 -48 -122t-133 -61
v-70h-154v151q89 -2 134.5 20.5t45.5 76.5q0 36 -23.5 58.5t-61.5 22.5q-31 0 -52.5 -18t-25.5 -47h-154v0z" />
    <glyph glyph-name="at" unicode="@" horiz-adv-x="800" 
d="M412 442q-24 0 -44 -11.5t-35 -30.5t-23.5 -42t-8.5 -45q0 -37 20.5 -60t55.5 -23q25 0 45.5 11.5t35.5 30t23 42t8 46.5q0 35 -21 58.5t-56 23.5zM53 344q0 76 29 141t78.5 113t115.5 75t140 27q64 0 124 -20.5t106 -59t73.5 -92t27.5 -119.5q0 -69 -24 -120.5t-60 -86
t-78 -51.5t-78 -17q-21 0 -36.5 13t-15.5 37h-2q-36 -50 -100 -50q-31 0 -58.5 13.5t-48.5 36t-33 52.5t-12 63q0 44 14.5 86t40.5 74.5t63.5 52.5t83.5 20q39 0 67 -16t47 -46l12 50h84l-55 -240q-5 -23 -6 -30t-1 -11q0 -19 14 -19q18 0 37 11.5t34.5 33t25 52t9.5 69.5
q0 58 -20 102.5t-54.5 74.5t-81.5 45.5t-101 15.5q-61 0 -110 -21.5t-83.5 -59.5t-53 -89.5t-18.5 -111.5q0 -63 21 -114.5t58 -87.5t88 -56t112 -20q60 0 110.5 20.5t86.5 55.5h84q-50 -73 -124 -112.5t-163 -39.5q-77 0 -144 27t-117 74.5t-79 112.5t-29 142z" />
    <glyph glyph-name="A" unicode="A" horiz-adv-x="759" 
d="M269 259h218l-108 324zM469 738l276 -738h-172l-44 132h-302l-44 -132h-169l276 738h179z" />
    <glyph glyph-name="B" unicode="B" horiz-adv-x="713" 
d="M359 124q25 0 50.5 4.5t46 15.5t33.5 29.5t13 47.5q0 24 -11 42t-29.5 30t-42.5 18t-49 6h-124v-193h113zM322 441q123 0 123 89q0 22 -9 37t-23.5 25t-32 14.5t-34.5 4.5h-100v-170h76zM375 738q43 0 86 -9.5t77.5 -30.5t56 -55.5t21.5 -85.5t-24.5 -92t-59.5 -63
q64 -19 105 -66.5t41 -121.5q0 -55 -22 -95t-59.5 -66.5t-87 -39.5t-103.5 -13h-336v738h305z" />
    <glyph glyph-name="C" unicode="C" horiz-adv-x="714" 
d="M35 372q0 77 25 147t74.5 123t121.5 84t167 31q66 0 133 -17t126 -46v-164q-73 41 -134.5 59.5t-114.5 18.5q-54 0 -96.5 -19t-71.5 -51.5t-44 -75.5t-15 -91q0 -55 17 -99.5t47 -76t70 -48.5t85 -17q69 0 131.5 21.5t125.5 54.5v-164q-66 -31 -133 -46t-130 -15
q-85 0 -155.5 28t-121.5 79.5t-79 123.5t-28 160z" />
    <glyph glyph-name="D" unicode="D" horiz-adv-x="774" 
d="M246 143h69q40 0 83.5 6.5t80 30.5t60.5 69.5t24 123.5q0 56 -16 97t-41 67q-30 32 -78 45t-109 13h-73v-452zM387 738q73 0 137 -24.5t112 -71.5t75.5 -116.5t27.5 -160.5q0 -34 -5.5 -70.5t-18 -72t-33 -69t-49.5 -60.5q-26 -24 -55.5 -42t-64.5 -29t-78 -16.5
t-95 -5.5h-270v738h317z" />
    <glyph glyph-name="E" unicode="E" horiz-adv-x="663" 
d="M623 738v-143h-377v-143h350v-143h-350v-166h377v-143h-553v738h553z" />
    <glyph glyph-name="F" unicode="F" horiz-adv-x="627" 
d="M592 738v-143h-346v-142h315v-143h-315v-310h-176v738h522z" />
    <glyph glyph-name="G" unicode="G" horiz-adv-x="772" 
d="M35 371q0 79 24 149t69 122.5t110.5 83.5t148.5 31q94 0 173.5 -42t144.5 -130l-117 -81q-35 46 -82 78.5t-113 32.5q-44 0 -78.5 -18t-58.5 -50.5t-37 -77.5t-13 -98q0 -60 14.5 -106.5t40.5 -78t61.5 -47.5t78.5 -16q40 0 72 12.5t54.5 33.5t34 47.5t11.5 54.5h-186
v128h361q4 -91 -14 -167.5t-60.5 -132t-110.5 -87t-164 -31.5q-77 0 -143.5 26.5t-115.5 76.5t-77 122.5t-28 164.5z" />
    <glyph glyph-name="H" unicode="H" horiz-adv-x="773" 
d="M246 738v-279h281v279h176v-738h-176v313h-281v-313h-176v738h176z" />
    <glyph glyph-name="I" unicode="I" 
d="M255 738v-738h-176v738h176z" />
    <glyph glyph-name="J" unicode="J" horiz-adv-x="534" 
d="M469 738v-540q0 -106 -55.5 -161.5t-160.5 -55.5q-172 0 -238 167l120 76q14 -42 36.5 -71.5t58.5 -29.5q20 0 32.5 9t19 22.5t9 29t2.5 27.5v527h176z" />
    <glyph glyph-name="K" unicode="K" horiz-adv-x="744" 
d="M246 738v-340l243 340h207l-270 -349l304 -389h-232l-252 348v-348h-176v738h176z" />
    <glyph glyph-name="L" unicode="L" horiz-adv-x="647" 
d="M246 738v-595h371v-143h-547v738h176z" />
    <glyph glyph-name="M" unicode="M" horiz-adv-x="965" 
d="M283 738l127 -354q12 -34 21.5 -59t17 -48t15 -47.5t15.5 -56.5q12 52 33 111.5t46 128.5l116 325h165l102 -738h-166l-20 307q-2 33 -5 58.5t-6.5 47t-7 42t-6.5 43.5q-4 -19 -10.5 -40.5t-14 -41.5t-14 -36.5t-9.5 -25.5l-135 -354h-137l-139 364q-10 26 -22.5 60
t-20.5 71q-3 -24 -6 -53.5t-6 -57t-5 -50t-2 -31.5l-23 -303h-162l99 738h160z" />
    <glyph glyph-name="N" unicode="N" horiz-adv-x="767" 
d="M230 738l320 -502q-4 43 -5 70.5t-1 42.5v389h153v-738h-168l-314 494q1 -14 2.5 -31t2 -32.5t1 -27.5t0.5 -16v-387h-151v738h160z" />
    <glyph glyph-name="O" unicode="O" horiz-adv-x="783" 
d="M392 608q-47 0 -81 -18.5t-56 -50.5t-33 -76.5t-11 -95.5q0 -48 11 -91t33.5 -75.5t56.5 -51.5t81 -19q82 0 130.5 63.5t48.5 175.5q0 42 -9.5 84.5t-31 77t-56 56t-83.5 21.5zM35 368q0 93 27 165.5t74 122t111 75.5t138 26q88 0 156 -29.5t114 -82t69.5 -125
t23.5 -157.5q0 -82 -23.5 -152t-68.5 -121t-111 -80t-151 -29q-89 0 -156 30t-112 82.5t-68 123t-23 151.5z" />
    <glyph glyph-name="P" unicode="P" horiz-adv-x="702" 
d="M384 426q31 0 53 4.5t35.5 15.5t19.5 29.5t6 46.5q0 92 -111 92h-141v-188h138zM450 738q45 0 85.5 -12.5t71 -39t49 -67.5t18.5 -98t-18.5 -98t-51 -68t-76.5 -40t-96 -13h-186v-302h-176v738h380z" />
    <glyph glyph-name="Q" unicode="Q" horiz-adv-x="783" 
d="M391 608q-39 0 -72 -14.5t-57 -44t-37.5 -74.5t-13.5 -105q0 -47 11.5 -90t34 -76t57 -52.5t80.5 -19.5q11 0 21.5 1t26.5 4l-120 137l149 31l68 -80q16 31 24.5 67t8.5 85q0 41 -9.5 82t-31.5 74t-56.5 54t-83.5 21zM35 368q0 80 23 150.5t68 123.5t111 84t152 31
q84 0 151 -29.5t113 -81t70.5 -121.5t24.5 -151q0 -94 -27.5 -169.5t-68.5 -118.5l83 -95l-99 -67l-82 91q-17 -9 -37.5 -15t-42.5 -10.5t-43.5 -6.5t-40.5 -2q-92 0 -159 33t-110.5 87t-64.5 123.5t-21 143.5z" />
    <glyph glyph-name="R" unicode="R" horiz-adv-x="765" 
d="M385 426q57 0 84.5 23t27.5 74q0 48 -27 69.5t-84 21.5h-140v-188h139zM439 738q115 0 175 -55.5t60 -161.5q0 -91 -43 -141.5t-136 -72.5l260 -307h-232l-214 302h-63v-302h-176v738h369z" />
    <glyph glyph-name="S" unicode="S" horiz-adv-x="556" 
d="M50 547q0 47 18.5 86t51 66.5t75.5 42.5t91 15q31 0 57.5 -4.5t52 -14t52 -25t56.5 -37.5l-85 -106q-42 31 -74 42t-56 11q-45 0 -68.5 -19t-23.5 -50t24.5 -50t61 -35t79 -33.5t79 -45t61 -70t24.5 -107.5q0 -51 -18.5 -93.5t-51.5 -73t-78.5 -48t-100.5 -17.5
q-38 0 -69.5 6t-60 18.5t-57 31t-59.5 43.5h-1l90 113q56 -45 92.5 -57.5t56.5 -12.5q18 0 36.5 4.5t33 14.5t23.5 25t9 36q0 33 -24 53.5t-59.5 37.5t-77 34.5t-77 44.5t-59.5 68t-24 106z" />
    <glyph glyph-name="T" unicode="T" horiz-adv-x="708" 
d="M684 738v-143h-242v-595h-176v595h-242v143h660z" />
    <glyph glyph-name="U" unicode="U" horiz-adv-x="779" 
d="M241 738v-446q0 -31 8.5 -61.5t25.5 -54.5t44 -38.5t64 -14.5q75 0 115 45.5t40 117.5v452h176v-403q0 -76 -18.5 -141t-57 -112t-98.5 -74t-143 -27q-165 0 -248.5 89t-83.5 260v408h176z" />
    <glyph glyph-name="V" unicode="V" horiz-adv-x="731" 
d="M188 738l124 -395q7 -22 13.5 -40.5l13 -37t13 -39.5t13.5 -49q11 39 17 57t11.5 33.5t13.5 39.5t24 75l112 356h174l-272 -738h-160l-271 738h174z" />
    <glyph glyph-name="W" unicode="W" horiz-adv-x="1000" 
d="M177 738l81 -352l36 -169q4 27 9 51.5t10.5 51t13 58.5t16.5 76l61 284h182l69 -308q14 -64 25.5 -115t19.5 -99q12 68 27 129.5t24 99.5l68 293h168l-206 -738h-160l-84 387q-8 36 -13.5 61.5t-10 48t-8.5 45.5t-9 55q-2 -14 -6.5 -37.5t-9 -46l-8 -40t-3.5 -18.5
l-98 -455h-156l-203 738h165z" />
    <glyph glyph-name="X" unicode="X" horiz-adv-x="771" 
d="M237 738l145 -235l146 235h189l-240 -341l281 -397h-194l-182 280l-179 -280h-190l276 395l-243 343h191z" />
    <glyph glyph-name="Y" unicode="Y" horiz-adv-x="725" 
d="M205 738l156 -273l158 273h193l-262 -405v-333h-176v328l-261 410h192z" />
    <glyph glyph-name="Z" unicode="Z" horiz-adv-x="667" 
d="M651 738l-354 -595h327v-143h-601l353 595h-326v143h601z" />
    <glyph glyph-name="bracketleft" unicode="[" horiz-adv-x="438" 
d="M387 766v-88h-126v-679h126v-91h-284v858h284z" />
    <glyph glyph-name="backslash" unicode="\" horiz-adv-x="413" 
d="M130 738l263 -738h-110l-263 738h110z" />
    <glyph glyph-name="bracketright" unicode="]" horiz-adv-x="438" 
d="M335 766v-858h-284v91h126v679h-126v88h284z" />
    <glyph glyph-name="asciicircum" unicode="^" horiz-adv-x="600" 
d="M346 688l184 -378h-100l-130 278l-130 -278h-100l184 378h92z" />
    <glyph glyph-name="underscore" unicode="_" horiz-adv-x="500" 
d="M500 -75v-50h-500v50h500z" />
    <glyph glyph-name="grave" unicode="`" 
d="M160 783l94 -115l-70 -13l-145 106z" />
    <glyph glyph-name="a" unicode="a" horiz-adv-x="602" 
d="M284 255q-18 0 -35 -5t-30.5 -14.5t-22 -25t-8.5 -36.5q0 -40 28.5 -60.5t68.5 -20.5t68 20.5t28 60.5q0 38 -27 59.5t-70 21.5zM88 562q40 15 85 23.5t102 8.5q81 0 133 -17t81.5 -50t41 -82t11.5 -113v-271q0 -11 2.5 -26.5t10.5 -34.5h-152q-5 10 -7.5 24t-3.5 24v1
q-39 -31 -84.5 -48t-85.5 -17q-41 0 -76.5 12t-61 36t-40 60t-14.5 84q0 37 13 70.5t37.5 58.5t60 40t81.5 15q54 0 95.5 -15t68.5 -39v72q0 14 -5 30.5t-18.5 30.5t-38.5 23.5t-64 9.5q-24 0 -64 -7.5t-108 -29.5v127v0z" />
    <glyph glyph-name="b" unicode="b" horiz-adv-x="610" 
d="M321 452q-32 0 -51 -14.5t-30 -37.5t-14.5 -51t-3.5 -56q0 -79 22 -121.5t78 -42.5q35 0 55.5 14.5t31 37.5t13.5 51.5t3 57.5q0 75 -23 118.5t-81 43.5zM223 766v-274q27 48 65 75t85 27q46 0 84 -21t65.5 -60.5t42.5 -95.5t15 -125q0 -75 -16 -132.5t-44 -96.5
t-64.5 -59t-76.5 -20q-17 0 -36.5 4.5t-39.5 16.5t-40.5 32t-39.5 50v-87h-158v766h158z" />
    <glyph glyph-name="c" unicode="c" horiz-adv-x="517" 
d="M30 277q0 85 25 145t65.5 98t91.5 56t102 18q54 0 96.5 -13t84.5 -41v-148l-34.5 23t-34.5 19.5t-39 13t-48 4.5q-28 0 -55.5 -10.5t-49.5 -31t-35.5 -49t-13.5 -64.5q0 -43 14 -75t36.5 -53.5t49.5 -32t54 -10.5q46 0 82.5 18t73.5 42v-149q-44 -25 -87 -39t-96 -14
q-57 0 -108.5 21t-90 59t-61 92.5t-22.5 120.5z" />
    <glyph glyph-name="d" unicode="d" horiz-adv-x="609" 
d="M287 452q-33 0 -53 -14t-31 -37.5t-14.5 -55t-3.5 -65.5q0 -27 4 -54t15.5 -48.5t31 -35t51.5 -13.5q33 0 52.5 14.5t30 38.5t14 54.5t3.5 62.5q0 75 -26 114t-74 39zM544 766v-766h-158v86q-17 -29 -37 -48.5t-40.5 -31.5t-40.5 -17t-37 -5q-42 0 -78.5 22t-64 61.5
t-43 95.5t-15.5 124q0 69 15 126t42 97t64.5 62t82.5 22q27 0 49.5 -8.5t41 -22.5t34 -32.5t27.5 -39.5v275h158z" />
    <glyph glyph-name="e" unicode="e" horiz-adv-x="552" 
d="M286 486q-29 0 -47.5 -13.5t-29 -35t-15 -49t-5.5 -54.5h191q0 85 -24 118.5t-70 33.5zM30 275q0 162 70.5 240.5t191.5 78.5q63 0 108 -26t74 -72.5t42.5 -111t13.5 -141.5h-343v-12q0 -41 12 -67t28.5 -40.5t34 -20t28.5 -5.5q40 0 64.5 20t45.5 43l113 -61
q-21 -31 -48.5 -53t-58 -36t-63 -20.5t-63.5 -6.5q-49 0 -94.5 18t-80 54.5t-55 91t-20.5 127.5z" />
    <glyph glyph-name="f" unicode="f" 
d="M83 611q0 58 17.5 89.5t43 46t54.5 17t52 2.5q8 0 24 -1t54 -7v-115q-21 3 -41 3t-33 -14t-13 -39v-91h87v-115h-87v-387h-158v387h-74v115h74v109v0z" />
    <glyph glyph-name="g" unicode="g" horiz-adv-x="610" 
d="M286 466q-45 0 -73 -32t-28 -90q0 -50 25.5 -81.5t76.5 -31.5q100 0 100 121q0 54 -28.5 84t-72.5 30zM30 348q0 52 13 97t38 78t62 52t84 19q40 0 83.5 -16.5t85.5 -59.5v60h149v-452q0 -108 -68.5 -163t-206.5 -55q-104 0 -157.5 32.5t-61.5 95.5h160q11 -18 24.5 -24
t42.5 -6q51 0 79.5 28.5t28.5 89.5q0 3 0.5 17t-0.5 25q-33 -27 -73.5 -45t-83.5 -18q-37 0 -73 14t-64 44t-45 76t-17 111z" />
    <glyph glyph-name="h" unicode="h" horiz-adv-x="617" 
d="M223 766v-260q36 42 80 65t91 23q42 0 73 -15t51 -39t29.5 -55.5t9.5 -64.5v-420h-158v374q0 15 -3.5 29.5t-12 26t-22.5 18.5t-35 7q-27 0 -46 -11.5t-32 -30.5t-19 -43t-6 -48v-322h-158v766h158z" />
    <glyph glyph-name="i" unicode="i" horiz-adv-x="298" 
d="M228 536v-536h-158v536h158zM49 701q0 32 28 48.5t72 16.5q48 0 75 -19t27 -49q0 -29 -27 -47.5t-75 -18.5q-44 0 -72 17.5t-28 51.5z" />
    <glyph glyph-name="j" unicode="j" horiz-adv-x="298" 
d="M228 536v-624h-158v624h158zM49 701q0 32 28 48.5t72 16.5q48 0 75 -19t27 -49q0 -29 -27 -47.5t-75 -18.5q-44 0 -72 17.5t-28 51.5z" />
    <glyph glyph-name="k" unicode="k" horiz-adv-x="604" 
d="M223 766v-459l171 271h182l-174 -276l194 -302h-189l-184 287v-287h-158v766h158z" />
    <glyph glyph-name="l" unicode="l" horiz-adv-x="298" 
d="M228 766v-766h-158v766h158z" />
    <glyph glyph-name="m" unicode="m" horiz-adv-x="959" 
d="M223 494q42 54 79.5 77t88.5 23q65 0 103.5 -33t52.5 -83q41 51 89 83.5t100 32.5q41 0 71.5 -15.5t51 -40.5t30.5 -58t10 -67v-413h-158v355q0 45 -14 70.5t-57 25.5q-20 0 -39.5 -11t-35.5 -29.5t-26 -43.5t-10 -52v-315h-158v349q0 50 -22.5 76t-67.5 26
q-26 0 -42.5 -13.5t-27 -34t-14.5 -45t-4 -45.5v-313h-158v578h158v-84v0z" />
    <glyph glyph-name="n" unicode="n" horiz-adv-x="617" 
d="M223 506q29 36 73.5 62t98.5 26q36 0 66 -12t51 -34t33 -52.5t12 -67.5v-428h-158v375q0 30 -16.5 55t-54.5 25q-29 0 -48.5 -11.5t-32.5 -29.5t-18.5 -40t-5.5 -42v-332h-158v578h158v-72v0z" />
    <glyph glyph-name="o" unicode="o" horiz-adv-x="594" 
d="M296 466q-32 0 -52.5 -14t-32 -38t-16 -55.5t-4.5 -66.5q0 -52 7 -86.5t20.5 -55.5t33.5 -29.5t45 -8.5t44.5 9t33 30t21 55.5t7.5 85.5q0 96 -26.5 135t-80.5 39zM30 290q0 75 19.5 132t54.5 95t84 57.5t109 19.5t109.5 -19.5t84.5 -58t54 -95t19 -131.5
q0 -67 -16 -123.5t-49 -97t-83 -63t-119 -22.5q-67 0 -117 22.5t-83.5 63t-50 96.5t-16.5 124z" />
    <glyph glyph-name="p" unicode="p" horiz-adv-x="614" 
d="M323 452q-17 0 -34.5 -7t-32 -22t-24 -38t-9.5 -55q0 -26 5 -50.5t17 -44t31.5 -31.5t47.5 -12q17 0 34.5 6.5t32 21.5t23.5 39t9 58q0 60 -27.5 97.5t-72.5 37.5zM223 485q14 24 29.5 44t35 34.5t43.5 22.5t55 8q33 0 68.5 -14.5t64 -47.5t47 -86.5t18.5 -131.5
q0 -59 -13.5 -107.5t-39.5 -83t-63 -54t-85 -19.5q-47 0 -87.5 25t-72.5 85v-252h-158v670h158v-93v0z" />
    <glyph glyph-name="q" unicode="q" horiz-adv-x="608" 
d="M284 452q-45 0 -72 -34.5t-27 -96.5q0 -15 4 -37.5t15 -42.5t30 -34.5t50 -14.5q28 0 47 12t31 31t17 43.5t5 49.5q0 59 -27 91.5t-73 32.5zM30 321q0 70 14.5 121.5t41 85t63 50t81.5 16.5q49 0 88 -30.5t67 -83.5v98h158v-670h-158v258q-14 -24 -29 -45t-34.5 -37
t-43.5 -25t-55 -9q-49 0 -85.5 22t-60.5 59t-35.5 86t-11.5 104z" />
    <glyph glyph-name="r" unicode="r" horiz-adv-x="426" 
d="M213 496q34 47 72.5 72.5t82.5 25.5q19 0 28 -2t15 -4v-155q-14 3 -25 5t-31 2q-65 0 -99 -34.5t-34 -100.5v-305h-158v578h149v-82v0z" />
    <glyph glyph-name="s" unicode="s" horiz-adv-x="500" 
d="M39 413q0 40 16 73.5t44.5 57.5t68 37t86.5 13q75 0 125 -30.5t75 -81.5l-114 -52q-25 23 -45.5 32.5t-50.5 9.5q-32 0 -47.5 -14.5t-15.5 -30.5q0 -15 10 -25t27.5 -18t40 -15.5t46.5 -17.5q28 -11 58 -24.5t55 -34.5t40.5 -51.5t15.5 -75.5q0 -33 -11 -65t-37 -58
t-70 -42t-111 -16q-72 0 -128 27.5t-92 91.5l117 51q24 -22 48.5 -33.5t59.5 -11.5q32 0 54.5 11t22.5 37q0 17 -10 28t-26.5 19t-37.5 14.5t-44 14.5q-30 10 -60.5 24.5t-54.5 35.5t-39.5 50.5t-15.5 69.5z" />
    <glyph glyph-name="t" unicode="t" horiz-adv-x="339" 
d="M240 743v-165h89v-118h-89v-460h-158v460h-72v118h72v165h158z" />
    <glyph glyph-name="u" unicode="u" horiz-adv-x="612" 
d="M218 578v-362q0 -52 21.5 -79.5t63.5 -27.5q48 0 69.5 27.5t21.5 82.5v359h158v-367q0 -51 -10.5 -92.5t-38 -71.5t-76 -46.5t-124.5 -16.5q-71 0 -118 15t-74.5 44t-39 71.5t-11.5 97.5v366h158z" />
    <glyph glyph-name="v" unicode="v" horiz-adv-x="573" 
d="M174 578l75 -283q5 -20 10 -35.5t9.5 -30t8.5 -29.5t8 -33q9 37 18.5 65.5t19.5 66.5l72 279h166l-204 -578h-144l-201 578h162z" />
    <glyph glyph-name="w" unicode="w" horiz-adv-x="833" 
d="M158 578l52 -212q8 -35 14.5 -60t12 -47t10 -43t9.5 -46q5 24 10.5 48t12.5 53l22 88l52 219h124l50 -202l47 -199l44 185l53 216h151l-171 -578h-143l-62 249q-8 33 -17 68t-15 73q-8 -38 -15.5 -72.5t-15.5 -70.5l-61 -247h-143l-167 578h146z" />
    <glyph glyph-name="x" unicode="x" horiz-adv-x="604" 
d="M187 578l57 -84q29 -43 39.5 -63t15.5 -31q9 20 26.5 46.5t34.5 52.5l52 79h176l-198 -274l200 -304h-170l-84 134q-9 15 -18.5 30t-17.5 38q-11 -27 -24.5 -49t-21.5 -34l-73 -119h-167l198 306l-195 272h170z" />
    <glyph glyph-name="y" unicode="y" horiz-adv-x="565" 
d="M169 578l105 -329l119 329h160l-294 -670h-163l94 202l2 6l-180 462h157z" />
    <glyph glyph-name="z" unicode="z" horiz-adv-x="496" 
d="M474 578l-230 -451h212v-127h-434l226 451h-203v127h429z" />
    <glyph glyph-name="braceleft" unicode="{" horiz-adv-x="444" 
d="M384 738v-64q-24 0 -44 0.5t-34 -4.5t-22 -18t-8 -41v-160q0 -48 -24.5 -73t-75.5 -35v-2q51 -10 75.5 -35t24.5 -73v-160q0 -28 8 -41t22.5 -18t34 -4.5t43.5 0.5v-64h-117q-58 0 -87.5 31t-29.5 89v158q0 21 -7 35t-19.5 22.5t-29.5 13.5t-38 9v76q21 4 38 9t29.5 13.5
t19.5 22.5t7 35v158q0 58 29 89t88 31h117z" />
    <glyph glyph-name="bar" unicode="|" horiz-adv-x="615" 
d="M368 696v-831h-121v831h121z" />
    <glyph glyph-name="braceright" unicode="}" horiz-adv-x="444" 
d="M177 738q58 0 87.5 -31t29.5 -89v-158q0 -21 7 -35t19.5 -22.5t29.5 -13.5t38 -9v-76q-21 -4 -38 -9t-29.5 -13.5t-19.5 -22.5t-7 -35v-158q0 -58 -29 -89t-88 -31h-117v64q24 0 44 -0.5t34 4.5t22 18t8 41v160q0 48 24.5 73t75.5 35v2q-51 10 -75.5 35t-24.5 73v160
q0 28 -8 41t-22.5 18t-34 4.5t-43.5 -0.5v64h117z" />
    <glyph glyph-name="asciitilde" unicode="~" horiz-adv-x="667" 
d="M59 362q30 26 69 48t90 22q33 0 65 -12t62.5 -27t59 -27t54.5 -12q44 0 81 22.5t68 51.5v-124q-31 -27 -69.5 -48.5t-87.5 -21.5q-35 0 -67 12t-62 27t-58.5 27t-56.5 12q-42 0 -80.5 -23.5t-67.5 -50.5v124v0z" />
    <glyph glyph-name="uni00A0" unicode="&#xa0;" horiz-adv-x="250" 
 />
    <glyph glyph-name="exclamdown" unicode="&#xa1;" horiz-adv-x="271" 
d="M215 363v-443h-158v443h158zM38 533q0 20 8 38t21.5 31.5t31.5 21t38 7.5q42 0 70 -28.5t28 -69.5t-28 -70t-70 -29q-20 0 -38 8t-31.5 21.5t-21.5 31.5t-8 38z" />
    <glyph glyph-name="cent" unicode="&#xa2;" horiz-adv-x="500" 
d="M285 448q-27 -9 -46 -25.5t-32 -38t-19 -46.5t-6 -51t8 -50.5t21.5 -45t32.5 -36t41 -23.5v316v0zM373 682v-89q34 -5 59 -12.5t50 -21.5h1v-138q-28 13 -55 23t-54 11h-1v-333q29 4 58 15.5t52 24.5v-139q-28 -14 -56 -23.5t-54 -10.5v-79h-88v78q-51 3 -96 25.5
t-79.5 60.5t-54.5 90t-20 114q0 65 17 120t49 96t78.5 67t105.5 32v89h88z" />
    <glyph glyph-name="sterling" unicode="&#xa3;" horiz-adv-x="500" 
d="M70 554q0 39 12 73t36 60t60.5 41t86.5 15q96 0 145.5 -45.5t57.5 -135.5h-136q-2 26 -17 39.5t-39 13.5q-31 0 -45 -19.5t-14 -48.5q0 -28 11 -56t26 -69h116v-108h-83q5 -26 8.5 -52t3.5 -52q0 -44 -11 -82q26 -8 51 -8q26 0 54.5 10t60.5 33l22 -132q-33 -20 -62 -32
t-70 -12q-29 0 -53 6t-45.5 13t-41.5 13t-40 6q-25 0 -44.5 -10.5t-39.5 -24.5l-49 138q26 17 54.5 26t60.5 9h17q2 11 3 22.5t1 22.5q0 25 -4.5 51.5t-15.5 54.5h-107v108h63q-17 38 -25 68.5t-8 63.5z" />
    <glyph glyph-name="currency" unicode="&#xa4;" horiz-adv-x="698" 
d="M348 454q-24 0 -45.5 -9t-38 -25t-26.5 -38.5t-10 -48.5t9.5 -48t26 -38t38.5 -25.5t47 -9.5t47 9.5t38.5 25.5t26 38t9.5 48q0 25 -9.5 47t-26 38.5t-38.5 26t-48 9.5zM165 596l65 -65q29 18 59 25.5t60 7.5q32 0 62.5 -8.5t56.5 -24.5l65 65l79 -80l-65 -64
q16 -26 24.5 -56.5t8.5 -62.5q0 -66 -33 -119l65 -65l-79 -79l-65 64q-27 -16 -57 -24.5t-62 -8.5q-33 0 -63 9t-56 24l-65 -64l-79 79l65 65q-18 29 -25.5 59.5t-7.5 59.5q0 64 33 119l-65 64z" />
    <glyph glyph-name="yen" unicode="&#xa5;" horiz-adv-x="556" 
d="M158 738l99 -209q9 -20 17 -40.5t10 -36.5h3q5 20 11.5 37t15.5 36l101 213h155l-141 -284h116v-112h-189v-73h189v-111h-189v-158h-142v158h-186v111h186v73h-186v112h115l-140 284h155z" />
    <glyph glyph-name="brokenbar" unicode="&#xa6;" horiz-adv-x="615" 
d="M368 222v-357h-121v357h121zM368 696v-357h-121v357h121z" />
    <glyph glyph-name="section" unicode="&#xa7;" horiz-adv-x="604" 
d="M213 445q-16 -12 -23.5 -27.5t-7.5 -32.5q0 -25 20 -44t51.5 -35.5t68.5 -32.5t72 -35q16 12 26 25.5t10 37.5t-26 45t-61 38.5t-72 32.5t-58 28zM69 622q0 35 12.5 65.5t39.5 52.5t70 34.5t104 12.5t104.5 -13t71 -37t40.5 -58t13 -76v-1h-131q-9 36 -34.5 49.5
t-73.5 13.5q-30 0 -49.5 -10.5t-19.5 -32.5q0 -21 25 -37t63 -32t82 -34.5t82 -45.5t63 -65t25 -92q0 -46 -16.5 -82t-53.5 -70q40 -41 40 -98q0 -92 -60.5 -135.5t-169.5 -43.5q-47 0 -87 10t-70 32t-48.5 56t-20.5 81h131q7 -23 31 -38.5t75 -15.5q13 0 27 2t26 7t20 15
t8 27q0 19 -25 35t-63 32.5t-82 37t-82 48.5t-63 66t-25 91q0 76 66 139h1q-20 25 -33 50t-13 60z" />
    <glyph glyph-name="dieresis" unicode="&#xa8;" 
d="M195 719q0 24 17 41t41 17t41 -17t17 -41t-17 -40.5t-41 -16.5t-41 16.5t-17 40.5zM22 720q0 24 17 40.5t41 16.5t41 -16.5t17 -40.5q0 -25 -17 -41.5t-41 -16.5t-41 16.5t-17 41.5z" />
    <glyph glyph-name="copyright" unicode="&#xa9;" horiz-adv-x="802" 
d="M200 354q0 46 15.5 84.5t43 66.5t65 43t80.5 15q28 0 57 -7.5t54 -24t43 -42t26 -61.5l-96 -15q-10 41 -33 59.5t-56 18.5q-45 0 -67.5 -37t-22.5 -100q0 -19 2.5 -43.5t12 -46t27.5 -36t50 -14.5q35 0 56 25t31 69l100 -24q-23 -77 -71 -109t-113 -32q-50 0 -88 17
t-64 46.5t-39 67.5t-13 80zM400 654q-61 0 -115.5 -23.5t-95.5 -64t-65 -95.5t-24 -118q0 -62 23.5 -117t64.5 -95.5t96 -64t117 -23.5t117 23.5t96 64t64.5 95.5t23.5 117q0 61 -23.5 115.5t-64 96t-95.5 65.5t-119 24zM28 353q0 77 29.5 145t80 118.5t118.5 80t145 29.5
t145 -29.5t118.5 -80t80 -118.5t29.5 -145t-29.5 -144.5t-80 -118t-118.5 -80t-145 -29.5t-145 29.5t-118.5 80t-80 118t-29.5 144.5z" />
    <glyph glyph-name="ordfeminine" unicode="&#xaa;" horiz-adv-x="366" 
d="M177 543q-23 0 -41.5 -15.5t-18.5 -36.5q0 -17 16.5 -34t43.5 -17q29 0 45.5 17.5t16.5 33.5q0 24 -19.5 38t-42.5 14zM54 737q23 9 51.5 14.5t66.5 5.5q91 0 130 -36.5t39 -127.5v-173q0 -7 1.5 -16.5t6.5 -21.5h-96q-3 6 -4.5 14.5t-2.5 16.5q-25 -19 -53.5 -30
t-53.5 -11q-52 0 -86.5 30t-34.5 91q0 28 10 49.5t27 36.5t38.5 22.5t45.5 7.5q26 0 52.5 -9t50.5 -27v42q0 65 -79 65q-20 0 -46 -6t-63 -17v80v0z" />
    <glyph glyph-name="guillemotleft" unicode="&#xab;" horiz-adv-x="604" 
d="M580 578l-100 -288l100 -290h-167l-101 290l101 288h167zM292 578l-100 -288l100 -290h-167l-101 290l101 288h167z" />
    <glyph glyph-name="logicalnot" unicode="&#xac;" horiz-adv-x="667" 
d="M608 511v-357h-121v236h-428v121h549z" />
    <glyph glyph-name="uni00AD" unicode="&#xad;" horiz-adv-x="500" 
d="M455 368v-157h-411v157h411z" />
    <glyph glyph-name="registered" unicode="&#xae;" horiz-adv-x="802" 
d="M331 384q9 1 29 0t40.5 2t36 13.5t15.5 34.5t-15.5 34.5t-35.5 13.5t-40.5 2t-29.5 0v-100zM417 553q69 0 103 -30t34 -83q0 -46 -29.5 -73t-78.5 -38q20 -8 32.5 -18.5t25.5 -29.5t29 -49.5t43 -77.5h-117q-18 34 -32.5 62.5t-27.5 49.5t-26.5 33t-29.5 13l-12 -1v-157
h-99v399h185zM400 654q-61 0 -115.5 -23.5t-95.5 -64t-65 -95.5t-24 -118q0 -62 23.5 -117t64.5 -95.5t96 -64t117 -23.5t117 23.5t96 64t64.5 95.5t23.5 117q0 61 -23.5 115.5t-64 96t-95.5 65.5t-119 24zM28 353q0 77 29.5 145t80 118.5t118.5 80t145 29.5t145 -29.5
t118.5 -80t80 -118.5t29.5 -145t-29.5 -144.5t-80 -118t-118.5 -80t-145 -29.5t-145 29.5t-118.5 80t-80 118t-29.5 144.5z" />
    <glyph glyph-name="macron" unicode="&#xaf;" 
d="M320 746v-91h-307v91h307z" />
    <glyph glyph-name="degree" unicode="&#xb0;" horiz-adv-x="400" 
d="M199 638q-15 0 -28 -6t-23.5 -16t-16.5 -23.5t-6 -29.5q0 -31 22 -52.5t53 -21.5t53 21.5t22 52.5t-22 53t-54 22zM44 564q0 32 12 60.5t33 49.5t49.5 33t60.5 12t60.5 -12t50 -33t34 -49.5t12.5 -60.5t-12.5 -60.5t-34 -49.5t-50 -33.5t-60.5 -12.5t-60.5 12.5
t-49.5 33.5t-33 49.5t-12 60.5z" />
    <glyph glyph-name="plusminus" unicode="&#xb1;" horiz-adv-x="667" 
d="M608 90v-122h-549v122h549zM394 697v-213h214v-122h-214v-214h-121v214h-214v122h214v213h121z" />
    <glyph glyph-name="twosuperior" unicode="&#xb2;" horiz-adv-x="500" 
d="M103 572q2 84 47 126.5t114 42.5q32 0 61 -7.5t51.5 -24t36 -42t13.5 -62.5q0 -27 -12 -57t-31 -60.5t-43 -60t-49 -55.5h142v-98h-327v23q66 76 106.5 127t62 85.5t28.5 55.5t7 36q0 24 -13.5 37t-36.5 13q-29 0 -41 -21t-12 -49v-9h-104v0z" />
    <glyph glyph-name="threesuperior" unicode="&#xb3;" horiz-adv-x="500" 
d="M66 615q10 58 46.5 92t116.5 34q44 0 72.5 -12.5t45 -30.5t23 -38.5t6.5 -37.5q0 -75 -67 -115q39 -15 57 -42.5t18 -69.5q0 -71 -48 -102t-129 -31q-69 0 -105 34t-49 100h108q6 -23 20 -36.5t34 -13.5q24 0 38.5 14.5t14.5 40.5q0 38 -20 52.5t-55 14.5v86
q33 0 52.5 13.5t19.5 39.5q0 17 -12 32.5t-38 15.5q-23 0 -34 -11t-18 -29h-97v0z" />
    <glyph glyph-name="acute" unicode="&#xb4;" 
d="M170 784l124 -27l-147 -102l-71 13z" />
    <glyph glyph-name="mu" unicode="&#xb5;" horiz-adv-x="611" 
d="M218 578v-364q0 -104 83 -104q43 0 68 32t25 84v352h158v-578h-158v61q-6 -12 -13.5 -25t-18 -23.5t-25 -17.5t-36.5 -7q-38 0 -58.5 21.5t-35.5 53.5v-262h-147v777h158z" />
    <glyph glyph-name="paragraph" unicode="&#xb6;" horiz-adv-x="625" 
d="M625 738v-128h-56v-785h-117v785h-119v-785h-117v511q-112 0 -164 53.5t-52 143.5q0 46 16.5 84t48 65t75.5 41.5t100 14.5h385z" />
    <glyph glyph-name="periodcentered" unicode="&#xb7;" horiz-adv-x="271" 
d="M37 365q0 20 7.5 38t21 31.5t31.5 21.5t38 8q21 0 39 -8t31.5 -21.5t21 -31.5t7.5 -38q0 -41 -28.5 -69.5t-70.5 -28.5q-41 0 -69.5 28.5t-28.5 69.5z" />
    <glyph glyph-name="cedilla" unicode="&#xb8;" 
d="M231 20q11 -21 14 -32t3 -19q0 -10 -5 -20t-17 -17.5t-32 -12t-50 -4.5q-15 0 -33 1.5t-36.5 4t-35 5t-28.5 4.5l18 40q28 -3 49 -5t32 -2q17 0 27 5t10 19q0 12 -10 33h94z" />
    <glyph glyph-name="onesuperior" unicode="&#xb9;" horiz-adv-x="500" 
d="M328 728v-454h-107v363h-83v91h190z" />
    <glyph glyph-name="ordmasculine" unicode="&#xba;" horiz-adv-x="348" 
d="M173 676q-18 0 -29 -9.5t-17 -25.5t-8 -37t-2 -44q0 -19 2 -38t8 -34.5t17.5 -25t30.5 -9.5q18 0 29 8.5t17.5 24t8.5 36t2 44.5q0 55 -13 82.5t-46 27.5zM15 565q0 57 15 94t37.5 59t50 30.5t53.5 8.5q42 0 72.5 -14.5t50.5 -40t29.5 -60.5t9.5 -77q0 -91 -38.5 -142
t-119.5 -51q-41 0 -71.5 14t-50 39.5t-29 61t-9.5 78.5z" />
    <glyph glyph-name="guillemotright" unicode="&#xbb;" horiz-adv-x="604" 
d="M479 578l101 -290l-101 -288h-167l100 288l-100 290h167zM191 578l101 -290l-101 -288h-167l100 288l-100 290h167z" />
    <glyph glyph-name="onequarter" unicode="&#xbc;" horiz-adv-x="1000" 
d="M799 366l-115 -181h115v181zM906 455v-270h45v-88h-45v-101h-107v101h-190v95l164 263h133zM289 734v-456h-107v365h-83v91h190zM747 745l-396 -758h-96l394 758h98z" />
    <glyph glyph-name="onehalf" unicode="&#xbd;" horiz-adv-x="1000" 
d="M622 295q2 84 47 126.5t114 42.5q32 0 61 -7.5t51.5 -24t36 -42t13.5 -62.5q0 -27 -12 -57t-31 -60.5t-43 -60t-49 -55.5h142v-98h-327v23q66 76 106.5 127t62 85.5t28.5 55.5t7 36q0 24 -13.5 37t-36.5 13q-29 0 -41 -21t-12 -49v-9h-104v0zM290 731v-455h-110v364h-82
v91h192zM718 743l-395 -756h-97l394 756h98z" />
    <glyph glyph-name="threequarters" unicode="&#xbe;" horiz-adv-x="1000" 
d="M799 365l-113 -178h113v178zM907 457v-270h46v-91h-46v-99h-108v99h-193v97l165 264h136zM66 619q9 60 47 93t116 33q45 0 73.5 -12.5t45 -30.5t22.5 -38.5t6 -37.5q0 -74 -67 -115q39 -16 57 -43.5t18 -68.5q0 -66 -43 -99.5t-134 -33.5q-66 0 -103.5 31t-50.5 103h108
q9 -30 24.5 -40t29.5 -10q18 0 35.5 13t17.5 42q0 38 -20 52.5t-55 14.5v86q33 0 52.5 13.5t19.5 39.5q0 17 -12 32.5t-38 15.5q-23 0 -34 -11t-18 -29h-97v0zM781 747l-398 -760h-101l398 760h101z" />
    <glyph glyph-name="questiondown" unicode="&#xbf;" horiz-adv-x="552" 
d="M379 362v-152h-10q-39 0 -70.5 -4t-53.5 -15t-34 -31t-12 -51q0 -19 7 -33.5t19 -24t27 -14t30 -4.5q14 0 27.5 5t24.5 13.5t18 20t8 25.5v1h158q0 -36 -13.5 -69.5t-42.5 -60t-74.5 -42.5t-109.5 -16q-58 0 -102.5 15.5t-74.5 42.5t-45 63.5t-15 78.5q0 36 13.5 66.5
t37.5 54.5t57 40t72 22v69h158zM201 532q0 41 28.5 69.5t69.5 28.5q42 0 70.5 -28.5t28.5 -69.5q0 -42 -28.5 -70.5t-70.5 -28.5q-41 0 -69.5 28.5t-28.5 70.5z" />
    <glyph glyph-name="Agrave" unicode="&#xc0;" horiz-adv-x="759" 
d="M269 259h218l-108 324zM469 738l276 -738h-172l-44 132h-302l-44 -132h-169l276 738h179zM373 943l94 -115l-70 -13l-145 106z" />
    <glyph glyph-name="Aacute" unicode="&#xc1;" horiz-adv-x="759" 
d="M269 259h218l-108 324zM469 738l276 -738h-172l-44 132h-302l-44 -132h-169l276 738h179zM383 944l124 -27l-147 -102l-71 13z" />
    <glyph glyph-name="Acircumflex" unicode="&#xc2;" horiz-adv-x="759" 
d="M269 259h218l-108 324zM469 738l276 -738h-172l-44 132h-302l-44 -132h-169l276 738h179zM450 943l79 -128h-84l-64 55l-66 -55h-84l81 128h138z" />
    <glyph glyph-name="Atilde" unicode="&#xc3;" horiz-adv-x="759" 
d="M269 259h218l-108 324zM469 738l276 -738h-172l-44 132h-302l-44 -132h-169l276 738h179zM228 817q0 57 24 90t69 33q19 0 37 -5.5t33.5 -11.5t27.5 -11.5t20 -5.5q11 0 17.5 8t6.5 22v3h68v-12q0 -54 -20 -82.5t-62 -28.5q-17 0 -36 5.5t-36.5 12t-33 12t-24.5 5.5
q-17 0 -20.5 -10t-3.5 -24h-67v0z" />
    <glyph glyph-name="Adieresis" unicode="&#xc4;" horiz-adv-x="759" 
d="M269 259h218l-108 324zM469 738l276 -738h-172l-44 132h-302l-44 -132h-169l276 738h179zM408 879q0 24 17 41t41 17t41 -17t17 -41t-17 -40.5t-41 -16.5t-41 16.5t-17 40.5zM235 880q0 24 17 40.5t41 16.5t41 -16.5t17 -40.5q0 -25 -17 -41.5t-41 -16.5t-41 16.5
t-17 41.5z" />
    <glyph glyph-name="Aring" unicode="&#xc5;" horiz-adv-x="759" 
d="M269 259h218l-108 324zM469 738l276 -738h-172l-44 132h-302l-44 -132h-169l276 738h179zM379 972q-20 0 -35 -14t-15 -36q0 -20 15 -34.5t35 -14.5q21 0 35.5 14.5t14.5 34.5t-14 35t-36 15zM272 923q0 22 8.5 41.5t23 34t34 23t42.5 8.5q22 0 41.5 -8.5t34 -23t23 -34
t8.5 -41.5q0 -23 -8.5 -42.5t-23 -34t-34 -23t-41.5 -8.5q-23 0 -42.5 8.5t-34 23t-23 34t-8.5 42.5z" />
    <glyph glyph-name="AE" unicode="&#xc6;" horiz-adv-x="973" 
d="M263 245h173v350h-47zM933 738v-143h-333v-144h302v-143h-302v-165h333v-143h-497v130h-215l-47 -130h-162l295 738h626z" />
    <glyph glyph-name="Ccedilla" unicode="&#xc7;" horiz-adv-x="714" 
d="M35 373q0 75 25 144.5t73.5 123t121 85t168.5 31.5q66 0 133 -17t126 -46v-164q-62 35 -125 56.5t-124 21.5q-49 0 -90.5 -17t-72 -48t-47.5 -74.5t-17 -96.5q0 -49 15.5 -93t44 -77t69 -52.5t91.5 -19.5q38 0 71.5 6t64.5 16.5t60.5 24.5t59.5 29v-164
q-34 -16 -61 -25.5t-51 -15.5t-48.5 -10t-53.5 -8v-1q5 -13 6.5 -19.5t1.5 -11.5q0 -6 -3 -15t-13 -17.5t-29 -14.5t-52 -6q-29 0 -68.5 5t-71.5 10l18 40q23 -2 46 -4.5t39 -2.5q18 0 25 5t7 15v5t-2 12q-67 6 -128 34t-107.5 77t-74 119t-27.5 160z" />
    <glyph glyph-name="Egrave" unicode="&#xc8;" horiz-adv-x="663" 
d="M623 738v-143h-377v-143h350v-143h-350v-166h377v-143h-553v738h553zM345 943l94 -115l-70 -13l-145 106z" />
    <glyph glyph-name="Eacute" unicode="&#xc9;" horiz-adv-x="663" 
d="M623 738v-143h-377v-143h350v-143h-350v-166h377v-143h-553v738h553zM355 944l124 -27l-147 -102l-71 13z" />
    <glyph glyph-name="Ecircumflex" unicode="&#xca;" horiz-adv-x="663" 
d="M623 738v-143h-377v-143h350v-143h-350v-166h377v-143h-553v738h553zM422 943l79 -128h-84l-64 55l-66 -55h-84l81 128h138z" />
    <glyph glyph-name="Edieresis" unicode="&#xcb;" horiz-adv-x="663" 
d="M623 738v-143h-377v-143h350v-143h-350v-166h377v-143h-553v738h553zM380 879q0 24 17 41t41 17t41 -17t17 -41t-17 -40.5t-41 -16.5t-41 16.5t-17 40.5zM207 880q0 24 17 40.5t41 16.5t41 -16.5t17 -40.5q0 -25 -17 -41.5t-41 -16.5t-41 16.5t-17 41.5z" />
    <glyph glyph-name="Igrave" unicode="&#xcc;" 
d="M255 738v-738h-176v738h176zM160 943l94 -115l-70 -13l-145 106z" />
    <glyph glyph-name="Iacute" unicode="&#xcd;" 
d="M255 738v-738h-176v738h176zM170 944l124 -27l-147 -102l-71 13z" />
    <glyph glyph-name="Icircumflex" unicode="&#xce;" 
d="M255 738v-738h-176v738h176zM237 943l79 -128h-84l-64 55l-66 -55h-84l81 128h138z" />
    <glyph glyph-name="Idieresis" unicode="&#xcf;" 
d="M255 738v-738h-176v738h176zM195 879q0 24 17 41t41 17t41 -17t17 -41t-17 -40.5t-41 -16.5t-41 16.5t-17 40.5zM22 880q0 24 17 40.5t41 16.5t41 -16.5t17 -40.5q0 -25 -17 -41.5t-41 -16.5t-41 16.5t-17 41.5z" />
    <glyph glyph-name="Eth" unicode="&#xd0;" horiz-adv-x="774" 
d="M375 436v-111h-129v-182h69q40 0 83.5 6.5t80 30.5t60.5 69.5t24 123.5q0 55 -15 94t-41 68q-29 33 -77.5 46.5t-110.5 13.5h-73v-159h129zM387 738q73 0 137 -24.5t112 -71.5t75.5 -116.5t27.5 -160.5q0 -70 -22.5 -141t-83.5 -131q-48 -48 -118 -70.5t-175 -22.5h-270
v325h-70v111h70v302h317z" />
    <glyph glyph-name="Ntilde" unicode="&#xd1;" horiz-adv-x="767" 
d="M230 738l320 -502q-4 43 -5 70.5t-1 42.5v389h153v-738h-168l-314 494q1 -14 2.5 -31t2 -32.5t1 -27.5t0.5 -16v-387h-151v738h160zM232 817q0 57 24 90t69 33q19 0 37 -5.5t33.5 -11.5t27.5 -11.5t20 -5.5q11 0 17.5 8t6.5 22v3h68v-12q0 -54 -20 -82.5t-62 -28.5
q-17 0 -36 5.5t-36.5 12t-33 12t-24.5 5.5q-17 0 -20.5 -10t-3.5 -24h-67v0z" />
    <glyph glyph-name="Ograve" unicode="&#xd2;" horiz-adv-x="783" 
d="M392 608q-47 0 -81 -18.5t-56 -50.5t-33 -76.5t-11 -95.5q0 -48 11 -91t33.5 -75.5t56.5 -51.5t81 -19q82 0 130.5 63.5t48.5 175.5q0 42 -9.5 84.5t-31 77t-56 56t-83.5 21.5zM35 368q0 93 27 165.5t74 122t111 75.5t138 26q88 0 156 -29.5t114 -82t69.5 -125
t23.5 -157.5q0 -82 -23.5 -152t-68.5 -121t-111 -80t-151 -29q-89 0 -156 30t-112 82.5t-68 123t-23 151.5zM385 943l94 -115l-70 -13l-145 106z" />
    <glyph glyph-name="Oacute" unicode="&#xd3;" horiz-adv-x="783" 
d="M392 608q-47 0 -81 -18.5t-56 -50.5t-33 -76.5t-11 -95.5q0 -48 11 -91t33.5 -75.5t56.5 -51.5t81 -19q82 0 130.5 63.5t48.5 175.5q0 42 -9.5 84.5t-31 77t-56 56t-83.5 21.5zM35 368q0 93 27 165.5t74 122t111 75.5t138 26q88 0 156 -29.5t114 -82t69.5 -125
t23.5 -157.5q0 -82 -23.5 -152t-68.5 -121t-111 -80t-151 -29q-89 0 -156 30t-112 82.5t-68 123t-23 151.5zM395 944l124 -27l-147 -102l-71 13z" />
    <glyph glyph-name="Ocircumflex" unicode="&#xd4;" horiz-adv-x="783" 
d="M392 608q-47 0 -81 -18.5t-56 -50.5t-33 -76.5t-11 -95.5q0 -48 11 -91t33.5 -75.5t56.5 -51.5t81 -19q82 0 130.5 63.5t48.5 175.5q0 42 -9.5 84.5t-31 77t-56 56t-83.5 21.5zM35 368q0 93 27 165.5t74 122t111 75.5t138 26q88 0 156 -29.5t114 -82t69.5 -125
t23.5 -157.5q0 -82 -23.5 -152t-68.5 -121t-111 -80t-151 -29q-89 0 -156 30t-112 82.5t-68 123t-23 151.5zM462 943l79 -128h-84l-64 55l-66 -55h-84l81 128h138z" />
    <glyph glyph-name="Otilde" unicode="&#xd5;" horiz-adv-x="783" 
d="M392 608q-47 0 -81 -18.5t-56 -50.5t-33 -76.5t-11 -95.5q0 -48 11 -91t33.5 -75.5t56.5 -51.5t81 -19q82 0 130.5 63.5t48.5 175.5q0 42 -9.5 84.5t-31 77t-56 56t-83.5 21.5zM35 368q0 93 27 165.5t74 122t111 75.5t138 26q88 0 156 -29.5t114 -82t69.5 -125
t23.5 -157.5q0 -82 -23.5 -152t-68.5 -121t-111 -80t-151 -29q-89 0 -156 30t-112 82.5t-68 123t-23 151.5zM240 817q0 57 24 90t69 33q19 0 37 -5.5t33.5 -11.5t27.5 -11.5t20 -5.5q11 0 17.5 8t6.5 22v3h68v-12q0 -54 -20 -82.5t-62 -28.5q-17 0 -36 5.5t-36.5 12t-33 12
t-24.5 5.5q-17 0 -20.5 -10t-3.5 -24h-67v0z" />
    <glyph glyph-name="Odieresis" unicode="&#xd6;" horiz-adv-x="783" 
d="M392 608q-47 0 -81 -18.5t-56 -50.5t-33 -76.5t-11 -95.5q0 -48 11 -91t33.5 -75.5t56.5 -51.5t81 -19q82 0 130.5 63.5t48.5 175.5q0 42 -9.5 84.5t-31 77t-56 56t-83.5 21.5zM35 368q0 93 27 165.5t74 122t111 75.5t138 26q88 0 156 -29.5t114 -82t69.5 -125
t23.5 -157.5q0 -82 -23.5 -152t-68.5 -121t-111 -80t-151 -29q-89 0 -156 30t-112 82.5t-68 123t-23 151.5zM420 879q0 24 17 41t41 17t41 -17t17 -41t-17 -40.5t-41 -16.5t-41 16.5t-17 40.5zM247 880q0 24 17 40.5t41 16.5t41 -16.5t17 -40.5q0 -25 -17 -41.5t-41 -16.5
t-41 16.5t-17 41.5z" />
    <glyph glyph-name="multiply" unicode="&#xd7;" horiz-adv-x="667" 
d="M333 419l176 175l85 -86l-175 -175l175 -176l-85 -85l-176 175l-175 -175l-86 85l176 176l-176 175l86 86z" />
    <glyph glyph-name="Oslash" unicode="&#xd8;" horiz-adv-x="783" 
d="M572 370q0 18 -2 37.5t-5.5 37.5t-8 32.5t-9.5 22.5l-257 -337q44 -33 102 -33q36 0 68.5 13t57 41.5t39.5 74t15 111.5zM390 608q-39 0 -72 -15.5t-56.5 -45.5t-37 -74.5t-13.5 -102.5q0 -19 2 -38.5t5.5 -37.5t8 -32.5t8.5 -24.5l256 337q-21 17 -47.5 25.5t-53.5 8.5z
M713 717l-57 -74q41 -45 66.5 -116.5t25.5 -152.5q0 -95 -26 -168t-73.5 -123t-115 -76t-150.5 -26q-51 0 -104 14.5t-90 40.5l-54 -71l-71 53l59 76q-42 47 -65 116t-23 154q0 94 26.5 167t73.5 123.5t111.5 76.5t139.5 26q53 0 104 -13.5t99 -42.5l53 71z" />
    <glyph glyph-name="Ugrave" unicode="&#xd9;" horiz-adv-x="779" 
d="M241 738v-446q0 -31 8.5 -61.5t25.5 -54.5t44 -38.5t64 -14.5q75 0 115 45.5t40 117.5v452h176v-403q0 -76 -18.5 -141t-57 -112t-98.5 -74t-143 -27q-165 0 -248.5 89t-83.5 260v408h176zM383 943l94 -115l-70 -13l-145 106z" />
    <glyph glyph-name="Uacute" unicode="&#xda;" horiz-adv-x="779" 
d="M241 738v-446q0 -31 8.5 -61.5t25.5 -54.5t44 -38.5t64 -14.5q75 0 115 45.5t40 117.5v452h176v-403q0 -76 -18.5 -141t-57 -112t-98.5 -74t-143 -27q-165 0 -248.5 89t-83.5 260v408h176zM393 944l124 -27l-147 -102l-71 13z" />
    <glyph glyph-name="Ucircumflex" unicode="&#xdb;" horiz-adv-x="779" 
d="M241 738v-446q0 -31 8.5 -61.5t25.5 -54.5t44 -38.5t64 -14.5q75 0 115 45.5t40 117.5v452h176v-403q0 -76 -18.5 -141t-57 -112t-98.5 -74t-143 -27q-165 0 -248.5 89t-83.5 260v408h176zM460 943l79 -128h-84l-64 55l-66 -55h-84l81 128h138z" />
    <glyph glyph-name="Udieresis" unicode="&#xdc;" horiz-adv-x="779" 
d="M241 738v-446q0 -31 8.5 -61.5t25.5 -54.5t44 -38.5t64 -14.5q75 0 115 45.5t40 117.5v452h176v-403q0 -76 -18.5 -141t-57 -112t-98.5 -74t-143 -27q-165 0 -248.5 89t-83.5 260v408h176zM418 879q0 24 17 41t41 17t41 -17t17 -41t-17 -40.5t-41 -16.5t-41 16.5
t-17 40.5zM245 880q0 24 17 40.5t41 16.5t41 -16.5t17 -40.5q0 -25 -17 -41.5t-41 -16.5t-41 16.5t-17 41.5z" />
    <glyph glyph-name="Yacute" unicode="&#xdd;" horiz-adv-x="725" 
d="M205 738l156 -273l158 273h193l-262 -405v-333h-176v328l-261 410h192zM366 944l124 -27l-147 -102l-71 13z" />
    <glyph glyph-name="Thorn" unicode="&#xde;" horiz-adv-x="702" 
d="M387 275q57 0 84 23.5t27 74.5q0 48 -26.5 69t-83.5 21h-142v-188h141zM246 738v-151h185q53 0 97.5 -13t77 -40t50.5 -68t18 -96q0 -105 -63.5 -162t-181.5 -57h-183v-151h-176v738h176z" />
    <glyph glyph-name="germandbls" unicode="&#xdf;" horiz-adv-x="609" 
d="M66 526q0 48 13.5 91.5t43.5 76.5t76.5 52.5t112.5 19.5q65 0 110 -18t72.5 -46.5t40 -64t12.5 -69.5q0 -111 -101 -157q64 -17 98.5 -65.5t34.5 -127.5q0 -48 -12 -90.5t-36 -74.5t-60 -50.5t-84 -18.5q-28 0 -57 5.5t-60 19.5v126q20 -8 38.5 -12.5t33.5 -4.5
q34 0 55 23.5t21 80.5q0 62 -31.5 86t-92.5 24v125q30 0 50.5 8t32.5 20.5t17.5 28t5.5 30.5t-5 31t-16 28.5t-27.5 20.5t-38.5 8q-42 0 -65.5 -25.5t-23.5 -70.5v-536h-158v526v0z" />
    <glyph glyph-name="agrave" unicode="&#xe0;" horiz-adv-x="602" 
d="M284 255q-18 0 -35 -5t-30.5 -14.5t-22 -25t-8.5 -36.5q0 -40 28.5 -60.5t68.5 -20.5t68 20.5t28 60.5q0 38 -27 59.5t-70 21.5zM88 562q40 15 85 23.5t102 8.5q81 0 133 -17t81.5 -50t41 -82t11.5 -113v-271q0 -11 2.5 -26.5t10.5 -34.5h-152q-5 10 -7.5 24t-3.5 24v1
q-39 -31 -84.5 -48t-85.5 -17q-41 0 -76.5 12t-61 36t-40 60t-14.5 84q0 37 13 70.5t37.5 58.5t60 40t81.5 15q54 0 95.5 -15t68.5 -39v72q0 14 -5 30.5t-18.5 30.5t-38.5 23.5t-64 9.5q-24 0 -64 -7.5t-108 -29.5v127v0zM295 783l94 -115l-70 -13l-145 106z" />
    <glyph glyph-name="aacute" unicode="&#xe1;" horiz-adv-x="602" 
d="M284 255q-18 0 -35 -5t-30.5 -14.5t-22 -25t-8.5 -36.5q0 -40 28.5 -60.5t68.5 -20.5t68 20.5t28 60.5q0 38 -27 59.5t-70 21.5zM88 562q40 15 85 23.5t102 8.5q81 0 133 -17t81.5 -50t41 -82t11.5 -113v-271q0 -11 2.5 -26.5t10.5 -34.5h-152q-5 10 -7.5 24t-3.5 24v1
q-39 -31 -84.5 -48t-85.5 -17q-41 0 -76.5 12t-61 36t-40 60t-14.5 84q0 37 13 70.5t37.5 58.5t60 40t81.5 15q54 0 95.5 -15t68.5 -39v72q0 14 -5 30.5t-18.5 30.5t-38.5 23.5t-64 9.5q-24 0 -64 -7.5t-108 -29.5v127v0zM305 784l124 -27l-147 -102l-71 13z" />
    <glyph glyph-name="acircumflex" unicode="&#xe2;" horiz-adv-x="602" 
d="M284 255q-18 0 -35 -5t-30.5 -14.5t-22 -25t-8.5 -36.5q0 -40 28.5 -60.5t68.5 -20.5t68 20.5t28 60.5q0 38 -27 59.5t-70 21.5zM88 562q40 15 85 23.5t102 8.5q81 0 133 -17t81.5 -50t41 -82t11.5 -113v-271q0 -11 2.5 -26.5t10.5 -34.5h-152q-5 10 -7.5 24t-3.5 24v1
q-39 -31 -84.5 -48t-85.5 -17q-41 0 -76.5 12t-61 36t-40 60t-14.5 84q0 37 13 70.5t37.5 58.5t60 40t81.5 15q54 0 95.5 -15t68.5 -39v72q0 14 -5 30.5t-18.5 30.5t-38.5 23.5t-64 9.5q-24 0 -64 -7.5t-108 -29.5v127v0zM372 783l79 -128h-84l-64 55l-66 -55h-84l81 128
h138z" />
    <glyph glyph-name="atilde" unicode="&#xe3;" horiz-adv-x="602" 
d="M284 255q-18 0 -35 -5t-30.5 -14.5t-22 -25t-8.5 -36.5q0 -40 28.5 -60.5t68.5 -20.5t68 20.5t28 60.5q0 38 -27 59.5t-70 21.5zM88 562q40 15 85 23.5t102 8.5q81 0 133 -17t81.5 -50t41 -82t11.5 -113v-271q0 -11 2.5 -26.5t10.5 -34.5h-152q-5 10 -7.5 24t-3.5 24v1
q-39 -31 -84.5 -48t-85.5 -17q-41 0 -76.5 12t-61 36t-40 60t-14.5 84q0 37 13 70.5t37.5 58.5t60 40t81.5 15q54 0 95.5 -15t68.5 -39v72q0 14 -5 30.5t-18.5 30.5t-38.5 23.5t-64 9.5q-24 0 -64 -7.5t-108 -29.5v127v0zM150 657q0 57 24 90t69 33q19 0 37 -5.5t33.5 -11.5
t27.5 -11.5t20 -5.5q11 0 17.5 8t6.5 22v3h68v-12q0 -54 -20 -82.5t-62 -28.5q-17 0 -36 5.5t-36.5 12t-33 12t-24.5 5.5q-17 0 -20.5 -10t-3.5 -24h-67v0z" />
    <glyph glyph-name="adieresis" unicode="&#xe4;" horiz-adv-x="602" 
d="M284 255q-18 0 -35 -5t-30.5 -14.5t-22 -25t-8.5 -36.5q0 -40 28.5 -60.5t68.5 -20.5t68 20.5t28 60.5q0 38 -27 59.5t-70 21.5zM88 562q40 15 85 23.5t102 8.5q81 0 133 -17t81.5 -50t41 -82t11.5 -113v-271q0 -11 2.5 -26.5t10.5 -34.5h-152q-5 10 -7.5 24t-3.5 24v1
q-39 -31 -84.5 -48t-85.5 -17q-41 0 -76.5 12t-61 36t-40 60t-14.5 84q0 37 13 70.5t37.5 58.5t60 40t81.5 15q54 0 95.5 -15t68.5 -39v72q0 14 -5 30.5t-18.5 30.5t-38.5 23.5t-64 9.5q-24 0 -64 -7.5t-108 -29.5v127v0zM330 719q0 24 17 41t41 17t41 -17t17 -41t-17 -40.5
t-41 -16.5t-41 16.5t-17 40.5zM157 720q0 24 17 40.5t41 16.5t41 -16.5t17 -40.5q0 -25 -17 -41.5t-41 -16.5t-41 16.5t-17 41.5z" />
    <glyph glyph-name="aring" unicode="&#xe5;" horiz-adv-x="602" 
d="M284 255q-18 0 -35 -5t-30.5 -14.5t-22 -25t-8.5 -36.5q0 -40 28.5 -60.5t68.5 -20.5t68 20.5t28 60.5q0 38 -27 59.5t-70 21.5zM88 562q40 15 85 23.5t102 8.5q81 0 133 -17t81.5 -50t41 -82t11.5 -113v-271q0 -11 2.5 -26.5t10.5 -34.5h-152q-5 10 -7.5 24t-3.5 24v1
q-39 -31 -84.5 -48t-85.5 -17q-41 0 -76.5 12t-61 36t-40 60t-14.5 84q0 37 13 70.5t37.5 58.5t60 40t81.5 15q54 0 95.5 -15t68.5 -39v72q0 14 -5 30.5t-18.5 30.5t-38.5 23.5t-64 9.5q-24 0 -64 -7.5t-108 -29.5v127v0zM301 812q-20 0 -35 -14t-15 -36q0 -20 15 -34.5
t35 -14.5q21 0 35.5 14.5t14.5 34.5t-14 35t-36 15zM194 763q0 22 8.5 41.5t23 34t34 23t42.5 8.5q22 0 41.5 -8.5t34 -23t23 -34t8.5 -41.5q0 -23 -8.5 -42.5t-23 -34t-34 -23t-41.5 -8.5q-23 0 -42.5 8.5t-34 23t-23 34t-8.5 42.5z" />
    <glyph glyph-name="ae" unicode="&#xe6;" horiz-adv-x="860" 
d="M271 254q-15 0 -30.5 -4t-27.5 -13t-20 -23t-8 -35q0 -32 21.5 -56t65.5 -24q23 0 40 7t27.5 18.5t15.5 25t5 25.5q0 42 -23.5 60.5t-65.5 18.5zM689 337q0 31 -5.5 58.5t-17 47.5t-29 31.5t-42.5 11.5q-27 0 -44 -14.5t-27 -36.5t-13.5 -48.5t-3.5 -49.5h182zM90 563
q19 6 42.5 11.5t47 10t46 7t40.5 2.5q61 0 100.5 -18.5t65.5 -50.5q35 38 71 53.5t87 15.5q64 0 111 -25.5t77.5 -72t45 -110.5t14.5 -140h-330q1 -31 6 -57t16 -45t29 -30t47 -11t55.5 16.5t49.5 46.5l113 -63q-50 -65 -106.5 -92t-122.5 -27q-54 0 -102 22t-82 70
q-54 -55 -104 -73.5t-91 -18.5q-37 0 -70.5 14t-59 39t-41 60.5t-15.5 78.5q0 37 13 69.5t37.5 57.5t58.5 39.5t76 14.5q56 0 87 -11.5t52 -27.5v54q0 39 -29.5 69.5t-88.5 30.5q-46 0 -77.5 -9.5t-68.5 -26.5v127v0z" />
    <glyph glyph-name="ccedilla" unicode="&#xe7;" horiz-adv-x="517" 
d="M30 278q0 84 25 144t65.5 98.5t91.5 56t102 17.5q52 0 95.5 -12.5t85.5 -41.5v-148l-34.5 23t-34.5 19.5t-39 13t-48 4.5q-33 0 -61 -12.5t-48.5 -34t-32.5 -49.5t-12 -59q0 -36 12 -67.5t33 -54.5t49 -36t60 -13q39 0 79.5 17t76.5 43v-149q-20 -12 -34.5 -19t-28 -12
t-28 -9t-34.5 -10q5 -11 6.5 -18.5t1.5 -12.5q0 -26 -26.5 -40.5t-81.5 -14.5q-17 0 -36 1.5t-37 3.5t-34 5t-25 5l18 40q18 -2 30.5 -3.5t21 -2.5t15 -1h12.5q21 0 29 4t8 18l-1 15q-43 4 -86 26t-77.5 59.5t-56 89.5t-21.5 117z" />
    <glyph glyph-name="egrave" unicode="&#xe8;" horiz-adv-x="552" 
d="M286 486q-29 0 -47.5 -13.5t-29 -35t-15 -49t-5.5 -54.5h191q0 85 -24 118.5t-70 33.5zM30 275q0 162 70.5 240.5t191.5 78.5q63 0 108 -26t74 -72.5t42.5 -111t13.5 -141.5h-343v-12q0 -41 12 -67t28.5 -40.5t34 -20t28.5 -5.5q40 0 64.5 20t45.5 43l113 -61
q-21 -31 -48.5 -53t-58 -36t-63 -20.5t-63.5 -6.5q-49 0 -94.5 18t-80 54.5t-55 91t-20.5 127.5zM270 783l94 -115l-70 -13l-145 106z" />
    <glyph glyph-name="eacute" unicode="&#xe9;" horiz-adv-x="552" 
d="M286 486q-29 0 -47.5 -13.5t-29 -35t-15 -49t-5.5 -54.5h191q0 85 -24 118.5t-70 33.5zM30 275q0 162 70.5 240.5t191.5 78.5q63 0 108 -26t74 -72.5t42.5 -111t13.5 -141.5h-343v-12q0 -41 12 -67t28.5 -40.5t34 -20t28.5 -5.5q40 0 64.5 20t45.5 43l113 -61
q-21 -31 -48.5 -53t-58 -36t-63 -20.5t-63.5 -6.5q-49 0 -94.5 18t-80 54.5t-55 91t-20.5 127.5zM280 784l124 -27l-147 -102l-71 13z" />
    <glyph glyph-name="ecircumflex" unicode="&#xea;" horiz-adv-x="552" 
d="M286 486q-29 0 -47.5 -13.5t-29 -35t-15 -49t-5.5 -54.5h191q0 85 -24 118.5t-70 33.5zM30 275q0 162 70.5 240.5t191.5 78.5q63 0 108 -26t74 -72.5t42.5 -111t13.5 -141.5h-343v-12q0 -41 12 -67t28.5 -40.5t34 -20t28.5 -5.5q40 0 64.5 20t45.5 43l113 -61
q-21 -31 -48.5 -53t-58 -36t-63 -20.5t-63.5 -6.5q-49 0 -94.5 18t-80 54.5t-55 91t-20.5 127.5zM347 783l79 -128h-84l-64 55l-66 -55h-84l81 128h138z" />
    <glyph glyph-name="edieresis" unicode="&#xeb;" horiz-adv-x="552" 
d="M286 486q-29 0 -47.5 -13.5t-29 -35t-15 -49t-5.5 -54.5h191q0 85 -24 118.5t-70 33.5zM30 275q0 162 70.5 240.5t191.5 78.5q63 0 108 -26t74 -72.5t42.5 -111t13.5 -141.5h-343v-12q0 -41 12 -67t28.5 -40.5t34 -20t28.5 -5.5q40 0 64.5 20t45.5 43l113 -61
q-21 -31 -48.5 -53t-58 -36t-63 -20.5t-63.5 -6.5q-49 0 -94.5 18t-80 54.5t-55 91t-20.5 127.5zM305 719q0 24 17 41t41 17t41 -17t17 -41t-17 -40.5t-41 -16.5t-41 16.5t-17 40.5zM132 720q0 24 17 40.5t41 16.5t41 -16.5t17 -40.5q0 -25 -17 -41.5t-41 -16.5t-41 16.5
t-17 41.5z" />
    <glyph glyph-name="igrave" unicode="&#xec;" horiz-adv-x="298" 
d="M228 536v-536h-158v536h158zM143 783l94 -115l-70 -13l-145 106z" />
    <glyph glyph-name="iacute" unicode="&#xed;" horiz-adv-x="298" 
d="M228 536v-536h-158v536h158zM153 784l124 -27l-147 -102l-71 13z" />
    <glyph glyph-name="icircumflex" unicode="&#xee;" horiz-adv-x="298" 
d="M228 536v-536h-158v536h158zM220 783l79 -128h-84l-64 55l-66 -55h-84l81 128h138z" />
    <glyph glyph-name="idieresis" unicode="&#xef;" horiz-adv-x="298" 
d="M228 536v-536h-158v536h158zM178 719q0 24 17 41t41 17t41 -17t17 -41t-17 -40.5t-41 -16.5t-41 16.5t-17 40.5zM5 720q0 24 17 40.5t41 16.5t41 -16.5t17 -40.5q0 -25 -17 -41.5t-41 -16.5t-41 16.5t-17 41.5z" />
    <glyph glyph-name="eth" unicode="&#xf0;" horiz-adv-x="574" 
d="M280 466q-30 0 -48 -15t-27 -40.5t-12 -58.5t-3 -70q0 -32 3.5 -62.5t13.5 -54.5t28 -38.5t48 -14.5q28 0 45.5 14t27 38.5t13 57t3.5 70.5q0 85 -20.5 129.5t-71.5 44.5zM284 822q17 -12 26.5 -20.5t26.5 -22.5l88 43l22 -48l-70 -33q84 -81 125.5 -175.5t41.5 -215.5
q0 -82 -14.5 -149.5t-45.5 -115.5t-80.5 -74.5t-119.5 -26.5q-49 0 -94.5 15.5t-81 51.5t-57 94.5t-21.5 144.5q0 92 25.5 151t62 93t76.5 47t68 13q36 0 60.5 -7t50.5 -31q-17 42 -46 82.5t-55 66.5l-135 -66l-20 47l116 52q-30 28 -56.5 45.5t-59.5 38.5h167z" />
    <glyph glyph-name="ntilde" unicode="&#xf1;" horiz-adv-x="617" 
d="M223 506q29 36 73.5 62t98.5 26q36 0 66 -12t51 -34t33 -52.5t12 -67.5v-428h-158v375q0 30 -16.5 55t-54.5 25q-29 0 -48.5 -11.5t-32.5 -29.5t-18.5 -40t-5.5 -42v-332h-158v578h158v-72v0zM157 657q0 57 24 90t69 33q19 0 37 -5.5t33.5 -11.5t27.5 -11.5t20 -5.5
q11 0 17.5 8t6.5 22v3h68v-12q0 -54 -20 -82.5t-62 -28.5q-17 0 -36 5.5t-36.5 12t-33 12t-24.5 5.5q-17 0 -20.5 -10t-3.5 -24h-67v0z" />
    <glyph glyph-name="ograve" unicode="&#xf2;" horiz-adv-x="594" 
d="M296 466q-32 0 -52.5 -14t-32 -38t-16 -55.5t-4.5 -66.5q0 -52 7 -86.5t20.5 -55.5t33.5 -29.5t45 -8.5t44.5 9t33 30t21 55.5t7.5 85.5q0 96 -26.5 135t-80.5 39zM30 290q0 75 19.5 132t54.5 95t84 57.5t109 19.5t109.5 -19.5t84.5 -58t54 -95t19 -131.5
q0 -67 -16 -123.5t-49 -97t-83 -63t-119 -22.5q-67 0 -117 22.5t-83.5 63t-50 96.5t-16.5 124zM291 783l94 -115l-70 -13l-145 106z" />
    <glyph glyph-name="oacute" unicode="&#xf3;" horiz-adv-x="594" 
d="M296 466q-32 0 -52.5 -14t-32 -38t-16 -55.5t-4.5 -66.5q0 -52 7 -86.5t20.5 -55.5t33.5 -29.5t45 -8.5t44.5 9t33 30t21 55.5t7.5 85.5q0 96 -26.5 135t-80.5 39zM30 290q0 75 19.5 132t54.5 95t84 57.5t109 19.5t109.5 -19.5t84.5 -58t54 -95t19 -131.5
q0 -67 -16 -123.5t-49 -97t-83 -63t-119 -22.5q-67 0 -117 22.5t-83.5 63t-50 96.5t-16.5 124zM301 784l124 -27l-147 -102l-71 13z" />
    <glyph glyph-name="ocircumflex" unicode="&#xf4;" horiz-adv-x="594" 
d="M296 466q-32 0 -52.5 -14t-32 -38t-16 -55.5t-4.5 -66.5q0 -52 7 -86.5t20.5 -55.5t33.5 -29.5t45 -8.5t44.5 9t33 30t21 55.5t7.5 85.5q0 96 -26.5 135t-80.5 39zM30 290q0 75 19.5 132t54.5 95t84 57.5t109 19.5t109.5 -19.5t84.5 -58t54 -95t19 -131.5
q0 -67 -16 -123.5t-49 -97t-83 -63t-119 -22.5q-67 0 -117 22.5t-83.5 63t-50 96.5t-16.5 124zM368 783l79 -128h-84l-64 55l-66 -55h-84l81 128h138z" />
    <glyph glyph-name="otilde" unicode="&#xf5;" horiz-adv-x="594" 
d="M296 466q-32 0 -52.5 -14t-32 -38t-16 -55.5t-4.5 -66.5q0 -52 7 -86.5t20.5 -55.5t33.5 -29.5t45 -8.5t44.5 9t33 30t21 55.5t7.5 85.5q0 96 -26.5 135t-80.5 39zM30 290q0 75 19.5 132t54.5 95t84 57.5t109 19.5t109.5 -19.5t84.5 -58t54 -95t19 -131.5
q0 -67 -16 -123.5t-49 -97t-83 -63t-119 -22.5q-67 0 -117 22.5t-83.5 63t-50 96.5t-16.5 124zM146 657q0 57 24 90t69 33q19 0 37 -5.5t33.5 -11.5t27.5 -11.5t20 -5.5q11 0 17.5 8t6.5 22v3h68v-12q0 -54 -20 -82.5t-62 -28.5q-17 0 -36 5.5t-36.5 12t-33 12t-24.5 5.5
q-17 0 -20.5 -10t-3.5 -24h-67v0z" />
    <glyph glyph-name="odieresis" unicode="&#xf6;" horiz-adv-x="594" 
d="M296 466q-32 0 -52.5 -14t-32 -38t-16 -55.5t-4.5 -66.5q0 -52 7 -86.5t20.5 -55.5t33.5 -29.5t45 -8.5t44.5 9t33 30t21 55.5t7.5 85.5q0 96 -26.5 135t-80.5 39zM30 290q0 75 19.5 132t54.5 95t84 57.5t109 19.5t109.5 -19.5t84.5 -58t54 -95t19 -131.5
q0 -67 -16 -123.5t-49 -97t-83 -63t-119 -22.5q-67 0 -117 22.5t-83.5 63t-50 96.5t-16.5 124zM326 719q0 24 17 41t41 17t41 -17t17 -41t-17 -40.5t-41 -16.5t-41 16.5t-17 40.5zM153 720q0 24 17 40.5t41 16.5t41 -16.5t17 -40.5q0 -25 -17 -41.5t-41 -16.5t-41 16.5
t-17 41.5z" />
    <glyph glyph-name="divide" unicode="&#xf7;" horiz-adv-x="667" 
d="M262 128q0 31 21 51.5t50 20.5t50.5 -20.5t21.5 -51.5q0 -29 -21.5 -50t-50.5 -21t-50 20.5t-21 50.5zM608 390v-114h-549v114h549zM262 537q0 31 21 51t50 20t50.5 -20t21.5 -51q0 -30 -21.5 -50.5t-50.5 -20.5t-50 20.5t-21 50.5z" />
    <glyph glyph-name="oslash" unicode="&#xf8;" horiz-adv-x="594" 
d="M403 288q0 20 -1.5 44.5t-4.5 39.5l-163 -238q22 -22 64 -22q27 0 46.5 8.5t32.5 29t19.5 54.5t6.5 84zM297 466q-32 0 -52.5 -13.5t-32.5 -37.5t-16.5 -58t-4.5 -75q0 -21 2.5 -43t7.5 -42l164 244q-16 14 -30.5 19.5t-37.5 5.5zM483 611l53 -36l-42 -62q24 -24 47 -79
t23 -143q0 -64 -15 -120t-47.5 -97.5t-83.5 -65.5t-122 -24q-38 0 -73.5 10t-68.5 27l-33 -52l-53 33l39 56q-34 35 -55.5 96t-21.5 137q0 70 19 126t54 95.5t85 60.5t113 21q42 0 78 -10.5t65 -28.5z" />
    <glyph glyph-name="ugrave" unicode="&#xf9;" horiz-adv-x="612" 
d="M218 578v-362q0 -52 21.5 -79.5t63.5 -27.5q48 0 69.5 27.5t21.5 82.5v359h158v-367q0 -51 -10.5 -92.5t-38 -71.5t-76 -46.5t-124.5 -16.5q-71 0 -118 15t-74.5 44t-39 71.5t-11.5 97.5v366h158zM300 783l94 -115l-70 -13l-145 106z" />
    <glyph glyph-name="uacute" unicode="&#xfa;" horiz-adv-x="612" 
d="M218 578v-362q0 -52 21.5 -79.5t63.5 -27.5q48 0 69.5 27.5t21.5 82.5v359h158v-367q0 -51 -10.5 -92.5t-38 -71.5t-76 -46.5t-124.5 -16.5q-71 0 -118 15t-74.5 44t-39 71.5t-11.5 97.5v366h158zM310 784l124 -27l-147 -102l-71 13z" />
    <glyph glyph-name="ucircumflex" unicode="&#xfb;" horiz-adv-x="612" 
d="M218 578v-362q0 -52 21.5 -79.5t63.5 -27.5q48 0 69.5 27.5t21.5 82.5v359h158v-367q0 -51 -10.5 -92.5t-38 -71.5t-76 -46.5t-124.5 -16.5q-71 0 -118 15t-74.5 44t-39 71.5t-11.5 97.5v366h158zM377 783l79 -128h-84l-64 55l-66 -55h-84l81 128h138z" />
    <glyph glyph-name="udieresis" unicode="&#xfc;" horiz-adv-x="612" 
d="M218 578v-362q0 -52 21.5 -79.5t63.5 -27.5q48 0 69.5 27.5t21.5 82.5v359h158v-367q0 -51 -10.5 -92.5t-38 -71.5t-76 -46.5t-124.5 -16.5q-71 0 -118 15t-74.5 44t-39 71.5t-11.5 97.5v366h158zM335 719q0 24 17 41t41 17t41 -17t17 -41t-17 -40.5t-41 -16.5t-41 16.5
t-17 40.5zM162 720q0 24 17 40.5t41 16.5t41 -16.5t17 -40.5q0 -25 -17 -41.5t-41 -16.5t-41 16.5t-17 41.5z" />
    <glyph glyph-name="yacute" unicode="&#xfd;" horiz-adv-x="565" 
d="M169 578l105 -329l119 329h160l-294 -670h-163l94 202l2 6l-180 462h157zM286 784l124 -27l-147 -102l-71 13z" />
    <glyph glyph-name="thorn" unicode="&#xfe;" horiz-adv-x="614" 
d="M323 452q-17 0 -34.5 -7t-32 -22t-24 -38t-9.5 -55q0 -26 5 -50.5t17 -44t31.5 -31.5t47.5 -12q17 0 34.5 6.5t32 21.5t23.5 39t9 58q0 60 -27.5 97.5t-72.5 37.5zM223 766v-281q14 24 29.5 44t35 34.5t43.5 22.5t55 8q33 0 68.5 -14.5t64 -47.5t47 -86.5t18.5 -131.5
q0 -59 -13.5 -107.5t-39.5 -83t-63 -54t-85 -19.5q-47 0 -87.5 25t-72.5 85v-252h-158v858h158z" />
    <glyph glyph-name="ydieresis" unicode="&#xff;" horiz-adv-x="565" 
d="M169 578l105 -329l119 329h160l-294 -670h-163l94 202l2 6l-180 462h157zM311 719q0 24 17 41t41 17t41 -17t17 -41t-17 -40.5t-41 -16.5t-41 16.5t-17 40.5zM138 720q0 24 17 40.5t41 16.5t41 -16.5t17 -40.5q0 -25 -17 -41.5t-41 -16.5t-41 16.5t-17 41.5z" />
    <glyph glyph-name="dotlessi" unicode="&#x131;" horiz-adv-x="298" 
d="M228 536v-536h-158v536h158z" />
    <glyph glyph-name="Lslash" unicode="&#x141;" horiz-adv-x="647" 
d="M246 738v-247l174 174v-124l-174 -174v-224h371v-143h-547v192l-70 -70v124l70 70v422h176z" />
    <glyph glyph-name="lslash" unicode="&#x142;" horiz-adv-x="298" 
d="M228 768v-230l51 62v-107l-51 -62v-431h-158v239l-62 -73v106l62 73v423h158z" />
    <glyph glyph-name="OE" unicode="&#x152;" horiz-adv-x="988" 
d="M381 607q-39 0 -71.5 -16.5t-55.5 -48t-35.5 -76.5t-12.5 -102q0 -32 7 -73t27 -77t55.5 -60.5t91.5 -24.5q12 0 28 1t24 8v460q-16 5 -29.5 7t-28.5 2zM35 371q0 91 26 162.5t72 121t110 75.5t141 26q25 0 46.5 -3t40.5 -6.5t37 -6.5t37 -3h403v-143h-333v-143h301v-143
h-301v-166h333v-142h-381q-27 0 -50.5 -3t-45.5 -7t-43 -7t-43 -3q-81 0 -146 27.5t-110.5 78t-69.5 123t-24 162.5z" />
    <glyph glyph-name="oe" unicode="&#x153;" horiz-adv-x="866" 
d="M273 466q-30 0 -47.5 -19.5t-25.5 -47.5t-10 -58t-2 -51q0 -50 7 -84t19 -55t27.5 -30t32.5 -9q19 0 34.5 6t26 25t16 54t5.5 93q0 56 -6 90.5t-16.5 53.5t-26 25.5t-34.5 6.5zM690 337q0 67 -22 108t-72 41q-27 0 -44 -15.5t-27 -38.5t-14 -48.5t-3 -46.5h182zM30 290
q0 89 24 148t60.5 93.5t79.5 48.5t81 14q53 0 92 -16t71 -48q12 15 30 26.5t39.5 20t44.5 13t46 4.5q48 0 92 -18t77.5 -59.5t53.5 -108t20 -162.5h-330q4 -74 27.5 -109t64.5 -35q38 0 64.5 20.5t46.5 43.5l113 -63q-41 -53 -101.5 -86t-126.5 -33q-53 0 -90.5 16t-69.5 48
q-40 -35 -77 -49.5t-86 -14.5q-51 0 -96 17t-78 54t-52.5 95t-19.5 140z" />
    <glyph glyph-name="Scaron" unicode="&#x160;" horiz-adv-x="556" 
d="M50 547q0 47 18.5 86t51 66.5t75.5 42.5t91 15q31 0 57.5 -4.5t52 -14t52 -25t56.5 -37.5l-85 -106q-42 31 -74 42t-56 11q-45 0 -68.5 -19t-23.5 -50t24.5 -50t61 -35t79 -33.5t79 -45t61 -70t24.5 -107.5q0 -51 -18.5 -93.5t-51.5 -73t-78.5 -48t-100.5 -17.5
q-38 0 -69.5 6t-60 18.5t-57 31t-59.5 43.5h-1l90 113q56 -45 92.5 -57.5t56.5 -12.5q18 0 36.5 4.5t33 14.5t23.5 25t9 36q0 33 -24 53.5t-59.5 37.5t-77 34.5t-77 44.5t-59.5 68t-24 106zM211 944l67 -57l65 57h86l-83 -129h-138l-80 129h83z" />
    <glyph glyph-name="scaron" unicode="&#x161;" horiz-adv-x="500" 
d="M39 413q0 40 16 73.5t44.5 57.5t68 37t86.5 13q75 0 125 -30.5t75 -81.5l-114 -52q-25 23 -45.5 32.5t-50.5 9.5q-32 0 -47.5 -14.5t-15.5 -30.5q0 -15 10 -25t27.5 -18t40 -15.5t46.5 -17.5q28 -11 58 -24.5t55 -34.5t40.5 -51.5t15.5 -75.5q0 -33 -11 -65t-37 -58
t-70 -42t-111 -16q-72 0 -128 27.5t-92 91.5l117 51q24 -22 48.5 -33.5t59.5 -11.5q32 0 54.5 11t22.5 37q0 17 -10 28t-26.5 19t-37.5 14.5t-44 14.5q-30 10 -60.5 24.5t-54.5 35.5t-39.5 50.5t-15.5 69.5zM183 784l67 -57l65 57h86l-83 -129h-138l-80 129h83z" />
    <glyph glyph-name="Ydieresis" unicode="&#x178;" horiz-adv-x="725" 
d="M205 738l156 -273l158 273h193l-262 -405v-333h-176v328l-261 410h192zM391 879q0 24 17 41t41 17t41 -17t17 -41t-17 -40.5t-41 -16.5t-41 16.5t-17 40.5zM218 880q0 24 17 40.5t41 16.5t41 -16.5t17 -40.5q0 -25 -17 -41.5t-41 -16.5t-41 16.5t-17 41.5z" />
    <glyph glyph-name="Zcaron" unicode="&#x17d;" horiz-adv-x="667" 
d="M651 738l-354 -595h327v-143h-601l353 595h-326v143h601zM266 944l67 -57l65 57h86l-83 -129h-138l-80 129h83z" />
    <glyph glyph-name="zcaron" unicode="&#x17e;" horiz-adv-x="496" 
d="M474 578l-230 -451h212v-127h-434l226 451h-203v127h429zM181 784l67 -57l65 57h86l-83 -129h-138l-80 129h83z" />
    <glyph glyph-name="florin" unicode="&#x192;" horiz-adv-x="556" 
d="M212 518q8 42 14 80t21.5 67t46.5 46t90 17q71 0 134 -20l-26 -110q-27 8 -45.5 10.5t-31.5 2.5q-21 0 -32.5 -7t-17 -19t-8.5 -29t-8 -38h102l-18 -103h-101l-84 -476q-6 -32 -14.5 -59.5t-25.5 -47.5t-46 -31t-75 -11q-13 0 -30 1t-35.5 3.5t-36.5 6t-34 8.5l28 108
q17 -4 38.5 -7.5t43.5 -3.5q17 0 27 4.5t16 14.5t9.5 25.5t7.5 37.5l73 427h-99l18 103h99v0z" />
    <glyph glyph-name="circumflex" unicode="&#x2c6;" 
d="M237 783l79 -128h-84l-64 55l-66 -55h-84l81 128h138z" />
    <glyph glyph-name="caron" unicode="&#x2c7;" 
d="M99 784l67 -57l65 57h86l-83 -129h-138l-80 129h83z" />
    <glyph glyph-name="macron.001" unicode="&#x2c9;" 
d="M320 746v-91h-307v91h307z" />
    <glyph glyph-name="breve" unicode="&#x2d8;" 
d="M89 783q8 -29 31.5 -39.5t48.5 -10.5q21 0 44 10.5t30 39.5h73q-8 -65 -44 -96.5t-104 -31.5q-136 0 -150 128h71z" />
    <glyph glyph-name="dotaccent" unicode="&#x2d9;" 
d="M109 719q0 24 17 41t41 17t41 -17t17 -41t-17 -40.5t-41 -16.5t-41 16.5t-17 40.5z" />
    <glyph glyph-name="ring" unicode="&#x2da;" 
d="M166 812q-20 0 -35 -14t-15 -36q0 -20 15 -34.5t35 -14.5q21 0 35.5 14.5t14.5 34.5t-14 35t-36 15zM59 763q0 22 8.5 41.5t23 34t34 23t42.5 8.5q22 0 41.5 -8.5t34 -23t23 -34t8.5 -41.5q0 -23 -8.5 -42.5t-23 -34t-34 -23t-41.5 -8.5q-23 0 -42.5 8.5t-34 23t-23 34
t-8.5 42.5z" />
    <glyph glyph-name="ogonek" unicode="&#x2db;" 
d="M177 20q-9 -10 -13 -19t-4 -16q0 -22 35 -22q10 0 18 0.5t15.5 2t15.5 4t19 6.5l18 -40q-10 -6 -25 -10t-31.5 -6.5t-33.5 -3.5t-32 -1q-14 0 -32 1.5t-34.5 7.5t-27.5 17t-11 30q0 17 8.5 30t18.5 19h96z" />
    <glyph glyph-name="tilde" unicode="&#x2dc;" 
d="M15 657q0 57 24 90t69 33q19 0 37 -5.5t33.5 -11.5t27.5 -11.5t20 -5.5q11 0 17.5 8t6.5 22v3h68v-12q0 -54 -20 -82.5t-62 -28.5q-17 0 -36 5.5t-36.5 12t-33 12t-24.5 5.5q-17 0 -20.5 -10t-3.5 -24h-67v0z" />
    <glyph glyph-name="hungarumlaut" unicode="&#x2dd;" 
d="M231 784l124 -27l-147 -102l-71 13zM35 784l124 -27l-147 -102l-71 13z" />
    <glyph glyph-name="semicolon.001" unicode="&#x37e;" 
d="M277 241l-141 -329h-118l108 329h151zM82 424q0 41 28.5 69.5t69.5 28.5q42 0 70.5 -28.5t28.5 -69.5q0 -20 -7.5 -38t-21 -31.5t-31.5 -21.5t-39 -8q-20 0 -38 8t-31.5 21.5t-21 31.5t-7.5 38z" />
    <glyph glyph-name="Delta.001" unicode="&#x394;" horiz-adv-x="559" 
d="M304 583q-3 -15 -5 -24t-4 -18.5t-5 -22t-8.5 -34t-14 -54.5t-21.5 -83l-59 -227h241q-32 125 -58.5 225.5t-46.5 172.5q-5 23 -9 38.5t-6 26.5h-4zM423 700l181 -639v-61h-584v61l185 639h218z" />
    <glyph glyph-name="uni03A9" unicode="&#x3a9;" horiz-adv-x="670" 
d="M35 400q0 67 21.5 124.5t60.5 99t93.5 65t120.5 23.5q67 0 119.5 -23t88.5 -64.5t54.5 -98t18.5 -123.5q0 -86 -31 -154t-99 -130h127v-119h-243v119q44 54 64.5 114.5t20.5 134.5q0 97 -32 155.5t-93 58.5q-32 0 -56.5 -16t-41 -44.5t-25 -68.5t-8.5 -89q0 -81 23 -141
t64 -104v-119h-244v119h128q-68 62 -99.5 128.5t-31.5 152.5z" />
    <glyph glyph-name="uni03BC" unicode="&#x3bc;" horiz-adv-x="611" 
d="M218 578v-364q0 -104 83 -104q43 0 68 32t25 84v352h158v-578h-158v61q-6 -12 -13.5 -25t-18 -23.5t-25 -17.5t-36.5 -7q-38 0 -58.5 21.5t-35.5 53.5v-262h-147v777h158z" />
    <glyph glyph-name="pi" unicode="&#x3c0;" horiz-adv-x="627" 
d="M635 500v-90h-91v-254q0 -75 48 -75q12 0 29 9l21 -78q-11 -8 -34 -14.5t-52 -6.5q-65 0 -100 38.5t-35 110.5v270h-154v-274q0 -36 -3.5 -70t-11.5 -66h-124q8 33 12 68.5t4 73.5v268q-18 0 -42.5 -6t-42.5 -17l-33 77q17 10 37.5 17t41.5 11t40 6t33 2h457z" />
    <glyph glyph-name="endash" unicode="&#x2013;" horiz-adv-x="500" 
d="M506 313v-122h-512v122h512z" />
    <glyph glyph-name="emdash" unicode="&#x2014;" horiz-adv-x="1000" 
d="M1006 314v-122h-1012v122h1012z" />
    <glyph glyph-name="quoteleft" unicode="&#x2018;" 
d="M191 766l106 -330h-119l-140 330h153z" />
    <glyph glyph-name="quoteright" unicode="&#x2019;" 
d="M295 766l-140 -330h-119l106 330h153z" />
    <glyph glyph-name="quotesinglbase" unicode="&#x201a;" 
d="M300 241l-140 -331h-121l107 331h154z" />
    <glyph glyph-name="quotedblleft" unicode="&#x201c;" horiz-adv-x="531" 
d="M404 766l106 -330h-119l-140 330h153zM176 766l106 -330h-119l-140 330h153z" />
    <glyph glyph-name="quotedblright" unicode="&#x201d;" horiz-adv-x="531" 
d="M508 766l-140 -330h-119l106 330h153zM280 766l-140 -330h-119l106 330h153z" />
    <glyph glyph-name="quotedblbase" unicode="&#x201e;" horiz-adv-x="531" 
d="M508 241l-140 -330h-119l106 330h153zM280 241l-140 -330h-119l106 330h153z" />
    <glyph glyph-name="dagger" unicode="&#x2020;" horiz-adv-x="625" 
d="M229 693q0 39 24.5 62t63.5 23q35 0 59 -22.5t24 -60.5q0 -19 -7.5 -38.5t-17 -38.5t-18 -37.5t-11.5 -36.5q15 -1 34 6.5t39.5 16.5t41.5 16.5t41 7.5q30 0 54 -21t24 -61q0 -12 -5 -25.5t-15 -25t-24.5 -19t-33.5 -7.5q-21 0 -41 7t-38.5 16t-37.5 16.5t-38 8.5h-1
q1 -17 9 -35.5t17 -39t16.5 -42t7.5 -45.5q0 -29 -8 -69l-18.5 -92.5t-20 -119t-11.5 -150.5h-63q1 84 -6.5 150.5t-17.5 119t-18 90.5t-8 65q0 25 7 46.5t16.5 41.5t18.5 40t13 41h-4q-18 0 -36.5 -7.5t-37.5 -16t-37.5 -16t-37.5 -7.5q-35 0 -58.5 21t-23.5 59
q0 34 21.5 57t54.5 23q20 0 41 -7.5t41.5 -17t39 -17t33.5 -7.5h3q1 15 -7 32t-17.5 36t-17.5 39t-8 41z" />
    <glyph glyph-name="daggerdbl" unicode="&#x2021;" horiz-adv-x="625" 
d="M229 695q0 18 7.5 33.5t19.5 26.5t27.5 17t31.5 6q35 0 60 -23t25 -61q0 -19 -7.5 -38.5t-17.5 -38.5t-18.5 -37.5t-11.5 -36.5q15 -1 34 6.5t40.5 16.5t43 17t40.5 8q12 0 25.5 -4.5t25 -14t18.5 -25t7 -36.5q0 -32 -21.5 -56.5t-56.5 -24.5q-20 0 -40 7.5t-39 16.5
t-38 16.5t-37 7.5q0 -18 8.5 -34t18 -33t18 -36t8.5 -41q0 -23 -8.5 -42t-18.5 -36.5t-18 -35t-8 -37.5q20 1 39.5 8.5t39 16.5t39 16t39.5 7q37 0 56 -24t19 -55q0 -30 -21 -55.5t-57 -25.5q-20 0 -39.5 7.5t-38.5 16.5t-38.5 17t-39.5 9q1 -17 9 -35t17.5 -37t17 -38
t7.5 -37q0 -36 -22.5 -61.5t-60.5 -25.5q-37 0 -60.5 23.5t-23.5 60.5q0 22 8 42t18 38.5t18 35.5t8 33h-4q-15 0 -33 -7.5t-38 -16t-41 -16t-41 -7.5q-34 0 -55.5 24t-21.5 54q0 36 22.5 59t56.5 23q19 0 38 -7.5t37.5 -16.5t38.5 -17t41 -8q-2 21 -10.5 39.5t-17.5 36
t-16.5 36t-7.5 39.5t8 39.5t18 36.5t18 34.5t8 33.5h-5q-17 0 -35.5 -7.5t-38 -16.5t-39.5 -16.5t-38 -7.5q-34 0 -56 22t-22 57q0 20 7 35.5t18 26t25 16t28 5.5q19 0 40 -8t41 -17.5t39 -17.5t36 -7q-3 24 -11.5 42t-17.5 35t-16 34.5t-7 40.5z" />
    <glyph glyph-name="bullet" unicode="&#x2022;" horiz-adv-x="350" 
d="M31 358q0 30 11 56t30.5 45.5t46 31t56.5 11.5t56 -11.5t45.5 -31t31 -45.5t11.5 -56t-11.5 -56.5t-31 -46t-46 -30.5t-55.5 -11q-30 0 -56.5 11t-46 30.5t-30.5 46t-11 56.5z" />
    <glyph glyph-name="ellipsis" unicode="&#x2026;" horiz-adv-x="1000" 
d="M67 82q0 20 7.5 38t21 31.5t31.5 21.5t38 8t38 -8t31.5 -21.5t21.5 -31.5t8 -38t-8 -38t-21.5 -31.5t-31.5 -21t-38 -7.5q-41 0 -69.5 28.5t-28.5 69.5zM735 84q0 41 28.5 69.5t69.5 28.5q42 0 70.5 -28.5t28.5 -69.5q0 -42 -28.5 -70.5t-70.5 -28.5q-41 0 -69.5 28.5
t-28.5 70.5zM401 83q0 42 28.5 70.5t70.5 28.5q41 0 69.5 -28.5t28.5 -70.5q0 -41 -28.5 -69.5t-69.5 -28.5q-42 0 -70.5 28.5t-28.5 69.5z" />
    <glyph glyph-name="perthousand" unicode="&#x2030;" horiz-adv-x="1360" 
d="M1112 231q-32 0 -55.5 -22t-23.5 -56q0 -32 24.5 -53.5t56.5 -21.5t54 21.5t22 53.5q0 31 -22 54.5t-56 23.5zM674 233q-32 0 -55.5 -22t-23.5 -56q0 -32 24 -54.5t56 -22.5t54.5 22.5t22.5 54.5q0 31 -22 54.5t-56 23.5zM921 154q0 39 15 73.5t41 60.5t60.5 41t74.5 15
q39 0 73.5 -15t61 -40.5t41.5 -60.5t15 -75q0 -39 -15 -73t-41.5 -59t-61 -39.5t-73.5 -14.5q-40 0 -74.5 14.5t-60.5 40t-41 59.5t-15 73zM483 154q0 39 15 73.5t41 60.5t60.5 41t74.5 15q39 0 73.5 -15t61 -40.5t41.5 -60.5t15 -75q0 -39 -15 -73t-41.5 -59t-61 -39.5
t-73.5 -14.5q-40 0 -74.5 14.5t-60.5 40t-41 59.5t-15 73zM243 641q-30 0 -53 -22t-23 -56q0 -32 22.5 -54.5t54.5 -22.5t55 23t23 55t-22.5 54.5t-56.5 22.5zM57 567q0 36 14.5 69.5t39.5 59t59.5 41t75.5 15.5q37 0 70.5 -14t59.5 -39t41.5 -59t15.5 -74q0 -39 -14 -73.5
t-39.5 -60.5t-60 -41.5t-75.5 -15.5q-40 0 -74 15t-59 41t-39.5 61t-14.5 75zM736 774l-448 -809h-102l448 809h102z" />
    <glyph glyph-name="guilsinglleft" unicode="&#x2039;" horiz-adv-x="313" 
d="M291 578l-100 -288l100 -290h-167l-101 290l101 288h167z" />
    <glyph glyph-name="guilsinglright" unicode="&#x203a;" horiz-adv-x="313" 
d="M189 578l101 -290l-101 -288h-167l100 288l-100 290h167z" />
    <glyph glyph-name="fraction" unicode="&#x2044;" horiz-adv-x="31" 
d="M255 767l-389 -802h-77l386 802h80z" />
    <glyph glyph-name="Euro" unicode="&#x20ac;" horiz-adv-x="500" 
d="M55 500q27 112 88 177t159 65q45 0 85.5 -11.5t72.5 -40.5v-131q-33 23 -65 35.5t-77 12.5q-46 0 -74 -28t-42 -79h249l-10 -108h-254v-55h244l-10 -108h-218q15 -52 41 -80t64 -28q43 0 83 16.5t69 42.5v-136q-33 -31 -71 -44t-93 -13q-96 0 -156.5 64.5t-87.5 177.5
h-61l10 108h38v29v15t0.5 6.5t0.5 4.5h-49l10 108h54v0z" />
    <glyph glyph-name="litre" unicode="&#x2113;" horiz-adv-x="464" 
d="M239 417q13 16 26 36.5t23 43t16 45t6 42.5q0 15 -7 29t-25 14q-12 0 -20 -7.5t-12 -19.5t-5.5 -26t-1.5 -26v-131zM106 525q0 43 9.5 80.5t29 64.5t48.5 42.5t68 15.5q55 0 87.5 -34t32.5 -94q0 -46 -13 -85.5t-33 -75t-45.5 -66.5t-50.5 -61v-136q0 -13 2 -29t7 -29.5
t15 -23t27 -9.5q16 0 30.5 9t27.5 22l33 -81q-28 -23 -61 -37t-67 -14q-43 0 -71 14.5t-44.5 40t-23.5 60t-8 73.5v46q-7 -7 -19 -20t-27 -27q-10 17 -20.5 33.5t-16.5 27.5l45.5 45.5l37.5 37.5v210v0z" />
    <glyph glyph-name="trademark" unicode="&#x2122;" horiz-adv-x="979" 
d="M619 716l65 -247l65 247h148v-399h-93v300l-80 -300h-82l-80 300v-300h-93v399h150zM422 716v-82h-129v-317h-98v317h-131v82h358z" />
    <glyph glyph-name="Omega" unicode="&#x2126;" horiz-adv-x="670" 
d="M35 400q0 67 21.5 124.5t60.5 99t93.5 65t120.5 23.5q67 0 119.5 -23t88.5 -64.5t54.5 -98t18.5 -123.5q0 -86 -31 -154t-99 -130h127v-119h-243v119q44 54 64.5 114.5t20.5 134.5q0 97 -32 155.5t-93 58.5q-32 0 -56.5 -16t-41 -44.5t-25 -68.5t-8.5 -89q0 -81 23 -141
t64 -104v-119h-244v119h128q-68 62 -99.5 128.5t-31.5 152.5z" />
    <glyph glyph-name="estimated" unicode="&#x212e;" horiz-adv-x="637" 
d="M152 295h285v140q-32 32 -68 46.5t-78 14.5q-80 0 -139 -59v-142zM41 259q0 57 17.5 106t50 86t79.5 58t106 21q62 0 109 -21.5t79.5 -58t50 -86t20.5 -105.5h-401v-178q25 -25 60 -41t83 -16q121 0 189 117q9 -5 16.5 -10t18.5 -10q-44 -65 -96 -99t-128 -34
q-60 0 -107 21t-79.5 58t-50 86t-17.5 106z" />
    <glyph glyph-name="partialdiff" unicode="&#x2202;" horiz-adv-x="537" 
d="M300 392q-23 0 -45 -16t-39.5 -44t-28.5 -67t-11 -85q0 -39 15 -60t42 -21q28 0 51 21.5t40 56t28.5 77t16.5 85.5q-21 53 -69 53zM162 698q25 16 59.5 25t73.5 9q51 0 93.5 -17t74 -51t49 -85.5t17.5 -120.5q0 -98 -21 -183t-60 -149t-93 -100.5t-120 -36.5
q-45 0 -83.5 14.5t-66 41t-43 64t-15.5 83.5q0 77 22.5 133.5t58 93t79.5 54.5t88 18q38 0 66.5 -15t38.5 -32h2q2 19 3 31t1 25q0 64 -31.5 94t-78.5 30q-24 0 -47 -6.5t-39 -16.5l-28 97v0z" />
    <glyph glyph-name="Delta" unicode="&#x2206;" horiz-adv-x="559" 
d="M304 583q-3 -15 -5 -24t-4 -18.5t-5 -22t-8.5 -34t-14 -54.5t-21.5 -83l-59 -227h241q-32 125 -58.5 225.5t-46.5 172.5q-5 23 -9 38.5t-6 26.5h-4zM423 700l181 -639v-61h-584v61l185 639h218z" />
    <glyph glyph-name="product" unicode="&#x220f;" horiz-adv-x="667" 
d="M603 700v-930h-151v801h-237v-801h-151v930h539z" />
    <glyph glyph-name="summation" unicode="&#x2211;" horiz-adv-x="589" 
d="M493 700v-119h-286l197 -338l-210 -354h316v-119h-483v80l232 390l-218 374v86h452z" />
    <glyph glyph-name="minus" unicode="&#x2212;" horiz-adv-x="667" 
d="M608 393v-121h-549v121h549z" />
    <glyph glyph-name="fraction.001" unicode="&#x2215;" horiz-adv-x="31" 
d="M255 767l-389 -802h-77l386 802h80z" />
    <glyph glyph-name="periodcentered.001" unicode="&#x2219;" horiz-adv-x="271" 
d="M37 365q0 20 7.5 38t21 31.5t31.5 21.5t38 8q21 0 39 -8t31.5 -21.5t21 -31.5t7.5 -38q0 -41 -28.5 -69.5t-70.5 -28.5q-41 0 -69.5 28.5t-28.5 69.5z" />
    <glyph glyph-name="radical" unicode="&#x221a;" horiz-adv-x="461" 
d="M475 729l-134 -741h-128l-102 286l-50 -36q-14 20 -24 34.5t-25 35.5l163 117l101 -290l105 594h94z" />
    <glyph glyph-name="infinity" unicode="&#x221e;" horiz-adv-x="723" 
d="M503 372q-35 0 -57 -23.5t-42 -56.5q17 -36 42 -60t58 -24q36 0 55.5 26.5t19.5 59.5q0 31 -19 54.5t-57 23.5zM198 373q-32 0 -52.5 -25t-20.5 -57q0 -16 5 -31t15 -26.5t24 -18.5t31 -7q55 0 99 83q-25 41 -48 61.5t-53 20.5zM15 292q0 44 16 77.5t41.5 56t56.5 33.5
t60 11q53 0 93.5 -26t67.5 -68h2q11 17 27 34t37 30.5t46 21.5t54 8q36 0 67.5 -13.5t55 -37.5t37 -56.5t13.5 -69.5q0 -39 -13.5 -72.5t-37 -58t-55 -38t-66.5 -13.5q-48 0 -92 24t-73 70h-2q-29 -42 -68.5 -68t-93.5 -26q-29 0 -59.5 11t-56 33.5t-41.5 56.5t-16 80z" />
    <glyph glyph-name="integral" unicode="&#x222b;" horiz-adv-x="462" 
d="M143 545q0 39 9.5 76t31.5 66t57.5 46.5t86.5 17.5q23 0 48 -5t36 -11h1l-29 -102q-14 6 -34 6q-29 0 -44 -20t-15 -57v-592q0 -42 -10 -79t-31.5 -64.5t-56.5 -43.5t-84 -16q-22 0 -47 3.5t-37 8.5l24 104q5 -2 12.5 -3.5t21.5 -1.5q31 0 45.5 21t14.5 55v591v0z" />
    <glyph glyph-name="approxequal" unicode="&#x2248;" horiz-adv-x="667" 
d="M441 208q31 0 51.5 21.5t37.5 46.5l80 -93q-35 -48 -73 -72t-92 -24q-42 0 -69.5 10t-50.5 21.5t-45.5 21.5t-52.5 10q-16 0 -29 -6.5t-24 -16.5t-20 -22t-16 -23l-80 93q16 21 33 39t36.5 30.5t42.5 19.5t52 7q41 0 69.5 -10t52 -21.5t46 -21.5t51.5 -10zM441 449
q31 0 51.5 21.5t37.5 46.5l80 -93q-35 -48 -73 -72t-92 -24q-42 0 -69.5 10t-50.5 21.5t-45.5 21.5t-52.5 10q-16 0 -29 -6.5t-24 -16.5t-20 -22t-16 -23l-80 93q16 21 33 39t36.5 30.5t42.5 19.5t52 7q41 0 69.5 -10t52 -21.5t46 -21.5t51.5 -10z" />
    <glyph glyph-name="notequal" unicode="&#x2260;" horiz-adv-x="667" 
d="M551 602l-60 -119h82v-121h-143l-61 -121h204v-121h-265l-49 -98h-134l49 98h-79v121h140l61 121h-201v121h262l60 119h134z" />
    <glyph glyph-name="lessequal" unicode="&#x2264;" horiz-adv-x="667" 
d="M573 121v-121h-478v121h478zM573 500l-323 -113v-2l323 -112v-125l-478 181v116l478 180v-125z" />
    <glyph glyph-name="greaterequal" unicode="&#x2265;" horiz-adv-x="667" 
d="M572 121v-121h-477v121h477zM95 626l478 -181v-116l-478 -180v125l323 113v2l-323 112v125z" />
    <glyph glyph-name="lozenge" unicode="&#x25ca;" horiz-adv-x="516" 
d="M233 573q-11 -23 -37 -76.5t-70 -146.5q8 -18 23 -49t31 -64.5t30.5 -63.5t22.5 -46l108 223l-108 223v0zM266 700l177 -350l-177 -350h-67l-175 349l175 351h67z" />
    </font>
</defs>
</svg>
