<?xml version="1.0" standalone="no"?>
<!DOCTYPE svg PUBLIC "-//W3C//DTD SVG 1.1//EN" "http://www.w3.org/Graphics/SVG/1.1/DTD/svg11.dtd" >
<svg xmlns="http://www.w3.org/2000/svg" xmlns:xlink="http://www.w3.org/1999/xlink" version="1.1">
<metadata>
Created by FontForge 20170731 at Thu Sep 24 15:45:55 2015
 By Aleksey,,,
Copyright (c) 2015 The Monotype Corporation. All rights reserved.
</metadata>
<defs>
<font id="TwCenClassMTStd-Regular" horiz-adv-x="500" >
  <font-face 
    font-family="Tw Cen Classified MT Std"
    font-weight="400"
    font-stretch="normal"
    units-per-em="1000"
    panose-1="2 11 5 2 2 1 4 2 6 3"
    ascent="800"
    descent="-200"
    x-height="562"
    cap-height="738"
    bbox="-219 -230 1293 1012"
    underline-thickness="50"
    underline-position="-175"
    unicode-range="U+000D-FB02"
  />
<missing-glyph 
d="M250 290l-162 -242h323zM440 575l-162 -242l162 -243v485zM60 91l161 242l-161 242v-484zM250 375l161 243h-323zM487 665v-665h-475v665h475z" />
    <glyph glyph-name="fi" unicode="fi" horiz-adv-x="603" 
d="M521 513v-513h-108v513h108zM97 513q-4 67 12.5 113.5t47 75.5t73.5 42t93 13q33 0 68 -8t64 -27t47.5 -50.5t18.5 -78.5h-108q-5 43 -27.5 61.5t-69.5 18.5q-49 0 -80 -28t-31 -97q0 -8 -0.5 -17.5t0.5 -17.5h120v-87h-120v-426h-108v426h-90v87h90v0z" />
    <glyph glyph-name="fl" unicode="fl" horiz-adv-x="603" 
d="M97 513q-3 67 14 114t47.5 75.5t72 41.5t87.5 13q58 0 97 -15t62.5 -39t33.5 -53t10 -56v-594h-108v583q0 51 -25 70.5t-74 19.5q-53 0 -81 -29t-28 -91q0 -9 -0.5 -19t0.5 -21h120v-87h-120v-426h-108v426h-90v87h90v0z" />
    <glyph glyph-name=".notdef" 
d="M250 290l-162 -242h323zM440 575l-162 -242l162 -243v485zM60 91l161 242l-161 242v-484zM250 375l161 243h-323zM487 665v-665h-475v665h475z" />
    <glyph glyph-name=".null" horiz-adv-x="0" 
 />
    <glyph glyph-name="nonmarkingreturn" unicode="&#xd;" horiz-adv-x="250" 
 />
    <glyph glyph-name="NULL" horiz-adv-x="0" 
 />
    <glyph glyph-name="NULL" horiz-adv-x="0" 
 />
    <glyph glyph-name="space" unicode=" " horiz-adv-x="250" 
 />
    <glyph glyph-name="exclam" unicode="!" horiz-adv-x="271" 
d="M59 63q0 32 22 54t54 22t54.5 -22t22.5 -54t-22.5 -54.5t-54.5 -22.5t-54 22.5t-22 54.5zM190 746v-507h-108v507h108z" />
    <glyph glyph-name="quotedbl" unicode="&#x22;" horiz-adv-x="556" 
d="M401 700v-286h-82v286h82zM237 700v-286h-82v286h82z" />
    <glyph glyph-name="numbersign" unicode="#" horiz-adv-x="667" 
d="M258 409l-34 -160h185l34 160h-185zM314 680l-39 -191h184l40 191h81l-40 -191h87v-80h-104l-33 -160h137v-81h-154l-40 -190h-81l40 190h-185l-40 -190h-80l39 190h-86v81h103l34 160h-137v80h154l40 191h80z" />
    <glyph glyph-name="dollar" unicode="$" 
d="M272 114q38 4 59 28.5t21 62.5q0 32 -19.5 54.5t-60.5 39.5v-185zM213 600q-34 -8 -50.5 -32t-16.5 -50t17.5 -48.5t49.5 -31.5v162v0zM213 757h59v-64h1q38 -4 77 -21.5t68 -44.5l-45 -74q-20 17 -48 32t-53 18v-192q34 -14 66.5 -31.5t58 -40.5t41 -53.5t15.5 -70.5
q0 -38 -12 -71.5t-35 -59.5t-56.5 -43t-77.5 -22v-69h-59v69q-47 10 -84 25.5t-74 45.5l44 74q32 -22 58.5 -34t55.5 -17v212q-89 38 -128 83.5t-39 110.5q0 42 16 73.5t41 53t54.5 33.5t55.5 14v64z" />
    <glyph glyph-name="percent" unicode="%" horiz-adv-x="1000" 
d="M753 258q-20 0 -38.5 -8t-32.5 -21.5t-22.5 -32.5t-8.5 -41q0 -21 8 -40t22 -33t33 -22t40 -8t40 8t33 22t22 33t8 40t-8 39.5t-21.5 33t-33 22.5t-41.5 8zM567 156q0 39 14.5 73t40 59.5t59.5 40t73 14.5t73 -14.5t59.5 -40t40 -59.5t14.5 -73t-14.5 -73t-40 -59.5
t-59.5 -40t-73 -14.5t-73 14.5t-59.5 40t-40 59.5t-14.5 73zM240 655q-20 0 -38.5 -8t-32.5 -21.5t-22.5 -32.5t-8.5 -41q0 -21 8 -40t22 -33t33 -22t40 -8t40 8t33 22t22 33t8 40t-8 39.5t-21.5 33t-33 22.5t-41.5 8zM54 553q0 39 14.5 73t40 59.5t59.5 40t73 14.5
t73 -14.5t59.5 -40t40 -59.5t14.5 -73t-14.5 -73t-40 -59.5t-59.5 -40t-73 -14.5t-73 14.5t-59.5 40t-40 59.5t-14.5 73zM777 759l-470 -794h-80l467 794h83z" />
    <glyph glyph-name="ampersand" unicode="&#x26;" horiz-adv-x="771" 
d="M285 341q-25 -17 -49 -33t-42.5 -33.5t-30 -38t-11.5 -45.5q0 -24 10 -45.5t28.5 -37t44.5 -24.5t57 -9q55 0 98 20.5t82 52.5h1l-188 193v0zM310 665q-32 0 -56 -18.5t-24 -50.5q0 -17 6.5 -33t16.5 -31t23 -29t26 -26q16 10 33 23t30.5 28t22.5 31t9 33q0 27 -22.5 50
t-64.5 23zM121 594q0 34 11.5 64t35 52t59 34.5t82.5 12.5q46 0 82.5 -12t62 -33t38.5 -50.5t13 -63.5q0 -32 -10.5 -59t-28 -50.5t-40.5 -44.5t-49 -41l176 -180q13 11 28 26t30.5 32t30.5 34t28 32l71 -60q-9 -12 -23 -28.5t-30.5 -34.5t-33.5 -36t-33 -34l150 -154h-153
l-79 79q-62 -51 -122 -74.5t-131 -23.5q-52 0 -95.5 14.5t-75.5 42t-50 67.5t-18 91q0 42 14.5 75t37.5 59.5t52 48t58 40.5q-38 41 -63 81.5t-25 93.5z" />
    <glyph glyph-name="quotesingle" unicode="'" horiz-adv-x="278" 
d="M180 699v-286h-82v286h82z" />
    <glyph glyph-name="parenleft" unicode="(" horiz-adv-x="438" 
d="M379 757q-76 -86 -116 -195t-40 -221q0 -230 152 -425h-99q-86 98 -123.5 200t-37.5 220q0 132 41.5 234.5t119.5 186.5h103z" />
    <glyph glyph-name="parenright" unicode=")" horiz-adv-x="438" 
d="M162 757q84 -91 122.5 -194.5t38.5 -226.5q0 -119 -37.5 -221t-123.5 -199h-99q75 97 113.5 202t38.5 223q0 114 -40.5 223t-115.5 193h103z" />
    <glyph glyph-name="asterisk" unicode="*" 
d="M304 757l-17 -149l138 63l34 -102l-149 -31l104 -109l-88 -64l-78 130l-74 -129l-87 62l101 112l-146 30l33 101l137 -61l-19 147h111z" />
    <glyph glyph-name="plus" unicode="+" horiz-adv-x="667" 
d="M378 597v-224h225v-90h-225v-225h-90v225h-224v90h224v224h90z" />
    <glyph glyph-name="comma" unicode="," horiz-adv-x="333" 
d="M279 218l-145 -303h-84l103 303h126z" />
    <glyph glyph-name="hyphen" unicode="-" 
d="M438 334v-107h-376v107h376z" />
    <glyph glyph-name="period" unicode="." horiz-adv-x="271" 
d="M59 63q0 32 22 54t54 22t54.5 -22t22.5 -54t-22.5 -54.5t-54.5 -22.5t-54 22.5t-22 54.5z" />
    <glyph glyph-name="slash" unicode="/" horiz-adv-x="531" 
d="M492 696l-357 -714h-96l356 714h97z" />
    <glyph glyph-name="zero" unicode="0" 
d="M246 655q-28 0 -47 -20t-31 -51t-18 -67.5t-8.5 -69t-2.5 -56v-28.5q0 -21 1 -50.5t4.5 -61t11 -63t19.5 -56t30.5 -40t44.5 -15.5q29 0 50 20.5t34.5 58t20 90t6.5 117.5q0 54 -5 106.5t-18 93.5t-35.5 66.5t-56.5 25.5zM31 356q0 116 18.5 191t49.5 119t71 61.5
t82 17.5q39 0 70.5 -13.5t57.5 -39.5q48 -48 68.5 -130t20.5 -204q0 -84 -13.5 -153t-40.5 -117.5t-67.5 -75t-93.5 -26.5q-51 0 -92 22t-70 67.5t-45 115t-16 165.5z" />
    <glyph glyph-name="one" unicode="1" 
d="M325 730v-730h-108v637h-130v93h238z" />
    <glyph glyph-name="two" unicode="2" 
d="M46 484v26q0 64 17 109t46 72.5t66 40t78 12.5q47 0 84.5 -15.5t63.5 -44t40 -69t14 -89.5q0 -48 -15.5 -94t-47 -97t-78 -110t-107.5 -132h245v-93h-416v34l51 65q72 91 121.5 156t80 114.5t44.5 89t14 78.5q0 48 -24.5 82t-69.5 34q-30 0 -49 -12t-30.5 -32.5
t-15.5 -47.5t-4 -58v-19h-108z" />
    <glyph glyph-name="three" unicode="3" 
d="M41 550q-1 91 55 142.5t154 51.5q45 0 82.5 -13.5t64 -39t41.5 -62.5t15 -83q0 -107 -92 -168q49 -25 76.5 -72.5t27.5 -110.5q0 -51 -16.5 -90.5t-46 -65.5t-69.5 -39.5t-86 -13.5q-99 0 -157.5 51t-63.5 145h104q6 -50 34 -77.5t77 -27.5q51 0 83.5 32.5t32.5 92.5
t-36 93.5t-98 34.5v91q59 0 90.5 33.5t31.5 86.5q0 31 -8.5 52.5t-22.5 35.5t-32 20.5t-37 6.5q-25 0 -45 -9.5t-34 -24.5t-21.5 -34t-7.5 -38h-96v0z" />
    <glyph glyph-name="four" unicode="4" 
d="M108 220h210v352zM423 731v-511h47v-87h-47v-133h-105v133h-304v85l306 513h103z" />
    <glyph glyph-name="five" unicode="5" 
d="M454 731v-93h-229l-32 -172q18 5 33 6.5t31 1.5q46 0 83.5 -17t63.5 -48t40.5 -74.5t14.5 -96.5q0 -65 -18 -112.5t-50 -78.5t-75.5 -46t-95.5 -15q-58 0 -108 23.5t-97 78.5l66 65v-1q32 -35 67.5 -55t71.5 -20q28 0 52 9t41.5 27.5t27.5 47t10 68.5q0 151 -126 151
q-30 0 -59.5 -9t-68.5 -30l-15 12l70 378h302z" />
    <glyph glyph-name="six" unicode="6" 
d="M256 351q-50 0 -81 -36.5t-31 -99.5q0 -58 27 -96.5t81 -38.5q51 0 80 36t29 98q0 61 -27 99t-78 38zM411 731q-52 -75 -97.5 -147.5t-90.5 -147.5q16 4 29 5t24 1q45 0 80.5 -17.5t60.5 -48t38.5 -73t13.5 -92.5q0 -48 -15.5 -89t-44 -71.5t-69 -47.5t-91.5 -17
q-52 0 -91.5 18.5t-66.5 51t-41 75.5t-14 91q0 57 21.5 117.5t56 124t78 130.5t87.5 137h132z" />
    <glyph glyph-name="seven" unicode="7" 
d="M464 731v-45l-296 -686h-107l272 638h-288v93h419z" />
    <glyph glyph-name="eight" unicode="8" 
d="M245 336q-18 0 -36 -6.5t-33 -21.5t-24 -40t-9 -61q0 -63 29.5 -96.5t76.5 -33.5q50 0 78 34.5t28 91.5q0 64 -28.5 98.5t-81.5 34.5zM250 653q-40 0 -69 -28.5t-29 -88.5q0 -51 28.5 -80t67.5 -29q17 0 34.5 6t31.5 19.5t23 35t9 51.5q0 53 -27.5 83.5t-68.5 30.5z
M58 548q0 43 13.5 79.5t38.5 62t60.5 40t79.5 14.5q40 0 75.5 -13t61.5 -37.5t41.5 -61t15.5 -83.5q0 -61 -25.5 -103t-64.5 -62q56 -29 82.5 -75.5t26.5 -109.5q0 -47 -15 -86t-42.5 -67.5t-67.5 -44t-90 -15.5q-47 0 -86 14.5t-66.5 41.5t-42.5 67t-15 91q0 136 108 183
q-40 21 -64 63.5t-24 101.5z" />
    <glyph glyph-name="nine" unicode="9" 
d="M245 649q-21 0 -40 -8t-34 -25t-24 -43.5t-9 -63.5q0 -61 27 -96.5t77 -35.5q51 0 81.5 36.5t30.5 99.5q0 65 -29.5 100.5t-79.5 35.5zM30 514q0 52 16 94t45.5 72t69.5 46.5t88 16.5q47 0 86.5 -17t67.5 -48t43.5 -74t15.5 -95q0 -45 -12 -90t-40.5 -103t-75.5 -134
t-117 -182h-129q28 42 52 78.5t46 71t43 69.5t44 73q-14 -3 -26 -4t-24 -1q-47 0 -83 18.5t-60.5 49.5t-37 72t-12.5 87z" />
    <glyph glyph-name="colon" unicode=":" horiz-adv-x="271" 
d="M59 63q0 32 22 54t54 22t54.5 -22t22.5 -54t-22.5 -54.5t-54.5 -22.5t-54 22.5t-22 54.5zM59 500q0 32 22 54t54 22t54.5 -22t22.5 -54t-22.5 -54.5t-54.5 -22.5t-54 22.5t-22 54.5z" />
    <glyph glyph-name="semicolon" unicode=";" horiz-adv-x="333" 
d="M279 218l-145 -303h-84l103 303h126zM137 500q0 32 22 54t54 22t54.5 -22t22.5 -54t-22.5 -54.5t-54.5 -22.5t-54 22.5t-22 54.5z" />
    <glyph glyph-name="less" unicode="&#x3c;" horiz-adv-x="667" 
d="M603 496l-407 -168l407 -169v-98l-539 226v81l539 226v-98z" />
    <glyph glyph-name="equal" unicode="=" horiz-adv-x="667" 
d="M603 257v-90h-539v90h539zM603 488v-90h-539v90h539z" />
    <glyph glyph-name="greater" unicode="&#x3e;" horiz-adv-x="667" 
d="M64 594l539 -226v-81l-539 -226v98l407 169l-407 168v98z" />
    <glyph glyph-name="question" unicode="?" horiz-adv-x="552" 
d="M178 63q0 32 22 54t54 22t54.5 -22t22.5 -54t-22.5 -54.5t-54.5 -22.5t-54 22.5t-22 54.5zM39 559q2 46 19 82.5t46.5 62t68.5 39.5t86 14q108 0 169.5 -57.5t61.5 -157.5q0 -44 -13 -81.5t-37 -65t-57 -44.5t-73 -21h-1v-101h-108v183q58 -5 93.5 7t55 33t26 46.5
t6.5 49.5q0 23 -8.5 44t-24 36.5t-37.5 25t-49 9.5q-45 0 -78 -25.5t-39 -78.5h-107v0z" />
    <glyph glyph-name="at" unicode="@" horiz-adv-x="800" 
d="M412 476q-30 0 -55 -16.5t-43 -42t-28 -56.5t-10 -59q0 -42 22.5 -65t57.5 -23q28 0 53 14.5t44 38.5t29.5 55.5t10.5 66.5q0 42 -20 64.5t-61 22.5zM44 351q0 76 29.5 142.5t79.5 115.5t117 77t141 28q66 0 128.5 -21.5t110.5 -61t77 -95t29 -122.5q0 -66 -23 -118
t-57.5 -88t-75.5 -55t-78 -19q-27 0 -48 14t-23 44h-2q-24 -29 -50.5 -43.5t-66.5 -14.5q-63 0 -101.5 45.5t-38.5 120.5q0 45 16 91t44.5 82.5t68.5 59.5t89 23q75 0 112 -75l18 53h70l-64 -229q-5 -20 -11 -41.5t-6 -35.5q0 -22 23 -22q22 0 44 15t40 41t29 62t11 78
q0 59 -21.5 104t-57.5 75t-84 45.5t-102 15.5q-61 0 -113.5 -24.5t-91 -66t-60.5 -94.5t-22 -110q0 -59 22.5 -112.5t62 -93.5t93.5 -63.5t118 -23.5q69 0 130.5 22.5t106.5 73.5h78v-1q-24 -33 -57 -62.5t-73.5 -52t-88 -35.5t-100.5 -13q-77 0 -144.5 25.5t-118 72.5
t-80 115t-29.5 152z" />
    <glyph glyph-name="A" unicode="A" horiz-adv-x="771" 
d="M241 278h285l-143 346zM439 738l318 -738h-117l-76 185h-361l-76 -185h-114l314 738h112z" />
    <glyph glyph-name="B" unicode="B" horiz-adv-x="711" 
d="M396 98q33 0 61.5 7t50 21.5t34 37t12.5 54.5q0 34 -13 58t-35 38.5t-50 21t-59 6.5h-199v-244h198zM363 435q27 0 51.5 5.5t44 17.5t31 31.5t11.5 46.5q0 109 -140 109h-163v-210h165zM370 738q50 0 93.5 -11t76 -34t51 -59t18.5 -86t-19 -83.5t-61 -59.5
q72 -23 106 -76t34 -116q0 -62 -26 -102.5t-64 -65.5t-81 -35t-77 -10h-341v738h290z" />
    <glyph glyph-name="C" unicode="C" horiz-adv-x="708" 
d="M42 366q0 81 25.5 152t73.5 124t117.5 84t157.5 31q72 0 136.5 -18.5t125.5 -58.5v-110q-51 36 -114.5 62t-132.5 26q-51 0 -100.5 -18t-88 -54t-62 -90.5t-23.5 -126.5q0 -66 20.5 -119t57 -91t87 -58.5t109.5 -20.5q66 0 129.5 25.5t117.5 61.5v-108
q-58 -38 -127.5 -58t-140.5 -20q-93 0 -162.5 33t-115 87.5t-68 123.5t-22.5 141z" />
    <glyph glyph-name="D" unicode="D" horiz-adv-x="785" 
d="M358 98q140 0 205 71.5t65 212.5q0 68 -20.5 117t-56 80.5t-82 46t-97.5 14.5h-174v-542h160zM378 738q81 0 148 -26.5t115.5 -75t75 -116t26.5 -149.5q0 -90 -30 -159t-79.5 -116t-114 -71.5t-132.5 -24.5h-307v738h298z" />
    <glyph glyph-name="E" unicode="E" horiz-adv-x="689" 
d="M649 738v-98h-451v-221h415v-98h-415v-223h451v-98h-569v738h569z" />
    <glyph glyph-name="F" unicode="F" horiz-adv-x="666" 
d="M629 738v-98h-431v-221h395v-98h-395v-321h-118v738h549z" />
    <glyph glyph-name="G" unicode="G" horiz-adv-x="785" 
d="M42 366q0 77 24 148t70.5 125t115 86t157.5 32q88 0 160 -38.5t130 -113.5l-78 -64q-45 57 -99 87t-118 30q-46 0 -90.5 -17.5t-79 -53t-56 -89.5t-21.5 -126q0 -69 19.5 -123.5t53 -93t77.5 -59t92 -20.5q100 0 159 50t84 153h-220v99h338q-1 -79 -22.5 -151t-65 -126.5
t-110.5 -87t-160 -32.5q-89 0 -156.5 32t-112.5 85.5t-68 123t-23 144.5z" />
    <glyph glyph-name="H" unicode="H" horiz-adv-x="783" 
d="M198 738v-303h387v303h118v-738h-118v337h-387v-337h-118v738h118z" />
    <glyph glyph-name="I" unicode="I" horiz-adv-x="328" 
d="M223 738v-738h-118v738h118z" />
    <glyph glyph-name="J" unicode="J" horiz-adv-x="548" 
d="M473 738v-518q0 -115 -59 -177t-170 -62q-149 0 -229 127l87 56q30 -48 67.5 -66.5t69.5 -18.5q54 0 85 33.5t31 92.5v533h118z" />
    <glyph glyph-name="K" unicode="K" horiz-adv-x="736" 
d="M198 738v-350l344 350h149l-356 -356l388 -382h-161l-364 361v-361h-118v738h118z" />
    <glyph glyph-name="L" unicode="L" horiz-adv-x="669" 
d="M198 738v-640h441v-98h-559v738h118z" />
    <glyph glyph-name="M" unicode="M" horiz-adv-x="970" 
d="M296 738l185 -615l186 615h118l159 -738h-111l-116 587l-178 -587h-115l-176 583l-114 -583h-108l154 738h116z" />
    <glyph glyph-name="N" unicode="N" horiz-adv-x="778" 
d="M202 738l388 -586v586h108v-738h-125l-388 588v-588h-105v738h122z" />
    <glyph glyph-name="O" unicode="O" horiz-adv-x="781" 
d="M386 659q-44 0 -85 -17.5t-73 -54t-51.5 -92.5t-19.5 -133q0 -62 16 -114t45.5 -89.5t71.5 -58.5t94 -21q56 0 100.5 21t75.5 60.5t47.5 96t16.5 127.5q0 45 -13 94t-41.5 89t-73.5 66t-110 26zM42 358q0 71 19 142.5t60.5 128.5t107.5 92.5t161 35.5q87 0 152 -32.5
t109 -86.5t66 -123t22 -142q0 -77 -22.5 -147.5t-66 -125t-107 -87t-146.5 -32.5q-74 0 -129.5 20t-94.5 52t-64.5 73t-40.5 83t-20.5 81t-5.5 68z" />
    <glyph glyph-name="P" unicode="P" horiz-adv-x="691" 
d="M405 398q136 0 136 119q0 122 -136 122h-207v-241h207zM422 737q54 0 97 -17.5t74 -46.5t47.5 -67t16.5 -79q0 -60 -19.5 -103t-52.5 -70.5t-76 -40.5t-91 -13h-220v-301h-118v738h342z" />
    <glyph glyph-name="Q" unicode="Q" horiz-adv-x="781" 
d="M387 659q-51 0 -93.5 -20.5t-72.5 -59.5t-47 -95t-17 -127q0 -62 17 -113t47.5 -87.5t72.5 -56.5t92 -20q41 0 85 14l-129 166l105 26l108 -132q36 42 53 100t17 120q0 55 -14.5 106.5t-44 91.5t-74 63.5t-105.5 23.5zM42 359q0 92 25.5 166t71.5 125.5t111 79t145 27.5
q79 0 143 -30t109 -82.5t69 -123t24 -151.5q0 -100 -33 -175t-84 -126l125 -154h-138l-72 92q-32 -11 -69.5 -18.5t-74.5 -7.5q-66 0 -117.5 17.5t-90.5 46.5t-66.5 67.5t-44.5 80.5t-25 85t-8 81z" />
    <glyph glyph-name="R" unicode="R" horiz-adv-x="737" 
d="M404 403q71 0 105 28t34 92q0 33 -11.5 56t-31 38t-44.5 21.5t-52 6.5h-206v-242h206zM418 738q49 0 92.5 -13t76.5 -39.5t52 -67t19 -96.5q0 -104 -57 -159.5t-167 -55.5l293 -307h-157l-288 305h-84v-305h-118v738h338z" />
    <glyph glyph-name="S" unicode="S" horiz-adv-x="549" 
d="M58 557q0 40 14.5 76.5t43 64t70.5 43.5t96 16q69 0 122 -32t89 -82l-75 -67q-31 42 -65.5 64t-79.5 22q-53 0 -82.5 -27.5t-29.5 -67.5t26 -64.5t65.5 -44t85.5 -38t85.5 -46t65.5 -68.5t26 -105q0 -51 -17 -92t-48.5 -69.5t-76 -43.5t-100.5 -15q-88 0 -147 46t-92 137
l95 34q23 -56 58.5 -87.5t93.5 -31.5q59 0 92.5 32.5t33.5 87.5q0 29 -12 49.5t-33 36.5t-49 29t-60 28q-36 16 -71 35t-62.5 43.5t-44.5 58t-17 78.5z" />
    <glyph glyph-name="T" unicode="T" horiz-adv-x="708" 
d="M678 738v-93h-264v-645h-118v645h-265v93h647z" />
    <glyph glyph-name="U" unicode="U" horiz-adv-x="762" 
d="M194 738v-452q0 -97 50 -152t138 -55q49 0 84.5 17.5t58 46t33.5 65.5t11 77v453h118v-410q0 -172 -75.5 -259.5t-229.5 -87.5q-152 0 -229.5 83t-77.5 243v431h119z" />
    <glyph glyph-name="V" unicode="V" horiz-adv-x="724" 
d="M130 738l232 -614l229 614h118l-291 -738h-112l-291 738h115z" />
    <glyph glyph-name="W" unicode="W" horiz-adv-x="1000" 
d="M125 738l164 -561l143 561h127l143 -557l169 557h115l-237 -738h-99l-154 607l-156 -607h-98l-227 738h110z" />
    <glyph glyph-name="X" unicode="X" horiz-adv-x="771" 
d="M177 738l209 -266l211 266h138l-281 -353l301 -385h-135l-234 297l-234 -296l-135 -1l300 385l-275 353h135z" />
    <glyph glyph-name="Y" unicode="Y" horiz-adv-x="731" 
d="M146 738l218 -314l218 314h135l-294 -413v-325h-118v322l-292 416h133z" />
    <glyph glyph-name="Z" unicode="Z" horiz-adv-x="667" 
d="M639 738l-411 -640h399v-98h-600l410 640h-368v98h570z" />
    <glyph glyph-name="bracketleft" unicode="[" horiz-adv-x="438" 
d="M361 757v-71h-118v-698h118v-72h-226v841h226z" />
    <glyph glyph-name="backslash" unicode="\" horiz-adv-x="531" 
d="M136 696l356 -714h-96l-357 714h97z" />
    <glyph glyph-name="bracketright" unicode="]" horiz-adv-x="438" 
d="M304 757v-841h-226v72h118v698h-118v71h226z" />
    <glyph glyph-name="asciicircum" unicode="^" horiz-adv-x="600" 
d="M338 688l206 -414h-84l-160 330l-159 -330h-85l206 414h76z" />
    <glyph glyph-name="underscore" unicode="_" 
d="M506 -75v-50h-512v50h512z" />
    <glyph glyph-name="grave" unicode="`" horiz-adv-x="333" 
d="M132 762l108 -115l-52 -16l-158 107z" />
    <glyph glyph-name="a" unicode="a" horiz-adv-x="584" 
d="M274 281q-23 0 -46 -5t-42 -17t-30.5 -32.5t-11.5 -51.5q0 -46 30.5 -73.5t93.5 -27.5q42 0 69.5 9.5t43 24.5t22 32.5t6.5 33.5t-6 35t-21.5 35t-41.5 26.5t-66 10.5zM80 541q42 17 86.5 26t95.5 9q57 0 104 -11t81 -36.5t53 -68.5t19 -106v-234q0 -36 3.5 -65t14.5 -55
h-108q-3 10 -6 24t-3 26q-45 -36 -87.5 -50t-100.5 -14q-50 0 -87 14.5t-61 40.5t-36 61.5t-12 76.5q0 37 12 70.5t36.5 59t61 41t85.5 15.5q65 0 105.5 -14.5t70.5 -38.5v64q0 102 -154 102q-47 0 -82 -9.5t-72 -22.5l-19 95v0z" />
    <glyph glyph-name="b" unicode="b" horiz-adv-x="615" 
d="M321 485q-32 0 -58 -15t-45 -42t-29.5 -65t-10.5 -83q0 -51 11.5 -89.5t31 -63.5t46 -37.5t57.5 -12.5q34 0 61.5 14.5t47 41.5t29.5 65t10 84t-11.5 84t-31.5 64t-47.5 40.5t-60.5 14.5zM179 757v-271q33 42 75.5 66t100.5 24q38 0 78 -15t72.5 -49.5t53.5 -90.5
t21 -138q0 -85 -21 -142t-54 -91.5t-74 -49t-81 -14.5q-116 0 -179 98v-84h-101v757h109z" />
    <glyph glyph-name="c" unicode="c" horiz-adv-x="537" 
d="M35 277q0 68 21.5 123.5t60 94.5t90.5 60t113 21q49 0 98 -16.5t92 -44.5v-103q-17 13 -35 26.5t-39 23.5t-46.5 16.5t-56.5 6.5q-38 0 -72.5 -13t-60.5 -38.5t-41.5 -63.5t-15.5 -89q0 -54 16 -93t43 -63.5t61.5 -36t71.5 -11.5q54 0 95.5 18.5t79.5 52.5v-104
q-53 -34 -100.5 -46t-88.5 -12q-71 0 -124.5 24t-89.5 64.5t-54 93t-18 109.5z" />
    <glyph glyph-name="d" unicode="d" horiz-adv-x="612" 
d="M291 485q-41 0 -69.5 -18.5t-46 -48t-25 -65.5t-7.5 -71q0 -44 9 -81t27 -65t45 -43.5t63 -15.5t64 15t46.5 42.5t28.5 66t10 86.5q0 47 -12 83.5t-32 62t-46 39t-55 13.5zM542 757v-757h-100v84q-35 -48 -78 -73t-102 -25q-53 0 -95 20t-71 58t-45 92.5t-16 122.5
q0 81 19.5 137.5t51 92t71.5 51.5t81 16q55 0 99.5 -24t76.5 -69v274h108z" />
    <glyph glyph-name="e" unicode="e" horiz-adv-x="559" 
d="M423 333q0 30 -9 58.5t-26.5 51t-43 36t-58.5 13.5q-29 0 -54.5 -10.5t-45 -30.5t-31 -49.5t-11.5 -68.5h279zM35 272q0 70 18 126.5t50.5 96t78.5 60.5t103 21q63 0 109 -25.5t76 -69.5t45.5 -102t17.5 -122h-389q1 -180 150 -180q39 0 69 18.5t64 57.5l75 -60
q-42 -56 -94.5 -81.5t-119.5 -25.5q-58 0 -105 20.5t-80 58t-50.5 90t-17.5 117.5z" />
    <glyph glyph-name="f" unicode="f" horiz-adv-x="333" 
d="M97 606q0 151 146 151q14 0 33.5 -2.5t48.5 -10.5v-83q-18 3 -30.5 5.5t-29.5 2.5q-33 0 -46.5 -20.5t-13.5 -46.5v-89h120v-87h-120v-426h-108v426h-90v87h90v93v0z" />
    <glyph glyph-name="g" unicode="g" horiz-adv-x="609" 
d="M282 485q-29 0 -55 -9t-45.5 -27t-30.5 -46t-11 -66q0 -72 36.5 -111t104.5 -39q74 0 112 42.5t38 105.5q0 73 -42.5 111.5t-106.5 38.5zM35 334q0 64 17.5 109.5t47 75t68.5 43.5t82 14q62 0 105.5 -20t83.5 -62v68h100v-421q0 -115 -65.5 -169.5t-197.5 -54.5
q-36 0 -70 5t-63.5 17t-52.5 32t-37 51l93 32q9 -13 20.5 -23.5t27.5 -18t38 -11.5t53 -4q30 0 58 7t49 26.5t32 53t8 86.5q-44 -41 -85 -57.5t-88 -16.5t-88 15t-71 44.5t-47.5 74t-17.5 104.5z" />
    <glyph glyph-name="h" unicode="h" horiz-adv-x="608" 
d="M178 757v-272q19 19 39.5 35.5t44.5 29.5t51 20.5t58 7.5q46 0 78.5 -15.5t53.5 -42.5t30.5 -63t9.5 -76v-381h-108v376q0 53 -26.5 80.5t-77.5 27.5q-24 0 -51 -10.5t-49.5 -31t-37.5 -50.5t-15 -68v-324h-108v757h108z" />
    <glyph glyph-name="i" unicode="i" horiz-adv-x="271" 
d="M189 513v-513h-108v513h108zM54 690q0 29 20.5 48t60.5 19q35 0 58 -17.5t23 -49.5q0 -29 -20 -47.5t-61 -18.5q-39 0 -60 18t-21 48z" />
    <glyph glyph-name="j" unicode="j" horiz-adv-x="271" 
d="M189 513v-598h-108v598h108zM54 690q0 29 20.5 48t60.5 19q35 0 58 -17.5t23 -49.5q0 -29 -20 -47.5t-61 -18.5q-39 0 -60 18t-21 48z" />
    <glyph glyph-name="k" unicode="k" horiz-adv-x="592" 
d="M178 757v-413l216 218h151l-236 -224l269 -338h-130l-214 274l-56 -50v-224h-108v757h108z" />
    <glyph glyph-name="l" unicode="l" horiz-adv-x="271" 
d="M189 757v-757h-108v757h108z" />
    <glyph glyph-name="m" unicode="m" horiz-adv-x="959" 
d="M178 476q20 25 39 43.5t40 31t46 19t58 6.5q60 0 101 -31t60 -85q44 56 89.5 86t105.5 30q81 0 129 -51.5t48 -142.5v-382h-108v364q0 118 -98 118q-34 0 -62.5 -16t-48.5 -41t-31.5 -56t-11.5 -62v-307h-108v373q0 46 -22 77.5t-74 31.5q-33 0 -60.5 -12t-48 -34
t-32 -52t-11.5 -67v-317h-108v562h108v-86v0z" />
    <glyph glyph-name="n" unicode="n" horiz-adv-x="608" 
d="M178 483q47 48 92.5 70.5t102.5 22.5q42 0 74 -14t53 -39.5t32 -60t11 -75.5v-387h-108v368q0 56 -26.5 85t-77.5 29q-29 0 -56 -11.5t-49 -33.5t-35 -53.5t-13 -70.5v-313h-108v562h108v-79v0z" />
    <glyph glyph-name="o" unicode="o" horiz-adv-x="583" 
d="M290 485q-41 0 -69 -17.5t-45.5 -46t-25 -65t-7.5 -75.5q0 -60 12.5 -99t33.5 -62.5t47.5 -33t54.5 -9.5q27 0 53.5 10t47.5 34t34.5 63t13.5 97q0 93 -37.5 148.5t-112.5 55.5zM35 281q0 73 19.5 128t54 92t81 56t101.5 19q46 0 92 -15.5t82.5 -50.5t59.5 -92t23 -139
q0 -71 -19 -125.5t-53 -92t-81.5 -56.5t-103.5 -19t-103 18.5t-81 55.5t-53 92.5t-19 128.5z" />
    <glyph glyph-name="p" unicode="p" horiz-adv-x="614" 
d="M322 485q-26 0 -52 -8.5t-47 -28t-34 -51.5t-13 -79q0 -35 10 -65.5t28.5 -53t46 -35.5t62.5 -13q65 0 106.5 42t41.5 123q0 37 -10 68t-29 53.5t-46.5 35t-63.5 12.5zM168 486q37 37 80 63.5t102 26.5q43 0 84 -15t73 -47t52 -82t20 -119q0 -63 -19.5 -110.5t-51 -79
t-72 -47.5t-82.5 -16q-49 0 -92.5 20.5t-83.5 59.5v-225h-108v647h98v-76v0z" />
    <glyph glyph-name="q" unicode="q" horiz-adv-x="614" 
d="M290 485q-29 0 -55.5 -10t-47 -31t-32.5 -53t-12 -75q0 -81 41.5 -123t106.5 -42q35 0 62.5 13t46 35.5t28.5 53t10 65.5q0 79 -40 123t-108 44zM35 313q0 69 19.5 119t52 82t73.5 47t84 15q30 0 55 -7t47 -19t42 -28.5t38 -35.5v76h98v-647h-108v225
q-48 -47 -92.5 -63.5t-83.5 -16.5q-42 0 -82.5 16t-72 47.5t-51 79t-19.5 110.5z" />
    <glyph glyph-name="r" unicode="r" horiz-adv-x="438" 
d="M178 468q34 48 76.5 78t102.5 30q16 0 34.5 -2t34.5 -5l-19 -104q-29 7 -55 7q-40 0 -72 -16t-54.5 -41.5t-35 -57.5t-12.5 -64v-293h-108v562h108v-94v0z" />
    <glyph glyph-name="s" unicode="s" 
d="M56 412q0 34 12 64t35.5 52.5t57.5 35t79 12.5q42 0 89.5 -15.5t111.5 -55.5l-50 -65q-26 14 -46.5 24t-37.5 16t-32.5 9t-31.5 3q-25 0 -42.5 -6t-29 -16t-16.5 -21.5t-5 -21.5q0 -29 23.5 -46t58.5 -31t75.5 -27t75.5 -33t58.5 -50.5t23.5 -78.5q0 -33 -10.5 -64
t-33.5 -56t-61 -40t-92 -15q-62 0 -119 19.5t-118 71.5l59 64q17 -12 36.5 -24.5t41.5 -23t46 -17t51 -6.5q47 0 76.5 20.5t29.5 49.5q0 22 -10 37t-27 26t-41 19t-51 16q-30 9 -62.5 21t-60 31.5t-45.5 48.5t-18 73z" />
    <glyph glyph-name="t" unicode="t" horiz-adv-x="333" 
d="M214 738v-176h112v-87h-112v-475h-108v475h-87v87h87v176h108z" />
    <glyph glyph-name="u" unicode="u" horiz-adv-x="601" 
d="M173 562v-350q0 -65 33 -101.5t91 -36.5q35 0 60 12.5t40.5 33.5t23 49.5t7.5 60.5v332h108v-332q0 -121 -58 -182.5t-172 -61.5q-68 0 -114 16.5t-74 47.5t-40.5 75.5t-12.5 100.5v336h108z" />
    <glyph glyph-name="v" unicode="v" horiz-adv-x="576" 
d="M118 562l169 -429l168 429h109l-227 -562h-100l-225 562h106z" />
    <glyph glyph-name="w" unicode="w" horiz-adv-x="827" 
d="M113 562l71 -231q22 -71 35.5 -118t20.5 -74q4 20 8.5 36.5t9.5 32.5t11 34.5t13 42.5l81 277h97l87 -292q8 -26 18 -60.5t17 -70.5q4 20 9.5 39.5t10.5 37t9.5 31.5t7.5 23l93 292h103l-185 -562h-95l-73 247q-17 56 -30 102.5t-21 87.5q-2 -15 -4.5 -28t-6 -26
t-7.5 -27.5t-10 -32.5l-97 -323h-95l-179 562h101z" />
    <glyph glyph-name="x" unicode="x" horiz-adv-x="604" 
d="M155 562l147 -189l146 189h124l-208 -268l227 -294h-126l-164 213l-162 -213h-125l226 293l-209 269h124z" />
    <glyph glyph-name="y" unicode="y" horiz-adv-x="575" 
d="M129 562l154 -353l161 353h119l-318 -647h-119l96 188l-210 459h117z" />
    <glyph glyph-name="z" unicode="z" 
d="M479 562l-291 -475h291v-87h-465l290 475h-268v87h443z" />
    <glyph glyph-name="braceleft" unicode="{" horiz-adv-x="426" 
d="M346 738v-44h-39.5t-32 -4.5t-21 -18t-7.5 -40.5v-176q0 -44 -18 -71t-60 -40v-2q42 -13 60 -40t18 -71v-178q0 -27 8 -40.5t21.5 -18t31.5 -4.5h39v-44h-94q-48 0 -69 22t-21 65v184q0 15 -3 31.5t-10 31t-19 24.5t-30 10v58q18 0 30 10t19 24.5t10 31t3 31.5v182
q0 44 21 65.5t69 21.5h94z" />
    <glyph glyph-name="bar" unicode="|" horiz-adv-x="531" 
d="M310 696v-831h-90v831h90z" />
    <glyph glyph-name="braceright" unicode="}" horiz-adv-x="426" 
d="M174 738q48 0 69 -22t21 -65v-184q0 -15 3 -31.5t10 -31t19 -24.5t30 -10v-58q-18 0 -30 -10t-19 -24.5t-10 -31t-3 -31.5v-182q0 -44 -21 -65.5t-69 -21.5h-94v44h39t31.5 4.5t21.5 18t8 40.5v176q0 44 18 71t60 40v2q-42 13 -60 40t-18 71v178q0 27 -8 40.5t-21.5 18
t-31.5 4.5h-39v44h94z" />
    <glyph glyph-name="asciitilde" unicode="~" horiz-adv-x="667" 
d="M64 346q32 28 71 46.5t82 18.5q31 0 63 -12t63 -26.5t60.5 -26.5t55.5 -12q41 0 78 22t66 48v-95q-43 -38 -81 -51.5t-70 -13.5q-31 0 -63 12t-63 26.5t-60.5 26.5t-54.5 12q-42 0 -80.5 -22t-66.5 -48v95v0z" />
    <glyph glyph-name="uni00A0" unicode="&#xa0;" horiz-adv-x="250" 
 />
    <glyph glyph-name="exclamdown" unicode="&#xa1;" horiz-adv-x="271" 
d="M190 435v-507h-108v507h108zM60 611q0 32 22.5 54.5t54.5 22.5t54 -22.5t22 -54.5t-22 -54t-54 -22t-54.5 22t-22.5 54z" />
    <glyph glyph-name="cent" unicode="&#xa2;" 
d="M272 482q-72 -23 -101 -76t-29 -126q0 -88 35.5 -137t94.5 -61v400v0zM272 649h59v-72q38 -2 74.5 -14t71.5 -29v-96l-31 15.5t-35.5 16t-39 12.5t-40.5 5v-410q16 1 31 4t32 9t37 15t46 23v-99q-40 -16 -73 -27t-73 -14v-69h-59v68h-1q-59 6 -102 34t-71.5 68.5
t-42.5 89t-14 95.5q0 69 18 122.5t49.5 91.5t73 60t89.5 27h1v74z" />
    <glyph glyph-name="sterling" unicode="&#xa3;" 
d="M63 566q0 40 14 73.5t40 57.5t61.5 37.5t79.5 13.5q91 0 147 -45.5t67 -136.5h-110q0 42 -26.5 66.5t-71.5 24.5q-18 0 -34.5 -5t-29.5 -15.5t-21 -26.5t-8 -37q0 -41 15 -80.5t36 -79.5h153v-87h-119q9 -32 13.5 -56.5t4.5 -49.5q0 -23 -4.5 -50.5t-15.5 -63.5
q23 -11 45.5 -17t44.5 -6q32 0 61 12.5t57 29.5l18 -95q-20 -10 -36 -17.5t-31.5 -13t-32 -8t-36.5 -2.5q-27 0 -51 5.5t-45 11.5t-40.5 11.5t-38.5 5.5q-26 0 -51 -10t-47 -24l-34 93q37 21 67 30t62 9q5 22 6.5 40t1.5 35q0 32 -6.5 61.5t-21.5 68.5h-114v87h73
q-20 47 -31 83t-11 70z" />
    <glyph glyph-name="currency" unicode="&#xa4;" horiz-adv-x="687" 
d="M343 469q-28 0 -53.5 -10.5t-45 -29.5t-31 -45t-11.5 -56t11 -55.5t30.5 -45t45.5 -30.5t55 -11t55 11t45 30.5t30 45t11 55.5q0 28 -11 54t-30 45t-45 30.5t-56 11.5zM154 577l62 -62q58 40 128 40q35 0 67 -10t61 -30l62 62l59 -59l-62 -62q17 -26 28.5 -58.5
t11.5 -69.5q0 -38 -11.5 -71t-28.5 -57l62 -63l-59 -59l-62 62q-34 -23 -66.5 -31.5t-61.5 -8.5q-68 0 -128 40l-62 -62l-60 59l62 63q-19 27 -29 60.5t-10 67.5t10 67t29 61l-62 62z" />
    <glyph glyph-name="yen" unicode="&#xa5;" 
d="M126 738l126 -295l122 295h132l-85 -192h79v-64h-108l-53 -121h161v-63h-189v-298h-118v298h-193v63h165l-55 121h-110v64h81l-87 192h132z" />
    <glyph glyph-name="brokenbar" unicode="&#xa6;" horiz-adv-x="531" 
d="M310 220v-355h-90v355h90zM310 696v-355h-90v355h90z" />
    <glyph glyph-name="section" unicode="&#xa7;" horiz-adv-x="542" 
d="M210 476q-27 -18 -47.5 -42.5t-20.5 -52.5q0 -21 15 -41.5t41.5 -41.5t63 -44.5t78.5 -50.5q28 24 44 50.5t16 53.5q0 22 -12.5 40.5t-37 37.5t-60 40.5t-80.5 50.5zM92 645q0 30 13 56t37 45t59 30t79 11q40 0 73 -9t57 -26.5t37.5 -43.5t14.5 -61h-94q-6 32 -28.5 46
t-53.5 14q-37 0 -64 -16.5t-27 -48.5q0 -25 22.5 -46t56.5 -41.5t73.5 -43t73.5 -50.5t56.5 -64t22.5 -84q0 -54 -27 -94.5t-69 -71.5q20 -24 30.5 -50t10.5 -57q0 -24 -10.5 -49t-33 -46t-58 -34.5t-86.5 -13.5q-97 0 -144.5 42.5t-47.5 115.5h89v-1q4 -41 28 -58.5
t72 -17.5q47 0 70.5 16t23.5 42q0 16 -8.5 31.5t-22.5 26.5q-20 16 -46.5 32t-55 33t-57 35.5t-52.5 41.5q-27 26 -45 59t-18 68q0 42 23 87.5t78 79.5q-29 31 -40.5 59.5t-11.5 55.5z" />
    <glyph glyph-name="dieresis" unicode="&#xa8;" horiz-adv-x="333" 
d="M199 696q0 23 15.5 38.5t38.5 15.5t38.5 -15.5t15.5 -38.5t-15.5 -38.5t-38.5 -15.5t-38.5 15.5t-15.5 38.5zM26 697q0 23 15.5 38.5t38.5 15.5t38.5 -15.5t15.5 -38.5t-15.5 -38.5t-38.5 -15.5t-38.5 15.5t-15.5 38.5z" />
    <glyph glyph-name="copyright" unicode="&#xa9;" horiz-adv-x="800" 
d="M216 351q0 46 12.5 85t36.5 66.5t59.5 43t81.5 15.5q56 0 98 -26.5t65 -91.5l-79 -19q-12 31 -32 49.5t-55 18.5q-28 0 -47 -11t-31 -30t-17.5 -44t-5.5 -53q0 -39 8 -65.5t21.5 -43t30.5 -23.5t35 -7q32 0 56.5 19.5t36.5 64.5l79 -27q-20 -67 -65 -97t-99 -30
q-35 0 -69 11.5t-60.5 36.5t-43 64t-16.5 94zM398 654q-61 0 -115.5 -23.5t-95 -64t-64.5 -95t-24 -117.5q0 -62 23.5 -117t64.5 -95.5t95.5 -64t116.5 -23.5t117 23.5t96 64t64.5 95.5t23.5 117q0 60 -23 114.5t-63.5 96t-96 65.5t-119.5 24zM25 354q0 77 29 145t80 119
t119 80.5t146 29.5t146.5 -29.5t119.5 -80.5t80 -119t29 -145t-29.5 -145t-80.5 -119t-119 -80.5t-146 -29.5q-77 0 -145 29.5t-119 80t-80.5 118.5t-29.5 146z" />
    <glyph glyph-name="ordfeminine" unicode="&#xaa;" horiz-adv-x="378" 
d="M186 564q-16 0 -32 -3t-29.5 -10.5t-22 -20.5t-8.5 -33q0 -12 5 -24.5t15.5 -22t27.5 -15.5t41 -6q39 0 66.5 17t27.5 49q0 29 -24 49t-67 20zM52 735q55 22 127 22q38 0 69 -7t53.5 -24t35 -44.5t12.5 -68.5v-159q0 -32 3 -45.5t9 -26.5h-71q-3 14 -4 20.5t-1 11.5
q-32 -19 -61.5 -30.5t-64.5 -11.5q-66 0 -101 36.5t-35 90.5q0 21 8.5 42.5t25.5 39t42 28t59 10.5q38 0 64.5 -10t53.5 -24v37.5t-8 35t-30 25.5t-65 10q-29 0 -54 -5t-54 -15l-13 62v0z" />
    <glyph glyph-name="guillemotleft" unicode="&#xab;" horiz-adv-x="604" 
d="M548 562l-113 -282l112 -280h-116l-112 279l113 283h116zM284 562l-113 -282l112 -280h-117l-111 278l112 284h117z" />
    <glyph glyph-name="logicalnot" unicode="&#xac;" horiz-adv-x="667" 
d="M603 488v-321h-90v231h-449v90h539z" />
    <glyph glyph-name="uni00AD" unicode="&#xad;" 
d="M438 334v-107h-376v107h376z" />
    <glyph glyph-name="registered" unicode="&#xae;" horiz-adv-x="800" 
d="M385 380q28 0 44.5 5.5t25 13.5t10.5 17.5t2 17.5q0 26 -19.5 40t-55.5 14h-81v-108h74zM425 551q24 0 47 -6.5t41 -20t28.5 -34.5t10.5 -51q0 -42 -25.5 -72.5t-81.5 -38.5q13 -5 22 -11t17 -15t16.5 -22t20.5 -32l55 -94h-99l-32 60q-21 40 -37 61.5t-30 30.5t-30 10
t-37 1v-163h-80v397h194zM399 655q-61 0 -115.5 -23.5t-95 -64t-64.5 -95.5t-24 -118t23.5 -117.5t64.5 -95.5t95.5 -64.5t116.5 -23.5t117 23.5t96 64.5t64.5 96t23.5 117q0 61 -23 115.5t-63.5 96t-96 65.5t-119.5 24zM25 354q0 77 29 145t80 119t119 80.5t146 29.5
q79 0 147.5 -30t119 -81t79.5 -119t29 -144q0 -77 -29.5 -145t-80.5 -119t-119 -80.5t-146 -29.5q-77 0 -145 29.5t-119 80t-80.5 118.5t-29.5 146z" />
    <glyph glyph-name="macron" unicode="&#xaf;" horiz-adv-x="333" 
d="M320 746v-76h-307v76h307z" />
    <glyph glyph-name="degree" unicode="&#xb0;" horiz-adv-x="396" 
d="M197 672q-30 0 -54 -22.5t-24 -56.5q0 -32 23 -55.5t56 -23.5t56 23.5t23 55.5t-23 55.5t-57 23.5zM53 593q0 30 11.5 56.5t31.5 46t46 31t56 11.5t56 -11.5t46 -31t31.5 -46t11.5 -56.5t-11.5 -56.5t-31 -46t-46 -31t-56.5 -11.5t-56.5 11.5t-46 31t-31 46t-11.5 56.5z
" />
    <glyph glyph-name="plusminus" unicode="&#xb1;" horiz-adv-x="667" 
d="M603 63v-90h-539v90h539zM378 682v-224h225v-90h-225v-225h-90v225h-224v90h224v224h90z" />
    <glyph glyph-name="twosuperior" unicode="&#xb2;" 
d="M74 601q0 34 11 63t31.5 49.5t50.5 32t67 11.5t65.5 -12t48 -32t29.5 -45.5t10 -53.5q0 -55 -44 -115.5t-126 -138.5h174v-71h-321v24q14 14 37 35.5t49 47.5t52 55.5t47 58.5t34.5 57t13.5 52q0 28 -19.5 48.5t-52.5 20.5q-34 0 -56 -24t-24 -63h-77v0z" />
    <glyph glyph-name="threesuperior" unicode="&#xb3;" 
d="M74 640q6 59 51 88t108 29q71 0 111 -33.5t40 -89.5q0 -35 -16 -62t-50 -45q41 -14 58.5 -46t17.5 -66q0 -30 -13 -54.5t-35.5 -42.5t-52.5 -27.5t-65 -9.5q-67 0 -112 29t-53 89h88q4 -15 13 -24.5t20 -15.5t23.5 -8t22.5 -2q35 0 57.5 20.5t22.5 53.5q0 30 -25 51.5
t-71 20.5v65q47 2 66.5 22t19.5 47q0 28 -20.5 43.5t-51.5 15.5q-29 0 -48.5 -11.5t-27.5 -36.5h-78v0z" />
    <glyph glyph-name="acute" unicode="&#xb4;" horiz-adv-x="333" 
d="M302 735l-154 -103l-56 16l110 113z" />
    <glyph glyph-name="mu" unicode="&#xb5;" horiz-adv-x="604" 
d="M173 562v-333q0 -69 30.5 -112t96.5 -43q35 0 59.5 14t39.5 35t22 45.5t7 45.5v348h108v-562h-107v53q-20 -31 -54 -48t-71 -17q-26 0 -47.5 6t-38 16t-28 21.5t-17.5 22.5v-253h-106v761h106z" />
    <glyph glyph-name="paragraph" unicode="&#xb6;" horiz-adv-x="553" 
d="M553 738v-120h-55v-793h-108v793h-90v-793h-108v511q-35 0 -69.5 14t-61.5 40t-44 63t-17 85q0 46 15.5 83t44 63t70 40t92.5 14h331z" />
    <glyph glyph-name="periodcentered" unicode="&#xb7;" horiz-adv-x="271" 
d="M59 367q0 32 22.5 54.5t54.5 22.5t54 -22.5t22 -54.5t-22 -54t-54 -22t-54.5 22t-22.5 54z" />
    <glyph glyph-name="cedilla" unicode="&#xb8;" horiz-adv-x="333" 
d="M223 17q5 -11 9 -23t4 -24q0 -28 -24 -40t-67 -12q-34 0 -74.5 5.5t-74.5 13.5l14 29q47 -10 79 -10q29 0 41 7t12 27q0 7 -4 27h85z" />
    <glyph glyph-name="onesuperior" unicode="&#xb9;" 
d="M301 745v-456h-87v388h-92v68h179z" />
    <glyph glyph-name="ordmasculine" unicode="&#xba;" horiz-adv-x="361" 
d="M179 698q-28 0 -45.5 -13t-27 -32.5t-13 -43.5t-3.5 -45q0 -58 20 -95.5t70 -37.5q43 0 67 33t24 100q0 28 -5 52.5t-15.5 42.5t-28.5 28.5t-43 10.5zM20 564q0 95 43 144t117 49q30 0 59 -10t51.5 -33t36.5 -60t14 -91q0 -50 -12.5 -86t-34.5 -59t-51.5 -34.5
t-62.5 -11.5q-72 0 -116 47.5t-44 144.5z" />
    <glyph glyph-name="guillemotright" unicode="&#xbb;" horiz-adv-x="604" 
d="M437 562l112 -284l-111 -278h-117l112 280l-113 282h117zM172 562l113 -283l-112 -279h-116l112 280l-113 282h116z" />
    <glyph glyph-name="onequarter" unicode="&#xbc;" horiz-adv-x="1000" 
d="M790 378l-155 -240h155v240zM871 456v-318h41v-65h-41v-75h-81v75l-224 -1l-1 66l207 318h99zM301 745v-456h-87v388h-92v68h179zM753 747l-422 -760h-77l422 760h77z" />
    <glyph glyph-name="onehalf" unicode="&#xbd;" horiz-adv-x="1000" 
d="M585 310q0 34 11 63t31.5 49.5t50.5 32t67 11.5t65.5 -12t48 -32t29.5 -45.5t10 -53.5q0 -55 -44 -115.5t-126 -138.5h174v-71h-321v24q14 14 37 35.5t49 47.5t52 55.5t47 58.5t34.5 57t13.5 52q0 28 -19.5 48.5t-52.5 20.5q-34 0 -56 -24t-24 -63h-77v0zM301 745v-456
h-87v388h-92v68h179zM720 750l-421 -763h-78l422 763h77z" />
    <glyph glyph-name="threequarters" unicode="&#xbe;" horiz-adv-x="1000" 
d="M786 378l-154 -240h154v240zM869 456v-318h40v-65h-40v-75h-83v75h-224v65l205 318h102zM787 747l-419 -760h-80l419 760h80zM74 640q6 59 51 88t108 29q71 0 111 -33.5t40 -89.5q0 -35 -16 -62t-50 -45q41 -14 58.5 -46t17.5 -66q0 -30 -13 -54.5t-35.5 -42.5
t-52.5 -27.5t-65 -9.5q-67 0 -112 29t-53 89h88q4 -15 13 -24.5t20 -15.5t23.5 -8t22.5 -2q35 0 57.5 20.5t22.5 53.5q0 30 -25 51.5t-71 20.5v65q47 2 66.5 22t19.5 47q0 28 -20.5 43.5t-51.5 15.5q-29 0 -48.5 -11.5t-27.5 -36.5h-78v0z" />
    <glyph glyph-name="questiondown" unicode="&#xbf;" horiz-adv-x="552" 
d="M358 445v-183q-61 4 -97 -8.5t-54.5 -33.5t-24 -46.5t-5.5 -47.5q0 -23 8.5 -44t24 -36.5t37.5 -25t49 -9.5q45 0 78 25.5t39 78.5h107q-2 -46 -19 -82.5t-46.5 -62t-69 -39.5t-85.5 -14q-108 0 -169.5 57.5t-61.5 157.5q0 44 13 81.5t37 65t57 44.5t73 21h1v101h108z
M228 611q0 32 22.5 54.5t54.5 22.5t54 -22.5t22 -54.5t-22 -54t-54 -22t-54.5 22t-22.5 54z" />
    <glyph glyph-name="Agrave" unicode="&#xc0;" horiz-adv-x="771" 
d="M241 278h285l-143 346zM439 738l318 -738h-117l-76 185h-361l-76 -185h-114l314 738h112zM351 938l108 -115l-52 -16l-158 107z" />
    <glyph glyph-name="Aacute" unicode="&#xc1;" horiz-adv-x="771" 
d="M241 278h285l-143 346zM439 738l318 -738h-117l-76 185h-361l-76 -185h-114l314 738h112zM521 911l-154 -103l-56 16l110 113z" />
    <glyph glyph-name="Acircumflex" unicode="&#xc2;" horiz-adv-x="771" 
d="M241 278h285l-143 346zM439 738l318 -738h-117l-76 185h-361l-76 -185h-114l314 738h112zM439 937l92 -130h-68l-78 62l-78 -62h-68l89 130h111z" />
    <glyph glyph-name="Atilde" unicode="&#xc3;" horiz-adv-x="771" 
d="M241 278h285l-143 346zM439 738l318 -738h-117l-76 185h-361l-76 -185h-114l314 738h112zM238 812q0 21 4 43t13.5 40.5t25.5 30t40 11.5q19 0 37.5 -6.5t35.5 -14t31.5 -14t25.5 -6.5q15 0 18.5 13t4.5 26h59q0 -57 -19.5 -90.5t-63.5 -33.5q-20 0 -38.5 6.5t-35 14.5
t-31 14.5t-24.5 6.5q-17 0 -21.5 -13.5t-4.5 -27.5h-57v0z" />
    <glyph glyph-name="Adieresis" unicode="&#xc4;" horiz-adv-x="771" 
d="M241 278h285l-143 346zM439 738l318 -738h-117l-76 185h-361l-76 -185h-114l314 738h112zM418 872q0 23 15.5 38.5t38.5 15.5t38.5 -15.5t15.5 -38.5t-15.5 -38.5t-38.5 -15.5t-38.5 15.5t-15.5 38.5zM245 873q0 23 15.5 38.5t38.5 15.5t38.5 -15.5t15.5 -38.5
t-15.5 -38.5t-38.5 -15.5t-38.5 15.5t-15.5 38.5z" />
    <glyph glyph-name="Aring" unicode="&#xc5;" horiz-adv-x="771" 
d="M241 278h285l-143 346zM439 738l318 -738h-117l-76 185h-361l-76 -185h-114l314 738h112zM385 961q-20 0 -35 -14.5t-15 -35.5t15 -35.5t35 -14.5q21 0 36 14.5t15 35.5q0 20 -14.5 35t-36.5 15zM284 910q0 21 8 39.5t22 32.5t32.5 22t39.5 8t39.5 -8t32 -22t21.5 -32.5
t8 -39.5t-8 -39.5t-21.5 -32t-32 -21.5t-39.5 -8t-39.5 8t-32.5 21.5t-22 32t-8 39.5z" />
    <glyph glyph-name="AE" unicode="&#xc6;" horiz-adv-x="979" 
d="M430 640l-172 -363h209v363h-37zM939 738v-98h-354v-221h317v-98h-317v-223h354v-98h-472v184h-253l-87 -184h-115l357 738h570z" />
    <glyph glyph-name="Ccedilla" unicode="&#xc7;" horiz-adv-x="708" 
d="M42 366q0 81 25.5 152t73.5 124t117.5 84t157.5 31q72 0 136.5 -18.5t125.5 -58.5v-110q-51 36 -114.5 62t-132.5 26q-51 0 -100.5 -18t-88 -54t-62 -90.5t-23.5 -126.5q0 -66 20.5 -119t57 -91t87 -58.5t109.5 -20.5q66 0 129.5 25.5t117.5 61.5v-108q-44 -29 -94.5 -48
t-123.5 -27h-1q1 -7 1.5 -10t0.5 -8q0 -20 -20 -34t-71 -14q-34 0 -74.5 5.5t-74.5 13.5l14 29q22 -5 43 -7.5t37 -2.5q26 0 35 5.5t13 19.5q-83 12 -143.5 48t-100 88t-58.5 116t-19 133z" />
    <glyph glyph-name="Egrave" unicode="&#xc8;" horiz-adv-x="689" 
d="M649 738v-98h-451v-221h415v-98h-415v-223h451v-98h-569v738h569zM325 938l108 -115l-52 -16l-158 107z" />
    <glyph glyph-name="Eacute" unicode="&#xc9;" horiz-adv-x="689" 
d="M649 738v-98h-451v-221h415v-98h-415v-223h451v-98h-569v738h569zM495 911l-154 -103l-56 16l110 113z" />
    <glyph glyph-name="Ecircumflex" unicode="&#xca;" horiz-adv-x="689" 
d="M649 738v-98h-451v-221h415v-98h-415v-223h451v-98h-569v738h569zM413 937l92 -130h-68l-78 62l-78 -62h-68l89 130h111z" />
    <glyph glyph-name="Edieresis" unicode="&#xcb;" horiz-adv-x="689" 
d="M649 738v-98h-451v-221h415v-98h-415v-223h451v-98h-569v738h569zM392 872q0 23 15.5 38.5t38.5 15.5t38.5 -15.5t15.5 -38.5t-15.5 -38.5t-38.5 -15.5t-38.5 15.5t-15.5 38.5zM219 873q0 23 15.5 38.5t38.5 15.5t38.5 -15.5t15.5 -38.5t-15.5 -38.5t-38.5 -15.5
t-38.5 15.5t-15.5 38.5z" />
    <glyph glyph-name="Igrave" unicode="&#xcc;" horiz-adv-x="328" 
d="M223 738v-738h-118v738h118zM130 938l108 -115l-52 -16l-158 107z" />
    <glyph glyph-name="Iacute" unicode="&#xcd;" horiz-adv-x="328" 
d="M223 738v-738h-118v738h118zM300 911l-154 -103l-56 16l110 113z" />
    <glyph glyph-name="Icircumflex" unicode="&#xce;" horiz-adv-x="328" 
d="M223 738v-738h-118v738h118zM218 937l92 -130h-68l-78 62l-78 -62h-68l89 130h111z" />
    <glyph glyph-name="Idieresis" unicode="&#xcf;" horiz-adv-x="328" 
d="M223 738v-738h-118v738h118zM197 872q0 23 15.5 38.5t38.5 15.5t38.5 -15.5t15.5 -38.5t-15.5 -38.5t-38.5 -15.5t-38.5 15.5t-15.5 38.5zM24 873q0 23 15.5 38.5t38.5 15.5t38.5 -15.5t15.5 -38.5t-15.5 -38.5t-38.5 -15.5t-38.5 15.5t-15.5 38.5z" />
    <glyph glyph-name="Eth" unicode="&#xd0;" horiz-adv-x="785" 
d="M392 391v-66h-194v-227h160q140 0 205 69t65 214q0 69 -20 118t-55 80.5t-81.5 46t-99.5 14.5h-174v-249h194zM378 738q83 0 150.5 -27.5t115 -76.5t73.5 -116.5t26 -146.5q0 -93 -31 -162.5t-81.5 -116t-114 -69.5t-129.5 -23h-307v325h-77v66h77v347h298z" />
    <glyph glyph-name="Ntilde" unicode="&#xd1;" horiz-adv-x="778" 
d="M202 738l388 -586v586h108v-738h-125l-388 588v-588h-105v738h122zM242 812q0 21 4 43t13.5 40.5t25.5 30t40 11.5q19 0 37.5 -6.5t35.5 -14t31.5 -14t25.5 -6.5q15 0 18.5 13t4.5 26h59q0 -57 -19.5 -90.5t-63.5 -33.5q-20 0 -38.5 6.5t-35 14.5t-31 14.5t-24.5 6.5
q-17 0 -21.5 -13.5t-4.5 -27.5h-57v0z" />
    <glyph glyph-name="Ograve" unicode="&#xd2;" horiz-adv-x="781" 
d="M386 659q-44 0 -85 -17.5t-73 -54t-51.5 -92.5t-19.5 -133q0 -62 16 -114t45.5 -89.5t71.5 -58.5t94 -21q56 0 100.5 21t75.5 60.5t47.5 96t16.5 127.5q0 45 -13 94t-41.5 89t-73.5 66t-110 26zM42 358q0 71 19 142.5t60.5 128.5t107.5 92.5t161 35.5q87 0 152 -32.5
t109 -86.5t66 -123t22 -142q0 -77 -22.5 -147.5t-66 -125t-107 -87t-146.5 -32.5q-74 0 -129.5 20t-94.5 52t-64.5 73t-40.5 83t-20.5 81t-5.5 68zM356 938l108 -115l-52 -16l-158 107z" />
    <glyph glyph-name="Oacute" unicode="&#xd3;" horiz-adv-x="781" 
d="M386 659q-44 0 -85 -17.5t-73 -54t-51.5 -92.5t-19.5 -133q0 -62 16 -114t45.5 -89.5t71.5 -58.5t94 -21q56 0 100.5 21t75.5 60.5t47.5 96t16.5 127.5q0 45 -13 94t-41.5 89t-73.5 66t-110 26zM42 358q0 71 19 142.5t60.5 128.5t107.5 92.5t161 35.5q87 0 152 -32.5
t109 -86.5t66 -123t22 -142q0 -77 -22.5 -147.5t-66 -125t-107 -87t-146.5 -32.5q-74 0 -129.5 20t-94.5 52t-64.5 73t-40.5 83t-20.5 81t-5.5 68zM526 911l-154 -103l-56 16l110 113z" />
    <glyph glyph-name="Ocircumflex" unicode="&#xd4;" horiz-adv-x="781" 
d="M386 659q-44 0 -85 -17.5t-73 -54t-51.5 -92.5t-19.5 -133q0 -62 16 -114t45.5 -89.5t71.5 -58.5t94 -21q56 0 100.5 21t75.5 60.5t47.5 96t16.5 127.5q0 45 -13 94t-41.5 89t-73.5 66t-110 26zM42 358q0 71 19 142.5t60.5 128.5t107.5 92.5t161 35.5q87 0 152 -32.5
t109 -86.5t66 -123t22 -142q0 -77 -22.5 -147.5t-66 -125t-107 -87t-146.5 -32.5q-74 0 -129.5 20t-94.5 52t-64.5 73t-40.5 83t-20.5 81t-5.5 68zM444 937l92 -130h-68l-78 62l-78 -62h-68l89 130h111z" />
    <glyph glyph-name="Otilde" unicode="&#xd5;" horiz-adv-x="781" 
d="M386 659q-44 0 -85 -17.5t-73 -54t-51.5 -92.5t-19.5 -133q0 -62 16 -114t45.5 -89.5t71.5 -58.5t94 -21q56 0 100.5 21t75.5 60.5t47.5 96t16.5 127.5q0 45 -13 94t-41.5 89t-73.5 66t-110 26zM42 358q0 71 19 142.5t60.5 128.5t107.5 92.5t161 35.5q87 0 152 -32.5
t109 -86.5t66 -123t22 -142q0 -77 -22.5 -147.5t-66 -125t-107 -87t-146.5 -32.5q-74 0 -129.5 20t-94.5 52t-64.5 73t-40.5 83t-20.5 81t-5.5 68zM243 812q0 21 4 43t13.5 40.5t25.5 30t40 11.5q19 0 37.5 -6.5t35.5 -14t31.5 -14t25.5 -6.5q15 0 18.5 13t4.5 26h59
q0 -57 -19.5 -90.5t-63.5 -33.5q-20 0 -38.5 6.5t-35 14.5t-31 14.5t-24.5 6.5q-17 0 -21.5 -13.5t-4.5 -27.5h-57v0z" />
    <glyph glyph-name="Odieresis" unicode="&#xd6;" horiz-adv-x="781" 
d="M386 659q-44 0 -85 -17.5t-73 -54t-51.5 -92.5t-19.5 -133q0 -62 16 -114t45.5 -89.5t71.5 -58.5t94 -21q56 0 100.5 21t75.5 60.5t47.5 96t16.5 127.5q0 45 -13 94t-41.5 89t-73.5 66t-110 26zM42 358q0 71 19 142.5t60.5 128.5t107.5 92.5t161 35.5q87 0 152 -32.5
t109 -86.5t66 -123t22 -142q0 -77 -22.5 -147.5t-66 -125t-107 -87t-146.5 -32.5q-74 0 -129.5 20t-94.5 52t-64.5 73t-40.5 83t-20.5 81t-5.5 68zM423 872q0 23 15.5 38.5t38.5 15.5t38.5 -15.5t15.5 -38.5t-15.5 -38.5t-38.5 -15.5t-38.5 15.5t-15.5 38.5zM250 873
q0 23 15.5 38.5t38.5 15.5t38.5 -15.5t15.5 -38.5t-15.5 -38.5t-38.5 -15.5t-38.5 15.5t-15.5 38.5z" />
    <glyph glyph-name="multiply" unicode="&#xd7;" horiz-adv-x="604" 
d="M301 391l188 188l64 -63l-188 -188l188 -189l-64 -63l-188 188l-188 -188l-63 63l188 189l-188 188l63 63z" />
    <glyph glyph-name="Oslash" unicode="&#xd8;" horiz-adv-x="781" 
d="M624 373q0 53 -13.5 100.5t-34.5 79.5l-332 -421q56 -53 146 -53q55 0 98.5 22.5t73.5 61.5t46 93t16 117zM389 659q-54 0 -97 -22.5t-73 -61t-46 -90.5t-16 -112q0 -51 10.5 -99.5t35.5 -92.5l333 423q-38 29 -72 42t-75 13zM42 366q0 81 22.5 152t67 124.5t111 84
t155.5 30.5q55 0 109 -18t97 -52l56 70l48 -40l-59 -74q42 -51 66 -119t24 -149q0 -82 -22 -153.5t-66 -125t-110 -84.5t-154 -31q-74 0 -127 21t-81 47l-56 -68l-49 39l59 72q-42 50 -66.5 119.5t-24.5 154.5z" />
    <glyph glyph-name="Ugrave" unicode="&#xd9;" horiz-adv-x="762" 
d="M194 738v-452q0 -97 50 -152t138 -55q49 0 84.5 17.5t58 46t33.5 65.5t11 77v453h118v-410q0 -172 -75.5 -259.5t-229.5 -87.5q-152 0 -229.5 83t-77.5 243v431h119zM347 938l108 -115l-52 -16l-158 107z" />
    <glyph glyph-name="Uacute" unicode="&#xda;" horiz-adv-x="762" 
d="M194 738v-452q0 -97 50 -152t138 -55q49 0 84.5 17.5t58 46t33.5 65.5t11 77v453h118v-410q0 -172 -75.5 -259.5t-229.5 -87.5q-152 0 -229.5 83t-77.5 243v431h119zM517 911l-154 -103l-56 16l110 113z" />
    <glyph glyph-name="Ucircumflex" unicode="&#xdb;" horiz-adv-x="762" 
d="M194 738v-452q0 -97 50 -152t138 -55q49 0 84.5 17.5t58 46t33.5 65.5t11 77v453h118v-410q0 -172 -75.5 -259.5t-229.5 -87.5q-152 0 -229.5 83t-77.5 243v431h119zM435 937l92 -130h-68l-78 62l-78 -62h-68l89 130h111z" />
    <glyph glyph-name="Udieresis" unicode="&#xdc;" horiz-adv-x="762" 
d="M194 738v-452q0 -97 50 -152t138 -55q49 0 84.5 17.5t58 46t33.5 65.5t11 77v453h118v-410q0 -172 -75.5 -259.5t-229.5 -87.5q-152 0 -229.5 83t-77.5 243v431h119zM414 872q0 23 15.5 38.5t38.5 15.5t38.5 -15.5t15.5 -38.5t-15.5 -38.5t-38.5 -15.5t-38.5 15.5
t-15.5 38.5zM241 873q0 23 15.5 38.5t38.5 15.5t38.5 -15.5t15.5 -38.5t-15.5 -38.5t-38.5 -15.5t-38.5 15.5t-15.5 38.5z" />
    <glyph glyph-name="Yacute" unicode="&#xdd;" horiz-adv-x="731" 
d="M146 738l218 -314l218 314h135l-294 -413v-325h-118v322l-292 416h133zM501 911l-154 -103l-56 16l110 113z" />
    <glyph glyph-name="Thorn" unicode="&#xde;" horiz-adv-x="691" 
d="M419 271q58 0 90 31.5t32 87.5q0 31 -10 54t-27.5 38t-41 22.5t-51.5 7.5h-213v-241h221zM198 738v-128h243q47 0 86.5 -16t68.5 -44.5t45 -66.5t16 -82q0 -53 -16 -95t-45.5 -71.5t-72 -45.5t-95.5 -16h-230v-173h-118v738h118z" />
    <glyph glyph-name="germandbls" unicode="&#xdf;" horiz-adv-x="609" 
d="M73 489q0 131 62 199.5t181 68.5q52 0 94 -15.5t70.5 -42t44 -62.5t15.5 -76q0 -57 -32 -98.5t-84 -53.5q77 -22 113.5 -69t36.5 -133q0 -59 -14 -100.5t-38.5 -68t-58.5 -39t-73 -12.5q-31 0 -57 5t-56 18v89q26 -8 49 -13t44 -5q53 0 74.5 34t21.5 94q0 72 -37.5 105.5
t-128.5 33.5v93q74 2 108.5 34.5t34.5 83.5q0 19 -6.5 38.5t-21 34.5t-37.5 24.5t-57 9.5q-70 0 -106.5 -43t-36.5 -122v-501h-105v489v0z" />
    <glyph glyph-name="agrave" unicode="&#xe0;" horiz-adv-x="584" 
d="M274 281q-23 0 -46 -5t-42 -17t-30.5 -32.5t-11.5 -51.5q0 -46 30.5 -73.5t93.5 -27.5q42 0 69.5 9.5t43 24.5t22 32.5t6.5 33.5t-6 35t-21.5 35t-41.5 26.5t-66 10.5zM80 541q42 17 86.5 26t95.5 9q57 0 104 -11t81 -36.5t53 -68.5t19 -106v-234q0 -36 3.5 -65t14.5 -55
h-108q-3 10 -6 24t-3 26q-45 -36 -87.5 -50t-100.5 -14q-50 0 -87 14.5t-61 40.5t-36 61.5t-12 76.5q0 37 12 70.5t36.5 59t61 41t85.5 15.5q65 0 105.5 -14.5t70.5 -38.5v64q0 102 -154 102q-47 0 -82 -9.5t-72 -22.5l-19 95v0zM258 762l108 -115l-52 -16l-158 107z" />
    <glyph glyph-name="aacute" unicode="&#xe1;" horiz-adv-x="584" 
d="M274 281q-23 0 -46 -5t-42 -17t-30.5 -32.5t-11.5 -51.5q0 -46 30.5 -73.5t93.5 -27.5q42 0 69.5 9.5t43 24.5t22 32.5t6.5 33.5t-6 35t-21.5 35t-41.5 26.5t-66 10.5zM80 541q42 17 86.5 26t95.5 9q57 0 104 -11t81 -36.5t53 -68.5t19 -106v-234q0 -36 3.5 -65t14.5 -55
h-108q-3 10 -6 24t-3 26q-45 -36 -87.5 -50t-100.5 -14q-50 0 -87 14.5t-61 40.5t-36 61.5t-12 76.5q0 37 12 70.5t36.5 59t61 41t85.5 15.5q65 0 105.5 -14.5t70.5 -38.5v64q0 102 -154 102q-47 0 -82 -9.5t-72 -22.5l-19 95v0zM428 735l-154 -103l-56 16l110 113z" />
    <glyph glyph-name="acircumflex" unicode="&#xe2;" horiz-adv-x="584" 
d="M274 281q-23 0 -46 -5t-42 -17t-30.5 -32.5t-11.5 -51.5q0 -46 30.5 -73.5t93.5 -27.5q42 0 69.5 9.5t43 24.5t22 32.5t6.5 33.5t-6 35t-21.5 35t-41.5 26.5t-66 10.5zM80 541q42 17 86.5 26t95.5 9q57 0 104 -11t81 -36.5t53 -68.5t19 -106v-234q0 -36 3.5 -65t14.5 -55
h-108q-3 10 -6 24t-3 26q-45 -36 -87.5 -50t-100.5 -14q-50 0 -87 14.5t-61 40.5t-36 61.5t-12 76.5q0 37 12 70.5t36.5 59t61 41t85.5 15.5q65 0 105.5 -14.5t70.5 -38.5v64q0 102 -154 102q-47 0 -82 -9.5t-72 -22.5l-19 95v0zM346 761l92 -130h-68l-78 62l-78 -62h-68
l89 130h111z" />
    <glyph glyph-name="atilde" unicode="&#xe3;" horiz-adv-x="584" 
d="M274 281q-23 0 -46 -5t-42 -17t-30.5 -32.5t-11.5 -51.5q0 -46 30.5 -73.5t93.5 -27.5q42 0 69.5 9.5t43 24.5t22 32.5t6.5 33.5t-6 35t-21.5 35t-41.5 26.5t-66 10.5zM80 541q42 17 86.5 26t95.5 9q57 0 104 -11t81 -36.5t53 -68.5t19 -106v-234q0 -36 3.5 -65t14.5 -55
h-108q-3 10 -6 24t-3 26q-45 -36 -87.5 -50t-100.5 -14q-50 0 -87 14.5t-61 40.5t-36 61.5t-12 76.5q0 37 12 70.5t36.5 59t61 41t85.5 15.5q65 0 105.5 -14.5t70.5 -38.5v64q0 102 -154 102q-47 0 -82 -9.5t-72 -22.5l-19 95v0zM145 636q0 21 4 43t13.5 40.5t25.5 30
t40 11.5q19 0 37.5 -6.5t35.5 -14t31.5 -14t25.5 -6.5q15 0 18.5 13t4.5 26h59q0 -57 -19.5 -90.5t-63.5 -33.5q-20 0 -38.5 6.5t-35 14.5t-31 14.5t-24.5 6.5q-17 0 -21.5 -13.5t-4.5 -27.5h-57v0z" />
    <glyph glyph-name="adieresis" unicode="&#xe4;" horiz-adv-x="584" 
d="M274 281q-23 0 -46 -5t-42 -17t-30.5 -32.5t-11.5 -51.5q0 -46 30.5 -73.5t93.5 -27.5q42 0 69.5 9.5t43 24.5t22 32.5t6.5 33.5t-6 35t-21.5 35t-41.5 26.5t-66 10.5zM80 541q42 17 86.5 26t95.5 9q57 0 104 -11t81 -36.5t53 -68.5t19 -106v-234q0 -36 3.5 -65t14.5 -55
h-108q-3 10 -6 24t-3 26q-45 -36 -87.5 -50t-100.5 -14q-50 0 -87 14.5t-61 40.5t-36 61.5t-12 76.5q0 37 12 70.5t36.5 59t61 41t85.5 15.5q65 0 105.5 -14.5t70.5 -38.5v64q0 102 -154 102q-47 0 -82 -9.5t-72 -22.5l-19 95v0zM325 696q0 23 15.5 38.5t38.5 15.5
t38.5 -15.5t15.5 -38.5t-15.5 -38.5t-38.5 -15.5t-38.5 15.5t-15.5 38.5zM152 697q0 23 15.5 38.5t38.5 15.5t38.5 -15.5t15.5 -38.5t-15.5 -38.5t-38.5 -15.5t-38.5 15.5t-15.5 38.5z" />
    <glyph glyph-name="aring" unicode="&#xe5;" horiz-adv-x="584" 
d="M274 281q-23 0 -46 -5t-42 -17t-30.5 -32.5t-11.5 -51.5q0 -46 30.5 -73.5t93.5 -27.5q42 0 69.5 9.5t43 24.5t22 32.5t6.5 33.5t-6 35t-21.5 35t-41.5 26.5t-66 10.5zM80 541q42 17 86.5 26t95.5 9q57 0 104 -11t81 -36.5t53 -68.5t19 -106v-234q0 -36 3.5 -65t14.5 -55
h-108q-3 10 -6 24t-3 26q-45 -36 -87.5 -50t-100.5 -14q-50 0 -87 14.5t-61 40.5t-36 61.5t-12 76.5q0 37 12 70.5t36.5 59t61 41t85.5 15.5q65 0 105.5 -14.5t70.5 -38.5v64q0 102 -154 102q-47 0 -82 -9.5t-72 -22.5l-19 95v0zM292 785q-20 0 -35 -14.5t-15 -35.5
t15 -35.5t35 -14.5q21 0 36 14.5t15 35.5q0 20 -14.5 35t-36.5 15zM191 734q0 21 8 39.5t22 32.5t32.5 22t39.5 8t39.5 -8t32 -22t21.5 -32.5t8 -39.5t-8 -39.5t-21.5 -32t-32 -21.5t-39.5 -8t-39.5 8t-32.5 21.5t-22 32t-8 39.5z" />
    <glyph glyph-name="ae" unicode="&#xe6;" horiz-adv-x="858" 
d="M260 277q-20 0 -40.5 -5t-37.5 -17t-28 -31t-11 -47q0 -49 34.5 -76t83.5 -27q53 0 86 28t33 75q0 48 -34 74t-86 26zM729 334q0 33 -7.5 61.5t-22.5 50t-38 34t-54 12.5q-32 0 -54.5 -12.5t-37.5 -33.5t-22 -50t-7 -62h243zM80 540q32 16 82 26t100 10q72 0 114.5 -21.5
t70.5 -54.5q36 38 71.5 57t83.5 19t89.5 -22t72 -63t48.5 -100t20 -133h-348q0 -48 9.5 -82.5t26.5 -56t40 -31.5t50 -10q44 0 70.5 22t49.5 50l76 -59q-41 -46 -89.5 -75t-116.5 -29q-50 0 -92 20.5t-76 63.5q-50 -48 -97.5 -66.5t-90.5 -18.5q-40 0 -77.5 13t-66.5 37.5
t-46.5 60.5t-17.5 83q0 35 12 68.5t35.5 60t58.5 42.5t81 16q38 0 79.5 -12.5t74.5 -32.5q1 35 -1.5 63.5t-14.5 49t-36.5 32t-67.5 11.5q-47 0 -85 -9t-74 -23l-18 94v0z" />
    <glyph glyph-name="ccedilla" unicode="&#xe7;" horiz-adv-x="537" 
d="M30 277q0 69 21.5 124t60 94t90.5 60t113 21q51 0 98 -16.5t92 -42.5v-103q-25 18 -46 31.5t-41.5 22.5t-42 13t-47.5 4q-46 0 -81.5 -15.5t-59.5 -43t-36.5 -65t-12.5 -80.5q0 -48 14 -86t39.5 -64.5t61 -40t77.5 -13.5q23 0 44 3.5t42 11.5t43 21.5t46 33.5v-104
q-23 -13 -40.5 -21.5t-34 -15t-34.5 -10.5t-42 -8l1 -15q0 -26 -21.5 -40.5t-71.5 -14.5q-34 0 -74.5 5.5t-74.5 13.5l14 29q37 -8 55 -9t26 -1q28 0 39.5 5.5t12.5 28.5q-54 10 -96.5 35t-72 62.5t-45.5 85.5t-16 104z" />
    <glyph glyph-name="egrave" unicode="&#xe8;" horiz-adv-x="559" 
d="M423 333q0 30 -9 58.5t-26.5 51t-43 36t-58.5 13.5q-29 0 -54.5 -10.5t-45 -30.5t-31 -49.5t-11.5 -68.5h279zM35 272q0 70 18 126.5t50.5 96t78.5 60.5t103 21q63 0 109 -25.5t76 -69.5t45.5 -102t17.5 -122h-389q1 -180 150 -180q39 0 69 18.5t64 57.5l75 -60
q-42 -56 -94.5 -81.5t-119.5 -25.5q-58 0 -105 20.5t-80 58t-50.5 90t-17.5 117.5zM245 762l108 -115l-52 -16l-158 107z" />
    <glyph glyph-name="eacute" unicode="&#xe9;" horiz-adv-x="559" 
d="M423 333q0 30 -9 58.5t-26.5 51t-43 36t-58.5 13.5q-29 0 -54.5 -10.5t-45 -30.5t-31 -49.5t-11.5 -68.5h279zM35 272q0 70 18 126.5t50.5 96t78.5 60.5t103 21q63 0 109 -25.5t76 -69.5t45.5 -102t17.5 -122h-389q1 -180 150 -180q39 0 69 18.5t64 57.5l75 -60
q-42 -56 -94.5 -81.5t-119.5 -25.5q-58 0 -105 20.5t-80 58t-50.5 90t-17.5 117.5zM415 735l-154 -103l-56 16l110 113z" />
    <glyph glyph-name="ecircumflex" unicode="&#xea;" horiz-adv-x="559" 
d="M423 333q0 30 -9 58.5t-26.5 51t-43 36t-58.5 13.5q-29 0 -54.5 -10.5t-45 -30.5t-31 -49.5t-11.5 -68.5h279zM35 272q0 70 18 126.5t50.5 96t78.5 60.5t103 21q63 0 109 -25.5t76 -69.5t45.5 -102t17.5 -122h-389q1 -180 150 -180q39 0 69 18.5t64 57.5l75 -60
q-42 -56 -94.5 -81.5t-119.5 -25.5q-58 0 -105 20.5t-80 58t-50.5 90t-17.5 117.5zM333 761l92 -130h-68l-78 62l-78 -62h-68l89 130h111z" />
    <glyph glyph-name="edieresis" unicode="&#xeb;" horiz-adv-x="559" 
d="M423 333q0 30 -9 58.5t-26.5 51t-43 36t-58.5 13.5q-29 0 -54.5 -10.5t-45 -30.5t-31 -49.5t-11.5 -68.5h279zM35 272q0 70 18 126.5t50.5 96t78.5 60.5t103 21q63 0 109 -25.5t76 -69.5t45.5 -102t17.5 -122h-389q1 -180 150 -180q39 0 69 18.5t64 57.5l75 -60
q-42 -56 -94.5 -81.5t-119.5 -25.5q-58 0 -105 20.5t-80 58t-50.5 90t-17.5 117.5zM312 696q0 23 15.5 38.5t38.5 15.5t38.5 -15.5t15.5 -38.5t-15.5 -38.5t-38.5 -15.5t-38.5 15.5t-15.5 38.5zM139 697q0 23 15.5 38.5t38.5 15.5t38.5 -15.5t15.5 -38.5t-15.5 -38.5
t-38.5 -15.5t-38.5 15.5t-15.5 38.5z" />
    <glyph glyph-name="igrave" unicode="&#xec;" horiz-adv-x="271" 
d="M189 513v-513h-108v513h108zM101 762l108 -115l-52 -16l-158 107z" />
    <glyph glyph-name="iacute" unicode="&#xed;" horiz-adv-x="271" 
d="M189 513v-513h-108v513h108zM271 735l-154 -103l-56 16l110 113z" />
    <glyph glyph-name="icircumflex" unicode="&#xee;" horiz-adv-x="271" 
d="M189 513v-513h-108v513h108zM189 761l92 -130h-68l-78 62l-78 -62h-68l89 130h111z" />
    <glyph glyph-name="idieresis" unicode="&#xef;" horiz-adv-x="271" 
d="M189 513v-513h-108v513h108zM168 696q0 23 15.5 38.5t38.5 15.5t38.5 -15.5t15.5 -38.5t-15.5 -38.5t-38.5 -15.5t-38.5 15.5t-15.5 38.5zM-5 697q0 23 15.5 38.5t38.5 15.5t38.5 -15.5t15.5 -38.5t-15.5 -38.5t-38.5 -15.5t-38.5 15.5t-15.5 38.5z" />
    <glyph glyph-name="eth" unicode="&#xf0;" horiz-adv-x="569" 
d="M280 485q-43 0 -70 -20t-42 -50t-20 -66t-5 -68q0 -98 31.5 -151t106.5 -53q69 0 104 53.5t35 150.5q0 45 -8 82.5t-24.5 64.5t-43.5 42t-64 15zM254 800q17 -12 26.5 -20.5t26.5 -22.5l88 43l22 -48l-70 -33q45 -49 80 -93.5t59 -92t36 -102t12 -122.5
q0 -96 -24.5 -158.5t-62 -99t-82 -51t-84.5 -14.5q-54 0 -99 18t-78 54.5t-51 92t-18 130.5q0 93 26 150.5t61 89.5t70.5 43.5t55.5 11.5q42 0 68 -5.5t46 -25.5v1q-19 40 -43 73.5t-55 63.5l-133 -66l-20 47l116 52q-30 28 -56.5 45.5t-59.5 38.5h143z" />
    <glyph glyph-name="ntilde" unicode="&#xf1;" horiz-adv-x="608" 
d="M178 483q47 48 92.5 70.5t102.5 22.5q42 0 74 -14t53 -39.5t32 -60t11 -75.5v-387h-108v368q0 56 -26.5 85t-77.5 29q-29 0 -56 -11.5t-49 -33.5t-35 -53.5t-13 -70.5v-313h-108v562h108v-79v0zM157 636q0 21 4 43t13.5 40.5t25.5 30t40 11.5q19 0 37.5 -6.5t35.5 -14
t31.5 -14t25.5 -6.5q15 0 18.5 13t4.5 26h59q0 -57 -19.5 -90.5t-63.5 -33.5q-20 0 -38.5 6.5t-35 14.5t-31 14.5t-24.5 6.5q-17 0 -21.5 -13.5t-4.5 -27.5h-57v0z" />
    <glyph glyph-name="ograve" unicode="&#xf2;" horiz-adv-x="583" 
d="M290 485q-41 0 -69 -17.5t-45.5 -46t-25 -65t-7.5 -75.5q0 -60 12.5 -99t33.5 -62.5t47.5 -33t54.5 -9.5q27 0 53.5 10t47.5 34t34.5 63t13.5 97q0 93 -37.5 148.5t-112.5 55.5zM35 281q0 73 19.5 128t54 92t81 56t101.5 19q46 0 92 -15.5t82.5 -50.5t59.5 -92t23 -139
q0 -71 -19 -125.5t-53 -92t-81.5 -56.5t-103.5 -19t-103 18.5t-81 55.5t-53 92.5t-19 128.5zM257 762l108 -115l-52 -16l-158 107z" />
    <glyph glyph-name="oacute" unicode="&#xf3;" horiz-adv-x="583" 
d="M290 485q-41 0 -69 -17.5t-45.5 -46t-25 -65t-7.5 -75.5q0 -60 12.5 -99t33.5 -62.5t47.5 -33t54.5 -9.5q27 0 53.5 10t47.5 34t34.5 63t13.5 97q0 93 -37.5 148.5t-112.5 55.5zM35 281q0 73 19.5 128t54 92t81 56t101.5 19q46 0 92 -15.5t82.5 -50.5t59.5 -92t23 -139
q0 -71 -19 -125.5t-53 -92t-81.5 -56.5t-103.5 -19t-103 18.5t-81 55.5t-53 92.5t-19 128.5zM427 735l-154 -103l-56 16l110 113z" />
    <glyph glyph-name="ocircumflex" unicode="&#xf4;" horiz-adv-x="583" 
d="M290 485q-41 0 -69 -17.5t-45.5 -46t-25 -65t-7.5 -75.5q0 -60 12.5 -99t33.5 -62.5t47.5 -33t54.5 -9.5q27 0 53.5 10t47.5 34t34.5 63t13.5 97q0 93 -37.5 148.5t-112.5 55.5zM35 281q0 73 19.5 128t54 92t81 56t101.5 19q46 0 92 -15.5t82.5 -50.5t59.5 -92t23 -139
q0 -71 -19 -125.5t-53 -92t-81.5 -56.5t-103.5 -19t-103 18.5t-81 55.5t-53 92.5t-19 128.5zM345 761l92 -130h-68l-78 62l-78 -62h-68l89 130h111z" />
    <glyph glyph-name="otilde" unicode="&#xf5;" horiz-adv-x="583" 
d="M290 485q-41 0 -69 -17.5t-45.5 -46t-25 -65t-7.5 -75.5q0 -60 12.5 -99t33.5 -62.5t47.5 -33t54.5 -9.5q27 0 53.5 10t47.5 34t34.5 63t13.5 97q0 93 -37.5 148.5t-112.5 55.5zM35 281q0 73 19.5 128t54 92t81 56t101.5 19q46 0 92 -15.5t82.5 -50.5t59.5 -92t23 -139
q0 -71 -19 -125.5t-53 -92t-81.5 -56.5t-103.5 -19t-103 18.5t-81 55.5t-53 92.5t-19 128.5zM144 636q0 21 4 43t13.5 40.5t25.5 30t40 11.5q19 0 37.5 -6.5t35.5 -14t31.5 -14t25.5 -6.5q15 0 18.5 13t4.5 26h59q0 -57 -19.5 -90.5t-63.5 -33.5q-20 0 -38.5 6.5t-35 14.5
t-31 14.5t-24.5 6.5q-17 0 -21.5 -13.5t-4.5 -27.5h-57v0z" />
    <glyph glyph-name="odieresis" unicode="&#xf6;" horiz-adv-x="583" 
d="M290 485q-41 0 -69 -17.5t-45.5 -46t-25 -65t-7.5 -75.5q0 -60 12.5 -99t33.5 -62.5t47.5 -33t54.5 -9.5q27 0 53.5 10t47.5 34t34.5 63t13.5 97q0 93 -37.5 148.5t-112.5 55.5zM35 281q0 73 19.5 128t54 92t81 56t101.5 19q46 0 92 -15.5t82.5 -50.5t59.5 -92t23 -139
q0 -71 -19 -125.5t-53 -92t-81.5 -56.5t-103.5 -19t-103 18.5t-81 55.5t-53 92.5t-19 128.5zM324 696q0 23 15.5 38.5t38.5 15.5t38.5 -15.5t15.5 -38.5t-15.5 -38.5t-38.5 -15.5t-38.5 15.5t-15.5 38.5zM151 697q0 23 15.5 38.5t38.5 15.5t38.5 -15.5t15.5 -38.5
t-15.5 -38.5t-38.5 -15.5t-38.5 15.5t-15.5 38.5z" />
    <glyph glyph-name="divide" unicode="&#xf7;" horiz-adv-x="667" 
d="M279 123q0 23 15.5 39t38.5 16t39 -16t16 -39t-16 -38.5t-39 -15.5t-38.5 15.5t-15.5 38.5zM603 371v-86h-539v86h539zM279 532q0 23 15.5 39t38.5 16t39 -16t16 -39t-16 -39t-39 -16t-38.5 16t-15.5 39z" />
    <glyph glyph-name="oslash" unicode="&#xf8;" horiz-adv-x="583" 
d="M440 282q0 24 -1 40t-3.5 28t-6 22.5t-9.5 23.5l-215 -291q16 -14 35.5 -21t50.5 -7q22 0 48 8.5t48.5 31t37.5 62.5t15 103zM289 485q-41 0 -69 -18.5t-45 -48t-24.5 -65.5t-7.5 -71q0 -73 24 -131l218 300q-17 18 -45 26t-51 8zM35 281q0 72 19 127t52.5 92.5
t80.5 56.5t104 19q43 0 79.5 -12t72.5 -35l36 47l52 -30l-43 -60q34 -48 47 -97t13 -110q0 -77 -21 -132.5t-56.5 -91t-82.5 -52.5t-99 -17q-45 0 -77 9.5t-65 30.5l-35 -46l-48 33l38 52q-33 42 -50 92t-17 124z" />
    <glyph glyph-name="ugrave" unicode="&#xf9;" horiz-adv-x="601" 
d="M173 562v-350q0 -65 33 -101.5t91 -36.5q35 0 60 12.5t40.5 33.5t23 49.5t7.5 60.5v332h108v-332q0 -121 -58 -182.5t-172 -61.5q-68 0 -114 16.5t-74 47.5t-40.5 75.5t-12.5 100.5v336h108zM266 762l108 -115l-52 -16l-158 107z" />
    <glyph glyph-name="uacute" unicode="&#xfa;" horiz-adv-x="601" 
d="M173 562v-350q0 -65 33 -101.5t91 -36.5q35 0 60 12.5t40.5 33.5t23 49.5t7.5 60.5v332h108v-332q0 -121 -58 -182.5t-172 -61.5q-68 0 -114 16.5t-74 47.5t-40.5 75.5t-12.5 100.5v336h108zM436 735l-154 -103l-56 16l110 113z" />
    <glyph glyph-name="ucircumflex" unicode="&#xfb;" horiz-adv-x="601" 
d="M173 562v-350q0 -65 33 -101.5t91 -36.5q35 0 60 12.5t40.5 33.5t23 49.5t7.5 60.5v332h108v-332q0 -121 -58 -182.5t-172 -61.5q-68 0 -114 16.5t-74 47.5t-40.5 75.5t-12.5 100.5v336h108zM354 761l92 -130h-68l-78 62l-78 -62h-68l89 130h111z" />
    <glyph glyph-name="udieresis" unicode="&#xfc;" horiz-adv-x="601" 
d="M173 562v-350q0 -65 33 -101.5t91 -36.5q35 0 60 12.5t40.5 33.5t23 49.5t7.5 60.5v332h108v-332q0 -121 -58 -182.5t-172 -61.5q-68 0 -114 16.5t-74 47.5t-40.5 75.5t-12.5 100.5v336h108zM333 696q0 23 15.5 38.5t38.5 15.5t38.5 -15.5t15.5 -38.5t-15.5 -38.5
t-38.5 -15.5t-38.5 15.5t-15.5 38.5zM160 697q0 23 15.5 38.5t38.5 15.5t38.5 -15.5t15.5 -38.5t-15.5 -38.5t-38.5 -15.5t-38.5 15.5t-15.5 38.5z" />
    <glyph glyph-name="yacute" unicode="&#xfd;" horiz-adv-x="575" 
d="M129 562l154 -353l161 353h119l-318 -647h-119l96 188l-210 459h117zM423 735l-154 -103l-56 16l110 113z" />
    <glyph glyph-name="thorn" unicode="&#xfe;" horiz-adv-x="614" 
d="M322 485q-26 0 -52 -8.5t-47 -28t-34 -51.5t-13 -79q0 -35 10 -65.5t28.5 -53t46 -35.5t62.5 -13q65 0 106.5 42t41.5 123q0 37 -10 68t-29 53.5t-46.5 35t-63.5 12.5zM168 738v-252q37 37 80 63.5t102 26.5q43 0 84 -15t73 -47t52 -82t20 -119q0 -63 -19.5 -110.5
t-51 -79t-72 -47.5t-82.5 -16q-49 0 -92.5 20.5t-83.5 59.5v-225h-108v823h98z" />
    <glyph glyph-name="ydieresis" unicode="&#xff;" horiz-adv-x="575" 
d="M129 562l154 -353l161 353h119l-318 -647h-119l96 188l-210 459h117zM320 696q0 23 15.5 38.5t38.5 15.5t38.5 -15.5t15.5 -38.5t-15.5 -38.5t-38.5 -15.5t-38.5 15.5t-15.5 38.5zM147 697q0 23 15.5 38.5t38.5 15.5t38.5 -15.5t15.5 -38.5t-15.5 -38.5t-38.5 -15.5
t-38.5 15.5t-15.5 38.5z" />
    <glyph glyph-name="dotlessi" unicode="&#x131;" horiz-adv-x="271" 
d="M189 513v-513h-108v513h108z" />
    <glyph glyph-name="Lslash" unicode="&#x141;" horiz-adv-x="669" 
d="M198 738v-282l144 166v-82l-144 -166v-276h441v-98h-559v237l-80 -89l1 82l79 90v418h118z" />
    <glyph glyph-name="lslash" unicode="&#x142;" horiz-adv-x="271" 
d="M189 757v-259l77 104v-72l-77 -105v-425h-108v278l-86 -117v71l86 119v406h108z" />
    <glyph glyph-name="OE" unicode="&#x152;" horiz-adv-x="985" 
d="M383 659q-48 0 -89.5 -20.5t-71.5 -58t-47 -92t-17 -121.5q0 -58 14.5 -110.5t43 -92t71 -62.5t98.5 -23q21 0 44.5 6t42.5 14v540q-27 11 -45.5 15.5t-43.5 4.5zM43 373q0 41 7.5 85.5t24 87t43 81t64.5 67.5t88 46t115 17q22 0 44 -3t41.5 -6.5t36.5 -6.5t29 -3h409
v-98h-355v-219h320v-98h-320v-225h355v-98h-386q-11 0 -32 -3t-46 -6.5t-50.5 -6.5t-44.5 -3q-97 0 -162.5 37.5t-105.5 95.5t-57.5 127t-17.5 132z" />
    <glyph glyph-name="oe" unicode="&#x153;" horiz-adv-x="852" 
d="M262 485q-39 0 -63 -20.5t-36.5 -51t-16.5 -67t-4 -68.5q0 -61 9.5 -100t26 -61.5t38.5 -31t47 -8.5q22 0 42 9.5t35.5 32t24.5 60t9 93.5q0 114 -30.5 163.5t-81.5 49.5zM723 333q0 41 -10.5 71t-27.5 49.5t-39.5 29t-46.5 9.5q-56 0 -88 -42.5t-32 -116.5h244zM35 278
q0 89 23 147t56.5 91.5t72.5 46.5t71 13q55 0 98 -23.5t75 -67.5q36 48 76.5 69.5t94.5 21.5q34 0 72.5 -17t71.5 -55t55.5 -98.5t24.5 -148.5h-347q0 -47 10 -81t27 -56t40 -32.5t49 -10.5q36 0 65 19.5t55 53.5l75 -59q-41 -49 -90 -77t-112 -28q-57 0 -96.5 21t-75.5 63
q-34 -45 -73.5 -64.5t-92.5 -19.5q-47 0 -88 17t-71.5 52.5t-48 90.5t-17.5 132z" />
    <glyph glyph-name="Scaron" unicode="&#x160;" horiz-adv-x="549" 
d="M58 557q0 40 14.5 76.5t43 64t70.5 43.5t96 16q69 0 122 -32t89 -82l-75 -67q-31 42 -65.5 64t-79.5 22q-53 0 -82.5 -27.5t-29.5 -67.5t26 -64.5t65.5 -44t85.5 -38t85.5 -46t65.5 -68.5t26 -105q0 -51 -17 -92t-48.5 -69.5t-76 -43.5t-100.5 -15q-88 0 -147 46t-92 137
l95 34q23 -56 58.5 -87.5t93.5 -31.5q59 0 92.5 32.5t33.5 87.5q0 29 -12 49.5t-33 36.5t-49 29t-60 28q-36 16 -71 35t-62.5 43.5t-44.5 58t-17 78.5zM198 939l77 -61l77 61h69l-91 -130h-110l-92 130h70z" />
    <glyph glyph-name="scaron" unicode="&#x161;" 
d="M56 412q0 34 12 64t35.5 52.5t57.5 35t79 12.5q42 0 89.5 -15.5t111.5 -55.5l-50 -65q-26 14 -46.5 24t-37.5 16t-32.5 9t-31.5 3q-25 0 -42.5 -6t-29 -16t-16.5 -21.5t-5 -21.5q0 -29 23.5 -46t58.5 -31t75.5 -27t75.5 -33t58.5 -50.5t23.5 -78.5q0 -33 -10.5 -64
t-33.5 -56t-61 -40t-92 -15q-62 0 -119 19.5t-118 71.5l59 64q17 -12 36.5 -24.5t41.5 -23t46 -17t51 -6.5q47 0 76.5 20.5t29.5 49.5q0 22 -10 37t-27 26t-41 19t-51 16q-30 9 -62.5 21t-60 31.5t-45.5 48.5t-18 73zM174 763l77 -61l77 61h69l-91 -130h-110l-92 130h70z
" />
    <glyph glyph-name="Ydieresis" unicode="&#x178;" horiz-adv-x="731" 
d="M146 738l218 -314l218 314h135l-294 -413v-325h-118v322l-292 416h133zM398 872q0 23 15.5 38.5t38.5 15.5t38.5 -15.5t15.5 -38.5t-15.5 -38.5t-38.5 -15.5t-38.5 15.5t-15.5 38.5zM225 873q0 23 15.5 38.5t38.5 15.5t38.5 -15.5t15.5 -38.5t-15.5 -38.5t-38.5 -15.5
t-38.5 15.5t-15.5 38.5z" />
    <glyph glyph-name="Zcaron" unicode="&#x17d;" horiz-adv-x="667" 
d="M639 738l-411 -640h399v-98h-600l410 640h-368v98h570zM257 939l77 -61l77 61h69l-91 -130h-110l-92 130h70z" />
    <glyph glyph-name="zcaron" unicode="&#x17e;" 
d="M479 562l-291 -475h291v-87h-465l290 475h-268v87h443zM174 763l77 -61l77 61h69l-91 -130h-110l-92 130h70z" />
    <glyph glyph-name="florin" unicode="&#x192;" horiz-adv-x="531" 
d="M241 621q7 40 18 66t28.5 41.5t42.5 22t60 6.5q72 0 135 -20l-23 -92q-20 5 -42 9.5t-33 4.5q-34 0 -52.5 -20.5t-23.5 -55.5l-11 -69h102l-11 -70h-101l-85 -474q-6 -33 -16.5 -60.5t-28 -47.5t-43.5 -31.5t-63 -11.5q-29 0 -68.5 5t-67.5 14l24 90q17 -4 38.5 -7.5
t43.5 -3.5q33 0 46 18t21 61l79 448h-99l11 70h99l20 107v0z" />
    <glyph glyph-name="circumflex" unicode="&#x2c6;" horiz-adv-x="333" 
d="M220 761l92 -130h-68l-78 62l-78 -62h-68l89 130h111z" />
    <glyph glyph-name="caron" unicode="&#x2c7;" horiz-adv-x="333" 
d="M90 763l77 -61l77 61h69l-91 -130h-110l-92 130h70z" />
    <glyph glyph-name="uni02C9" unicode="&#x2c9;" horiz-adv-x="333" 
d="M320 746v-76h-307v76h307z" />
    <glyph glyph-name="breve" unicode="&#x2d8;" horiz-adv-x="333" 
d="M167 631q-60 0 -97 33t-45 98h54q8 -30 32.5 -42.5t56.5 -12.5q34 0 56.5 13.5t30.5 41.5h54q-8 -63 -43.5 -97t-98.5 -34z" />
    <glyph glyph-name="dotaccent" unicode="&#x2d9;" horiz-adv-x="333" 
d="M199 696q0 23 15.5 38.5t38.5 15.5t38.5 -15.5t15.5 -38.5t-15.5 -38.5t-38.5 -15.5t-38.5 15.5t-15.5 38.5zM26 697q0 23 15.5 38.5t38.5 15.5t38.5 -15.5t15.5 -38.5t-15.5 -38.5t-38.5 -15.5t-38.5 15.5t-15.5 38.5z" />
    <glyph glyph-name="ring" unicode="&#x2da;" horiz-adv-x="333" 
d="M166 785q-20 0 -35 -14.5t-15 -35.5t15 -35.5t35 -14.5q21 0 36 14.5t15 35.5q0 20 -14.5 35t-36.5 15zM65 734q0 21 8 39.5t22 32.5t32.5 22t39.5 8t39.5 -8t32 -22t21.5 -32.5t8 -39.5t-8 -39.5t-21.5 -32t-32 -21.5t-39.5 -8t-39.5 8t-32.5 21.5t-22 32t-8 39.5z" />
    <glyph glyph-name="ogonek" unicode="&#x2db;" horiz-adv-x="333" 
d="M172 17q-18 -20 -21.5 -30t-3.5 -13q0 -22 47 -22q15 0 29 3.5t30 11.5l14 -29q-25 -12 -52.5 -18t-69.5 -6q-45 0 -64 15t-19 35q0 15 7.5 28.5t17.5 24.5h85z" />
    <glyph glyph-name="tilde" unicode="&#x2dc;" horiz-adv-x="333" 
d="M19 636q0 21 4 43t13.5 40.5t25.5 30t40 11.5q19 0 37.5 -6.5t35.5 -14t31.5 -14t25.5 -6.5q15 0 18.5 13t4.5 26h59q0 -57 -19.5 -90.5t-63.5 -33.5q-20 0 -38.5 6.5t-35 14.5t-31 14.5t-24.5 6.5q-17 0 -21.5 -13.5t-4.5 -27.5h-57v0z" />
    <glyph glyph-name="hungarumlaut" unicode="&#x2dd;" horiz-adv-x="333" 
d="M334 749l-131 -117l-56 16l96 124zM187 749l-131 -117l-56 16l96 124z" />
    <glyph glyph-name="semicolon.001" unicode="&#x37e;" horiz-adv-x="333" 
d="M279 218l-145 -303h-84l103 303h126zM137 500q0 32 22 54t54 22t54.5 -22t22.5 -54t-22.5 -54.5t-54.5 -22.5t-54 22.5t-22 54.5z" />
    <glyph glyph-name="uni0394" unicode="&#x394;" horiz-adv-x="559" 
d="M294 605q-4 -15 -5.5 -23t-3.5 -15.5t-4.5 -16.5t-7 -26t-13 -45t-21.5 -72l-96 -318h306l-100 333q-11 36 -17.5 59t-11 37.5t-7 23t-5 16.5t-5 18.5t-6.5 28.5h-3zM376 700l202 -651v-49h-558v49l205 651h151z" />
    <glyph glyph-name="uni03A9" unicode="&#x3a9;" horiz-adv-x="670" 
d="M41 393q0 68 21.5 126.5t60 101t92 67t118.5 24.5q67 0 119.5 -23.5t88.5 -65.5t54.5 -100.5t18.5 -127.5q0 -94 -35 -170t-103 -136h136v-89h-227v89q60 63 86 132.5t26 150.5q0 54 -11 99.5t-32 77.5t-52.5 50t-71.5 18q-41 0 -73 -18.5t-54.5 -51t-34 -78t-11.5 -99.5
q0 -89 28.5 -158t85.5 -123v-89h-227v89h135q-62 55 -100 128.5t-38 175.5z" />
    <glyph glyph-name="uni03BC" unicode="&#x3bc;" horiz-adv-x="604" 
d="M173 562v-333q0 -69 30.5 -112t96.5 -43q35 0 59.5 14t39.5 35t22 45.5t7 45.5v348h108v-562h-107v53q-20 -31 -54 -48t-71 -17q-26 0 -47.5 6t-38 16t-28 21.5t-17.5 22.5v-253h-106v761h106z" />
    <glyph glyph-name="pi" unicode="&#x3c0;" horiz-adv-x="588" 
d="M621 500v-90h-89v-254q0 -14 2 -27.5t7.5 -24t14.5 -17t23 -6.5q9 0 15 3t14 6l21 -78q-11 -8 -34 -14.5t-52 -6.5q-36 0 -61.5 11.5t-42 32t-24 47.5t-7.5 58v270h-147v-275q0 -36 -3.5 -72t-11.5 -63h-125q8 34 12 69.5t4 73.5v267q-16 0 -39.5 -6.5t-43.5 -16.5
l-32 77q16 10 36.5 17t41 11.5t39.5 6t33 1.5h449z" />
    <glyph glyph-name="endash" unicode="&#x2013;" 
d="M506 282v-64h-512v64h512z" />
    <glyph glyph-name="emdash" unicode="&#x2014;" horiz-adv-x="1000" 
d="M1006 282v-64h-1012v64h1012z" />
    <glyph glyph-name="quoteleft" unicode="&#x2018;" horiz-adv-x="333" 
d="M177 757l103 -300h-82l-144 300h123z" />
    <glyph glyph-name="quoteright" unicode="&#x2019;" horiz-adv-x="333" 
d="M279 757l-144 -300h-82l103 300h123z" />
    <glyph glyph-name="quotesinglbase" unicode="&#x201a;" horiz-adv-x="333" 
d="M279 218l-145 -303h-84l103 303h126z" />
    <glyph glyph-name="quotedblleft" unicode="&#x201c;" 
d="M352 757l104 -300h-83l-143 300h122zM168 757l103 -300h-82l-144 300h123z" />
    <glyph glyph-name="quotedblright" unicode="&#x201d;" 
d="M455 757l-144 -300h-82l103 300h123zM270 757l-143 -300h-83l104 300h122z" />
    <glyph glyph-name="quotedblbase" unicode="&#x201e;" 
d="M456 218l-144 -300h-82l103 300h123zM271 218l-144 -300h-82l103 300h123z" />
    <glyph glyph-name="dagger" unicode="&#x2020;" horiz-adv-x="552" 
d="M225 712q0 28 14 47t40 19q24 0 39 -20t15 -52q0 -20 -5 -42.5t-11.5 -44.5t-11.5 -41.5t-5 -32.5q12 0 30 5t38.5 10.5t41.5 10.5t39 5q31 0 48 -15t17 -39q0 -25 -19 -39.5t-45 -14.5q-14 0 -34.5 5t-42.5 11t-42 11t-32 5q0 -23 5 -41t10.5 -36.5t10.5 -41t5 -54.5
q0 -45 -5 -88.5t-11.5 -94t-12 -113t-5.5 -144.5h-46q0 81 -4.5 146t-10 117t-9.5 94.5t-4 78.5q0 28 5 52t11.5 45.5t11.5 41t5 37.5q-17 0 -35.5 -5t-38 -10.5t-38.5 -10.5t-35 -5q-26 0 -47.5 15t-21.5 39q0 25 18.5 39.5t50.5 14.5q16 0 35.5 -5t39.5 -10.5t39 -10.5
t33 -5q0 17 -4.5 39.5t-10.5 45.5t-10.5 45t-4.5 37z" />
    <glyph glyph-name="daggerdbl" unicode="&#x2021;" horiz-adv-x="552" 
d="M226 708q0 26 13.5 48t39.5 22q23 0 39 -18t16 -46q0 -15 -5.5 -35.5t-11.5 -41t-11.5 -39t-5.5 -29.5q18 0 37.5 4.5t38.5 10.5t37.5 10.5t35.5 4.5q29 0 47 -15.5t18 -38.5q0 -24 -21.5 -39t-46.5 -15q-17 0 -35.5 5t-37 10.5t-37.5 10.5t-37 5q0 -7 5 -18.5t11 -24.5
t11 -26.5t5 -24.5q0 -13 -5 -25t-11 -23.5t-11 -23t-5 -22.5q0 -12 5 -23t10.5 -22t10.5 -23.5t5 -27.5q0 -13 -5 -25t-11.5 -23.5t-11.5 -22.5t-5 -22q16 0 36 5t40.5 11t40.5 11t36 5q24 0 42 -16t18 -37q0 -19 -15.5 -37t-50.5 -18q-18 0 -36.5 5t-37.5 10.5t-37.5 10.5
t-35.5 5q0 -19 4.5 -36t10 -33.5t10 -34.5t4.5 -39q0 -20 -5.5 -32.5t-13.5 -19.5t-17 -10t-17 -3q-17 0 -34.5 14t-17.5 50q0 19 5 39t10.5 39t10.5 35.5t5 30.5q-15 0 -34.5 -5t-40 -10.5t-39.5 -10.5t-34 -5q-29 0 -47.5 15t-18.5 37q0 20 16 38t49 18q15 0 35.5 -5
t41 -11t40 -11t33.5 -5q0 11 -5 22t-10.5 22t-10.5 22.5t-5 24.5q0 15 5.5 28t11.5 25l11.5 23t5.5 22q0 10 -5 20t-11.5 21t-11.5 24t-5 29q0 12 5 24t11.5 24t11.5 23.5t5 22.5q-18 0 -37.5 -5t-39 -10.5t-38 -10.5t-34.5 -5q-27 0 -47.5 15.5t-20.5 38.5q0 22 18 39.5
t48 17.5q16 0 35.5 -5t39.5 -11.5t40 -11.5t36 -5q0 12 -4.5 29.5t-10.5 36.5t-10.5 38t-4.5 35z" />
    <glyph glyph-name="bullet" unicode="&#x2022;" horiz-adv-x="350" 
d="M31 358q0 30 11 56t30.5 45.5t46 31t56.5 11.5t56 -11.5t45.5 -31t31 -45.5t11.5 -56t-11.5 -56.5t-31 -46t-46 -30.5t-55.5 -11q-30 0 -56.5 11t-46 30.5t-30.5 46t-11 56.5z" />
    <glyph glyph-name="ellipsis" unicode="&#x2026;" horiz-adv-x="1000" 
d="M757 63q0 32 22 54t54 22t54.5 -22t22.5 -54t-22.5 -54.5t-54.5 -22.5t-54 22.5t-22 54.5zM424 63q0 32 22 54t54 22t54.5 -22t22.5 -54t-22.5 -54.5t-54.5 -22.5t-54 22.5t-22 54.5zM91 63q0 32 22 54t54 22t54.5 -22t22.5 -54t-22.5 -54.5t-54.5 -22.5t-54 22.5
t-22 54.5z" />
    <glyph glyph-name="perthousand" unicode="&#x2030;" horiz-adv-x="1356" 
d="M1105 258q-20 0 -38.5 -8t-32.5 -21.5t-22.5 -32.5t-8.5 -41q0 -21 8 -40t22 -33t33 -22t40 -8t40 8t33 22t22 33t8 40t-8 39.5t-21.5 33t-33 22.5t-41.5 8zM680 258q-20 0 -38.5 -8t-32.5 -21.5t-22.5 -32.5t-8.5 -41q0 -21 8 -40t22 -33t33 -22t40 -8t40 8t33 22t22 33
t8 40t-8 39.5t-21.5 33t-33 22.5t-41.5 8zM919 156q0 39 14.5 73t40 59.5t59.5 40t73 14.5t73 -14.5t59.5 -40t40 -59.5t14.5 -73t-14.5 -73t-40 -59.5t-59.5 -40t-73 -14.5t-73 14.5t-59.5 40t-40 59.5t-14.5 73zM494 156q0 39 14.5 73t40 59.5t59.5 40t73 14.5t73 -14.5
t59.5 -40t40 -59.5t14.5 -73t-14.5 -73t-40 -59.5t-59.5 -40t-73 -14.5t-73 14.5t-59.5 40t-40 59.5t-14.5 73zM247 656q-20 0 -38.5 -8t-32.5 -21.5t-22.5 -32.5t-8.5 -41q0 -21 8 -40t22 -33t33 -22t40 -8t40 8t33 22t22 33t8 40t-8 39.5t-21.5 33t-33 22.5t-41.5 8z
M61 554q0 39 14.5 73t40 59.5t59.5 40t73 14.5t73 -14.5t59.5 -40t40 -59.5t14.5 -73t-14.5 -73t-40 -59.5t-59.5 -40t-73 -14.5t-73 14.5t-59.5 40t-40 59.5t-14.5 73zM733 759l-470 -794h-80l467 794h83z" />
    <glyph glyph-name="guilsinglleft" unicode="&#x2039;" horiz-adv-x="333" 
d="M281 562l-113 -283l112 -279h-116l-112 279l113 283h116z" />
    <glyph glyph-name="guilsinglright" unicode="&#x203a;" horiz-adv-x="333" 
d="M168 562l113 -283l-112 -279h-116l112 279l-113 283h116z" />
    <glyph glyph-name="fraction" unicode="&#x2044;" horiz-adv-x="31" 
d="M251 754l-410 -788h-60l406 788h64z" />
    <glyph glyph-name="Euro" unicode="&#x20ac;" 
d="M50 481q11 59 33.5 107.5t55 83t73.5 53.5t88 19q44 0 86.5 -11.5t75.5 -41.5v-91q-41 28 -74.5 40.5t-75.5 12.5q-57 0 -97 -48t-57 -124h283l-10 -87h-285l-1 -30q1 -7 1 -11.5v-13.5h285l-10 -87h-265q19 -85 63 -130t95 -45q50 0 83.5 17t64.5 43v-97
q-27 -25 -65 -39.5t-96 -14.5q-54 0 -97 20.5t-74.5 56.5t-52 84.5t-29.5 104.5h-60l10 87h41v28v15t0.5 7.5t0.5 4.5h-52l10 87h52v0z" />
    <glyph glyph-name="litre" unicode="&#x2113;" horiz-adv-x="464" 
d="M225 407q12 15 26 37.5t26 48.5t19.5 54t7.5 55q0 20 -8 34t-26 14q-15 0 -23.5 -9t-13.5 -23t-6.5 -30t-1.5 -30v-151zM126 545q0 34 7.5 67t23.5 59t41.5 41.5t61.5 15.5q48 0 77 -31t29 -85q0 -43 -12.5 -83t-32.5 -76.5t-45 -70.5t-51 -66v-165q0 -10 1.5 -25
t7.5 -29t17 -24t29 -10q19 0 36.5 11.5t34.5 29.5l30 -61h-1q-36 -33 -67 -45.5t-57 -12.5q-39 0 -64 14.5t-39.5 38t-20.5 51.5t-6 55v91q-13 -12 -27.5 -28.5t-24.5 -27.5l-34 48l86 93v225v0z" />
    <glyph glyph-name="trademark" unicode="&#x2122;" horiz-adv-x="1000" 
d="M589 731l81 -276l80 276h128v-400h-77v319l-95 -319h-73l-94 319v-319h-77v400h127zM422 731v-70h-121v-330h-82v330h-121v70h324z" />
    <glyph glyph-name="Omega" unicode="&#x2126;" horiz-adv-x="670" 
d="M41 393q0 68 21.5 126.5t60 101t92 67t118.5 24.5q67 0 119.5 -23.5t88.5 -65.5t54.5 -100.5t18.5 -127.5q0 -94 -35 -170t-103 -136h136v-89h-227v89q60 63 86 132.5t26 150.5q0 54 -11 99.5t-32 77.5t-52.5 50t-71.5 18q-41 0 -73 -18.5t-54.5 -51t-34 -78t-11.5 -99.5
q0 -89 28.5 -158t85.5 -123v-89h-227v89h135q-62 55 -100 128.5t-38 175.5z" />
    <glyph glyph-name="estimated" unicode="&#x212e;" horiz-adv-x="637" 
d="M156 306h296v147q-63 63 -151 63q-41 0 -77.5 -14.5t-67.5 -46.5v-149zM41 270q0 58 18 109t51.5 89.5t82 60.5t110.5 22q65 0 114 -22.5t83 -60.5t52 -89.5t20 -108.5h-416v-186q27 -26 63.5 -43t84.5 -17q68 0 116 32.5t81 90.5q11 -6 18 -11t18 -10
q-45 -66 -98.5 -102t-134.5 -36q-62 0 -110.5 22.5t-82.5 60.5t-52 89.5t-18 109.5z" />
    <glyph glyph-name="partialdiff" unicode="&#x2202;" horiz-adv-x="537" 
d="M300 419q-30 0 -58 -19t-50 -52t-35.5 -78t-13.5 -96q0 -50 21.5 -75.5t54.5 -25.5q32 0 59.5 21.5t49 59t38 88t25.5 107.5q-23 70 -91 70zM177 697q21 14 54 23t69 9q46 0 85 -15.5t67.5 -47t44 -79t15.5 -110.5q0 -88 -19.5 -175t-57 -156.5t-91.5 -113t-124 -43.5
q-41 0 -74.5 13.5t-58.5 39t-38.5 61t-13.5 79.5q0 73 21.5 131.5t57 98.5t80.5 61.5t92 21.5q43 0 72.5 -18.5t41.5 -39.5h2v1q2 20 3 34t1 29q0 78 -33.5 112t-86.5 34q-23 0 -46 -6.5t-40 -16.5l-23 73v0z" />
    <glyph glyph-name="Delta" unicode="&#x2206;" horiz-adv-x="559" 
d="M294 605q-4 -15 -5.5 -23t-3.5 -15.5t-4.5 -16.5t-7 -26t-13 -45t-21.5 -72l-96 -318h306l-100 333q-11 36 -17.5 59t-11 37.5t-7 23t-5 16.5t-5 18.5t-6.5 28.5h-3zM376 700l202 -651v-49h-558v49l205 651h151z" />
    <glyph glyph-name="product" unicode="&#x220f;" horiz-adv-x="667" 
d="M595 700v-930h-111v835h-301v-835h-110v930h522z" />
    <glyph glyph-name="summation" unicode="&#x2211;" horiz-adv-x="589" 
d="M509 700v-89h-338l234 -369l-250 -383h375v-89h-505v56l271 413l-252 399v62h465z" />
    <glyph glyph-name="minus" unicode="&#x2212;" horiz-adv-x="667" 
d="M603 373v-90h-539v90h539z" />
    <glyph glyph-name="uni2215" unicode="&#x2215;" horiz-adv-x="31" 
d="M251 754l-410 -788h-60l406 788h64z" />
    <glyph glyph-name="uni2219" unicode="&#x2219;" horiz-adv-x="271" 
d="M59 367q0 32 22.5 54.5t54.5 22.5t54 -22.5t22 -54.5t-22 -54t-54 -22t-54.5 22t-22.5 54z" />
    <glyph glyph-name="radical" unicode="&#x221a;" horiz-adv-x="461" 
d="M474 729l-155 -741h-94l-115 315l-51 -32l-36 56l136 91q8 -22 14 -38l12 -32t12.5 -34.5t16.5 -45.5t23.5 -65.5t33.5 -93.5l128 620h75z" />
    <glyph glyph-name="infinity" unicode="&#x221e;" horiz-adv-x="723" 
d="M510 381q-39 0 -65.5 -26t-49.5 -63q49 -92 116 -92q43 0 63.5 28.5t20.5 64.5t-21 62t-64 26zM198 382q-38 0 -60.5 -27t-22.5 -65t23.5 -64t61.5 -26q64 0 115 92q-10 17 -22.5 33.5t-27 29t-31.5 20t-36 7.5zM30 291q0 39 13.5 70t36 52t51.5 32.5t61 11.5
q53 0 93.5 -27.5t68.5 -71.5h2q25 39 66 69t97 30q34 0 63.5 -12.5t51.5 -34t34.5 -51.5t12.5 -66t-12 -67t-33.5 -53.5t-51 -35t-63.5 -12.5q-52 0 -95 27.5t-70 71.5h-2q-31 -45 -71 -72t-90 -27q-31 0 -60.5 11t-52 32t-36.5 52t-14 71z" />
    <glyph glyph-name="integral" unicode="&#x222b;" horiz-adv-x="462" 
d="M168 570q0 85 43.5 132.5t121.5 47.5q20 0 42 -4.5t30 -9.5q-5 -20 -11 -40.5t-11 -36.5q-24 7 -37 7q-38 0 -53.5 -25t-15.5 -61v-629q0 -37 -9.5 -69.5t-29 -57t-50 -38.5t-73.5 -14q-19 0 -40.5 3.5t-32.5 8.5l19 79q8 -3 16.5 -5t21.5 -2q34 0 51.5 22t17.5 64v628v0
z" />
    <glyph glyph-name="approxequal" unicode="&#x2248;" horiz-adv-x="667" 
d="M438 195q23 0 46.5 15.5t46.5 52.5l60 -68q-31 -42 -65.5 -66t-85.5 -24q-38 0 -64.5 10.5t-49.5 22.5t-45.5 22.5t-51.5 10.5q-23 0 -46 -15.5t-46 -52.5l-60 68q29 41 63.5 65.5t86.5 24.5q38 0 65 -10.5t50 -22.5t45 -22.5t51 -10.5zM438 423q23 0 46.5 15t46.5 52
l60 -68q-31 -43 -66 -66t-85 -23q-39 0 -65.5 10t-49 22.5t-44.5 22.5t-52 10q-50 0 -92 -68l-60 68q29 41 63.5 65.5t86.5 24.5q37 0 64 -10t50.5 -22.5t45.5 -22.5t51 -10z" />
    <glyph glyph-name="notequal" unicode="&#x2260;" horiz-adv-x="667" 
d="M524 586l-64 -129h105v-90h-150l-68 -138h218v-90h-263l-58 -117h-98l58 117h-101v90h146l68 138h-214v90h259l63 129h99z" />
    <glyph glyph-name="lessequal" unicode="&#x2264;" horiz-adv-x="667" 
d="M565 90v-90h-462v90h462zM565 505l-337 -134v-2l337 -134v-95l-462 192v77l462 192v-96z" />
    <glyph glyph-name="greaterequal" unicode="&#x2265;" horiz-adv-x="667" 
d="M564 90v-90h-461v90h461zM103 601l462 -192v-77l-462 -192v96l336 134v2l-336 134v95z" />
    <glyph glyph-name="lozenge" unicode="&#x25ca;" horiz-adv-x="516" 
d="M243 598l-126 -248l125 -248l127 248zM216 700h52l182 -350l-182 -350h-52l-180 349z" />
    </font>
</defs>
</svg>
