<svg xmlns="http://www.w3.org/2000/svg" width="23" height="24" viewBox="0 0 23 24">
  <defs>
    <style>
      .cls-1 {
        fill: #fff;
      }
    </style>
  </defs>
  <path id="ico_instagram" class="cls-1" d="M827.076,6174h-9.153a6.989,6.989,0,0,1-6.923-7.037v-9.926a6.989,6.989,0,0,1,6.923-7.037h9.153a6.989,6.989,0,0,1,6.923,7.037v9.926A6.989,6.989,0,0,1,827.076,6174Zm4.423-16.963a4.465,4.465,0,0,0-4.423-4.5h-9.153a4.465,4.465,0,0,0-4.423,4.5v9.926a4.465,4.465,0,0,0,4.423,4.5h9.153a4.465,4.465,0,0,0,4.423-4.5Zm-2.8.041a1.435,1.435,0,1,1,1.412-1.435A1.424,1.424,0,0,1,828.7,6157.077Zm.361,4.924h0a6.875,6.875,0,0,1-1.939,4.676,6.411,6.411,0,0,1-4.621,1.958,6.623,6.623,0,0,1-6.561-6.668,6.831,6.831,0,0,1,2.01-4.834,6.229,6.229,0,0,1,4.6-1.833,6.7,6.7,0,0,1,4.879,2.03A6.521,6.521,0,0,1,829.06,6162Zm-6.6-3.6h-.095a3.233,3.233,0,0,0-2.283.958,3.681,3.681,0,0,0-1.083,2.606,3.506,3.506,0,1,0,7.01-.034C826.052,6159.759,824.758,6158.473,822.455,6158.4Z" transform="translate(-811 -6150)"/>
</svg>
