<svg xmlns="http://www.w3.org/2000/svg" width="182" height="183" viewBox="0 0 182 183">
  <defs>
    <style>
      .cls-1 {
        fill: rgba(255,255,255,0);
      }

      .cls-1, .cls-2 {
        stroke: #c5d5dd;
      }

      .cls-2, .cls-5 {
        fill: none;
      }

      .cls-2 {
        stroke-width: 27px;
        stroke-dasharray: 1 8;
      }

      .cls-3 {
        fill: #c5d5dd;
      }

      .cls-4 {
        stroke: none;
      }
    </style>
  </defs>
  <g id="Group_341" data-name="Group 341" transform="translate(-1649 -167)">
    <g id="Ellipse_21" data-name="Ellipse 21" class="cls-1" transform="translate(1649 167)">
      <ellipse class="cls-4" cx="91" cy="91.5" rx="91" ry="91.5"/>
      <ellipse class="cls-5" cx="91" cy="91.5" rx="90.5" ry="91"/>
    </g>
    <g id="Ellipse_5" data-name="Ellipse 5" class="cls-2" transform="translate(1708 226)">
      <ellipse class="cls-4" cx="31.907" cy="32.203" rx="31.907" ry="32.203"/>
      <ellipse class="cls-5" cx="31.907" cy="32.203" rx="18.407" ry="18.703"/>
    </g>
    <g id="Group_340" data-name="Group 340" transform="translate(1477.244 -111.736)">
      <path id="Path_115" data-name="Path 115" class="cls-3" d="M242.672,315.327l-2.857,1.283L237,312.486l-4.647,2.086,1.2,4.85-2.82,1.267-5.441-24.8,2.429-1.091Zm-7.1-4.959-6.759-9.891-.07.032,3.005,11.576Z" transform="translate(3.169)"/>
      <path id="Path_116" data-name="Path 116" class="cls-3" d="M249.787,314.122l-3.04.593-4.934-25.253,3.04-.593Z" transform="translate(3.993)"/>
      <path id="Path_117" data-name="Path 117" class="cls-3" d="M265.508,313.626l-3.259-.06-4.429-9.193h-.076l-.167,9.108-3.1-.057.473-25.687,3.1.057-.293,15.935h.076l4.2-7.22,3.245.06-4.3,7.639Z" transform="translate(4.885)"/>
      <path id="Path_118" data-name="Path 118" class="cls-3" d="M278.409,317.211l-2.915-.865,3.524-11.875q.693-2.339-1.135-2.881-1.884-.559-2.654,2.041l-3.448,11.613-3.005-.892,7.309-24.629,3.006.892-2.863,9.649a4.7,4.7,0,0,1,3.736-.64q3.368,1,2.252,4.758Z" transform="translate(5.908)"/>
      <path id="Path_119" data-name="Path 119" class="cls-3" d="M290.839,324.371l-2.631-1.637,1.093-1.755-.08-.05q-2.225,1.328-3.823.332a3.549,3.549,0,0,1-1.58-2.809q-.221-1.963,2.634-6.552a18.7,18.7,0,0,1,4.437-5.384,3.221,3.221,0,0,1,3.806-.125,2.688,2.688,0,0,1,1.179,1.331,6.03,6.03,0,0,1,.272,2.077l.081.049.989-1.59,2.63,1.637Zm-2.948-4.844a1.625,1.625,0,0,0,2.107-.412,21.661,21.661,0,0,0,2.961-4.016,18.131,18.131,0,0,0,1.992-3.873,1.482,1.482,0,0,0-.606-1.859,1.593,1.593,0,0,0-1.96.158,13.752,13.752,0,0,0-2.61,3.363,25.976,25.976,0,0,0-2.411,4.53A1.6,1.6,0,0,0,287.891,319.527Z" transform="translate(7)"/>
      <path id="Path_120" data-name="Path 120" class="cls-3" d="M317.3,327.442l-15.513,8.166-1.436-1.639,6.51-8.406-.05-.057-9.2,5.331-1.346-1.537L306.4,315l1.885,2.151-7.03,9.234.052.059,10.01-5.833,1.045,1.194-7.07,9.247.052.059,10.037-5.861Z" transform="translate(9.007)"/>
      <path id="Path_121" data-name="Path 121" class="cls-3" d="M309.7,350.325l-1.308-2.808,1.874-.873-.039-.086q-2.589-.1-3.384-1.81a3.551,3.551,0,0,1,.212-3.217q.888-1.766,5.785-4.048A18.709,18.709,0,0,1,319.5,335.4a3.221,3.221,0,0,1,3.256,1.975,2.688,2.688,0,0,1,.26,1.759,6,6,0,0,1-.907,1.888l.041.085,1.7-.791,1.308,2.808Zm.178-5.668a1.624,1.624,0,0,0,1.99.806,21.649,21.649,0,0,0,4.675-1.745,18.115,18.115,0,0,0,3.783-2.156,1.483,1.483,0,0,0,.509-1.888,1.592,1.592,0,0,0-1.729-.938,13.714,13.714,0,0,0-4.022,1.39,25.965,25.965,0,0,0-4.495,2.477Q309.363,343.556,309.876,344.657Z" transform="translate(9.007)"/>
      <path id="Path_122" data-name="Path 122" class="cls-3" d="M313.481,371.168l-.4-3.072,12.325-1.589q2.457-.316,2.22-2.153-.255-1.984-3.2-1.606l-11.841,1.526-.392-3.034,12.557-1.619a2.466,2.466,0,0,0,1.52-.72,1.619,1.619,0,0,0,.471-1.384q-.261-2.023-2.95-1.677L311.706,357.4l-.395-3.072,16.909-2.18.4,3.11-1.528.2a4.323,4.323,0,0,1,2.258,3.175,3.343,3.343,0,0,1-1.7,3.456,4.538,4.538,0,0,1,2.546,3.424q.444,3.447-3.637,3.973Z" transform="translate(9.007)"/>
      <path id="Path_123" data-name="Path 123" class="cls-3" d="M306.338,392.262a5.354,5.354,0,0,1-3.307-2.323,5.131,5.131,0,0,1,.02-3.977,5.789,5.789,0,0,1,2.262-3.429q1.407-.792,4.183.13l-.916,2.82q-2.7-.719-3.3,1.123a1.806,1.806,0,0,0,1.37,2.541l4.862,1.579.022-.072a3.269,3.269,0,0,1-1.4-3.823,3.191,3.191,0,0,1,2.329-2.057q1.84-.55,7.5,1.288,5.1,1.656,6.25,3.079a3.166,3.166,0,0,1,.59,3.142,3.13,3.13,0,0,1-1.025,1.638,5.625,5.625,0,0,1-1.827.764l-.023.071,1.633.531-.946,2.91Zm6.152-3.156a1.479,1.479,0,0,0,.71,1.762,15.27,15.27,0,0,0,3.786,1.635,26.132,26.132,0,0,0,5.256,1.341,1.486,1.486,0,0,0,1.7-1.02,1.585,1.585,0,0,0-.732-1.819,12.979,12.979,0,0,0-3.692-1.673,28.377,28.377,0,0,0-5.056-1.3A1.623,1.623,0,0,0,312.49,389.106Z" transform="translate(9.007)"/>
      <path id="Path_124" data-name="Path 124" class="cls-3" d="M304.518,400.009l1.52-2.7,22.415,12.633-1.52,2.7Z" transform="translate(9.007)"/>
      <path id="Path_125" data-name="Path 125" class="cls-3" d="M311.862,419.178a4.568,4.568,0,0,1-3.886,1.658q-2.342-.129-6.368-3.613-3.774-3.268-4.134-5.566a4.654,4.654,0,0,1,1.074-3.953,4.447,4.447,0,0,1,4.265-1.679q2.474.392,5.807,3.277,4.086,3.537,4.424,5.828a4.756,4.756,0,0,1-1.133,3.991Zm-8.707-4.964a26.522,26.522,0,0,0,4.625,3.48,1.622,1.622,0,0,0,2.116-.268,1.541,1.541,0,0,0,.172-1.9,11.945,11.945,0,0,0-2.574-2.778q-3.909-3.383-5.082-3.787a1.592,1.592,0,0,0-1.878.411,1.529,1.529,0,0,0-.136,1.931A13.877,13.877,0,0,0,303.155,414.214Z" transform="translate(9.007)"/>
      <path id="Path_126" data-name="Path 126" class="cls-3" d="M306.553,435.814l-2.561,1.745-6.16-9.047-.062.043a3.245,3.245,0,0,1-1.216,3.92,3.346,3.346,0,0,1-3.31.224q-1.872-.756-4.574-4.72-3.293-4.84-3.46-6.861a3.323,3.323,0,0,1,1.567-3.2q1.656-1.127,4.03.348l.063-.043-1.329-1.951,2.529-1.722Zm-15.88-10.734a22.831,22.831,0,0,0,3.245,4.045,1.707,1.707,0,0,0,2.234.344,1.588,1.588,0,0,0,.546-1.883,12.736,12.736,0,0,0-1.876-3.561,22.86,22.86,0,0,0-3.332-4.139q-1.234-1.059-2.219-.389a1.6,1.6,0,0,0-.545,1.918A13.476,13.476,0,0,0,290.673,425.08Z" transform="translate(7.38)"/>
      <path id="Path_127" data-name="Path 127" class="cls-3" d="M270.413,425.313l2.929-1.007.673,1.955.089-.031q.373-2.564,2.155-3.174a3.551,3.551,0,0,1,3.177.548q1.662,1.068,3.418,6.178a18.668,18.668,0,0,1,1.375,6.84,3.219,3.219,0,0,1-2.3,3.03,2.7,2.7,0,0,1-1.777.076,6.043,6.043,0,0,1-1.782-1.1l-.089.03.608,1.772-2.929,1.007Zm5.617.771q-1.113.382-1.01,1.895a21.687,21.687,0,0,0,1.246,4.832,18.119,18.119,0,0,0,1.747,3.988,1.482,1.482,0,0,0,1.824.7,1.593,1.593,0,0,0,1.114-1.621,13.738,13.738,0,0,0-.96-4.146,26.078,26.078,0,0,0-1.992-4.73Q277.18,425.689,276.03,426.084Z" transform="translate(6.019)"/>
      <path id="Path_128" data-name="Path 128" class="cls-3" d="M262.588,426.315l3.076-.365L268.7,451.5l-3.077.366Z" transform="translate(5.22)"/>
      <path id="Path_129" data-name="Path 129" class="cls-3" d="M235.541,445.236l3.586.84,5.021-21.443,3.164.74-5.022,21.444,3.568.835-.645,2.755L234.9,447.991Z" transform="translate(3.675)"/>
      <path id="Path_130" data-name="Path 130" class="cls-3" d="M226.776,426.044l6.264,3.015a17.779,17.779,0,0,0,1.482-3.93,1.671,1.671,0,0,0-.96-2.032,1.43,1.43,0,0,0-1.649.115,6.739,6.739,0,0,0-1.475,2.148l-2.536-1.22q2.717-5.339,7.023-3.267,4.629,2.228.992,9.787-3.969,8.242-8.768,5.934a4.54,4.54,0,0,1-2.438-2.927q-.616-2.051,1.533-6.516Zm1.734,3.584a11.846,11.846,0,0,0-1.22,3.45,1.45,1.45,0,0,0,.815,1.616,1.56,1.56,0,0,0,1.959-.345,12.171,12.171,0,0,0,1.9-3.058Z" transform="translate(3.022)"/>
      <path id="Path_131" data-name="Path 131" class="cls-3" d="M220.614,412.03a6.368,6.368,0,0,1,2.649,1.173,3.924,3.924,0,0,1,1.519,4q-.444,2.4-3.349,5.976-3.087,3.8-5.439,4.326a4.354,4.354,0,0,1-3.891-.723,8.5,8.5,0,0,1-1.685-2.15l1.71-2.1a4.526,4.526,0,0,0,1.029,1.491,2.043,2.043,0,0,0,2.451.068,13.411,13.411,0,0,0,3.428-3.259q3.654-4.5,1.764-6.033a4.538,4.538,0,0,0-1.847-.722Z" transform="translate(2.131)"/>
      <path id="Path_132" data-name="Path 132" class="cls-3" d="M212.18,401.063l1.864,2.4-9.785,7.6q-1.926,1.5-.756,3,1.2,1.553,3.346-.111l9.57-7.428L218.341,409l-20.295,15.754-1.922-2.477,7.952-6.172a4.7,4.7,0,0,1-3.41-1.657q-2.155-2.775.943-5.179Z"/>
      <path id="Path_133" data-name="Path 133" class="cls-3" d="M193.07,401.14l1.506-.647-.03-.07a3.641,3.641,0,0,1-2.988-2.211q-1.417-3.3,2.293-4.891l12.222-5.253,1.209,2.811L195.9,395.77q-2.312.995-1.551,2.764a1.682,1.682,0,0,0,1.174,1.027,2.945,2.945,0,0,0,1.9-.251l11.381-4.891,1.223,2.846-15.717,6.756Z"/>
      <path id="Path_134" data-name="Path 134" class="cls-3" d="M186.979,381.41a4.565,4.565,0,0,1,1.246-4.036q1.611-1.7,6.873-2.523,4.933-.77,6.919.441a4.656,4.656,0,0,1,2.322,3.376,4.448,4.448,0,0,1-1.476,4.34q-1.9,1.633-6.253,2.312-5.34.832-7.307-.391a4.764,4.764,0,0,1-2.313-3.444Zm9.415-3.435a26.432,26.432,0,0,0-5.645,1.28,1.622,1.622,0,0,0-1.163,1.787,1.539,1.539,0,0,0,1.337,1.359,11.892,11.892,0,0,0,3.785-.168q5.108-.795,6.173-1.43a1.591,1.591,0,0,0,.9-1.7,1.528,1.528,0,0,0-1.386-1.352A13.856,13.856,0,0,0,196.394,377.975Z"/>
      <path id="Path_135" data-name="Path 135" class="cls-3" d="M203.581,365.766l-.122,3.1-25.71-1.006.121-3.1Z"/>
      <path id="Path_136" data-name="Path 136" class="cls-3" d="M188.252,352.088a4.57,4.57,0,0,1,2.686-3.262q2.136-.964,7.315.274,4.858,1.161,6.235,3.034a4.656,4.656,0,0,1,.867,4,4.446,4.446,0,0,1-3.012,3.455q-2.375.792-6.663-.233-5.254-1.257-6.612-3.135a4.758,4.758,0,0,1-.833-4.064Zm10.015.394a26.471,26.471,0,0,0-5.708-.957q-1.478.056-1.754,1.212a1.54,1.54,0,0,0,.721,1.765,11.959,11.959,0,0,0,3.565,1.28q5.028,1.2,6.255,1.019a1.588,1.588,0,0,0,1.477-1.229,1.528,1.528,0,0,0-.768-1.777A13.838,13.838,0,0,0,198.267,352.482Z"/>
      <path id="Path_137" data-name="Path 137" class="cls-3" d="M214.19,339.781a5.347,5.347,0,0,1,2.887,2.828,5.13,5.13,0,0,1-.664,3.921,5.789,5.789,0,0,1-2.788,3.017q-1.517.553-4.107-.806l1.361-2.635q2.549,1.148,3.436-.574a1.8,1.8,0,0,0-.94-2.728l-4.541-2.346-.034.067a3.268,3.268,0,0,1,.766,4,3.188,3.188,0,0,1-2.631,1.652q-1.905.244-7.192-2.485-4.767-2.461-5.669-4.052a3.168,3.168,0,0,1-.072-3.2,3.133,3.133,0,0,1,1.276-1.451,5.633,5.633,0,0,1,1.927-.457l.034-.067-1.525-.788,1.4-2.719Zm-6.582,2.117a1.48,1.48,0,0,0-.415-1.854,15.247,15.247,0,0,0-3.471-2.227,26.122,26.122,0,0,0-4.97-2.175,1.486,1.486,0,0,0-1.838.732,1.584,1.584,0,0,0,.428,1.914,13.013,13.013,0,0,0,3.372,2.249,28.329,28.329,0,0,0,4.779,2.1A1.622,1.622,0,0,0,207.608,341.9Z"/>
      <path id="Path_138" data-name="Path 138" class="cls-3" d="M209.59,315.475l13.162,22.164-1.8,2.01L216,331.583l-14.55-7.041,2.066-2.3,10.544,5.817.054-.058-6.49-10.336Z" transform="translate(1.627)"/>
    </g>
  </g>
</svg>
