<svg xmlns="http://www.w3.org/2000/svg" viewBox="0 0 240.34 206.95"><defs><style>.cls-1{fill:#29363c;}.cls-2{fill:#e11929;}</style></defs><g id="Layer_2" data-name="Layer 2"><g id="Layer_2-2" data-name="Layer 2"><polygon class="cls-1" points="199.32 180.73 0 180.73 0 0 34.77 0 34.77 150.29 168.43 150.29 199.32 180.73"/><polygon class="cls-2" points="165.32 146.07 110.34 146.07 50.49 86.23 50.49 146.21 37.94 146.21 37.94 0 50.49 0 50.49 61.54 111.87 0.16 164.43 0.16 91.92 72.67 165.32 146.07"/><rect class="cls-2" x="173.53" y="65.31" width="66.81" height="8.04"/><polygon class="cls-2" points="240.34 78.45 240.34 86.25 217.96 86.25 217.96 181.28 209.96 173.34 209.96 78.45 240.34 78.45"/><text/><path class="cls-2" d="M141.61,69.17a38.45,38.45,0,0,0,61.28,31v7.07a44.35,44.35,0,1,1,8.89-69l-4.23,4.09a38.45,38.45,0,0,0-65.94,26.88Z"/><path class="cls-2" d="M173.93,78.7v8h22.48a24.15,24.15,0,1,1,1.18-33.6l4.24-3.88A29.91,29.91,0,1,0,204,86.74c.18-.24.35-.49.51-.73V78.7Z"/></g></g></svg>